M48
;GenerationSoftware,Autodesk,EAGLE,9.7.0*%
;CreationDate,2024-02-26T14:36:54Z*%
FMAT,2
ICI,OFF
METRIC,TZ,000.000
T4C0.350
T3C0.500
T2C0.914
T1C1.400
%
G90
M71
T1
X-46776Y29974
X-51776Y29974
T2
X7874Y-9124
X30480Y22098
X30480Y19050
X-6350Y6448
X-3810Y6448
X-1270Y6448
X1270Y6448
X3810Y6448
X6350Y6448
X14097Y-9144
X14097Y-6604
X14097Y-4064
X14097Y-1524
X14097Y1016
X14097Y3556
X14097Y6096
X14097Y8636
X26797Y8636
X26797Y6096
X26797Y3556
X26797Y1016
X26797Y-1524
X26797Y-4064
X26797Y-6604
X26797Y-9144
X-14605Y8636
X7874Y-6624
X-14605Y3556
X-14605Y1016
X-14605Y-1524
X-14605Y-4064
X-14605Y-6604
X-14605Y-9144
X-27305Y-9144
X-27305Y-6604
X-27305Y-4064
X-27305Y-1524
X-27305Y1016
X-27305Y3556
X-27305Y6096
X-27305Y8636
X-6731Y2139
X-14605Y6096
X-11541Y-2438
X-11541Y102
X-11541Y2642
X-11541Y5182
X11033Y5182
X11033Y2642
X11033Y102
X11033Y-2438
X-6731Y-361
T3
X44317Y-11303
X47117Y-13453
X49917Y-11303
T4
X-42164Y13716
X-45212Y15240
X-45212Y16256
X38786Y21336
X39802Y21336
X40818Y21336
X41834Y21336
X41326Y20320
X40310Y20320
X39294Y20320
X38786Y19304
X39802Y19304
X40818Y19304
X41834Y19304
X41326Y18288
X40310Y18288
X39294Y18288
X38786Y17272
X39802Y17272
X40818Y17272
X41834Y17272
X42342Y18288
X42342Y20320
X38278Y20320
X38278Y18288
X-38354Y25781
X-39751Y25781
X-38989Y24892
X-35941Y20320
X-37338Y20320
X-38735Y20320
X27610Y-12192
X-12446Y-10262
X-47276Y3048
X36347Y3556
X-52324Y14732
X-52324Y15748
X-52324Y16764
X-53340Y16256
X-53340Y15240
X-53340Y17272
X18669Y-12268
X36119Y7645
X39522Y1499
X39522Y76
X39522Y-1397
X-19279Y-2731
X-18720Y-2731
X-19025Y-2248
X-19025Y1740
X-18694Y2223
X-19279Y2223
X18771Y2223
X18212Y2223
X18517Y1740
X18517Y-2248
X18186Y-2731
X18771Y-2731
X-45365Y27537
X-44540Y27062
X-45365Y26510
X-44540Y25933
X-45378Y25502
X19799Y-4064
X19571Y-3505
X19164Y-4013
X-24460Y-8560
X23952Y8052
X-36068Y9144
X-37084Y9144
X-38100Y9144
X-39116Y9144
X-40132Y9144
X-41148Y9144
X-22479Y-254
X-40640Y10160
X-39624Y10160
X-38608Y10160
X-41148Y11176
X42367Y-9224
X-11633Y-10947
X27661Y-13411
X-10160Y-11684
X-5080Y-11684
X0Y-11684
X5080Y-11684
X10160Y-11684
X-47276Y-5842
X-47276Y2032
X-47276Y9906
X36347Y2540
X34671Y25756
X28886Y4185
X28864Y2540
X49505Y2743
X44425Y-6452
X52451Y19710
X47117Y-8407
X44022Y-4245
X43307Y-4953
X46459Y-9154
X46914Y-1321
X53213Y21920
X47854Y-1346
X53848Y23190
X34671Y24435
X45644Y3150
X42494Y3175
X32969Y4877
X48641Y24435
X-47276Y1016
X3014Y-12446
X32690Y3556
X48641Y20650
X-47250Y35
X3835Y-13142
X31502Y11786
X31502Y13056
X31502Y14326
X-25985Y-1676
X-25654Y-4724
X-20307Y-4064
X-20079Y-3505
X-19672Y-4013
X-20307Y3556
X-20079Y2997
X-19672Y3505
X19799Y3556
X19571Y2997
X19164Y3505
X25477Y1168
X25146Y4216
X46660Y11760
X-10058Y-10668
X-47276Y-7874
X52400Y16840
X-47276Y-9906
X52095Y25705
X-47276Y-8890
X52426Y18110
X31140Y-7061
X36068Y23114
X30380Y-8171
X35357Y21920
X31502Y15570
X31496Y16764
X-47276Y-6858
X52400Y15570
X34671Y18110
X-44196Y13716
X-42164Y14732
X-44196Y14732
X-43180Y14224
X-45212Y14224
X-46228Y16764
X-46228Y15748
X-46228Y14732
X-46228Y13716
X-47244Y14224
X-47244Y15240
X-47244Y16256
X-48260Y16764
X-48260Y15748
X-48260Y14732
X-48260Y13716
X-49276Y14224
X-49276Y15240
X-49276Y16256
X-50292Y16764
X-50292Y15748
X-50292Y14732
X-50292Y13716
X-51308Y14224
X-51308Y15240
X-51308Y16256
X-51308Y17272
X18948Y5410
X24663Y-9169
X19253Y4801
X19609Y5309
X21209Y5029
X25121Y8077
X22987Y762
X22987Y-1270
X22987Y-254
X20955Y762
X20955Y-1270
X20955Y-254
X21971Y762
X21971Y-1270
X21971Y-254
X-19456Y-5918
X-25171Y8661
X-19761Y-5309
X-20117Y-5817
X-21717Y-5537
X-25629Y-8585
X-23495Y-1270
X-23495Y762
X-23495Y-254
X-21463Y-1270
X-21463Y762
X-21463Y-254
X-22479Y-1270
X-22479Y762
X-41656Y10160
M30