G04 EAGLE Gerber RS-274X export*
G75*
%MOMM*%
%FSLAX34Y34*%
%LPD*%
%INCopper Layer 15*%
%IPPOS*%
%AMOC8*
5,1,8,0,0,1.08239X$1,22.5*%
G01*
G04 Define Apertures*
%ADD10C,1.422400*%
%ADD11C,2.100000*%
%ADD12C,1.008000*%
%ADD13C,0.756400*%
%ADD14C,2.032000*%
%ADD15C,0.228600*%
G36*
X-424671Y-155319D02*
X-425265Y-155440D01*
X-540000Y-155440D01*
X-540394Y-155388D01*
X-542727Y-154763D01*
X-543411Y-154369D01*
X-545119Y-152661D01*
X-545513Y-151977D01*
X-546138Y-149644D01*
X-546190Y-149250D01*
X-546190Y336366D01*
X-546138Y336760D01*
X-545513Y339093D01*
X-545119Y339777D01*
X-543411Y341485D01*
X-542727Y341879D01*
X-540394Y342504D01*
X-540000Y342556D01*
X-295000Y342556D01*
X-294606Y342504D01*
X-292273Y341879D01*
X-291589Y341485D01*
X-289882Y339777D01*
X-289487Y339093D01*
X-288862Y336760D01*
X-288810Y336366D01*
X-288810Y143619D01*
X-288037Y141754D01*
X-287923Y141243D01*
X-288015Y140644D01*
X-288334Y140128D01*
X-288829Y139777D01*
X-289421Y139647D01*
X-290017Y139758D01*
X-290523Y140093D01*
X-326297Y175867D01*
X-330964Y177800D01*
X-381204Y177800D01*
X-381776Y177911D01*
X-382282Y178246D01*
X-437704Y233668D01*
X-438029Y234151D01*
X-438150Y234746D01*
X-438150Y276084D01*
X-440083Y280752D01*
X-443656Y284325D01*
X-448324Y286258D01*
X-453376Y286258D01*
X-458044Y284325D01*
X-461617Y280752D01*
X-463550Y276084D01*
X-463550Y226328D01*
X-461617Y221660D01*
X-394290Y154333D01*
X-389622Y152400D01*
X-339382Y152400D01*
X-338810Y152289D01*
X-338305Y151954D01*
X-293949Y107597D01*
X-289281Y105664D01*
X-183946Y105664D01*
X-183374Y105553D01*
X-182868Y105218D01*
X-166769Y89119D01*
X-166453Y88658D01*
X-166323Y88065D01*
X-166434Y87469D01*
X-166769Y86964D01*
X-181709Y72024D01*
X-183642Y67357D01*
X-183642Y42468D01*
X-183753Y41896D01*
X-184088Y41390D01*
X-188427Y37051D01*
X-188877Y36740D01*
X-189469Y36605D01*
X-190066Y36712D01*
X-190574Y37043D01*
X-190913Y37546D01*
X-191363Y38633D01*
X-193142Y40412D01*
X-195465Y41374D01*
X-197980Y41374D01*
X-198702Y41075D01*
X-199273Y40959D01*
X-199868Y41075D01*
X-201816Y41882D01*
X-204331Y41882D01*
X-206654Y40920D01*
X-208433Y39141D01*
X-209395Y36818D01*
X-209395Y34302D01*
X-208433Y31979D01*
X-207555Y31102D01*
X-207230Y30618D01*
X-207109Y30024D01*
X-207109Y28714D01*
X-206147Y26391D01*
X-204368Y24612D01*
X-202905Y24006D01*
X-202437Y23702D01*
X-202090Y23204D01*
X-201964Y22611D01*
X-202080Y22015D01*
X-202946Y19925D01*
X-202946Y14873D01*
X-201013Y10205D01*
X-197440Y6632D01*
X-192772Y4699D01*
X-187593Y4699D01*
X-185749Y5463D01*
X-185215Y5578D01*
X-184617Y5476D01*
X-184106Y5149D01*
X-183763Y4649D01*
X-183642Y4055D01*
X-183642Y2717D01*
X-183753Y2145D01*
X-184088Y1639D01*
X-201013Y-15285D01*
X-202946Y-19953D01*
X-202946Y-25005D01*
X-202080Y-27095D01*
X-201965Y-27642D01*
X-202071Y-28239D01*
X-202402Y-28747D01*
X-202905Y-29086D01*
X-204368Y-29692D01*
X-206147Y-31471D01*
X-207109Y-33794D01*
X-207109Y-35104D01*
X-207220Y-35676D01*
X-207555Y-36182D01*
X-208433Y-37059D01*
X-209395Y-39382D01*
X-209395Y-41898D01*
X-208433Y-44221D01*
X-206654Y-46000D01*
X-204331Y-46962D01*
X-204108Y-46962D01*
X-203581Y-47056D01*
X-203065Y-47375D01*
X-202714Y-47869D01*
X-202584Y-48462D01*
X-202695Y-49058D01*
X-202938Y-49425D01*
X-204013Y-52018D01*
X-204334Y-52504D01*
X-204679Y-52736D01*
X-206528Y-54585D01*
X-207490Y-56908D01*
X-207490Y-59424D01*
X-206528Y-61747D01*
X-204749Y-63526D01*
X-202426Y-64488D01*
X-199910Y-64488D01*
X-199641Y-64376D01*
X-199082Y-64261D01*
X-198486Y-64372D01*
X-198370Y-64449D01*
X-195822Y-65504D01*
X-193306Y-65504D01*
X-190983Y-64542D01*
X-189204Y-62763D01*
X-188242Y-60440D01*
X-188242Y-57924D01*
X-189204Y-55601D01*
X-190844Y-53962D01*
X-191169Y-53478D01*
X-191290Y-52884D01*
X-191290Y-51828D01*
X-192252Y-49505D01*
X-193738Y-48019D01*
X-194049Y-47570D01*
X-194184Y-46978D01*
X-194078Y-46381D01*
X-193747Y-45873D01*
X-193244Y-45534D01*
X-193142Y-45492D01*
X-191363Y-43713D01*
X-190401Y-41390D01*
X-190401Y-38874D01*
X-191059Y-37286D01*
X-191174Y-36752D01*
X-191072Y-36154D01*
X-190746Y-35643D01*
X-190245Y-35300D01*
X-189651Y-35179D01*
X-187720Y-35179D01*
X-183052Y-33246D01*
X-160175Y-10369D01*
X-158242Y-5701D01*
X-158242Y6711D01*
X-158152Y7226D01*
X-157838Y7744D01*
X-157346Y8099D01*
X-156754Y8234D01*
X-156157Y8128D01*
X-155649Y7797D01*
X-155310Y7294D01*
X-154233Y4693D01*
X-151517Y1977D01*
X-147970Y508D01*
X-144130Y508D01*
X-140583Y1977D01*
X-137867Y4693D01*
X-136398Y8240D01*
X-136398Y12080D01*
X-137867Y15627D01*
X-140583Y18343D01*
X-144130Y19812D01*
X-147970Y19812D01*
X-151517Y18343D01*
X-154233Y15627D01*
X-155310Y13026D01*
X-155590Y12585D01*
X-156079Y12226D01*
X-156669Y12086D01*
X-157267Y12188D01*
X-157778Y12515D01*
X-158121Y13015D01*
X-158242Y13609D01*
X-158242Y32111D01*
X-158152Y32626D01*
X-157838Y33144D01*
X-157346Y33499D01*
X-156754Y33634D01*
X-156157Y33528D01*
X-155649Y33197D01*
X-155310Y32694D01*
X-154233Y30093D01*
X-151517Y27377D01*
X-147970Y25908D01*
X-144130Y25908D01*
X-140583Y27377D01*
X-137867Y30093D01*
X-136398Y33640D01*
X-136398Y37480D01*
X-137867Y41027D01*
X-140583Y43743D01*
X-144130Y45212D01*
X-147970Y45212D01*
X-151517Y43743D01*
X-154233Y41027D01*
X-155310Y38426D01*
X-155590Y37985D01*
X-156079Y37626D01*
X-156669Y37486D01*
X-157267Y37588D01*
X-157778Y37915D01*
X-158121Y38415D01*
X-158242Y39009D01*
X-158242Y57511D01*
X-158152Y58026D01*
X-157838Y58544D01*
X-157346Y58899D01*
X-156754Y59034D01*
X-156157Y58928D01*
X-155649Y58597D01*
X-155310Y58094D01*
X-154233Y55493D01*
X-151517Y52777D01*
X-147970Y51308D01*
X-144130Y51308D01*
X-140583Y52777D01*
X-137867Y55493D01*
X-136398Y59040D01*
X-136398Y62880D01*
X-137867Y66427D01*
X-140583Y69143D01*
X-144194Y70638D01*
X-144653Y70935D01*
X-145004Y71430D01*
X-145134Y72022D01*
X-145023Y72618D01*
X-144688Y73124D01*
X-144598Y73214D01*
X-144115Y73539D01*
X-143521Y73660D01*
X-121242Y73660D01*
X-120670Y73549D01*
X-120164Y73214D01*
X-110250Y63299D01*
X-109949Y62871D01*
X-109805Y62282D01*
X-109901Y61683D01*
X-110224Y61170D01*
X-110722Y60823D01*
X-111315Y60697D01*
X-111911Y60813D01*
X-113491Y61468D01*
X-117331Y61468D01*
X-120878Y59999D01*
X-123594Y57283D01*
X-125063Y53736D01*
X-125063Y49896D01*
X-123594Y46349D01*
X-120878Y43633D01*
X-117331Y42164D01*
X-113491Y42164D01*
X-109944Y43633D01*
X-107228Y46349D01*
X-105759Y49896D01*
X-105759Y53736D01*
X-106414Y55316D01*
X-106528Y55827D01*
X-106436Y56426D01*
X-106117Y56942D01*
X-105622Y57293D01*
X-105030Y57423D01*
X-104434Y57312D01*
X-103928Y56977D01*
X-102046Y55096D01*
X-101721Y54612D01*
X-101600Y54018D01*
X-101600Y40454D01*
X-99667Y35786D01*
X-74504Y10623D01*
X-69736Y8648D01*
X-69285Y8360D01*
X-68930Y7868D01*
X-68795Y7277D01*
X-68902Y6680D01*
X-69233Y6171D01*
X-69736Y5832D01*
X-72777Y4573D01*
X-75493Y1857D01*
X-76962Y-1690D01*
X-76962Y-5530D01*
X-75493Y-9077D01*
X-72777Y-11793D01*
X-69230Y-13262D01*
X-65390Y-13262D01*
X-61843Y-11793D01*
X-59127Y-9077D01*
X-57658Y-5530D01*
X-57658Y-1690D01*
X-59127Y1857D01*
X-61843Y4573D01*
X-64705Y5758D01*
X-65146Y6038D01*
X-65505Y6527D01*
X-65645Y7117D01*
X-65543Y7715D01*
X-65216Y8226D01*
X-64716Y8569D01*
X-64121Y8690D01*
X8278Y8690D01*
X8850Y8579D01*
X9356Y8244D01*
X28256Y-10656D01*
X28581Y-11139D01*
X28702Y-11734D01*
X28702Y-72884D01*
X30635Y-77552D01*
X55290Y-102207D01*
X59958Y-104140D01*
X81066Y-104140D01*
X81269Y-104056D01*
X81852Y-103940D01*
X98288Y-103940D01*
X98871Y-104056D01*
X99074Y-104140D01*
X151878Y-104140D01*
X156546Y-102207D01*
X176629Y-82124D01*
X178562Y-77456D01*
X178562Y-47675D01*
X178673Y-47103D01*
X179008Y-46597D01*
X183385Y-42221D01*
X183834Y-41910D01*
X184426Y-41775D01*
X185023Y-41882D01*
X185531Y-42212D01*
X185870Y-42715D01*
X186283Y-43713D01*
X188062Y-45492D01*
X190385Y-46454D01*
X192900Y-46454D01*
X193622Y-46155D01*
X194193Y-46039D01*
X194788Y-46155D01*
X196736Y-46962D01*
X199251Y-46962D01*
X201574Y-46000D01*
X203353Y-44221D01*
X204315Y-41898D01*
X204315Y-39382D01*
X203353Y-37059D01*
X202475Y-36182D01*
X202150Y-35698D01*
X202029Y-35104D01*
X202029Y-33794D01*
X201067Y-31471D01*
X199288Y-29692D01*
X197825Y-29086D01*
X197357Y-28782D01*
X197010Y-28284D01*
X196884Y-27691D01*
X197000Y-27095D01*
X197866Y-25005D01*
X197866Y-19953D01*
X195933Y-15285D01*
X192360Y-11712D01*
X187692Y-9779D01*
X182640Y-9779D01*
X180669Y-10595D01*
X180135Y-10710D01*
X179537Y-10609D01*
X179026Y-10282D01*
X178683Y-9782D01*
X178562Y-9187D01*
X178562Y-7797D01*
X178673Y-7225D01*
X179008Y-6719D01*
X195933Y10205D01*
X197866Y14873D01*
X197866Y19925D01*
X197000Y22015D01*
X196885Y22562D01*
X196991Y23159D01*
X197322Y23667D01*
X197825Y24006D01*
X199288Y24612D01*
X201067Y26391D01*
X202029Y28714D01*
X202029Y30024D01*
X202140Y30596D01*
X202475Y31102D01*
X203353Y31979D01*
X204315Y34302D01*
X204315Y36818D01*
X203353Y39141D01*
X201574Y40920D01*
X199251Y41882D01*
X199028Y41882D01*
X198501Y41976D01*
X197985Y42295D01*
X197634Y42789D01*
X197504Y43382D01*
X197615Y43978D01*
X197858Y44345D01*
X198933Y46938D01*
X199254Y47424D01*
X199599Y47656D01*
X201448Y49505D01*
X202410Y51828D01*
X202410Y54344D01*
X201448Y56667D01*
X199669Y58446D01*
X197346Y59408D01*
X194830Y59408D01*
X194561Y59296D01*
X194002Y59181D01*
X193406Y59292D01*
X193290Y59369D01*
X190742Y60424D01*
X188226Y60424D01*
X185903Y59462D01*
X184124Y57683D01*
X183162Y55360D01*
X183162Y52844D01*
X184124Y50521D01*
X185764Y48882D01*
X186089Y48398D01*
X186210Y47804D01*
X186210Y46748D01*
X187172Y44425D01*
X188658Y42939D01*
X188969Y42490D01*
X189104Y41898D01*
X188998Y41301D01*
X188667Y40793D01*
X188164Y40454D01*
X188062Y40412D01*
X186283Y38633D01*
X185321Y36310D01*
X185321Y33794D01*
X185979Y32206D01*
X186094Y31672D01*
X185992Y31074D01*
X185666Y30563D01*
X185165Y30220D01*
X184571Y30099D01*
X182640Y30099D01*
X177972Y28166D01*
X155095Y5289D01*
X153162Y621D01*
X153162Y-11791D01*
X153072Y-12306D01*
X152758Y-12824D01*
X152266Y-13179D01*
X151674Y-13314D01*
X151077Y-13208D01*
X150569Y-12877D01*
X150230Y-12374D01*
X149153Y-9773D01*
X146437Y-7057D01*
X142890Y-5588D01*
X139050Y-5588D01*
X135503Y-7057D01*
X132787Y-9773D01*
X131318Y-13320D01*
X131318Y-17160D01*
X132787Y-20707D01*
X135503Y-23423D01*
X139050Y-24892D01*
X142890Y-24892D01*
X146437Y-23423D01*
X149153Y-20707D01*
X150230Y-18106D01*
X150510Y-17665D01*
X150999Y-17306D01*
X151589Y-17166D01*
X152187Y-17268D01*
X152698Y-17595D01*
X153041Y-18095D01*
X153162Y-18689D01*
X153162Y-37191D01*
X153072Y-37706D01*
X152758Y-38224D01*
X152266Y-38579D01*
X151674Y-38714D01*
X151077Y-38608D01*
X150569Y-38277D01*
X150230Y-37774D01*
X149153Y-35173D01*
X146437Y-32457D01*
X142890Y-30988D01*
X139050Y-30988D01*
X135503Y-32457D01*
X132787Y-35173D01*
X131318Y-38720D01*
X131318Y-42560D01*
X132787Y-46107D01*
X135503Y-48823D01*
X139050Y-50292D01*
X142890Y-50292D01*
X146437Y-48823D01*
X149153Y-46107D01*
X150230Y-43506D01*
X150510Y-43065D01*
X150999Y-42706D01*
X151589Y-42566D01*
X152187Y-42668D01*
X152698Y-42995D01*
X153041Y-43495D01*
X153162Y-44089D01*
X153162Y-62591D01*
X153072Y-63106D01*
X152758Y-63624D01*
X152266Y-63979D01*
X151674Y-64114D01*
X151077Y-64008D01*
X150569Y-63677D01*
X150230Y-63174D01*
X149153Y-60573D01*
X146437Y-57857D01*
X142890Y-56388D01*
X139050Y-56388D01*
X135503Y-57857D01*
X132787Y-60573D01*
X131318Y-64120D01*
X131318Y-67960D01*
X132787Y-71507D01*
X135503Y-74223D01*
X139330Y-75808D01*
X139772Y-76088D01*
X140131Y-76577D01*
X140270Y-77167D01*
X140169Y-77765D01*
X139842Y-78276D01*
X139341Y-78619D01*
X138747Y-78740D01*
X104712Y-78740D01*
X104129Y-78624D01*
X103926Y-78540D01*
X81929Y-78540D01*
X81413Y-78450D01*
X80895Y-78136D01*
X80540Y-77644D01*
X80405Y-77052D01*
X80512Y-76455D01*
X80843Y-75947D01*
X81346Y-75608D01*
X84207Y-74423D01*
X86923Y-71707D01*
X88392Y-68160D01*
X88392Y-64320D01*
X86923Y-60773D01*
X84207Y-58057D01*
X80660Y-56588D01*
X76820Y-56588D01*
X73273Y-58057D01*
X70557Y-60773D01*
X69088Y-64320D01*
X69088Y-68160D01*
X70557Y-71707D01*
X73273Y-74423D01*
X76314Y-75682D01*
X76765Y-75971D01*
X77120Y-76463D01*
X77255Y-77054D01*
X77148Y-77651D01*
X76817Y-78159D01*
X76314Y-78498D01*
X76011Y-78624D01*
X75428Y-78740D01*
X68376Y-78740D01*
X67804Y-78629D01*
X67298Y-78294D01*
X54548Y-65544D01*
X54223Y-65061D01*
X54102Y-64466D01*
X54102Y-3316D01*
X52169Y1352D01*
X21364Y32157D01*
X16696Y34090D01*
X-61418Y34090D01*
X-61990Y34201D01*
X-62496Y34536D01*
X-75754Y47794D01*
X-76079Y48277D01*
X-76200Y48872D01*
X-76200Y62257D01*
X-76178Y62383D01*
X-78133Y67104D01*
X-101873Y90843D01*
X-102174Y91271D01*
X-102318Y91860D01*
X-102221Y92459D01*
X-101898Y92972D01*
X-101401Y93319D01*
X-100807Y93445D01*
X-100212Y93329D01*
X-98347Y92556D01*
X98347Y92556D01*
X103423Y94658D01*
X107308Y98543D01*
X109410Y103619D01*
X109410Y126366D01*
X109462Y126760D01*
X110087Y129093D01*
X110482Y129777D01*
X112189Y131485D01*
X112873Y131879D01*
X115206Y132504D01*
X115600Y132556D01*
X277747Y132556D01*
X282823Y134658D01*
X286708Y138543D01*
X288810Y143619D01*
X288810Y278962D01*
X288912Y279511D01*
X289239Y280022D01*
X289740Y280365D01*
X290334Y280486D01*
X544666Y280486D01*
X545215Y280384D01*
X545726Y280057D01*
X546069Y279556D01*
X546190Y278962D01*
X546190Y246505D01*
X546096Y245978D01*
X545777Y245462D01*
X545283Y245111D01*
X544690Y244981D01*
X544094Y245092D01*
X543588Y245427D01*
X528285Y260731D01*
X526843Y260731D01*
X526271Y260842D01*
X525765Y261177D01*
X524535Y262408D01*
X522212Y263370D01*
X519696Y263370D01*
X517373Y262408D01*
X515594Y260629D01*
X514632Y258306D01*
X514632Y255790D01*
X515594Y253467D01*
X517373Y251688D01*
X519696Y250726D01*
X522212Y250726D01*
X524535Y251688D01*
X524645Y251798D01*
X525106Y252114D01*
X525698Y252244D01*
X526295Y252133D01*
X526800Y251798D01*
X537838Y240760D01*
X538150Y240310D01*
X538284Y239719D01*
X538178Y239122D01*
X537847Y238613D01*
X537344Y238274D01*
X534899Y237262D01*
X533120Y235483D01*
X532158Y233160D01*
X532158Y230644D01*
X533120Y228321D01*
X533316Y228126D01*
X533622Y227687D01*
X533761Y227097D01*
X533660Y226499D01*
X533333Y225988D01*
X532832Y225645D01*
X532238Y225524D01*
X530872Y225524D01*
X528549Y224562D01*
X526770Y222783D01*
X525808Y220460D01*
X525808Y217944D01*
X526770Y215621D01*
X528549Y213842D01*
X530872Y212880D01*
X533388Y212880D01*
X535711Y213842D01*
X537490Y215621D01*
X538432Y217896D01*
X538712Y218338D01*
X539201Y218697D01*
X539791Y218836D01*
X540389Y218735D01*
X540900Y218408D01*
X541243Y217907D01*
X541364Y217313D01*
X541364Y172882D01*
X541270Y172355D01*
X540951Y171839D01*
X540457Y171488D01*
X539864Y171358D01*
X539268Y171469D01*
X538762Y171804D01*
X531024Y179542D01*
X530699Y180025D01*
X530578Y180620D01*
X530578Y182360D01*
X529616Y184683D01*
X527837Y186462D01*
X525514Y187424D01*
X522998Y187424D01*
X520675Y186462D01*
X518896Y184683D01*
X517934Y182360D01*
X517934Y179844D01*
X518896Y177521D01*
X520461Y175957D01*
X520777Y175496D01*
X520907Y174903D01*
X520796Y174307D01*
X520461Y173801D01*
X518642Y171983D01*
X517680Y169660D01*
X517680Y167144D01*
X518642Y164821D01*
X520334Y163130D01*
X520650Y162669D01*
X520780Y162076D01*
X520669Y161480D01*
X520334Y160974D01*
X518642Y159283D01*
X517680Y156960D01*
X517680Y154444D01*
X518642Y152121D01*
X519873Y150891D01*
X520198Y150407D01*
X520319Y149813D01*
X520319Y-14861D01*
X520208Y-15433D01*
X519873Y-15939D01*
X399225Y-136587D01*
X398742Y-136912D01*
X398147Y-137033D01*
X255395Y-137033D01*
X254868Y-136939D01*
X254352Y-136620D01*
X254001Y-136126D01*
X253871Y-135533D01*
X253982Y-134937D01*
X254317Y-134431D01*
X267174Y-121574D01*
X267613Y-121268D01*
X268203Y-121129D01*
X268801Y-121230D01*
X269312Y-121557D01*
X269655Y-122057D01*
X269776Y-122652D01*
X269776Y-123178D01*
X270738Y-125501D01*
X272517Y-127280D01*
X274840Y-128242D01*
X277356Y-128242D01*
X279679Y-127280D01*
X281458Y-125501D01*
X282420Y-123178D01*
X282420Y-120662D01*
X281458Y-118339D01*
X279679Y-116560D01*
X277356Y-115598D01*
X276830Y-115598D01*
X276303Y-115504D01*
X275787Y-115185D01*
X275436Y-114691D01*
X275306Y-114098D01*
X275417Y-113502D01*
X275752Y-112996D01*
X298323Y-90426D01*
X298323Y-88568D01*
X298421Y-88030D01*
X298744Y-87517D01*
X299241Y-87170D01*
X299835Y-87044D01*
X300430Y-87160D01*
X302542Y-88035D01*
X305057Y-88035D01*
X307381Y-87073D01*
X309159Y-85294D01*
X310122Y-82971D01*
X310122Y-80456D01*
X309536Y-79041D01*
X309421Y-78507D01*
X309522Y-77909D01*
X309849Y-77398D01*
X310349Y-77055D01*
X310944Y-76934D01*
X312662Y-76934D01*
X314985Y-75972D01*
X316764Y-74193D01*
X317726Y-71870D01*
X317726Y-69354D01*
X316764Y-67031D01*
X314985Y-65252D01*
X312662Y-64290D01*
X310146Y-64290D01*
X307823Y-65252D01*
X306044Y-67031D01*
X305082Y-69354D01*
X305082Y-71870D01*
X305668Y-73284D01*
X305783Y-73818D01*
X305681Y-74416D01*
X305354Y-74927D01*
X304854Y-75270D01*
X304260Y-75391D01*
X302542Y-75391D01*
X300430Y-76266D01*
X299896Y-76381D01*
X299298Y-76279D01*
X298787Y-75952D01*
X298444Y-75452D01*
X298323Y-74858D01*
X298323Y1145D01*
X298434Y1717D01*
X298769Y2223D01*
X325338Y28792D01*
X325821Y29117D01*
X326416Y29238D01*
X328156Y29238D01*
X330479Y30200D01*
X332258Y31979D01*
X333220Y34302D01*
X333220Y36042D01*
X333331Y36614D01*
X333666Y37120D01*
X348297Y51751D01*
X348780Y52076D01*
X349375Y52197D01*
X362206Y52197D01*
X482882Y172873D01*
X482882Y197134D01*
X482993Y197706D01*
X483328Y198212D01*
X484850Y199734D01*
X485333Y200059D01*
X485928Y200180D01*
X487668Y200180D01*
X489991Y201142D01*
X491770Y202921D01*
X492732Y205244D01*
X492732Y207760D01*
X491770Y210083D01*
X489991Y211862D01*
X487668Y212824D01*
X485152Y212824D01*
X482829Y211862D01*
X481050Y210083D01*
X480088Y207760D01*
X480088Y206020D01*
X479977Y205448D01*
X479642Y204942D01*
X479487Y204787D01*
X479048Y204481D01*
X478458Y204342D01*
X477860Y204443D01*
X477349Y204770D01*
X477006Y205270D01*
X476885Y205865D01*
X476885Y228983D01*
X476996Y229555D01*
X477331Y230061D01*
X484850Y237580D01*
X485333Y237905D01*
X485928Y238026D01*
X487668Y238026D01*
X489991Y238988D01*
X491770Y240767D01*
X492732Y243090D01*
X492732Y245606D01*
X491770Y247929D01*
X489991Y249708D01*
X487668Y250670D01*
X485152Y250670D01*
X482829Y249708D01*
X481050Y247929D01*
X480088Y245606D01*
X480088Y243866D01*
X479977Y243294D01*
X479642Y242788D01*
X469519Y232666D01*
X469519Y178041D01*
X469408Y177469D01*
X469073Y176963D01*
X369800Y77690D01*
X369350Y77379D01*
X368758Y77244D01*
X368161Y77351D01*
X367653Y77682D01*
X367314Y78185D01*
X366548Y80035D01*
X364769Y81814D01*
X362446Y82776D01*
X359930Y82776D01*
X357607Y81814D01*
X355828Y80035D01*
X354866Y77712D01*
X354866Y75196D01*
X355828Y72873D01*
X357607Y71094D01*
X359457Y70328D01*
X359917Y70031D01*
X360268Y69537D01*
X360398Y68944D01*
X360287Y68348D01*
X359952Y67842D01*
X357199Y65089D01*
X356715Y64764D01*
X356121Y64643D01*
X340358Y64643D01*
X331252Y55536D01*
X330769Y55211D01*
X330174Y55090D01*
X328434Y55090D01*
X326111Y54128D01*
X324332Y52349D01*
X323370Y50026D01*
X323370Y48286D01*
X323259Y47714D01*
X322924Y47208D01*
X285877Y10162D01*
X285877Y-84711D01*
X285766Y-85283D01*
X285431Y-85789D01*
X280224Y-90996D01*
X279785Y-91302D01*
X279195Y-91441D01*
X278597Y-91340D01*
X278086Y-91013D01*
X277743Y-90513D01*
X277622Y-89918D01*
X277622Y-89520D01*
X276153Y-85973D01*
X273437Y-83257D01*
X269890Y-81788D01*
X266050Y-81788D01*
X262503Y-83257D01*
X259787Y-85973D01*
X258318Y-89520D01*
X258318Y-93360D01*
X259787Y-96907D01*
X262503Y-99623D01*
X266050Y-101092D01*
X266448Y-101092D01*
X266975Y-101186D01*
X267491Y-101505D01*
X267842Y-101999D01*
X267972Y-102592D01*
X267861Y-103188D01*
X267526Y-103694D01*
X243269Y-127951D01*
X242786Y-128276D01*
X242191Y-128397D01*
X193447Y-128397D01*
X192908Y-128299D01*
X192395Y-127976D01*
X192048Y-127479D01*
X191923Y-126885D01*
X192039Y-126290D01*
X193012Y-123940D01*
X193012Y-121424D01*
X192050Y-119101D01*
X190271Y-117322D01*
X187948Y-116360D01*
X185432Y-116360D01*
X183109Y-117322D01*
X181330Y-119101D01*
X180368Y-121424D01*
X180368Y-123940D01*
X181342Y-126290D01*
X181457Y-126824D01*
X181355Y-127422D01*
X181028Y-127933D01*
X180528Y-128276D01*
X179934Y-128397D01*
X50417Y-128397D01*
X49845Y-128286D01*
X49339Y-127951D01*
X42166Y-120777D01*
X36031Y-120777D01*
X35459Y-120666D01*
X34953Y-120331D01*
X33723Y-119100D01*
X31400Y-118138D01*
X28884Y-118138D01*
X26561Y-119100D01*
X24782Y-120879D01*
X23820Y-123202D01*
X23820Y-125026D01*
X23709Y-125598D01*
X23374Y-126104D01*
X21527Y-127951D01*
X21044Y-128276D01*
X20449Y-128397D01*
X-328361Y-128397D01*
X-328933Y-128286D01*
X-329438Y-127951D01*
X-374920Y-82469D01*
X-375294Y-81855D01*
X-375360Y-81252D01*
X-375186Y-80671D01*
X-374799Y-80204D01*
X-374261Y-79925D01*
X-373656Y-79878D01*
X-373081Y-80071D01*
X-368534Y-82696D01*
X-360000Y-84201D01*
X-351466Y-82696D01*
X-343962Y-78364D01*
X-338392Y-71726D01*
X-335428Y-63583D01*
X-335428Y-54917D01*
X-338392Y-46774D01*
X-343962Y-40136D01*
X-351466Y-35804D01*
X-360000Y-34299D01*
X-368534Y-35804D01*
X-376038Y-40136D01*
X-381608Y-46774D01*
X-384572Y-54917D01*
X-384572Y-63583D01*
X-381639Y-71642D01*
X-381549Y-72090D01*
X-381641Y-72689D01*
X-381959Y-73206D01*
X-382454Y-73556D01*
X-383047Y-73687D01*
X-383643Y-73575D01*
X-384149Y-73240D01*
X-465989Y8600D01*
X-466315Y9083D01*
X-466436Y9678D01*
X-466436Y11418D01*
X-467398Y13741D01*
X-469176Y15520D01*
X-471500Y16482D01*
X-474015Y16482D01*
X-476339Y15520D01*
X-478117Y13741D01*
X-479080Y11418D01*
X-479080Y8902D01*
X-478117Y6579D01*
X-477745Y6207D01*
X-477429Y5746D01*
X-477299Y5154D01*
X-477410Y4558D01*
X-477745Y4052D01*
X-477863Y3934D01*
X-478826Y1611D01*
X-478826Y-905D01*
X-477863Y-3228D01*
X-476085Y-5007D01*
X-473761Y-5969D01*
X-472021Y-5969D01*
X-471449Y-6080D01*
X-470944Y-6415D01*
X-342928Y-134431D01*
X-342622Y-134870D01*
X-342482Y-135460D01*
X-342584Y-136058D01*
X-342911Y-136569D01*
X-343411Y-136912D01*
X-344005Y-137033D01*
X-398465Y-137033D01*
X-399037Y-136922D01*
X-399542Y-136587D01*
X-465989Y-70140D01*
X-466315Y-69657D01*
X-466436Y-69062D01*
X-466436Y-67322D01*
X-467398Y-64999D01*
X-469176Y-63220D01*
X-471500Y-62258D01*
X-474015Y-62258D01*
X-476339Y-63220D01*
X-478117Y-64999D01*
X-479080Y-67322D01*
X-479080Y-69838D01*
X-478117Y-72161D01*
X-477696Y-72582D01*
X-477380Y-73043D01*
X-477250Y-73636D01*
X-477361Y-74232D01*
X-477696Y-74738D01*
X-478117Y-75159D01*
X-479080Y-77482D01*
X-479080Y-79998D01*
X-478117Y-82321D01*
X-477696Y-82742D01*
X-477380Y-83203D01*
X-477250Y-83796D01*
X-477361Y-84392D01*
X-477696Y-84898D01*
X-478117Y-85319D01*
X-479080Y-87642D01*
X-479080Y-90158D01*
X-478117Y-92481D01*
X-477696Y-92902D01*
X-477380Y-93363D01*
X-477250Y-93956D01*
X-477361Y-94552D01*
X-477696Y-95058D01*
X-478117Y-95479D01*
X-479080Y-97802D01*
X-479080Y-100318D01*
X-478117Y-102641D01*
X-476339Y-104420D01*
X-474015Y-105382D01*
X-472275Y-105382D01*
X-471703Y-105493D01*
X-471198Y-105828D01*
X-424188Y-152838D01*
X-423882Y-153277D01*
X-423742Y-153867D01*
X-423844Y-154465D01*
X-424171Y-154976D01*
X-424671Y-155319D01*
G37*
%LPC*%
G36*
X-520354Y286704D02*
X-515166Y286704D01*
X-510373Y288689D01*
X-506705Y292357D01*
X-504720Y297150D01*
X-504720Y302338D01*
X-506705Y307131D01*
X-510373Y310799D01*
X-515166Y312784D01*
X-520354Y312784D01*
X-525147Y310799D01*
X-528815Y307131D01*
X-530800Y302338D01*
X-530800Y297150D01*
X-528815Y292357D01*
X-525147Y288689D01*
X-520354Y286704D01*
G37*
G36*
X-470354Y286704D02*
X-465166Y286704D01*
X-460373Y288689D01*
X-456705Y292357D01*
X-454720Y297150D01*
X-454720Y302338D01*
X-456705Y307131D01*
X-460373Y310799D01*
X-465166Y312784D01*
X-470354Y312784D01*
X-475147Y310799D01*
X-478815Y307131D01*
X-480800Y302338D01*
X-480800Y297150D01*
X-478815Y292357D01*
X-475147Y288689D01*
X-470354Y286704D01*
G37*
G36*
X-391148Y242598D02*
X-388632Y242598D01*
X-386309Y243560D01*
X-384530Y245339D01*
X-383568Y247662D01*
X-383568Y249964D01*
X-383466Y250513D01*
X-383139Y251024D01*
X-382638Y251367D01*
X-382512Y251393D01*
X-379959Y252450D01*
X-378180Y254229D01*
X-377218Y256552D01*
X-377218Y259068D01*
X-378180Y261391D01*
X-379959Y263170D01*
X-382282Y264132D01*
X-384798Y264132D01*
X-387121Y263170D01*
X-388900Y261391D01*
X-389117Y260866D01*
X-389405Y260416D01*
X-389897Y260061D01*
X-390489Y259926D01*
X-391086Y260032D01*
X-391594Y260363D01*
X-391933Y260866D01*
X-392150Y261391D01*
X-393929Y263170D01*
X-396252Y264132D01*
X-398768Y264132D01*
X-401091Y263170D01*
X-402870Y261391D01*
X-403832Y259068D01*
X-403832Y256552D01*
X-402870Y254229D01*
X-401091Y252450D01*
X-398768Y251488D01*
X-397736Y251488D01*
X-397187Y251386D01*
X-396676Y251059D01*
X-396333Y250558D01*
X-396212Y249964D01*
X-396212Y247662D01*
X-395250Y245339D01*
X-393471Y243560D01*
X-391148Y242598D01*
G37*
G36*
X345452Y238026D02*
X347968Y238026D01*
X350291Y238988D01*
X352070Y240767D01*
X353032Y243090D01*
X353032Y245606D01*
X352070Y247929D01*
X350291Y249708D01*
X347968Y250670D01*
X345452Y250670D01*
X343129Y249708D01*
X341350Y247929D01*
X340388Y245606D01*
X340388Y243090D01*
X341350Y240767D01*
X343129Y238988D01*
X345452Y238026D01*
G37*
G36*
X352310Y212880D02*
X354826Y212880D01*
X357149Y213842D01*
X358928Y215621D01*
X359890Y217944D01*
X359890Y220460D01*
X358958Y222711D01*
X358842Y223245D01*
X358944Y223843D01*
X359271Y224354D01*
X359771Y224697D01*
X360366Y224818D01*
X361938Y224818D01*
X364261Y225780D01*
X366040Y227559D01*
X367002Y229882D01*
X367002Y232398D01*
X366040Y234721D01*
X364261Y236500D01*
X361938Y237462D01*
X359422Y237462D01*
X357099Y236500D01*
X355320Y234721D01*
X354358Y232398D01*
X354358Y229882D01*
X355291Y227631D01*
X355406Y227097D01*
X355304Y226499D01*
X354977Y225988D01*
X354477Y225645D01*
X353883Y225524D01*
X352310Y225524D01*
X349987Y224562D01*
X348208Y222783D01*
X347246Y220460D01*
X347246Y217944D01*
X348208Y215621D01*
X349987Y213842D01*
X352310Y212880D01*
G37*
G36*
X302880Y211328D02*
X306720Y211328D01*
X310267Y212797D01*
X312983Y215513D01*
X314452Y219060D01*
X314452Y222900D01*
X312983Y226447D01*
X310267Y229163D01*
X306720Y230632D01*
X302880Y230632D01*
X299333Y229163D01*
X296617Y226447D01*
X295148Y222900D01*
X295148Y219060D01*
X296617Y215513D01*
X299333Y212797D01*
X302880Y211328D01*
G37*
G36*
X386600Y166398D02*
X389116Y166398D01*
X391439Y167360D01*
X391860Y167782D01*
X392321Y168098D01*
X392914Y168228D01*
X393510Y168117D01*
X394016Y167782D01*
X394437Y167360D01*
X396760Y166398D01*
X399276Y166398D01*
X401599Y167360D01*
X402020Y167782D01*
X402481Y168098D01*
X403074Y168228D01*
X403670Y168117D01*
X404176Y167782D01*
X404597Y167360D01*
X406920Y166398D01*
X409436Y166398D01*
X411759Y167360D01*
X412180Y167782D01*
X412641Y168098D01*
X413234Y168228D01*
X413830Y168117D01*
X414336Y167782D01*
X414757Y167360D01*
X417080Y166398D01*
X419596Y166398D01*
X421919Y167360D01*
X423698Y169139D01*
X424660Y171462D01*
X424660Y173978D01*
X424333Y174767D01*
X424218Y175313D01*
X424324Y175911D01*
X424655Y176419D01*
X425158Y176758D01*
X426999Y177520D01*
X428778Y179299D01*
X429740Y181622D01*
X429740Y184138D01*
X428778Y186461D01*
X426999Y188240D01*
X425158Y189002D01*
X424690Y189307D01*
X424343Y189805D01*
X424217Y190398D01*
X424333Y190993D01*
X424660Y191782D01*
X424660Y194298D01*
X424333Y195087D01*
X424218Y195633D01*
X424324Y196231D01*
X424655Y196739D01*
X425158Y197078D01*
X426999Y197840D01*
X428778Y199619D01*
X429740Y201942D01*
X429740Y204458D01*
X428778Y206781D01*
X426999Y208560D01*
X425158Y209322D01*
X424690Y209627D01*
X424343Y210125D01*
X424217Y210718D01*
X424333Y211313D01*
X424660Y212102D01*
X424660Y214618D01*
X423698Y216941D01*
X421919Y218720D01*
X419596Y219682D01*
X417080Y219682D01*
X414757Y218720D01*
X414336Y218298D01*
X413875Y217982D01*
X413282Y217852D01*
X412686Y217963D01*
X412180Y218298D01*
X411759Y218720D01*
X409436Y219682D01*
X406920Y219682D01*
X404597Y218720D01*
X404176Y218298D01*
X403715Y217982D01*
X403122Y217852D01*
X402526Y217963D01*
X402020Y218298D01*
X401599Y218720D01*
X399276Y219682D01*
X396760Y219682D01*
X394437Y218720D01*
X394016Y218298D01*
X393555Y217982D01*
X392962Y217852D01*
X392366Y217963D01*
X391860Y218298D01*
X391439Y218720D01*
X389116Y219682D01*
X386600Y219682D01*
X384277Y218720D01*
X382498Y216941D01*
X381536Y214618D01*
X381536Y212102D01*
X381863Y211313D01*
X381978Y210767D01*
X381872Y210170D01*
X381541Y209661D01*
X381038Y209322D01*
X379197Y208560D01*
X377418Y206781D01*
X376456Y204458D01*
X376456Y201942D01*
X377418Y199619D01*
X379197Y197840D01*
X381038Y197078D01*
X381506Y196773D01*
X381853Y196275D01*
X381979Y195682D01*
X381863Y195087D01*
X381536Y194298D01*
X381536Y191782D01*
X381863Y190993D01*
X381978Y190447D01*
X381872Y189850D01*
X381541Y189341D01*
X381038Y189002D01*
X379197Y188240D01*
X377418Y186461D01*
X376456Y184138D01*
X376456Y181622D01*
X377418Y179299D01*
X379197Y177520D01*
X381038Y176758D01*
X381506Y176453D01*
X381853Y175955D01*
X381979Y175362D01*
X381863Y174767D01*
X381536Y173978D01*
X381536Y171462D01*
X382498Y169139D01*
X384277Y167360D01*
X386600Y166398D01*
G37*
G36*
X-388608Y196878D02*
X-386092Y196878D01*
X-383769Y197840D01*
X-381990Y199619D01*
X-381773Y200144D01*
X-381485Y200595D01*
X-380993Y200949D01*
X-380401Y201084D01*
X-379804Y200978D01*
X-379296Y200647D01*
X-378957Y200144D01*
X-378740Y199619D01*
X-376961Y197840D01*
X-374638Y196878D01*
X-372122Y196878D01*
X-369799Y197840D01*
X-368020Y199619D01*
X-367803Y200144D01*
X-367515Y200595D01*
X-367023Y200949D01*
X-366431Y201084D01*
X-365834Y200978D01*
X-365326Y200647D01*
X-364987Y200144D01*
X-364770Y199619D01*
X-362991Y197840D01*
X-360668Y196878D01*
X-358152Y196878D01*
X-355829Y197840D01*
X-354050Y199619D01*
X-353088Y201942D01*
X-353088Y204458D01*
X-354050Y206781D01*
X-355829Y208560D01*
X-358152Y209522D01*
X-360668Y209522D01*
X-362991Y208560D01*
X-364770Y206781D01*
X-364987Y206256D01*
X-365275Y205806D01*
X-365767Y205451D01*
X-366359Y205316D01*
X-366956Y205422D01*
X-367464Y205753D01*
X-367803Y206256D01*
X-368020Y206781D01*
X-369799Y208560D01*
X-372122Y209522D01*
X-374638Y209522D01*
X-376961Y208560D01*
X-378740Y206781D01*
X-378957Y206256D01*
X-379245Y205806D01*
X-379737Y205451D01*
X-380329Y205316D01*
X-380926Y205422D01*
X-381434Y205753D01*
X-381773Y206256D01*
X-381990Y206781D01*
X-383769Y208560D01*
X-386092Y209522D01*
X-388608Y209522D01*
X-390931Y208560D01*
X-392710Y206781D01*
X-393672Y204458D01*
X-393672Y201942D01*
X-392710Y199619D01*
X-390931Y197840D01*
X-388608Y196878D01*
G37*
G36*
X302880Y180848D02*
X306720Y180848D01*
X310267Y182317D01*
X312983Y185033D01*
X314452Y188580D01*
X314452Y192420D01*
X312983Y195967D01*
X310267Y198683D01*
X306720Y200152D01*
X302880Y200152D01*
X299333Y198683D01*
X296617Y195967D01*
X295148Y192420D01*
X295148Y188580D01*
X296617Y185033D01*
X299333Y182317D01*
X302880Y180848D01*
G37*
G36*
X345452Y174780D02*
X347968Y174780D01*
X350291Y175742D01*
X352070Y177521D01*
X353032Y179844D01*
X353032Y182360D01*
X352070Y184683D01*
X350291Y186462D01*
X347968Y187424D01*
X345452Y187424D01*
X343129Y186462D01*
X341350Y184683D01*
X340388Y182360D01*
X340388Y179844D01*
X341350Y177521D01*
X343129Y175742D01*
X345452Y174780D01*
G37*
G36*
X-504178Y130838D02*
X-501662Y130838D01*
X-499339Y131800D01*
X-497560Y133579D01*
X-496798Y135420D01*
X-496493Y135888D01*
X-495995Y136235D01*
X-495402Y136361D01*
X-494807Y136245D01*
X-494018Y135918D01*
X-491502Y135918D01*
X-490713Y136245D01*
X-490167Y136360D01*
X-489570Y136254D01*
X-489061Y135923D01*
X-488722Y135420D01*
X-487960Y133579D01*
X-486181Y131800D01*
X-483858Y130838D01*
X-481342Y130838D01*
X-479019Y131800D01*
X-477240Y133579D01*
X-476478Y135420D01*
X-476173Y135888D01*
X-475675Y136235D01*
X-475082Y136361D01*
X-474487Y136245D01*
X-473698Y135918D01*
X-471182Y135918D01*
X-470393Y136245D01*
X-469847Y136360D01*
X-469250Y136254D01*
X-468741Y135923D01*
X-468402Y135420D01*
X-467640Y133579D01*
X-465861Y131800D01*
X-463538Y130838D01*
X-461022Y130838D01*
X-458699Y131800D01*
X-456920Y133579D01*
X-456158Y135420D01*
X-455853Y135888D01*
X-455355Y136235D01*
X-454762Y136361D01*
X-454167Y136245D01*
X-453378Y135918D01*
X-450862Y135918D01*
X-450073Y136245D01*
X-449527Y136360D01*
X-448930Y136254D01*
X-448421Y135923D01*
X-448082Y135420D01*
X-447320Y133579D01*
X-445541Y131800D01*
X-443218Y130838D01*
X-440702Y130838D01*
X-438379Y131800D01*
X-436600Y133579D01*
X-435838Y135420D01*
X-435533Y135888D01*
X-435035Y136235D01*
X-434442Y136361D01*
X-433847Y136245D01*
X-433058Y135918D01*
X-430542Y135918D01*
X-429753Y136245D01*
X-429207Y136360D01*
X-428610Y136254D01*
X-428101Y135923D01*
X-427762Y135420D01*
X-427000Y133579D01*
X-425221Y131800D01*
X-422898Y130838D01*
X-420382Y130838D01*
X-418059Y131800D01*
X-416280Y133579D01*
X-415318Y135902D01*
X-415318Y138418D01*
X-416280Y140741D01*
X-416702Y141162D01*
X-417018Y141623D01*
X-417148Y142216D01*
X-417037Y142812D01*
X-416702Y143318D01*
X-416280Y143739D01*
X-415318Y146062D01*
X-415318Y148578D01*
X-416280Y150901D01*
X-418059Y152680D01*
X-420382Y153642D01*
X-422898Y153642D01*
X-425221Y152680D01*
X-427000Y150901D01*
X-427762Y149060D01*
X-428067Y148592D01*
X-428565Y148245D01*
X-429158Y148119D01*
X-429753Y148235D01*
X-430542Y148562D01*
X-433058Y148562D01*
X-433847Y148235D01*
X-434393Y148120D01*
X-434991Y148226D01*
X-435499Y148557D01*
X-435838Y149060D01*
X-436600Y150901D01*
X-438379Y152680D01*
X-440702Y153642D01*
X-443218Y153642D01*
X-444007Y153315D01*
X-444553Y153200D01*
X-445151Y153306D01*
X-445659Y153637D01*
X-445998Y154140D01*
X-446760Y155981D01*
X-447182Y156402D01*
X-447498Y156863D01*
X-447628Y157456D01*
X-447517Y158052D01*
X-447182Y158558D01*
X-446760Y158979D01*
X-445798Y161302D01*
X-445798Y163818D01*
X-446760Y166141D01*
X-448539Y167920D01*
X-450862Y168882D01*
X-453378Y168882D01*
X-454167Y168555D01*
X-454713Y168440D01*
X-455311Y168546D01*
X-455819Y168877D01*
X-456158Y169380D01*
X-456920Y171221D01*
X-458699Y173000D01*
X-461022Y173962D01*
X-463538Y173962D01*
X-465861Y173000D01*
X-467640Y171221D01*
X-468402Y169380D01*
X-468707Y168912D01*
X-469205Y168565D01*
X-469798Y168439D01*
X-470393Y168555D01*
X-471182Y168882D01*
X-473698Y168882D01*
X-474487Y168555D01*
X-475033Y168440D01*
X-475631Y168546D01*
X-476139Y168877D01*
X-476478Y169380D01*
X-477240Y171221D01*
X-479019Y173000D01*
X-481342Y173962D01*
X-483858Y173962D01*
X-486181Y173000D01*
X-487960Y171221D01*
X-488722Y169380D01*
X-489027Y168912D01*
X-489525Y168565D01*
X-490118Y168439D01*
X-490713Y168555D01*
X-491502Y168882D01*
X-494018Y168882D01*
X-494807Y168555D01*
X-495353Y168440D01*
X-495951Y168546D01*
X-496459Y168877D01*
X-496798Y169380D01*
X-497560Y171221D01*
X-499339Y173000D01*
X-501662Y173962D01*
X-504178Y173962D01*
X-504967Y173635D01*
X-505513Y173520D01*
X-506111Y173626D01*
X-506619Y173957D01*
X-506958Y174460D01*
X-507720Y176301D01*
X-509499Y178080D01*
X-511822Y179042D01*
X-514338Y179042D01*
X-516661Y178080D01*
X-518440Y176301D01*
X-519202Y174460D01*
X-519507Y173992D01*
X-520005Y173645D01*
X-520598Y173519D01*
X-521193Y173635D01*
X-521982Y173962D01*
X-524498Y173962D01*
X-525287Y173635D01*
X-525833Y173520D01*
X-526431Y173626D01*
X-526939Y173957D01*
X-527278Y174460D01*
X-528040Y176301D01*
X-529819Y178080D01*
X-532142Y179042D01*
X-534658Y179042D01*
X-536981Y178080D01*
X-538760Y176301D01*
X-539722Y173978D01*
X-539722Y171462D01*
X-538760Y169139D01*
X-538338Y168718D01*
X-538022Y168257D01*
X-537892Y167664D01*
X-538003Y167068D01*
X-538338Y166562D01*
X-538760Y166141D01*
X-539722Y163818D01*
X-539722Y161302D01*
X-538760Y158979D01*
X-538338Y158558D01*
X-538022Y158097D01*
X-537892Y157504D01*
X-538003Y156908D01*
X-538338Y156402D01*
X-538760Y155981D01*
X-539722Y153658D01*
X-539722Y151142D01*
X-538760Y148819D01*
X-536981Y147040D01*
X-534658Y146078D01*
X-532142Y146078D01*
X-531353Y146405D01*
X-530807Y146520D01*
X-530210Y146414D01*
X-529701Y146083D01*
X-529362Y145580D01*
X-528600Y143739D01*
X-526821Y141960D01*
X-524498Y140998D01*
X-521982Y140998D01*
X-521193Y141325D01*
X-520647Y141440D01*
X-520050Y141334D01*
X-519541Y141003D01*
X-519202Y140500D01*
X-518440Y138659D01*
X-516661Y136880D01*
X-514338Y135918D01*
X-511822Y135918D01*
X-511033Y136245D01*
X-510487Y136360D01*
X-509890Y136254D01*
X-509381Y135923D01*
X-509042Y135420D01*
X-508280Y133579D01*
X-506501Y131800D01*
X-504178Y130838D01*
G37*
G36*
X313762Y111534D02*
X316277Y111534D01*
X318601Y112496D01*
X320379Y114275D01*
X321342Y116598D01*
X321342Y119114D01*
X320379Y121437D01*
X318688Y123128D01*
X318372Y123589D01*
X318242Y124182D01*
X318353Y124778D01*
X318688Y125284D01*
X320379Y126975D01*
X321342Y129298D01*
X321342Y131814D01*
X320379Y134137D01*
X318688Y135828D01*
X318372Y136289D01*
X318242Y136882D01*
X318353Y137478D01*
X318688Y137984D01*
X320379Y139675D01*
X321342Y141998D01*
X321342Y144514D01*
X320379Y146837D01*
X318815Y148401D01*
X318499Y148862D01*
X318369Y149455D01*
X318480Y150051D01*
X318815Y150557D01*
X320379Y152121D01*
X321342Y154444D01*
X321342Y156960D01*
X320379Y159283D01*
X319039Y160623D01*
X318723Y161084D01*
X318593Y161676D01*
X318704Y162273D01*
X319039Y162778D01*
X320320Y164059D01*
X321282Y166382D01*
X321282Y168898D01*
X320320Y171221D01*
X318541Y173000D01*
X316218Y173962D01*
X313702Y173962D01*
X311379Y173000D01*
X309600Y171221D01*
X308638Y168898D01*
X308638Y166382D01*
X309600Y164059D01*
X310940Y162719D01*
X311256Y162258D01*
X311387Y161666D01*
X311275Y161069D01*
X310940Y160564D01*
X309660Y159283D01*
X308698Y156960D01*
X308698Y154444D01*
X309660Y152121D01*
X311224Y150557D01*
X311540Y150096D01*
X311670Y149503D01*
X311559Y148907D01*
X311224Y148401D01*
X309660Y146837D01*
X308698Y144514D01*
X308698Y141998D01*
X309660Y139675D01*
X311351Y137984D01*
X311667Y137523D01*
X311797Y136930D01*
X311686Y136334D01*
X311351Y135828D01*
X309660Y134137D01*
X308698Y131814D01*
X308698Y129298D01*
X309660Y126975D01*
X311351Y125284D01*
X311667Y124823D01*
X311797Y124230D01*
X311686Y123634D01*
X311351Y123128D01*
X309660Y121437D01*
X308698Y119114D01*
X308698Y116598D01*
X309660Y114275D01*
X311438Y112496D01*
X313762Y111534D01*
G37*
G36*
X465340Y111280D02*
X467856Y111280D01*
X470179Y112242D01*
X471958Y114021D01*
X472920Y116344D01*
X472920Y118860D01*
X471958Y121183D01*
X470179Y122962D01*
X467856Y123924D01*
X465340Y123924D01*
X463017Y122962D01*
X461238Y121183D01*
X460276Y118860D01*
X460276Y116344D01*
X461238Y114021D01*
X463017Y112242D01*
X465340Y111280D01*
G37*
G36*
X-274970Y76708D02*
X-271130Y76708D01*
X-267583Y78177D01*
X-264867Y80893D01*
X-263398Y84440D01*
X-263398Y88280D01*
X-264867Y91827D01*
X-267583Y94543D01*
X-271130Y96012D01*
X-274970Y96012D01*
X-278517Y94543D01*
X-281233Y91827D01*
X-282702Y88280D01*
X-282702Y84440D01*
X-281233Y80893D01*
X-278517Y78177D01*
X-274970Y76708D01*
G37*
G36*
X249948Y74450D02*
X252464Y74450D01*
X254787Y75412D01*
X256566Y77191D01*
X257541Y79546D01*
X257622Y79999D01*
X257941Y80515D01*
X258435Y80866D01*
X259028Y80997D01*
X259624Y80885D01*
X260130Y80550D01*
X262503Y78177D01*
X266050Y76708D01*
X269890Y76708D01*
X273437Y78177D01*
X276153Y80893D01*
X277622Y84440D01*
X277622Y88280D01*
X276153Y91827D01*
X273437Y94543D01*
X269890Y96012D01*
X266050Y96012D01*
X262503Y94543D01*
X259787Y91827D01*
X258318Y88280D01*
X258318Y86280D01*
X258224Y85753D01*
X257905Y85237D01*
X257411Y84886D01*
X256818Y84756D01*
X256222Y84867D01*
X255716Y85202D01*
X254787Y86132D01*
X252464Y87094D01*
X249948Y87094D01*
X247625Y86132D01*
X245846Y84353D01*
X244884Y82030D01*
X244884Y79514D01*
X245846Y77191D01*
X247625Y75412D01*
X249948Y74450D01*
G37*
G36*
X139050Y76708D02*
X142890Y76708D01*
X146437Y78177D01*
X149153Y80893D01*
X150622Y84440D01*
X150622Y88280D01*
X149153Y91827D01*
X146437Y94543D01*
X142890Y96012D01*
X139050Y96012D01*
X135503Y94543D01*
X132787Y91827D01*
X131318Y88280D01*
X131318Y84440D01*
X132787Y80893D01*
X135503Y78177D01*
X139050Y76708D01*
G37*
G36*
X-252972Y80292D02*
X-250456Y80292D01*
X-248133Y81254D01*
X-246354Y83033D01*
X-245392Y85356D01*
X-245392Y87872D01*
X-246354Y90195D01*
X-248133Y91974D01*
X-250456Y92936D01*
X-252972Y92936D01*
X-255295Y91974D01*
X-257074Y90195D01*
X-258036Y87872D01*
X-258036Y85356D01*
X-257074Y83033D01*
X-255295Y81254D01*
X-252972Y80292D01*
G37*
G36*
X53848Y65750D02*
X62230Y65750D01*
X62230Y74132D01*
X61580Y74132D01*
X58033Y72663D01*
X55317Y69947D01*
X53848Y66400D01*
X53848Y65750D01*
G37*
G36*
X36180Y54828D02*
X40020Y54828D01*
X43567Y56297D01*
X46283Y59013D01*
X47752Y62560D01*
X47752Y66400D01*
X46283Y69947D01*
X43567Y72663D01*
X40020Y74132D01*
X36180Y74132D01*
X32633Y72663D01*
X29917Y69947D01*
X28448Y66400D01*
X28448Y62560D01*
X29917Y59013D01*
X32633Y56297D01*
X36180Y54828D01*
G37*
G36*
X-14620Y54828D02*
X-10780Y54828D01*
X-7233Y56297D01*
X-4517Y59013D01*
X-3048Y62560D01*
X-3048Y66400D01*
X-4517Y69947D01*
X-7233Y72663D01*
X-10780Y74132D01*
X-14620Y74132D01*
X-18167Y72663D01*
X-20883Y69947D01*
X-22352Y66400D01*
X-22352Y62560D01*
X-20883Y59013D01*
X-18167Y56297D01*
X-14620Y54828D01*
G37*
G36*
X-40020Y54828D02*
X-36180Y54828D01*
X-32633Y56297D01*
X-29917Y59013D01*
X-28448Y62560D01*
X-28448Y66400D01*
X-29917Y69947D01*
X-32633Y72663D01*
X-36180Y74132D01*
X-40020Y74132D01*
X-43567Y72663D01*
X-46283Y69947D01*
X-47752Y66400D01*
X-47752Y62560D01*
X-46283Y59013D01*
X-43567Y56297D01*
X-40020Y54828D01*
G37*
G36*
X-65420Y54828D02*
X-61580Y54828D01*
X-58033Y56297D01*
X-55317Y59013D01*
X-53848Y62560D01*
X-53848Y66400D01*
X-55317Y69947D01*
X-58033Y72663D01*
X-61580Y74132D01*
X-65420Y74132D01*
X-68967Y72663D01*
X-71683Y69947D01*
X-73152Y66400D01*
X-73152Y62739D01*
X-73174Y62613D01*
X-71683Y59013D01*
X-68967Y56297D01*
X-65420Y54828D01*
G37*
G36*
X10780Y54828D02*
X14620Y54828D01*
X18167Y56297D01*
X20883Y59013D01*
X22352Y62560D01*
X22352Y66400D01*
X20883Y69947D01*
X18167Y72663D01*
X14620Y74132D01*
X10780Y74132D01*
X7233Y72663D01*
X4517Y69947D01*
X3048Y66400D01*
X3048Y62560D01*
X4517Y59013D01*
X7233Y56297D01*
X10780Y54828D01*
G37*
G36*
X64770Y65750D02*
X73152Y65750D01*
X73152Y66400D01*
X71683Y69947D01*
X68967Y72663D01*
X65420Y74132D01*
X64770Y74132D01*
X64770Y65750D01*
G37*
G36*
X142240Y62230D02*
X150622Y62230D01*
X150622Y62880D01*
X149153Y66427D01*
X146437Y69143D01*
X142890Y70612D01*
X142240Y70612D01*
X142240Y62230D01*
G37*
G36*
X131318Y62230D02*
X139700Y62230D01*
X139700Y70612D01*
X139050Y70612D01*
X135503Y69143D01*
X132787Y66427D01*
X131318Y62880D01*
X131318Y62230D01*
G37*
G36*
X266050Y51308D02*
X269890Y51308D01*
X273437Y52777D01*
X276153Y55493D01*
X277622Y59040D01*
X277622Y62880D01*
X276153Y66427D01*
X273437Y69143D01*
X269890Y70612D01*
X266050Y70612D01*
X262503Y69143D01*
X259787Y66427D01*
X258318Y62880D01*
X258318Y59040D01*
X259787Y55493D01*
X262503Y52777D01*
X266050Y51308D01*
G37*
G36*
X-274970Y51308D02*
X-271130Y51308D01*
X-267583Y52777D01*
X-264867Y55493D01*
X-263398Y59040D01*
X-263398Y62880D01*
X-264867Y66427D01*
X-267583Y69143D01*
X-271130Y70612D01*
X-274970Y70612D01*
X-278517Y69143D01*
X-281233Y66427D01*
X-282702Y62880D01*
X-282702Y59040D01*
X-281233Y55493D01*
X-278517Y52777D01*
X-274970Y51308D01*
G37*
G36*
X64770Y54828D02*
X65420Y54828D01*
X68967Y56297D01*
X71683Y59013D01*
X73152Y62560D01*
X73152Y63210D01*
X64770Y63210D01*
X64770Y54828D01*
G37*
G36*
X61580Y54828D02*
X62230Y54828D01*
X62230Y63210D01*
X53848Y63210D01*
X53848Y62560D01*
X55317Y59013D01*
X58033Y56297D01*
X61580Y54828D01*
G37*
G36*
X108411Y42164D02*
X112251Y42164D01*
X115798Y43633D01*
X118514Y46349D01*
X119983Y49896D01*
X119983Y53736D01*
X118514Y57283D01*
X115798Y59999D01*
X112251Y61468D01*
X108411Y61468D01*
X104864Y59999D01*
X102148Y57283D01*
X100679Y53736D01*
X100679Y49896D01*
X102148Y46349D01*
X104864Y43633D01*
X108411Y42164D01*
G37*
G36*
X139050Y51308D02*
X139700Y51308D01*
X139700Y59690D01*
X131318Y59690D01*
X131318Y59040D01*
X132787Y55493D01*
X135503Y52777D01*
X139050Y51308D01*
G37*
G36*
X142240Y51308D02*
X142890Y51308D01*
X146437Y52777D01*
X149153Y55493D01*
X150622Y59040D01*
X150622Y59690D01*
X142240Y59690D01*
X142240Y51308D01*
G37*
G36*
X210832Y43970D02*
X213348Y43970D01*
X215671Y44932D01*
X217450Y46711D01*
X218412Y49034D01*
X218412Y51550D01*
X217450Y53873D01*
X215671Y55652D01*
X213348Y56614D01*
X210832Y56614D01*
X208509Y55652D01*
X206730Y53873D01*
X205768Y51550D01*
X205768Y49034D01*
X206730Y46711D01*
X208509Y44932D01*
X210832Y43970D01*
G37*
G36*
X250202Y35842D02*
X252718Y35842D01*
X255041Y36804D01*
X255716Y37480D01*
X256155Y37786D01*
X256745Y37925D01*
X257343Y37824D01*
X257854Y37497D01*
X258197Y36996D01*
X258231Y36830D01*
X266700Y36830D01*
X266700Y45212D01*
X266050Y45212D01*
X262503Y43743D01*
X260384Y41624D01*
X259945Y41318D01*
X259355Y41178D01*
X258757Y41280D01*
X258246Y41607D01*
X257903Y42107D01*
X257782Y42701D01*
X257782Y43422D01*
X256820Y45745D01*
X255041Y47524D01*
X252718Y48486D01*
X250202Y48486D01*
X247879Y47524D01*
X246100Y45745D01*
X245138Y43422D01*
X245138Y40906D01*
X246100Y38583D01*
X247879Y36804D01*
X250202Y35842D01*
G37*
G36*
X-274970Y25908D02*
X-271130Y25908D01*
X-267583Y27377D01*
X-264867Y30093D01*
X-263398Y33640D01*
X-263398Y37480D01*
X-264867Y41027D01*
X-267583Y43743D01*
X-271130Y45212D01*
X-274970Y45212D01*
X-278517Y43743D01*
X-281233Y41027D01*
X-282702Y37480D01*
X-282702Y33640D01*
X-281233Y30093D01*
X-278517Y27377D01*
X-274970Y25908D01*
G37*
G36*
X139050Y25908D02*
X142890Y25908D01*
X146437Y27377D01*
X149153Y30093D01*
X150622Y33640D01*
X150622Y37480D01*
X149153Y41027D01*
X146437Y43743D01*
X142890Y45212D01*
X139050Y45212D01*
X135503Y43743D01*
X132787Y41027D01*
X131318Y37480D01*
X131318Y33640D01*
X132787Y30093D01*
X135503Y27377D01*
X139050Y25908D01*
G37*
G36*
X269240Y36830D02*
X277622Y36830D01*
X277622Y37480D01*
X276153Y41027D01*
X273437Y43743D01*
X269890Y45212D01*
X269240Y45212D01*
X269240Y36830D01*
G37*
G36*
X362216Y29238D02*
X364732Y29238D01*
X367055Y30200D01*
X368834Y31979D01*
X369796Y34302D01*
X369796Y36818D01*
X368834Y39141D01*
X367055Y40920D01*
X364732Y41882D01*
X362216Y41882D01*
X359893Y40920D01*
X358114Y39141D01*
X357152Y36818D01*
X357152Y34302D01*
X358114Y31979D01*
X359893Y30200D01*
X362216Y29238D01*
G37*
G36*
X423684Y25428D02*
X426200Y25428D01*
X428523Y26390D01*
X430302Y28169D01*
X431264Y30492D01*
X431264Y33008D01*
X430302Y35331D01*
X428523Y37110D01*
X426200Y38072D01*
X423684Y38072D01*
X421361Y37110D01*
X419582Y35331D01*
X418620Y33008D01*
X418620Y30492D01*
X419582Y28169D01*
X421361Y26390D01*
X423684Y25428D01*
G37*
G36*
X455180Y25174D02*
X457696Y25174D01*
X460019Y26136D01*
X461798Y27915D01*
X462760Y30238D01*
X462760Y32754D01*
X461798Y35077D01*
X460019Y36856D01*
X457696Y37818D01*
X455180Y37818D01*
X452857Y36856D01*
X451078Y35077D01*
X450116Y32754D01*
X450116Y30238D01*
X451078Y27915D01*
X452857Y26136D01*
X455180Y25174D01*
G37*
G36*
X-474015Y24158D02*
X-471500Y24158D01*
X-469176Y25120D01*
X-467398Y26899D01*
X-466436Y29222D01*
X-466436Y31738D01*
X-467398Y34061D01*
X-469176Y35840D01*
X-471500Y36802D01*
X-474015Y36802D01*
X-476339Y35840D01*
X-478117Y34061D01*
X-479080Y31738D01*
X-479080Y29222D01*
X-478117Y26899D01*
X-476339Y25120D01*
X-474015Y24158D01*
G37*
G36*
X-117331Y16764D02*
X-113491Y16764D01*
X-109944Y18233D01*
X-107228Y20949D01*
X-105759Y24496D01*
X-105759Y28336D01*
X-107228Y31883D01*
X-109944Y34599D01*
X-113491Y36068D01*
X-117331Y36068D01*
X-120878Y34599D01*
X-123594Y31883D01*
X-125063Y28336D01*
X-125063Y24496D01*
X-123594Y20949D01*
X-120878Y18233D01*
X-117331Y16764D01*
G37*
G36*
X108411Y16764D02*
X112251Y16764D01*
X115798Y18233D01*
X118514Y20949D01*
X119983Y24496D01*
X119983Y28336D01*
X118514Y31883D01*
X115798Y34599D01*
X112251Y36068D01*
X108411Y36068D01*
X104864Y34599D01*
X102148Y31883D01*
X100679Y28336D01*
X100679Y24496D01*
X102148Y20949D01*
X104864Y18233D01*
X108411Y16764D01*
G37*
G36*
X266050Y25908D02*
X266700Y25908D01*
X266700Y34290D01*
X258318Y34290D01*
X258318Y33640D01*
X259787Y30093D01*
X262503Y27377D01*
X266050Y25908D01*
G37*
G36*
X269240Y25908D02*
X269890Y25908D01*
X273437Y27377D01*
X276153Y30093D01*
X277622Y33640D01*
X277622Y34290D01*
X269240Y34290D01*
X269240Y25908D01*
G37*
G36*
X393966Y-20292D02*
X396482Y-20292D01*
X398805Y-19330D01*
X400584Y-17551D01*
X401546Y-15228D01*
X401546Y-12712D01*
X400584Y-10389D01*
X398805Y-8610D01*
X397360Y-8012D01*
X396910Y-7724D01*
X396555Y-7232D01*
X396420Y-6640D01*
X396526Y-6043D01*
X396857Y-5535D01*
X397360Y-5196D01*
X398805Y-4598D01*
X400584Y-2819D01*
X401546Y-496D01*
X401546Y2020D01*
X400584Y4343D01*
X398805Y6122D01*
X397974Y6466D01*
X397523Y6754D01*
X397168Y7246D01*
X397033Y7838D01*
X397140Y8435D01*
X397471Y8943D01*
X397974Y9282D01*
X398805Y9626D01*
X400584Y11405D01*
X401546Y13728D01*
X401546Y16244D01*
X400584Y18567D01*
X398805Y20346D01*
X396482Y21308D01*
X393966Y21308D01*
X391643Y20346D01*
X389864Y18567D01*
X388902Y16244D01*
X388902Y13728D01*
X389864Y11405D01*
X391643Y9626D01*
X392474Y9282D01*
X392925Y8994D01*
X393280Y8502D01*
X393415Y7910D01*
X393308Y7313D01*
X392977Y6805D01*
X392474Y6466D01*
X391643Y6122D01*
X389864Y4343D01*
X388902Y2020D01*
X388902Y-496D01*
X389864Y-2819D01*
X391643Y-4598D01*
X393088Y-5196D01*
X393538Y-5484D01*
X393893Y-5976D01*
X394028Y-6568D01*
X393922Y-7165D01*
X393591Y-7673D01*
X393088Y-8012D01*
X391643Y-8610D01*
X389864Y-10389D01*
X388902Y-12712D01*
X388902Y-15228D01*
X389864Y-17551D01*
X391643Y-19330D01*
X393966Y-20292D01*
G37*
G36*
X139050Y508D02*
X142890Y508D01*
X146437Y1977D01*
X149153Y4693D01*
X150622Y8240D01*
X150622Y12080D01*
X149153Y15627D01*
X146437Y18343D01*
X142890Y19812D01*
X139050Y19812D01*
X135503Y18343D01*
X132787Y15627D01*
X131318Y12080D01*
X131318Y8240D01*
X132787Y4693D01*
X135503Y1977D01*
X139050Y508D01*
G37*
G36*
X269240Y11430D02*
X277622Y11430D01*
X277622Y12080D01*
X276153Y15627D01*
X273437Y18343D01*
X269890Y19812D01*
X269240Y19812D01*
X269240Y11430D01*
G37*
G36*
X266050Y508D02*
X266700Y508D01*
X266700Y19812D01*
X266050Y19812D01*
X262503Y18343D01*
X260853Y16693D01*
X260392Y16377D01*
X259800Y16247D01*
X259203Y16358D01*
X258698Y16693D01*
X258347Y17044D01*
X256024Y18006D01*
X253508Y18006D01*
X251185Y17044D01*
X249406Y15265D01*
X248444Y12942D01*
X248444Y10426D01*
X249406Y8103D01*
X251185Y6324D01*
X253508Y5362D01*
X256024Y5362D01*
X257592Y6012D01*
X258138Y6127D01*
X258735Y6021D01*
X259244Y5690D01*
X259583Y5187D01*
X259787Y4693D01*
X262503Y1977D01*
X266050Y508D01*
G37*
G36*
X-274970Y508D02*
X-271130Y508D01*
X-267583Y1977D01*
X-264867Y4693D01*
X-263398Y8240D01*
X-263398Y12080D01*
X-264867Y15627D01*
X-267583Y18343D01*
X-271130Y19812D01*
X-274970Y19812D01*
X-278517Y18343D01*
X-281233Y15627D01*
X-282702Y12080D01*
X-282702Y8240D01*
X-281233Y4693D01*
X-278517Y1977D01*
X-274970Y508D01*
G37*
G36*
X-236208Y-19022D02*
X-233692Y-19022D01*
X-231369Y-18060D01*
X-230948Y-17638D01*
X-230487Y-17322D01*
X-229894Y-17192D01*
X-229298Y-17303D01*
X-228792Y-17638D01*
X-228371Y-18060D01*
X-226048Y-19022D01*
X-223532Y-19022D01*
X-221209Y-18060D01*
X-220788Y-17638D01*
X-220327Y-17322D01*
X-219734Y-17192D01*
X-219138Y-17303D01*
X-218632Y-17638D01*
X-218211Y-18060D01*
X-215888Y-19022D01*
X-213372Y-19022D01*
X-211049Y-18060D01*
X-209270Y-16281D01*
X-208308Y-13958D01*
X-208308Y-11442D01*
X-209270Y-9119D01*
X-209692Y-8698D01*
X-210008Y-8237D01*
X-210138Y-7644D01*
X-210027Y-7048D01*
X-209692Y-6542D01*
X-209270Y-6121D01*
X-208308Y-3798D01*
X-208308Y-1282D01*
X-209270Y1041D01*
X-209692Y1462D01*
X-210008Y1923D01*
X-210138Y2516D01*
X-210027Y3112D01*
X-209692Y3618D01*
X-209270Y4039D01*
X-208308Y6362D01*
X-208308Y8878D01*
X-209270Y11201D01*
X-211049Y12980D01*
X-213372Y13942D01*
X-215888Y13942D01*
X-218211Y12980D01*
X-218632Y12558D01*
X-219093Y12242D01*
X-219686Y12112D01*
X-220282Y12223D01*
X-220788Y12558D01*
X-221209Y12980D01*
X-223532Y13942D01*
X-226048Y13942D01*
X-228371Y12980D01*
X-228792Y12558D01*
X-229253Y12242D01*
X-229846Y12112D01*
X-230442Y12223D01*
X-230948Y12558D01*
X-231369Y12980D01*
X-233692Y13942D01*
X-236208Y13942D01*
X-238531Y12980D01*
X-240310Y11201D01*
X-241272Y8878D01*
X-241272Y6362D01*
X-240310Y4039D01*
X-239888Y3618D01*
X-239572Y3157D01*
X-239442Y2564D01*
X-239553Y1968D01*
X-239888Y1462D01*
X-240310Y1041D01*
X-241272Y-1282D01*
X-241272Y-3798D01*
X-240310Y-6121D01*
X-239888Y-6542D01*
X-239572Y-7003D01*
X-239442Y-7596D01*
X-239553Y-8192D01*
X-239888Y-8698D01*
X-240310Y-9119D01*
X-241272Y-11442D01*
X-241272Y-13958D01*
X-240310Y-16281D01*
X-238531Y-18060D01*
X-236208Y-19022D01*
G37*
G36*
X208292Y-19022D02*
X210808Y-19022D01*
X213131Y-18060D01*
X213552Y-17638D01*
X214013Y-17322D01*
X214606Y-17192D01*
X215202Y-17303D01*
X215708Y-17638D01*
X216129Y-18060D01*
X218452Y-19022D01*
X220968Y-19022D01*
X223291Y-18060D01*
X223712Y-17638D01*
X224173Y-17322D01*
X224766Y-17192D01*
X225362Y-17303D01*
X225868Y-17638D01*
X226289Y-18060D01*
X228612Y-19022D01*
X231128Y-19022D01*
X233451Y-18060D01*
X235230Y-16281D01*
X236192Y-13958D01*
X236192Y-11442D01*
X235230Y-9119D01*
X234808Y-8698D01*
X234492Y-8237D01*
X234362Y-7644D01*
X234473Y-7048D01*
X234808Y-6542D01*
X235230Y-6121D01*
X236192Y-3798D01*
X236192Y-1282D01*
X235230Y1041D01*
X234808Y1462D01*
X234492Y1923D01*
X234362Y2516D01*
X234473Y3112D01*
X234808Y3618D01*
X235230Y4039D01*
X236192Y6362D01*
X236192Y8878D01*
X235230Y11201D01*
X233451Y12980D01*
X231128Y13942D01*
X228612Y13942D01*
X226289Y12980D01*
X225868Y12558D01*
X225407Y12242D01*
X224814Y12112D01*
X224218Y12223D01*
X223712Y12558D01*
X223291Y12980D01*
X220968Y13942D01*
X218452Y13942D01*
X216129Y12980D01*
X215708Y12558D01*
X215247Y12242D01*
X214654Y12112D01*
X214058Y12223D01*
X213552Y12558D01*
X213131Y12980D01*
X210808Y13942D01*
X208292Y13942D01*
X205969Y12980D01*
X204190Y11201D01*
X203228Y8878D01*
X203228Y6362D01*
X204190Y4039D01*
X204612Y3618D01*
X204928Y3157D01*
X205058Y2564D01*
X204947Y1968D01*
X204612Y1462D01*
X204190Y1041D01*
X203228Y-1282D01*
X203228Y-3798D01*
X204190Y-6121D01*
X204612Y-6542D01*
X204928Y-7003D01*
X205058Y-7596D01*
X204947Y-8192D01*
X204612Y-8698D01*
X204190Y-9119D01*
X203228Y-11442D01*
X203228Y-13958D01*
X204190Y-16281D01*
X205969Y-18060D01*
X208292Y-19022D01*
G37*
G36*
X108411Y-8636D02*
X112251Y-8636D01*
X115798Y-7167D01*
X118514Y-4451D01*
X119983Y-904D01*
X119983Y2936D01*
X118514Y6483D01*
X115798Y9199D01*
X112251Y10668D01*
X108411Y10668D01*
X104864Y9199D01*
X102148Y6483D01*
X100679Y2936D01*
X100679Y-904D01*
X102148Y-4451D01*
X104864Y-7167D01*
X108411Y-8636D01*
G37*
G36*
X-117331Y-8636D02*
X-113491Y-8636D01*
X-109944Y-7167D01*
X-107228Y-4451D01*
X-105759Y-904D01*
X-105759Y2936D01*
X-107228Y6483D01*
X-109944Y9199D01*
X-113491Y10668D01*
X-117331Y10668D01*
X-120878Y9199D01*
X-123594Y6483D01*
X-125063Y2936D01*
X-125063Y-904D01*
X-123594Y-4451D01*
X-120878Y-7167D01*
X-117331Y-8636D01*
G37*
G36*
X269240Y508D02*
X269890Y508D01*
X273437Y1977D01*
X276153Y4693D01*
X277622Y8240D01*
X277622Y8890D01*
X269240Y8890D01*
X269240Y508D01*
G37*
G36*
X266050Y-24892D02*
X269890Y-24892D01*
X273437Y-23423D01*
X276153Y-20707D01*
X277622Y-17160D01*
X277622Y-13320D01*
X276153Y-9773D01*
X273437Y-7057D01*
X269890Y-5588D01*
X266050Y-5588D01*
X262503Y-7057D01*
X259787Y-9773D01*
X258318Y-13320D01*
X258318Y-17160D01*
X259787Y-20707D01*
X262503Y-23423D01*
X266050Y-24892D01*
G37*
G36*
X-147970Y-24892D02*
X-144130Y-24892D01*
X-140583Y-23423D01*
X-137867Y-20707D01*
X-136398Y-17160D01*
X-136398Y-13320D01*
X-137867Y-9773D01*
X-140583Y-7057D01*
X-144130Y-5588D01*
X-147970Y-5588D01*
X-151517Y-7057D01*
X-154233Y-9773D01*
X-155702Y-13320D01*
X-155702Y-17160D01*
X-154233Y-20707D01*
X-151517Y-23423D01*
X-147970Y-24892D01*
G37*
G36*
X-282702Y-13970D02*
X-274320Y-13970D01*
X-274320Y-5588D01*
X-274970Y-5588D01*
X-278517Y-7057D01*
X-281233Y-9773D01*
X-282702Y-13320D01*
X-282702Y-13970D01*
G37*
G36*
X-271780Y-24892D02*
X-271130Y-24892D01*
X-267583Y-23423D01*
X-265933Y-21773D01*
X-265472Y-21457D01*
X-264880Y-21327D01*
X-264283Y-21438D01*
X-263778Y-21773D01*
X-263427Y-22124D01*
X-261104Y-23086D01*
X-258588Y-23086D01*
X-256265Y-22124D01*
X-254486Y-20345D01*
X-253524Y-18022D01*
X-253524Y-15506D01*
X-254486Y-13183D01*
X-256265Y-11404D01*
X-258588Y-10442D01*
X-261104Y-10442D01*
X-262672Y-11092D01*
X-263218Y-11207D01*
X-263815Y-11101D01*
X-264324Y-10770D01*
X-264663Y-10267D01*
X-264867Y-9773D01*
X-267583Y-7057D01*
X-271130Y-5588D01*
X-271780Y-5588D01*
X-271780Y-24892D01*
G37*
G36*
X477278Y-19784D02*
X479794Y-19784D01*
X482117Y-18822D01*
X483896Y-17043D01*
X484858Y-14720D01*
X484858Y-12204D01*
X483896Y-9881D01*
X482117Y-8102D01*
X479794Y-7140D01*
X477278Y-7140D01*
X474854Y-8144D01*
X474581Y-8332D01*
X473988Y-8462D01*
X473392Y-8351D01*
X472886Y-8016D01*
X472719Y-7848D01*
X470396Y-6886D01*
X467880Y-6886D01*
X465557Y-7848D01*
X463778Y-9627D01*
X462816Y-11950D01*
X462816Y-14466D01*
X463778Y-16789D01*
X465557Y-18568D01*
X467880Y-19530D01*
X470396Y-19530D01*
X472820Y-18526D01*
X473093Y-18338D01*
X473686Y-18208D01*
X474282Y-18319D01*
X474788Y-18654D01*
X474955Y-18822D01*
X477278Y-19784D01*
G37*
G36*
X108411Y-34036D02*
X112251Y-34036D01*
X115798Y-32567D01*
X118514Y-29851D01*
X119983Y-26304D01*
X119983Y-22464D01*
X118514Y-18917D01*
X115798Y-16201D01*
X112251Y-14732D01*
X108411Y-14732D01*
X104864Y-16201D01*
X102148Y-18917D01*
X100679Y-22464D01*
X100679Y-26304D01*
X102148Y-29851D01*
X104864Y-32567D01*
X108411Y-34036D01*
G37*
G36*
X-117331Y-34036D02*
X-113491Y-34036D01*
X-109944Y-32567D01*
X-107228Y-29851D01*
X-105759Y-26304D01*
X-105759Y-22464D01*
X-107228Y-18917D01*
X-109944Y-16201D01*
X-113491Y-14732D01*
X-117331Y-14732D01*
X-120878Y-16201D01*
X-123594Y-18917D01*
X-125063Y-22464D01*
X-125063Y-26304D01*
X-123594Y-29851D01*
X-120878Y-32567D01*
X-117331Y-34036D01*
G37*
G36*
X-274970Y-24892D02*
X-274320Y-24892D01*
X-274320Y-16510D01*
X-282702Y-16510D01*
X-282702Y-17160D01*
X-281233Y-20707D01*
X-278517Y-23423D01*
X-274970Y-24892D01*
G37*
G36*
X-271780Y-39370D02*
X-263398Y-39370D01*
X-263398Y-38720D01*
X-264867Y-35173D01*
X-267583Y-32457D01*
X-271130Y-30988D01*
X-271780Y-30988D01*
X-271780Y-39370D01*
G37*
G36*
X-282702Y-39370D02*
X-274320Y-39370D01*
X-274320Y-30988D01*
X-274970Y-30988D01*
X-278517Y-32457D01*
X-281233Y-35173D01*
X-282702Y-38720D01*
X-282702Y-39370D01*
G37*
G36*
X-147970Y-50292D02*
X-144130Y-50292D01*
X-140583Y-48823D01*
X-137867Y-46107D01*
X-136398Y-42560D01*
X-136398Y-38720D01*
X-137867Y-35173D01*
X-140583Y-32457D01*
X-144130Y-30988D01*
X-147970Y-30988D01*
X-151517Y-32457D01*
X-154233Y-35173D01*
X-155702Y-38720D01*
X-155702Y-42560D01*
X-154233Y-46107D01*
X-151517Y-48823D01*
X-147970Y-50292D01*
G37*
G36*
X266050Y-50292D02*
X269890Y-50292D01*
X273437Y-48823D01*
X276153Y-46107D01*
X277622Y-42560D01*
X277622Y-38720D01*
X276153Y-35173D01*
X273437Y-32457D01*
X269890Y-30988D01*
X266050Y-30988D01*
X262503Y-32457D01*
X259787Y-35173D01*
X258318Y-38720D01*
X258318Y-42560D01*
X259787Y-46107D01*
X262503Y-48823D01*
X266050Y-50292D01*
G37*
G36*
X-8534Y-82696D02*
X0Y-84201D01*
X8534Y-82696D01*
X16038Y-78364D01*
X21608Y-71726D01*
X24572Y-63583D01*
X24572Y-54917D01*
X21608Y-46774D01*
X16038Y-40136D01*
X8534Y-35804D01*
X0Y-34299D01*
X-8534Y-35804D01*
X-16038Y-40136D01*
X-21608Y-46774D01*
X-24572Y-54917D01*
X-24572Y-63583D01*
X-21608Y-71726D01*
X-16038Y-78364D01*
X-8534Y-82696D01*
G37*
G36*
X351466Y-82696D02*
X360000Y-84201D01*
X368534Y-82696D01*
X376038Y-78364D01*
X381608Y-71726D01*
X384572Y-63583D01*
X384572Y-54917D01*
X381608Y-46774D01*
X376038Y-40136D01*
X368534Y-35804D01*
X360000Y-34299D01*
X351466Y-35804D01*
X343962Y-40136D01*
X338392Y-46774D01*
X335428Y-54917D01*
X335428Y-63583D01*
X338392Y-71726D01*
X343962Y-78364D01*
X351466Y-82696D01*
G37*
G36*
X431812Y-55852D02*
X434328Y-55852D01*
X436651Y-54890D01*
X438430Y-53111D01*
X439392Y-50788D01*
X439392Y-50300D01*
X439494Y-49750D01*
X439821Y-49239D01*
X440322Y-48896D01*
X440916Y-48776D01*
X441475Y-48776D01*
X443799Y-47813D01*
X445577Y-46035D01*
X446540Y-43711D01*
X446540Y-41196D01*
X445577Y-38872D01*
X443799Y-37094D01*
X441475Y-36132D01*
X438960Y-36132D01*
X436636Y-37094D01*
X434858Y-38872D01*
X433896Y-41196D01*
X433896Y-41684D01*
X433793Y-42233D01*
X433466Y-42744D01*
X432966Y-43087D01*
X432372Y-43208D01*
X431812Y-43208D01*
X429489Y-44170D01*
X427710Y-45949D01*
X426748Y-48272D01*
X426748Y-50788D01*
X427710Y-53111D01*
X429489Y-54890D01*
X431812Y-55852D01*
G37*
G36*
X-257798Y-53566D02*
X-255282Y-53566D01*
X-252959Y-52604D01*
X-251180Y-50825D01*
X-250218Y-48502D01*
X-250218Y-45986D01*
X-251180Y-43663D01*
X-252959Y-41884D01*
X-255282Y-40922D01*
X-257798Y-40922D01*
X-260121Y-41884D01*
X-260796Y-42560D01*
X-261235Y-42866D01*
X-261825Y-43005D01*
X-262423Y-42904D01*
X-262934Y-42577D01*
X-263277Y-42076D01*
X-263311Y-41910D01*
X-271780Y-41910D01*
X-271780Y-50292D01*
X-271130Y-50292D01*
X-267583Y-48823D01*
X-265464Y-46704D01*
X-265025Y-46398D01*
X-264435Y-46258D01*
X-263837Y-46360D01*
X-263326Y-46687D01*
X-262983Y-47187D01*
X-262862Y-47781D01*
X-262862Y-48502D01*
X-261900Y-50825D01*
X-260121Y-52604D01*
X-257798Y-53566D01*
G37*
G36*
X-274970Y-50292D02*
X-274320Y-50292D01*
X-274320Y-41910D01*
X-282702Y-41910D01*
X-282702Y-42560D01*
X-281233Y-46107D01*
X-278517Y-48823D01*
X-274970Y-50292D01*
G37*
G36*
X-218428Y-61694D02*
X-215912Y-61694D01*
X-213589Y-60732D01*
X-211810Y-58953D01*
X-210848Y-56630D01*
X-210848Y-54114D01*
X-211810Y-51791D01*
X-213589Y-50012D01*
X-215912Y-49050D01*
X-218428Y-49050D01*
X-220751Y-50012D01*
X-222530Y-51791D01*
X-223492Y-54114D01*
X-223492Y-56630D01*
X-222530Y-58953D01*
X-220751Y-60732D01*
X-218428Y-61694D01*
G37*
G36*
X266050Y-75692D02*
X269890Y-75692D01*
X273437Y-74223D01*
X276153Y-71507D01*
X277622Y-67960D01*
X277622Y-64120D01*
X276153Y-60573D01*
X273437Y-57857D01*
X269890Y-56388D01*
X266050Y-56388D01*
X262503Y-57857D01*
X259787Y-60573D01*
X258318Y-64120D01*
X258318Y-67960D01*
X259787Y-71507D01*
X262503Y-74223D01*
X266050Y-75692D01*
G37*
G36*
X-274970Y-75692D02*
X-271130Y-75692D01*
X-267583Y-74223D01*
X-264867Y-71507D01*
X-263398Y-67960D01*
X-263398Y-64120D01*
X-264867Y-60573D01*
X-267583Y-57857D01*
X-271130Y-56388D01*
X-274970Y-56388D01*
X-278517Y-57857D01*
X-281233Y-60573D01*
X-282702Y-64120D01*
X-282702Y-67960D01*
X-281233Y-71507D01*
X-278517Y-74223D01*
X-274970Y-75692D01*
G37*
G36*
X-155702Y-64770D02*
X-147320Y-64770D01*
X-147320Y-56388D01*
X-147970Y-56388D01*
X-151517Y-57857D01*
X-154233Y-60573D01*
X-155702Y-64120D01*
X-155702Y-64770D01*
G37*
G36*
X-144780Y-64770D02*
X-136398Y-64770D01*
X-136398Y-64120D01*
X-137867Y-60573D01*
X-140583Y-57857D01*
X-144130Y-56388D01*
X-144780Y-56388D01*
X-144780Y-64770D01*
G37*
G36*
X-144780Y-75692D02*
X-144130Y-75692D01*
X-140583Y-74223D01*
X-137867Y-71507D01*
X-136398Y-67960D01*
X-136398Y-67310D01*
X-144780Y-67310D01*
X-144780Y-75692D01*
G37*
G36*
X-147970Y-75692D02*
X-147320Y-75692D01*
X-147320Y-67310D01*
X-155702Y-67310D01*
X-155702Y-67960D01*
X-154233Y-71507D01*
X-151517Y-74223D01*
X-147970Y-75692D01*
G37*
G36*
X-274970Y-101092D02*
X-271130Y-101092D01*
X-267583Y-99623D01*
X-264867Y-96907D01*
X-263398Y-93360D01*
X-263398Y-91360D01*
X-263304Y-90833D01*
X-262985Y-90317D01*
X-262491Y-89966D01*
X-261898Y-89836D01*
X-261302Y-89947D01*
X-260796Y-90282D01*
X-259867Y-91212D01*
X-257544Y-92174D01*
X-255028Y-92174D01*
X-252705Y-91212D01*
X-250926Y-89433D01*
X-249964Y-87110D01*
X-249964Y-84594D01*
X-250926Y-82271D01*
X-252705Y-80492D01*
X-255028Y-79530D01*
X-257544Y-79530D01*
X-259867Y-80492D01*
X-261646Y-82271D01*
X-262621Y-84626D01*
X-262702Y-85079D01*
X-263021Y-85595D01*
X-263515Y-85946D01*
X-264108Y-86077D01*
X-264704Y-85965D01*
X-265210Y-85630D01*
X-267583Y-83257D01*
X-271130Y-81788D01*
X-274970Y-81788D01*
X-278517Y-83257D01*
X-281233Y-85973D01*
X-282702Y-89520D01*
X-282702Y-93360D01*
X-281233Y-96907D01*
X-278517Y-99623D01*
X-274970Y-101092D01*
G37*
G36*
X-147970Y-101092D02*
X-144130Y-101092D01*
X-140583Y-99623D01*
X-137867Y-96907D01*
X-136398Y-93360D01*
X-136398Y-89520D01*
X-137867Y-85973D01*
X-140583Y-83257D01*
X-144130Y-81788D01*
X-147970Y-81788D01*
X-151517Y-83257D01*
X-154233Y-85973D01*
X-155702Y-89520D01*
X-155702Y-93360D01*
X-154233Y-96907D01*
X-151517Y-99623D01*
X-147970Y-101092D01*
G37*
G36*
X245376Y-98016D02*
X247892Y-98016D01*
X250215Y-97054D01*
X251994Y-95275D01*
X252956Y-92952D01*
X252956Y-90436D01*
X251994Y-88113D01*
X250215Y-86334D01*
X247892Y-85372D01*
X245376Y-85372D01*
X243053Y-86334D01*
X241274Y-88113D01*
X240312Y-90436D01*
X240312Y-92952D01*
X241274Y-95275D01*
X243053Y-97054D01*
X245376Y-98016D01*
G37*
G36*
X-125718Y-108938D02*
X-123202Y-108938D01*
X-120879Y-107976D01*
X-119100Y-106197D01*
X-118138Y-103874D01*
X-118138Y-101358D01*
X-119100Y-99035D01*
X-120879Y-97256D01*
X-123202Y-96294D01*
X-125718Y-96294D01*
X-128041Y-97256D01*
X-129820Y-99035D01*
X-130782Y-101358D01*
X-130782Y-103874D01*
X-129820Y-106197D01*
X-128041Y-107976D01*
X-125718Y-108938D01*
G37*
G36*
X-101842Y-113002D02*
X-99326Y-113002D01*
X-97003Y-112040D01*
X-95224Y-110261D01*
X-94262Y-107938D01*
X-94262Y-105422D01*
X-95224Y-103099D01*
X-97003Y-101320D01*
X-99326Y-100358D01*
X-101842Y-100358D01*
X-104165Y-101320D01*
X-105944Y-103099D01*
X-106906Y-105422D01*
X-106906Y-107938D01*
X-105944Y-110261D01*
X-104165Y-112040D01*
X-101842Y-113002D01*
G37*
%LPD*%
D10*
X78740Y-91240D03*
X78740Y-66240D03*
X-67310Y21390D03*
X-67310Y-3610D03*
X110331Y-24384D03*
X110331Y1016D03*
X110331Y26416D03*
X110331Y51816D03*
X-115411Y51816D03*
X-115411Y26416D03*
X-115411Y1016D03*
X-115411Y-24384D03*
D11*
X-467760Y299744D03*
X-517760Y299744D03*
D10*
X-273050Y86360D03*
X-273050Y60960D03*
X-273050Y35560D03*
X-273050Y10160D03*
X-273050Y-15240D03*
X-273050Y-40640D03*
X-273050Y-66040D03*
X-273050Y-91440D03*
X-146050Y-91440D03*
X-146050Y-66040D03*
X-146050Y-40640D03*
X-146050Y-15240D03*
X-146050Y10160D03*
X-146050Y35560D03*
X-146050Y60960D03*
X-146050Y86360D03*
X267970Y-91440D03*
X267970Y-66040D03*
X267970Y-40640D03*
X267970Y-15240D03*
X267970Y10160D03*
X267970Y35560D03*
X267970Y60960D03*
X267970Y86360D03*
X140970Y86360D03*
X140970Y60960D03*
X140970Y35560D03*
X140970Y10160D03*
X140970Y-15240D03*
X140970Y-40640D03*
X140970Y-66040D03*
X140970Y-91440D03*
X63500Y64480D03*
X38100Y64480D03*
X12700Y64480D03*
X-12700Y64480D03*
X-38100Y64480D03*
X-63500Y64480D03*
X304800Y190500D03*
X304800Y220980D03*
D12*
X471170Y-134530D03*
X443170Y-113030D03*
X499170Y-113030D03*
D13*
X-224790Y-2540D03*
X-224790Y7620D03*
X-224790Y-12700D03*
X-214630Y-2540D03*
X-214630Y7620D03*
X-214630Y-12700D03*
X-234950Y-2540D03*
X-234950Y7620D03*
X-234950Y-12700D03*
X-256286Y-85852D03*
X-217170Y-55372D03*
X-201168Y-58166D03*
X-197612Y-53086D03*
X-251714Y86614D03*
X-194564Y-59182D03*
X219710Y-2540D03*
X219710Y-12700D03*
X219710Y7620D03*
X209550Y-2540D03*
X209550Y-12700D03*
X209550Y7620D03*
X229870Y-2540D03*
X229870Y-12700D03*
X229870Y7620D03*
X251206Y80772D03*
X212090Y50292D03*
X196088Y53086D03*
X192532Y48006D03*
X246634Y-91694D03*
X189484Y54102D03*
X-513080Y172720D03*
X-513080Y162560D03*
X-513080Y152400D03*
X-513080Y142240D03*
X-502920Y137160D03*
X-502920Y147320D03*
X-502920Y157480D03*
X-502920Y167640D03*
X-492760Y162560D03*
X-492760Y152400D03*
X-492760Y142240D03*
X-482600Y137160D03*
X-482600Y147320D03*
X-482600Y157480D03*
X-482600Y167640D03*
X-472440Y162560D03*
X-472440Y152400D03*
X-472440Y142240D03*
X-462280Y137160D03*
X-462280Y147320D03*
X-462280Y157480D03*
X-462280Y167640D03*
X-452120Y142240D03*
X-431800Y142240D03*
X-441960Y147320D03*
X-421640Y147320D03*
X-441960Y137160D03*
X-421640Y137160D03*
X-452120Y152400D03*
X-452120Y162560D03*
X387858Y213360D03*
X398018Y213360D03*
X408178Y213360D03*
X418338Y213360D03*
X413258Y203200D03*
X403098Y203200D03*
X392938Y203200D03*
X387858Y193040D03*
X398018Y193040D03*
X408178Y193040D03*
X418338Y193040D03*
X413258Y182880D03*
X403098Y182880D03*
X392938Y182880D03*
X387858Y172720D03*
X398018Y172720D03*
X408178Y172720D03*
X418338Y172720D03*
X423418Y182880D03*
X423418Y203200D03*
X382778Y203200D03*
X382778Y182880D03*
X-383540Y257810D03*
X-397510Y257810D03*
X-389890Y248920D03*
X-359410Y203200D03*
X-373380Y203200D03*
X-387350Y203200D03*
X276098Y-121920D03*
X-124460Y-102616D03*
X-472758Y30480D03*
X363474Y35560D03*
X-523240Y147320D03*
X-523240Y157480D03*
X-523240Y167640D03*
X-533400Y162560D03*
X-533400Y152400D03*
X-533400Y172720D03*
X186690Y-122682D03*
X361188Y76454D03*
X395224Y14986D03*
X395224Y762D03*
X395224Y-13970D03*
X-192786Y-27305D03*
X-187198Y-27305D03*
X-190246Y-22479D03*
X-190246Y17399D03*
X-186944Y22225D03*
X-192786Y22225D03*
X187706Y22225D03*
X182118Y22225D03*
X185166Y17399D03*
X185166Y-22479D03*
X181864Y-27305D03*
X187706Y-27305D03*
D14*
X101400Y-91240D02*
X78740Y-91240D01*
X101400Y-91240D02*
X101600Y-91440D01*
X140970Y-91440D01*
X78740Y-91240D02*
X78540Y-91440D01*
X-146050Y86360D02*
X-178054Y118364D01*
X-170942Y64830D02*
X-170942Y36576D01*
X-190119Y17399D01*
X-190246Y17399D01*
X-170942Y36576D02*
X-170942Y-3175D01*
X-190246Y-22479D01*
X140970Y-91440D02*
X149352Y-91440D01*
X165862Y-74930D01*
X165862Y-41783D01*
X185166Y-22479D01*
X165862Y-1905D02*
X185166Y17399D01*
X165862Y-1905D02*
X165862Y-41783D01*
X-149412Y86360D02*
X-170942Y64830D01*
X-149412Y86360D02*
X-146050Y86360D01*
X-88900Y42980D02*
X-67310Y21390D01*
X-115350Y86360D02*
X-146050Y86360D01*
X-88900Y59910D02*
X-88900Y42980D01*
X-88900Y59910D02*
X-115350Y86360D01*
X-67310Y21390D02*
X14170Y21390D01*
X41402Y-5842D01*
X41402Y-70358D01*
X62484Y-91440D01*
X78540Y-91440D01*
X-178054Y118364D02*
X-286755Y118364D01*
D13*
X-453652Y275366D03*
X-445398Y270620D03*
X-453652Y265096D03*
X-445398Y259334D03*
D14*
X-333491Y165100D02*
X-286755Y118364D01*
X-333491Y165100D02*
X-387096Y165100D01*
X-450850Y228854D01*
D13*
X-453780Y255016D03*
D14*
X-450850Y273558D02*
X-450850Y228854D01*
D15*
X-452658Y275366D02*
X-453652Y275366D01*
X-452658Y275366D02*
X-450850Y273558D01*
D13*
X197993Y-40640D03*
X195707Y-35052D03*
X191643Y-40132D03*
X-244602Y-85598D03*
X239522Y80518D03*
X-360680Y91440D03*
X-370840Y91440D03*
X-381000Y91440D03*
X-391160Y91440D03*
X-401320Y91440D03*
X-411480Y91440D03*
X-416560Y101600D03*
X-406400Y101600D03*
X-396240Y101600D03*
X-386080Y101600D03*
X-411480Y111760D03*
X423672Y-92238D03*
X-116332Y-109474D03*
X276606Y-134112D03*
X-101600Y-116840D03*
X-50800Y-116840D03*
X0Y-116840D03*
X50800Y-116840D03*
X101600Y-116840D03*
X-472758Y-58420D03*
X-472758Y20320D03*
X-472758Y99060D03*
X363474Y25400D03*
X346710Y257556D03*
X288861Y41847D03*
X288643Y25400D03*
X495046Y27432D03*
X444246Y-64516D03*
X524510Y197104D03*
X471170Y-84074D03*
X440218Y-42454D03*
X433070Y-49530D03*
X464592Y-91539D03*
X469138Y-13208D03*
X532130Y219202D03*
X478536Y-13462D03*
X538480Y231902D03*
X346710Y244348D03*
X456438Y31496D03*
X424942Y31750D03*
X329692Y48768D03*
D15*
X473202Y231140D02*
X486410Y244348D01*
D13*
X486410Y244348D03*
D15*
X473202Y231140D02*
X473202Y175884D01*
X358278Y60960D01*
X341884Y60960D01*
X329692Y48768D01*
D13*
X-472758Y10160D03*
D15*
X289560Y8636D02*
X289560Y-86868D01*
X289560Y8636D02*
X329692Y48768D01*
X-330518Y-132080D02*
X-472758Y10160D01*
X-330518Y-132080D02*
X22606Y-132080D01*
X40640Y-124460D02*
X48260Y-132080D01*
X244348Y-132080D01*
X289560Y-86868D01*
D13*
X30142Y-124460D03*
D15*
X30142Y-124544D02*
X22606Y-132080D01*
X30142Y-124544D02*
X30142Y-124460D01*
X40640Y-124460D01*
D13*
X326898Y35560D03*
X486410Y206502D03*
D15*
X360680Y55880D02*
X347218Y55880D01*
X326898Y35560D01*
D13*
X-472504Y353D03*
D15*
X294640Y3302D02*
X326898Y35560D01*
X294640Y3302D02*
X294640Y-88900D01*
X-336007Y-136144D02*
X-472504Y353D01*
X247396Y-136144D02*
X294640Y-88900D01*
X25654Y-136144D02*
X-336007Y-136144D01*
X42926Y-136144D02*
X247396Y-136144D01*
D13*
X38354Y-131417D03*
D15*
X38354Y-131572D01*
X30226Y-131572D02*
X25654Y-136144D01*
X30226Y-131572D02*
X38354Y-131572D01*
X42926Y-136144D01*
X360680Y55880D02*
X479199Y174399D01*
X479199Y199291D02*
X486410Y206502D01*
X479199Y199291D02*
X479199Y174399D01*
D13*
X315020Y117856D03*
X315020Y130556D03*
X315020Y143256D03*
X-259846Y-16764D03*
X-256540Y-47244D03*
X-203073Y-40640D03*
X-200787Y-35052D03*
X-196723Y-40132D03*
X-203073Y35560D03*
X-200787Y29972D03*
X-196723Y35052D03*
X197993Y35560D03*
X195707Y29972D03*
X191643Y35052D03*
X254766Y11684D03*
X251460Y42164D03*
X466598Y117602D03*
X-100584Y-106680D03*
X-472758Y-78740D03*
X524002Y168402D03*
D15*
X527558Y168402D01*
X533400Y162560D01*
X-406210Y-145288D02*
X-472758Y-78740D01*
X533400Y-41976D02*
X533400Y162560D01*
X533400Y-41976D02*
X430088Y-145288D01*
X-406210Y-145288D01*
D13*
X-472758Y-99060D03*
X520954Y257048D03*
D15*
X526759Y257048D01*
X545047Y238760D01*
X-417521Y-154297D02*
X-472758Y-99060D01*
X545047Y-42239D02*
X545047Y238760D01*
X432989Y-154297D02*
X-417521Y-154297D01*
X432989Y-154297D02*
X545047Y-42239D01*
D13*
X-472758Y-88900D03*
D15*
X-411798Y-149860D01*
X524256Y181102D02*
X538480Y166878D01*
D13*
X524256Y181102D03*
D15*
X431127Y-149860D02*
X-411798Y-149860D01*
X431127Y-149860D02*
X538480Y-42507D01*
X538480Y166878D01*
D13*
X311404Y-70612D03*
X360680Y231140D03*
X303800Y-81713D03*
X353568Y219202D03*
X315020Y155702D03*
X314960Y167640D03*
X-472758Y-68580D03*
D15*
X-400622Y-140716D01*
X400304Y-140716D01*
X524002Y-17018D01*
X524002Y155702D01*
D13*
X524002Y155702D03*
X346710Y181102D03*
M02*
