G04 EAGLE Gerber RS-274X export*
G75*
%MOMM*%
%FSLAX34Y34*%
%LPD*%
%INCopper Layer 2*%
%IPPOS*%
%AMOC8*
5,1,8,0,0,1.08239X$1,22.5*%
G01*
G04 Define Apertures*
%ADD10C,1.422400*%
%ADD11C,2.100000*%
%ADD12C,1.008000*%
%ADD13C,0.756400*%
G36*
X540394Y-155388D02*
X540000Y-155440D01*
X-540000Y-155440D01*
X-540394Y-155388D01*
X-542727Y-154763D01*
X-543411Y-154369D01*
X-545119Y-152661D01*
X-545513Y-151977D01*
X-546138Y-149644D01*
X-546190Y-149250D01*
X-546190Y336366D01*
X-546138Y336760D01*
X-545513Y339093D01*
X-545119Y339777D01*
X-543411Y341485D01*
X-542727Y341879D01*
X-540394Y342504D01*
X-540000Y342556D01*
X-295000Y342556D01*
X-294606Y342504D01*
X-292273Y341879D01*
X-291589Y341485D01*
X-289882Y339777D01*
X-289487Y339093D01*
X-288862Y336760D01*
X-288810Y336366D01*
X-288810Y143619D01*
X-286708Y138543D01*
X-282823Y134658D01*
X-277747Y132556D01*
X-115600Y132556D01*
X-115205Y132504D01*
X-112872Y131879D01*
X-112189Y131485D01*
X-110481Y129777D01*
X-110087Y129093D01*
X-109462Y126760D01*
X-109410Y126366D01*
X-109410Y103619D01*
X-107307Y98543D01*
X-103422Y94658D01*
X-98347Y92556D01*
X98347Y92556D01*
X103423Y94658D01*
X107308Y98543D01*
X109410Y103619D01*
X109410Y126366D01*
X109462Y126760D01*
X110087Y129093D01*
X110482Y129777D01*
X112189Y131485D01*
X112873Y131879D01*
X115206Y132504D01*
X115600Y132556D01*
X277747Y132556D01*
X282823Y134658D01*
X286708Y138543D01*
X288810Y143619D01*
X288810Y278962D01*
X288912Y279511D01*
X289239Y280022D01*
X289740Y280365D01*
X290334Y280486D01*
X544666Y280486D01*
X545215Y280384D01*
X545726Y280057D01*
X546069Y279556D01*
X546190Y278962D01*
X546190Y236812D01*
X546096Y236285D01*
X545777Y235769D01*
X545283Y235418D01*
X544690Y235288D01*
X544094Y235399D01*
X543588Y235734D01*
X542061Y237262D01*
X539738Y238224D01*
X537222Y238224D01*
X534899Y237262D01*
X533120Y235483D01*
X532158Y233160D01*
X532158Y230644D01*
X533120Y228321D01*
X533316Y228126D01*
X533622Y227687D01*
X533761Y227097D01*
X533660Y226499D01*
X533333Y225988D01*
X532832Y225645D01*
X532238Y225524D01*
X530872Y225524D01*
X528549Y224562D01*
X526770Y222783D01*
X525808Y220460D01*
X525808Y217944D01*
X526770Y215621D01*
X528549Y213842D01*
X530872Y212880D01*
X533388Y212880D01*
X535711Y213842D01*
X537490Y215621D01*
X538452Y217944D01*
X538452Y220460D01*
X537490Y222783D01*
X537294Y222978D01*
X536988Y223417D01*
X536849Y224007D01*
X536950Y224605D01*
X537277Y225116D01*
X537778Y225459D01*
X538372Y225580D01*
X539738Y225580D01*
X542061Y226542D01*
X543588Y228070D01*
X544027Y228376D01*
X544617Y228515D01*
X545215Y228414D01*
X545726Y228087D01*
X546069Y227586D01*
X546190Y226992D01*
X546190Y-149250D01*
X546138Y-149644D01*
X545513Y-151977D01*
X545119Y-152661D01*
X543411Y-154369D01*
X542727Y-154763D01*
X540394Y-155388D01*
G37*
%LPC*%
G36*
X-480800Y301014D02*
X-469030Y301014D01*
X-469030Y312784D01*
X-470354Y312784D01*
X-475147Y310799D01*
X-478815Y307131D01*
X-480800Y302338D01*
X-480800Y301014D01*
G37*
G36*
X-520354Y286704D02*
X-515166Y286704D01*
X-510373Y288689D01*
X-506705Y292357D01*
X-504720Y297150D01*
X-504720Y302338D01*
X-506705Y307131D01*
X-510373Y310799D01*
X-515166Y312784D01*
X-520354Y312784D01*
X-525147Y310799D01*
X-528815Y307131D01*
X-530800Y302338D01*
X-530800Y297150D01*
X-528815Y292357D01*
X-525147Y288689D01*
X-520354Y286704D01*
G37*
G36*
X-466490Y301014D02*
X-454720Y301014D01*
X-454720Y302338D01*
X-456705Y307131D01*
X-460373Y310799D01*
X-465166Y312784D01*
X-466490Y312784D01*
X-466490Y301014D01*
G37*
G36*
X-466490Y286704D02*
X-465166Y286704D01*
X-460373Y288689D01*
X-456705Y292357D01*
X-454720Y297150D01*
X-454720Y298474D01*
X-466490Y298474D01*
X-466490Y286704D01*
G37*
G36*
X-470354Y286704D02*
X-469030Y286704D01*
X-469030Y298474D01*
X-480800Y298474D01*
X-480800Y297150D01*
X-478815Y292357D01*
X-475147Y288689D01*
X-470354Y286704D01*
G37*
G36*
X-455038Y248694D02*
X-452522Y248694D01*
X-450199Y249656D01*
X-448420Y251435D01*
X-448157Y252071D01*
X-447844Y252548D01*
X-447343Y252891D01*
X-446749Y253012D01*
X-444140Y253012D01*
X-441817Y253974D01*
X-440038Y255753D01*
X-439076Y258076D01*
X-439076Y260592D01*
X-440038Y262915D01*
X-441023Y263899D01*
X-441339Y264360D01*
X-441469Y264953D01*
X-441358Y265549D01*
X-441023Y266055D01*
X-440038Y267039D01*
X-439076Y269362D01*
X-439076Y271878D01*
X-440038Y274201D01*
X-441817Y275980D01*
X-444140Y276942D01*
X-446444Y276942D01*
X-447004Y277049D01*
X-447513Y277380D01*
X-447852Y277883D01*
X-448292Y278947D01*
X-450071Y280726D01*
X-452394Y281688D01*
X-454910Y281688D01*
X-457233Y280726D01*
X-459012Y278947D01*
X-459974Y276624D01*
X-459974Y274108D01*
X-459012Y271785D01*
X-458535Y271309D01*
X-458219Y270848D01*
X-458089Y270255D01*
X-458200Y269659D01*
X-458535Y269153D01*
X-459012Y268677D01*
X-459974Y266354D01*
X-459974Y263838D01*
X-459012Y261515D01*
X-458694Y261198D01*
X-458378Y260737D01*
X-458248Y260144D01*
X-458359Y259548D01*
X-458694Y259042D01*
X-459140Y258597D01*
X-460102Y256274D01*
X-460102Y253758D01*
X-459140Y251435D01*
X-457361Y249656D01*
X-455038Y248694D01*
G37*
G36*
X345452Y238026D02*
X347968Y238026D01*
X350291Y238988D01*
X352070Y240767D01*
X353032Y243090D01*
X353032Y245606D01*
X352070Y247929D01*
X350124Y249874D01*
X349808Y250335D01*
X349678Y250928D01*
X349789Y251524D01*
X350124Y252030D01*
X352070Y253975D01*
X353032Y256298D01*
X353032Y258814D01*
X352070Y261137D01*
X350291Y262916D01*
X347968Y263878D01*
X345452Y263878D01*
X343129Y262916D01*
X341350Y261137D01*
X340388Y258814D01*
X340388Y256298D01*
X341350Y253975D01*
X343296Y252030D01*
X343612Y251569D01*
X343742Y250976D01*
X343631Y250380D01*
X343296Y249874D01*
X341350Y247929D01*
X340388Y245606D01*
X340388Y243090D01*
X341350Y240767D01*
X343129Y238988D01*
X345452Y238026D01*
G37*
G36*
X519696Y250726D02*
X522212Y250726D01*
X524535Y251688D01*
X526314Y253467D01*
X527276Y255790D01*
X527276Y258306D01*
X526314Y260629D01*
X524535Y262408D01*
X522212Y263370D01*
X519696Y263370D01*
X517373Y262408D01*
X515594Y260629D01*
X514632Y258306D01*
X514632Y255790D01*
X515594Y253467D01*
X517373Y251688D01*
X519696Y250726D01*
G37*
G36*
X485152Y238026D02*
X487668Y238026D01*
X489991Y238988D01*
X491770Y240767D01*
X492732Y243090D01*
X492732Y245606D01*
X491770Y247929D01*
X489991Y249708D01*
X487668Y250670D01*
X485152Y250670D01*
X482829Y249708D01*
X481050Y247929D01*
X480088Y245606D01*
X480088Y243090D01*
X481050Y240767D01*
X482829Y238988D01*
X485152Y238026D01*
G37*
G36*
X352310Y212880D02*
X354826Y212880D01*
X357149Y213842D01*
X358928Y215621D01*
X359890Y217944D01*
X359890Y220460D01*
X358958Y222711D01*
X358842Y223245D01*
X358944Y223843D01*
X359271Y224354D01*
X359771Y224697D01*
X360366Y224818D01*
X361938Y224818D01*
X364261Y225780D01*
X366040Y227559D01*
X367002Y229882D01*
X367002Y232398D01*
X366040Y234721D01*
X364261Y236500D01*
X361938Y237462D01*
X359422Y237462D01*
X357099Y236500D01*
X355320Y234721D01*
X354358Y232398D01*
X354358Y229882D01*
X355291Y227631D01*
X355406Y227097D01*
X355304Y226499D01*
X354977Y225988D01*
X354477Y225645D01*
X353883Y225524D01*
X352310Y225524D01*
X349987Y224562D01*
X348208Y222783D01*
X347246Y220460D01*
X347246Y217944D01*
X348208Y215621D01*
X349987Y213842D01*
X352310Y212880D01*
G37*
G36*
X302880Y211328D02*
X306720Y211328D01*
X310267Y212797D01*
X312983Y215513D01*
X314452Y219060D01*
X314452Y222900D01*
X312983Y226447D01*
X310267Y229163D01*
X306720Y230632D01*
X302880Y230632D01*
X299333Y229163D01*
X296617Y226447D01*
X295148Y222900D01*
X295148Y219060D01*
X296617Y215513D01*
X299333Y212797D01*
X302880Y211328D01*
G37*
G36*
X485152Y200180D02*
X487668Y200180D01*
X489991Y201142D01*
X491770Y202921D01*
X492732Y205244D01*
X492732Y207760D01*
X491770Y210083D01*
X489991Y211862D01*
X487668Y212824D01*
X485152Y212824D01*
X482829Y211862D01*
X481050Y210083D01*
X480088Y207760D01*
X480088Y205244D01*
X481050Y202921D01*
X482829Y201142D01*
X485152Y200180D01*
G37*
G36*
X523252Y190782D02*
X525768Y190782D01*
X528091Y191744D01*
X529870Y193523D01*
X530832Y195846D01*
X530832Y198362D01*
X529870Y200685D01*
X528091Y202464D01*
X525768Y203426D01*
X523252Y203426D01*
X520929Y202464D01*
X519150Y200685D01*
X518188Y198362D01*
X518188Y195846D01*
X519150Y193523D01*
X520929Y191744D01*
X523252Y190782D01*
G37*
G36*
X302880Y180848D02*
X306720Y180848D01*
X310267Y182317D01*
X312983Y185033D01*
X314452Y188580D01*
X314452Y192420D01*
X312983Y195967D01*
X310267Y198683D01*
X306720Y200152D01*
X302880Y200152D01*
X299333Y198683D01*
X296617Y195967D01*
X295148Y192420D01*
X295148Y188580D01*
X296617Y185033D01*
X299333Y182317D01*
X302880Y180848D01*
G37*
G36*
X522744Y149380D02*
X525260Y149380D01*
X527583Y150342D01*
X529362Y152121D01*
X530324Y154444D01*
X530324Y156960D01*
X529362Y159283D01*
X527670Y160974D01*
X527354Y161435D01*
X527224Y162028D01*
X527335Y162624D01*
X527670Y163130D01*
X529362Y164821D01*
X530324Y167144D01*
X530324Y169660D01*
X529362Y171983D01*
X527797Y173547D01*
X527481Y174008D01*
X527351Y174601D01*
X527462Y175197D01*
X527797Y175703D01*
X529616Y177521D01*
X530578Y179844D01*
X530578Y182360D01*
X529616Y184683D01*
X527837Y186462D01*
X525514Y187424D01*
X522998Y187424D01*
X520675Y186462D01*
X518896Y184683D01*
X517934Y182360D01*
X517934Y179844D01*
X518896Y177521D01*
X520461Y175957D01*
X520777Y175496D01*
X520907Y174903D01*
X520796Y174307D01*
X520461Y173801D01*
X518642Y171983D01*
X517680Y169660D01*
X517680Y167144D01*
X518642Y164821D01*
X520334Y163130D01*
X520650Y162669D01*
X520780Y162076D01*
X520669Y161480D01*
X520334Y160974D01*
X518642Y159283D01*
X517680Y156960D01*
X517680Y154444D01*
X518642Y152121D01*
X520421Y150342D01*
X522744Y149380D01*
G37*
G36*
X345452Y174780D02*
X347968Y174780D01*
X350291Y175742D01*
X352070Y177521D01*
X353032Y179844D01*
X353032Y182360D01*
X352070Y184683D01*
X350291Y186462D01*
X347968Y187424D01*
X345452Y187424D01*
X343129Y186462D01*
X341350Y184683D01*
X340388Y182360D01*
X340388Y179844D01*
X341350Y177521D01*
X343129Y175742D01*
X345452Y174780D01*
G37*
G36*
X313762Y111534D02*
X316277Y111534D01*
X318601Y112496D01*
X320379Y114275D01*
X321342Y116598D01*
X321342Y119114D01*
X320379Y121437D01*
X318688Y123128D01*
X318372Y123589D01*
X318242Y124182D01*
X318353Y124778D01*
X318688Y125284D01*
X320379Y126975D01*
X321342Y129298D01*
X321342Y131814D01*
X320379Y134137D01*
X318688Y135828D01*
X318372Y136289D01*
X318242Y136882D01*
X318353Y137478D01*
X318688Y137984D01*
X320379Y139675D01*
X321342Y141998D01*
X321342Y144514D01*
X320379Y146837D01*
X318815Y148401D01*
X318499Y148862D01*
X318369Y149455D01*
X318480Y150051D01*
X318815Y150557D01*
X320379Y152121D01*
X321342Y154444D01*
X321342Y156960D01*
X320379Y159283D01*
X319039Y160623D01*
X318723Y161084D01*
X318593Y161676D01*
X318704Y162273D01*
X319039Y162778D01*
X320320Y164059D01*
X321282Y166382D01*
X321282Y168898D01*
X320320Y171221D01*
X318541Y173000D01*
X316218Y173962D01*
X313702Y173962D01*
X311379Y173000D01*
X309600Y171221D01*
X308638Y168898D01*
X308638Y166382D01*
X309600Y164059D01*
X310940Y162719D01*
X311256Y162258D01*
X311387Y161666D01*
X311275Y161069D01*
X310940Y160564D01*
X309660Y159283D01*
X308698Y156960D01*
X308698Y154444D01*
X309660Y152121D01*
X311224Y150557D01*
X311540Y150096D01*
X311670Y149503D01*
X311559Y148907D01*
X311224Y148401D01*
X309660Y146837D01*
X308698Y144514D01*
X308698Y141998D01*
X309660Y139675D01*
X311351Y137984D01*
X311667Y137523D01*
X311797Y136930D01*
X311686Y136334D01*
X311351Y135828D01*
X309660Y134137D01*
X308698Y131814D01*
X308698Y129298D01*
X309660Y126975D01*
X311351Y125284D01*
X311667Y124823D01*
X311797Y124230D01*
X311686Y123634D01*
X311351Y123128D01*
X309660Y121437D01*
X308698Y119114D01*
X308698Y116598D01*
X309660Y114275D01*
X311438Y112496D01*
X313762Y111534D01*
G37*
G36*
X465340Y111280D02*
X467856Y111280D01*
X470179Y112242D01*
X471958Y114021D01*
X472920Y116344D01*
X472920Y118860D01*
X471958Y121183D01*
X470179Y122962D01*
X467856Y123924D01*
X465340Y123924D01*
X463017Y122962D01*
X461238Y121183D01*
X460276Y118860D01*
X460276Y116344D01*
X461238Y114021D01*
X463017Y112242D01*
X465340Y111280D01*
G37*
G36*
X-412738Y85118D02*
X-410222Y85118D01*
X-407899Y86080D01*
X-407478Y86502D01*
X-407017Y86818D01*
X-406424Y86948D01*
X-405828Y86837D01*
X-405322Y86502D01*
X-404901Y86080D01*
X-402578Y85118D01*
X-400062Y85118D01*
X-397739Y86080D01*
X-397318Y86502D01*
X-396857Y86818D01*
X-396264Y86948D01*
X-395668Y86837D01*
X-395162Y86502D01*
X-394741Y86080D01*
X-392418Y85118D01*
X-389902Y85118D01*
X-387579Y86080D01*
X-387158Y86502D01*
X-386697Y86818D01*
X-386104Y86948D01*
X-385508Y86837D01*
X-385002Y86502D01*
X-384581Y86080D01*
X-382258Y85118D01*
X-379742Y85118D01*
X-377419Y86080D01*
X-376998Y86502D01*
X-376537Y86818D01*
X-375944Y86948D01*
X-375348Y86837D01*
X-374842Y86502D01*
X-374421Y86080D01*
X-372098Y85118D01*
X-369582Y85118D01*
X-367259Y86080D01*
X-366838Y86502D01*
X-366377Y86818D01*
X-365784Y86948D01*
X-365188Y86837D01*
X-364682Y86502D01*
X-364261Y86080D01*
X-361938Y85118D01*
X-359422Y85118D01*
X-357099Y86080D01*
X-355320Y87859D01*
X-354358Y90182D01*
X-354358Y92698D01*
X-355320Y95021D01*
X-357099Y96800D01*
X-359422Y97762D01*
X-361938Y97762D01*
X-364261Y96800D01*
X-364682Y96378D01*
X-365143Y96062D01*
X-365736Y95932D01*
X-366332Y96043D01*
X-366838Y96378D01*
X-367259Y96800D01*
X-369582Y97762D01*
X-372098Y97762D01*
X-374421Y96800D01*
X-374842Y96378D01*
X-375303Y96062D01*
X-375896Y95932D01*
X-376492Y96043D01*
X-376998Y96378D01*
X-377419Y96800D01*
X-379260Y97562D01*
X-379728Y97867D01*
X-380075Y98365D01*
X-380201Y98958D01*
X-380085Y99553D01*
X-379758Y100342D01*
X-379758Y102858D01*
X-380720Y105181D01*
X-382499Y106960D01*
X-384822Y107922D01*
X-387338Y107922D01*
X-389661Y106960D01*
X-390082Y106538D01*
X-390543Y106222D01*
X-391136Y106092D01*
X-391732Y106203D01*
X-392238Y106538D01*
X-392659Y106960D01*
X-394982Y107922D01*
X-397498Y107922D01*
X-399821Y106960D01*
X-400242Y106538D01*
X-400703Y106222D01*
X-401296Y106092D01*
X-401892Y106203D01*
X-402398Y106538D01*
X-402819Y106960D01*
X-404660Y107722D01*
X-405128Y108027D01*
X-405475Y108525D01*
X-405601Y109118D01*
X-405485Y109713D01*
X-405158Y110502D01*
X-405158Y113018D01*
X-406120Y115341D01*
X-407899Y117120D01*
X-410222Y118082D01*
X-412738Y118082D01*
X-415061Y117120D01*
X-416840Y115341D01*
X-417802Y113018D01*
X-417802Y110502D01*
X-417475Y109713D01*
X-417360Y109167D01*
X-417466Y108570D01*
X-417797Y108061D01*
X-418300Y107722D01*
X-420141Y106960D01*
X-421920Y105181D01*
X-422882Y102858D01*
X-422882Y100342D01*
X-421920Y98019D01*
X-420141Y96240D01*
X-418300Y95478D01*
X-417832Y95173D01*
X-417485Y94675D01*
X-417359Y94082D01*
X-417475Y93487D01*
X-417802Y92698D01*
X-417802Y90182D01*
X-416840Y87859D01*
X-415061Y86080D01*
X-412738Y85118D01*
G37*
G36*
X-474015Y92738D02*
X-471500Y92738D01*
X-469176Y93700D01*
X-467398Y95479D01*
X-466436Y97802D01*
X-466436Y100318D01*
X-467398Y102641D01*
X-469176Y104420D01*
X-471500Y105382D01*
X-474015Y105382D01*
X-476339Y104420D01*
X-478117Y102641D01*
X-479080Y100318D01*
X-479080Y97802D01*
X-478117Y95479D01*
X-476339Y93700D01*
X-474015Y92738D01*
G37*
G36*
X-147970Y76708D02*
X-144130Y76708D01*
X-140583Y78177D01*
X-137867Y80893D01*
X-136398Y84440D01*
X-136398Y88280D01*
X-137867Y91827D01*
X-140583Y94543D01*
X-144130Y96012D01*
X-147970Y96012D01*
X-151517Y94543D01*
X-154233Y91827D01*
X-155702Y88280D01*
X-155702Y84440D01*
X-154233Y80893D01*
X-151517Y78177D01*
X-147970Y76708D01*
G37*
G36*
X266050Y76708D02*
X269890Y76708D01*
X273437Y78177D01*
X276153Y80893D01*
X277622Y84440D01*
X277622Y88280D01*
X276153Y91827D01*
X273437Y94543D01*
X269890Y96012D01*
X266050Y96012D01*
X262503Y94543D01*
X259787Y91827D01*
X258318Y88280D01*
X258318Y84440D01*
X259787Y80893D01*
X262503Y78177D01*
X266050Y76708D01*
G37*
G36*
X131318Y87630D02*
X139700Y87630D01*
X139700Y96012D01*
X139050Y96012D01*
X135503Y94543D01*
X132787Y91827D01*
X131318Y88280D01*
X131318Y87630D01*
G37*
G36*
X-274970Y76708D02*
X-271130Y76708D01*
X-267583Y78177D01*
X-264867Y80893D01*
X-263398Y84440D01*
X-263398Y88280D01*
X-264867Y91827D01*
X-267583Y94543D01*
X-271130Y96012D01*
X-274970Y96012D01*
X-278517Y94543D01*
X-281233Y91827D01*
X-282702Y88280D01*
X-282702Y84440D01*
X-281233Y80893D01*
X-278517Y78177D01*
X-274970Y76708D01*
G37*
G36*
X142240Y87630D02*
X150622Y87630D01*
X150622Y88280D01*
X149153Y91827D01*
X146437Y94543D01*
X142890Y96012D01*
X142240Y96012D01*
X142240Y87630D01*
G37*
G36*
X238264Y74196D02*
X240780Y74196D01*
X243103Y75158D01*
X244882Y76937D01*
X245844Y79260D01*
X245844Y81776D01*
X244882Y84099D01*
X243103Y85878D01*
X240780Y86840D01*
X238264Y86840D01*
X235941Y85878D01*
X234162Y84099D01*
X233200Y81776D01*
X233200Y79260D01*
X234162Y76937D01*
X235941Y75158D01*
X238264Y74196D01*
G37*
G36*
X142240Y76708D02*
X142890Y76708D01*
X146437Y78177D01*
X149153Y80893D01*
X150622Y84440D01*
X150622Y85090D01*
X142240Y85090D01*
X142240Y76708D01*
G37*
G36*
X139050Y76708D02*
X139700Y76708D01*
X139700Y85090D01*
X131318Y85090D01*
X131318Y84440D01*
X132787Y80893D01*
X135503Y78177D01*
X139050Y76708D01*
G37*
G36*
X-14620Y54828D02*
X-10780Y54828D01*
X-7233Y56297D01*
X-4517Y59013D01*
X-3048Y62560D01*
X-3048Y66400D01*
X-4517Y69947D01*
X-7233Y72663D01*
X-10780Y74132D01*
X-14620Y74132D01*
X-18167Y72663D01*
X-20883Y69947D01*
X-22352Y66400D01*
X-22352Y62560D01*
X-20883Y59013D01*
X-18167Y56297D01*
X-14620Y54828D01*
G37*
G36*
X-40020Y54828D02*
X-36180Y54828D01*
X-32633Y56297D01*
X-29917Y59013D01*
X-28448Y62560D01*
X-28448Y66400D01*
X-29917Y69947D01*
X-32633Y72663D01*
X-36180Y74132D01*
X-40020Y74132D01*
X-43567Y72663D01*
X-46283Y69947D01*
X-47752Y66400D01*
X-47752Y62560D01*
X-46283Y59013D01*
X-43567Y56297D01*
X-40020Y54828D01*
G37*
G36*
X-73152Y65750D02*
X-64770Y65750D01*
X-64770Y74132D01*
X-65420Y74132D01*
X-68967Y72663D01*
X-71683Y69947D01*
X-73152Y66400D01*
X-73152Y65750D01*
G37*
G36*
X61580Y54828D02*
X65420Y54828D01*
X68967Y56297D01*
X71683Y59013D01*
X73152Y62560D01*
X73152Y66400D01*
X71683Y69947D01*
X68967Y72663D01*
X65420Y74132D01*
X61580Y74132D01*
X58033Y72663D01*
X55317Y69947D01*
X53848Y66400D01*
X53848Y62560D01*
X55317Y59013D01*
X58033Y56297D01*
X61580Y54828D01*
G37*
G36*
X36180Y54828D02*
X40020Y54828D01*
X43567Y56297D01*
X46283Y59013D01*
X47752Y62560D01*
X47752Y66400D01*
X46283Y69947D01*
X43567Y72663D01*
X40020Y74132D01*
X36180Y74132D01*
X32633Y72663D01*
X29917Y69947D01*
X28448Y66400D01*
X28448Y62560D01*
X29917Y59013D01*
X32633Y56297D01*
X36180Y54828D01*
G37*
G36*
X10780Y54828D02*
X14620Y54828D01*
X18167Y56297D01*
X20883Y59013D01*
X22352Y62560D01*
X22352Y66400D01*
X20883Y69947D01*
X18167Y72663D01*
X14620Y74132D01*
X10780Y74132D01*
X7233Y72663D01*
X4517Y69947D01*
X3048Y66400D01*
X3048Y62560D01*
X4517Y59013D01*
X7233Y56297D01*
X10780Y54828D01*
G37*
G36*
X-62230Y65750D02*
X-53848Y65750D01*
X-53848Y66400D01*
X-55317Y69947D01*
X-58033Y72663D01*
X-61580Y74132D01*
X-62230Y74132D01*
X-62230Y65750D01*
G37*
G36*
X-274970Y51308D02*
X-271130Y51308D01*
X-267583Y52777D01*
X-264867Y55493D01*
X-263398Y59040D01*
X-263398Y62880D01*
X-264867Y66427D01*
X-267583Y69143D01*
X-271130Y70612D01*
X-274970Y70612D01*
X-278517Y69143D01*
X-281233Y66427D01*
X-282702Y62880D01*
X-282702Y59040D01*
X-281233Y55493D01*
X-278517Y52777D01*
X-274970Y51308D01*
G37*
G36*
X-155702Y62230D02*
X-147320Y62230D01*
X-147320Y70612D01*
X-147970Y70612D01*
X-151517Y69143D01*
X-154233Y66427D01*
X-155702Y62880D01*
X-155702Y62230D01*
G37*
G36*
X139050Y51308D02*
X142890Y51308D01*
X146437Y52777D01*
X149153Y55493D01*
X150622Y59040D01*
X150622Y62880D01*
X149153Y66427D01*
X146437Y69143D01*
X142890Y70612D01*
X139050Y70612D01*
X135503Y69143D01*
X132787Y66427D01*
X131318Y62880D01*
X131318Y59040D01*
X132787Y55493D01*
X135503Y52777D01*
X139050Y51308D01*
G37*
G36*
X266050Y51308D02*
X269890Y51308D01*
X273437Y52777D01*
X276153Y55493D01*
X277622Y59040D01*
X277622Y62880D01*
X276153Y66427D01*
X273437Y69143D01*
X269890Y70612D01*
X266050Y70612D01*
X262503Y69143D01*
X259787Y66427D01*
X258318Y62880D01*
X258318Y59040D01*
X259787Y55493D01*
X262503Y52777D01*
X266050Y51308D01*
G37*
G36*
X-144780Y62230D02*
X-136398Y62230D01*
X-136398Y62880D01*
X-137867Y66427D01*
X-140583Y69143D01*
X-144130Y70612D01*
X-144780Y70612D01*
X-144780Y62230D01*
G37*
G36*
X-62230Y54828D02*
X-61580Y54828D01*
X-58033Y56297D01*
X-55317Y59013D01*
X-53848Y62560D01*
X-53848Y63210D01*
X-62230Y63210D01*
X-62230Y54828D01*
G37*
G36*
X-65420Y54828D02*
X-64770Y54828D01*
X-64770Y63210D01*
X-73152Y63210D01*
X-73152Y62560D01*
X-71683Y59013D01*
X-68967Y56297D01*
X-65420Y54828D01*
G37*
G36*
X108411Y42164D02*
X112251Y42164D01*
X115798Y43633D01*
X118514Y46349D01*
X119983Y49896D01*
X119983Y53736D01*
X118514Y57283D01*
X115798Y59999D01*
X112251Y61468D01*
X108411Y61468D01*
X104864Y59999D01*
X102148Y57283D01*
X100679Y53736D01*
X100679Y49896D01*
X102148Y46349D01*
X104864Y43633D01*
X108411Y42164D01*
G37*
G36*
X-117331Y42164D02*
X-113491Y42164D01*
X-109944Y43633D01*
X-107228Y46349D01*
X-105759Y49896D01*
X-105759Y53736D01*
X-107228Y57283D01*
X-109944Y59999D01*
X-113491Y61468D01*
X-117331Y61468D01*
X-120878Y59999D01*
X-123594Y57283D01*
X-125063Y53736D01*
X-125063Y49896D01*
X-123594Y46349D01*
X-120878Y43633D01*
X-117331Y42164D01*
G37*
G36*
X-144780Y51308D02*
X-144130Y51308D01*
X-140583Y52777D01*
X-137867Y55493D01*
X-136398Y59040D01*
X-136398Y59690D01*
X-144780Y59690D01*
X-144780Y51308D01*
G37*
G36*
X-147970Y51308D02*
X-147320Y51308D01*
X-147320Y59690D01*
X-155702Y59690D01*
X-155702Y59040D01*
X-154233Y55493D01*
X-151517Y52777D01*
X-147970Y51308D01*
G37*
G36*
X325640Y29238D02*
X328156Y29238D01*
X330479Y30200D01*
X332258Y31979D01*
X333220Y34302D01*
X333220Y36818D01*
X332258Y39141D01*
X331150Y40248D01*
X330839Y40698D01*
X330704Y41290D01*
X330811Y41887D01*
X331142Y42395D01*
X331645Y42734D01*
X333273Y43408D01*
X335052Y45187D01*
X336014Y47510D01*
X336014Y50026D01*
X335052Y52349D01*
X333273Y54128D01*
X330950Y55090D01*
X328434Y55090D01*
X326111Y54128D01*
X324332Y52349D01*
X323370Y50026D01*
X323370Y47510D01*
X324332Y45187D01*
X325440Y44080D01*
X325751Y43630D01*
X325886Y43038D01*
X325779Y42441D01*
X325448Y41933D01*
X324945Y41594D01*
X323317Y40920D01*
X321538Y39141D01*
X320576Y36818D01*
X320576Y34302D01*
X321538Y31979D01*
X323317Y30200D01*
X325640Y29238D01*
G37*
G36*
X266050Y25908D02*
X269890Y25908D01*
X273437Y27377D01*
X276153Y30093D01*
X277622Y33640D01*
X277622Y37480D01*
X276153Y41027D01*
X273437Y43743D01*
X269890Y45212D01*
X266050Y45212D01*
X262503Y43743D01*
X260384Y41624D01*
X259945Y41318D01*
X259355Y41178D01*
X258757Y41280D01*
X258246Y41607D01*
X257903Y42107D01*
X257782Y42701D01*
X257782Y43422D01*
X256820Y45745D01*
X255041Y47524D01*
X252718Y48486D01*
X250202Y48486D01*
X247879Y47524D01*
X246100Y45745D01*
X245138Y43422D01*
X245138Y40906D01*
X246100Y38583D01*
X247879Y36804D01*
X250202Y35842D01*
X252718Y35842D01*
X255041Y36804D01*
X255716Y37480D01*
X256155Y37786D01*
X256745Y37925D01*
X257343Y37824D01*
X257854Y37497D01*
X258197Y36996D01*
X258318Y36402D01*
X258318Y33640D01*
X259787Y30093D01*
X262503Y27377D01*
X266050Y25908D01*
G37*
G36*
X287603Y35525D02*
X290118Y35525D01*
X292442Y36488D01*
X294220Y38266D01*
X295183Y40590D01*
X295183Y43105D01*
X294220Y45429D01*
X292442Y47207D01*
X290118Y48169D01*
X287603Y48169D01*
X285279Y47207D01*
X283501Y45429D01*
X282539Y43105D01*
X282539Y40590D01*
X283501Y38266D01*
X285279Y36488D01*
X287603Y35525D01*
G37*
G36*
X139050Y25908D02*
X142890Y25908D01*
X146437Y27377D01*
X149153Y30093D01*
X150622Y33640D01*
X150622Y37480D01*
X149153Y41027D01*
X146437Y43743D01*
X142890Y45212D01*
X139050Y45212D01*
X135503Y43743D01*
X132787Y41027D01*
X131318Y37480D01*
X131318Y33640D01*
X132787Y30093D01*
X135503Y27377D01*
X139050Y25908D01*
G37*
G36*
X-147970Y25908D02*
X-144130Y25908D01*
X-140583Y27377D01*
X-137867Y30093D01*
X-136398Y33640D01*
X-136398Y37480D01*
X-137867Y41027D01*
X-140583Y43743D01*
X-144130Y45212D01*
X-147970Y45212D01*
X-151517Y43743D01*
X-154233Y41027D01*
X-155702Y37480D01*
X-155702Y33640D01*
X-154233Y30093D01*
X-151517Y27377D01*
X-147970Y25908D01*
G37*
G36*
X-274970Y25908D02*
X-271130Y25908D01*
X-267583Y27377D01*
X-264867Y30093D01*
X-263398Y33640D01*
X-263398Y37480D01*
X-264867Y41027D01*
X-267583Y43743D01*
X-271130Y45212D01*
X-274970Y45212D01*
X-278517Y43743D01*
X-281233Y41027D01*
X-282702Y37480D01*
X-282702Y33640D01*
X-281233Y30093D01*
X-278517Y27377D01*
X-274970Y25908D01*
G37*
G36*
X183908Y11077D02*
X186424Y11077D01*
X188747Y12039D01*
X190526Y13818D01*
X191488Y16141D01*
X191488Y16435D01*
X191599Y17007D01*
X191934Y17513D01*
X193066Y18644D01*
X194028Y20967D01*
X194028Y22126D01*
X194130Y22675D01*
X194457Y23186D01*
X194958Y23529D01*
X195552Y23650D01*
X196965Y23650D01*
X199288Y24612D01*
X201067Y26391D01*
X202029Y28714D01*
X202029Y30024D01*
X202140Y30596D01*
X202475Y31102D01*
X203353Y31979D01*
X204315Y34302D01*
X204315Y36818D01*
X203353Y39141D01*
X201574Y40920D01*
X199251Y41882D01*
X196736Y41882D01*
X194788Y41075D01*
X194217Y40959D01*
X193622Y41075D01*
X192900Y41374D01*
X190385Y41374D01*
X188062Y40412D01*
X186283Y38633D01*
X185321Y36310D01*
X185321Y33794D01*
X186283Y31471D01*
X186786Y30968D01*
X187098Y30518D01*
X187232Y29927D01*
X187126Y29330D01*
X186795Y28821D01*
X186292Y28482D01*
X185495Y28152D01*
X184924Y28036D01*
X184329Y28152D01*
X183376Y28547D01*
X180860Y28547D01*
X178537Y27585D01*
X176758Y25806D01*
X175796Y23483D01*
X175796Y20967D01*
X176758Y18644D01*
X178398Y17005D01*
X178723Y16521D01*
X178759Y16348D01*
X179806Y13818D01*
X181585Y12039D01*
X183908Y11077D01*
G37*
G36*
X-191504Y11077D02*
X-188988Y11077D01*
X-186665Y12039D01*
X-184886Y13818D01*
X-183920Y16152D01*
X-183598Y16637D01*
X-183576Y16652D01*
X-181584Y18644D01*
X-180622Y20967D01*
X-180622Y23483D01*
X-181584Y25806D01*
X-183363Y27585D01*
X-185686Y28547D01*
X-188202Y28547D01*
X-189282Y28100D01*
X-189853Y27984D01*
X-190448Y28100D01*
X-191372Y28482D01*
X-191832Y28779D01*
X-192183Y29274D01*
X-192313Y29866D01*
X-192201Y30462D01*
X-191866Y30968D01*
X-191363Y31471D01*
X-190401Y33794D01*
X-190401Y36310D01*
X-191363Y38633D01*
X-193142Y40412D01*
X-195465Y41374D01*
X-197980Y41374D01*
X-198702Y41075D01*
X-199273Y40959D01*
X-199868Y41075D01*
X-201816Y41882D01*
X-204331Y41882D01*
X-206654Y40920D01*
X-208433Y39141D01*
X-209395Y36818D01*
X-209395Y34302D01*
X-208433Y31979D01*
X-207555Y31102D01*
X-207230Y30618D01*
X-207109Y30024D01*
X-207109Y28714D01*
X-206147Y26391D01*
X-204368Y24612D01*
X-202045Y23650D01*
X-200632Y23650D01*
X-200083Y23548D01*
X-199572Y23221D01*
X-199229Y22720D01*
X-199108Y22126D01*
X-199108Y20967D01*
X-198146Y18644D01*
X-197014Y17513D01*
X-196689Y17029D01*
X-196568Y16435D01*
X-196568Y16141D01*
X-195606Y13818D01*
X-193827Y12039D01*
X-191504Y11077D01*
G37*
G36*
X423684Y25428D02*
X426200Y25428D01*
X428523Y26390D01*
X430302Y28169D01*
X431264Y30492D01*
X431264Y33008D01*
X430302Y35331D01*
X428523Y37110D01*
X426200Y38072D01*
X423684Y38072D01*
X421361Y37110D01*
X419582Y35331D01*
X418620Y33008D01*
X418620Y30492D01*
X419582Y28169D01*
X421361Y26390D01*
X423684Y25428D01*
G37*
G36*
X455180Y25174D02*
X457696Y25174D01*
X460019Y26136D01*
X461798Y27915D01*
X462760Y30238D01*
X462760Y32754D01*
X461798Y35077D01*
X460019Y36856D01*
X457696Y37818D01*
X455180Y37818D01*
X452857Y36856D01*
X451078Y35077D01*
X450116Y32754D01*
X450116Y30238D01*
X451078Y27915D01*
X452857Y26136D01*
X455180Y25174D01*
G37*
G36*
X108411Y16764D02*
X112251Y16764D01*
X115798Y18233D01*
X118514Y20949D01*
X119983Y24496D01*
X119983Y28336D01*
X118514Y31883D01*
X115798Y34599D01*
X112251Y36068D01*
X108411Y36068D01*
X104864Y34599D01*
X102148Y31883D01*
X100679Y28336D01*
X100679Y24496D01*
X102148Y20949D01*
X104864Y18233D01*
X108411Y16764D01*
G37*
G36*
X-117331Y16764D02*
X-113491Y16764D01*
X-109944Y18233D01*
X-107228Y20949D01*
X-105759Y24496D01*
X-105759Y28336D01*
X-107228Y31883D01*
X-109944Y34599D01*
X-113491Y36068D01*
X-117331Y36068D01*
X-120878Y34599D01*
X-123594Y31883D01*
X-125063Y28336D01*
X-125063Y24496D01*
X-123594Y20949D01*
X-120878Y18233D01*
X-117331Y16764D01*
G37*
G36*
X493788Y21110D02*
X496304Y21110D01*
X498627Y22072D01*
X500406Y23851D01*
X501368Y26174D01*
X501368Y28690D01*
X500406Y31013D01*
X498627Y32792D01*
X496304Y33754D01*
X493788Y33754D01*
X491465Y32792D01*
X489686Y31013D01*
X488724Y28690D01*
X488724Y26174D01*
X489686Y23851D01*
X491465Y22072D01*
X493788Y21110D01*
G37*
G36*
X362216Y19078D02*
X364732Y19078D01*
X367055Y20040D01*
X368834Y21819D01*
X369796Y24142D01*
X369796Y26658D01*
X368834Y28981D01*
X367055Y30760D01*
X364732Y31722D01*
X362216Y31722D01*
X359893Y30760D01*
X358114Y28981D01*
X357152Y26658D01*
X357152Y24142D01*
X358114Y21819D01*
X359893Y20040D01*
X362216Y19078D01*
G37*
G36*
X287385Y19078D02*
X289901Y19078D01*
X292224Y20040D01*
X294003Y21819D01*
X294965Y24142D01*
X294965Y26658D01*
X294003Y28981D01*
X292224Y30760D01*
X289901Y31722D01*
X287385Y31722D01*
X285062Y30760D01*
X283283Y28981D01*
X282321Y26658D01*
X282321Y24142D01*
X283283Y21819D01*
X285062Y20040D01*
X287385Y19078D01*
G37*
G36*
X-69230Y11738D02*
X-65390Y11738D01*
X-61843Y13207D01*
X-59127Y15923D01*
X-57658Y19470D01*
X-57658Y23310D01*
X-59127Y26857D01*
X-61843Y29573D01*
X-65390Y31042D01*
X-69230Y31042D01*
X-72777Y29573D01*
X-75493Y26857D01*
X-76962Y23310D01*
X-76962Y19470D01*
X-75493Y15923D01*
X-72777Y13207D01*
X-69230Y11738D01*
G37*
G36*
X-473761Y-5969D02*
X-471246Y-5969D01*
X-468922Y-5007D01*
X-467144Y-3228D01*
X-466182Y-905D01*
X-466182Y1611D01*
X-467144Y3934D01*
X-467516Y4306D01*
X-467832Y4767D01*
X-467962Y5359D01*
X-467851Y5955D01*
X-467516Y6461D01*
X-467398Y6579D01*
X-466436Y8902D01*
X-466436Y11418D01*
X-467398Y13741D01*
X-467819Y14162D01*
X-468135Y14623D01*
X-468265Y15216D01*
X-468154Y15812D01*
X-467819Y16318D01*
X-467398Y16739D01*
X-466436Y19062D01*
X-466436Y21578D01*
X-467398Y23901D01*
X-469176Y25680D01*
X-471500Y26642D01*
X-474015Y26642D01*
X-476339Y25680D01*
X-478117Y23901D01*
X-479080Y21578D01*
X-479080Y19062D01*
X-478117Y16739D01*
X-477696Y16318D01*
X-477380Y15857D01*
X-477250Y15264D01*
X-477361Y14668D01*
X-477696Y14162D01*
X-478117Y13741D01*
X-479080Y11418D01*
X-479080Y8902D01*
X-478117Y6579D01*
X-477745Y6207D01*
X-477429Y5746D01*
X-477299Y5154D01*
X-477410Y4558D01*
X-477745Y4052D01*
X-477863Y3934D01*
X-478826Y1611D01*
X-478826Y-905D01*
X-477863Y-3228D01*
X-476085Y-5007D01*
X-473761Y-5969D01*
G37*
G36*
X266050Y508D02*
X269890Y508D01*
X273437Y1977D01*
X276153Y4693D01*
X277622Y8240D01*
X277622Y12080D01*
X276153Y15627D01*
X273437Y18343D01*
X269890Y19812D01*
X266050Y19812D01*
X262503Y18343D01*
X260853Y16693D01*
X260392Y16377D01*
X259800Y16247D01*
X259203Y16358D01*
X258698Y16693D01*
X258347Y17044D01*
X256024Y18006D01*
X253508Y18006D01*
X251185Y17044D01*
X249406Y15265D01*
X248444Y12942D01*
X248444Y10426D01*
X249406Y8103D01*
X251185Y6324D01*
X253508Y5362D01*
X256024Y5362D01*
X257592Y6012D01*
X258138Y6127D01*
X258735Y6021D01*
X259244Y5690D01*
X259583Y5187D01*
X259787Y4693D01*
X262503Y1977D01*
X266050Y508D01*
G37*
G36*
X139050Y508D02*
X142890Y508D01*
X146437Y1977D01*
X149153Y4693D01*
X150622Y8240D01*
X150622Y12080D01*
X149153Y15627D01*
X146437Y18343D01*
X142890Y19812D01*
X139050Y19812D01*
X135503Y18343D01*
X132787Y15627D01*
X131318Y12080D01*
X131318Y8240D01*
X132787Y4693D01*
X135503Y1977D01*
X139050Y508D01*
G37*
G36*
X-147970Y508D02*
X-144130Y508D01*
X-140583Y1977D01*
X-137867Y4693D01*
X-136398Y8240D01*
X-136398Y12080D01*
X-137867Y15627D01*
X-140583Y18343D01*
X-144130Y19812D01*
X-147970Y19812D01*
X-151517Y18343D01*
X-154233Y15627D01*
X-155702Y12080D01*
X-155702Y8240D01*
X-154233Y4693D01*
X-151517Y1977D01*
X-147970Y508D01*
G37*
G36*
X-274970Y508D02*
X-271130Y508D01*
X-267583Y1977D01*
X-264867Y4693D01*
X-263398Y8240D01*
X-263398Y12080D01*
X-264867Y15627D01*
X-267583Y18343D01*
X-271130Y19812D01*
X-274970Y19812D01*
X-278517Y18343D01*
X-281233Y15627D01*
X-282702Y12080D01*
X-282702Y8240D01*
X-281233Y4693D01*
X-278517Y1977D01*
X-274970Y508D01*
G37*
G36*
X108411Y-8636D02*
X112251Y-8636D01*
X115798Y-7167D01*
X118514Y-4451D01*
X119983Y-904D01*
X119983Y2936D01*
X118514Y6483D01*
X115798Y9199D01*
X112251Y10668D01*
X108411Y10668D01*
X104864Y9199D01*
X102148Y6483D01*
X100679Y2936D01*
X100679Y-904D01*
X102148Y-4451D01*
X104864Y-7167D01*
X108411Y-8636D01*
G37*
G36*
X-117331Y-8636D02*
X-113491Y-8636D01*
X-109944Y-7167D01*
X-107228Y-4451D01*
X-105759Y-904D01*
X-105759Y2936D01*
X-107228Y6483D01*
X-109944Y9199D01*
X-113491Y10668D01*
X-117331Y10668D01*
X-120878Y9199D01*
X-123594Y6483D01*
X-125063Y2936D01*
X-125063Y-904D01*
X-123594Y-4451D01*
X-120878Y-7167D01*
X-117331Y-8636D01*
G37*
G36*
X-76962Y-2340D02*
X-68580Y-2340D01*
X-68580Y6042D01*
X-69230Y6042D01*
X-72777Y4573D01*
X-75493Y1857D01*
X-76962Y-1690D01*
X-76962Y-2340D01*
G37*
G36*
X-66040Y-2340D02*
X-57658Y-2340D01*
X-57658Y-1690D01*
X-59127Y1857D01*
X-61843Y4573D01*
X-65390Y6042D01*
X-66040Y6042D01*
X-66040Y-2340D01*
G37*
G36*
X-66040Y-13262D02*
X-65390Y-13262D01*
X-61843Y-11793D01*
X-59127Y-9077D01*
X-57658Y-5530D01*
X-57658Y-4880D01*
X-66040Y-4880D01*
X-66040Y-13262D01*
G37*
G36*
X-69230Y-13262D02*
X-68580Y-13262D01*
X-68580Y-4880D01*
X-76962Y-4880D01*
X-76962Y-5530D01*
X-75493Y-9077D01*
X-72777Y-11793D01*
X-69230Y-13262D01*
G37*
G36*
X266050Y-24892D02*
X269890Y-24892D01*
X273437Y-23423D01*
X276153Y-20707D01*
X277622Y-17160D01*
X277622Y-13320D01*
X276153Y-9773D01*
X273437Y-7057D01*
X269890Y-5588D01*
X266050Y-5588D01*
X262503Y-7057D01*
X259787Y-9773D01*
X258318Y-13320D01*
X258318Y-17160D01*
X259787Y-20707D01*
X262503Y-23423D01*
X266050Y-24892D01*
G37*
G36*
X139050Y-24892D02*
X142890Y-24892D01*
X146437Y-23423D01*
X149153Y-20707D01*
X150622Y-17160D01*
X150622Y-13320D01*
X149153Y-9773D01*
X146437Y-7057D01*
X142890Y-5588D01*
X139050Y-5588D01*
X135503Y-7057D01*
X132787Y-9773D01*
X131318Y-13320D01*
X131318Y-17160D01*
X132787Y-20707D01*
X135503Y-23423D01*
X139050Y-24892D01*
G37*
G36*
X-274970Y-24892D02*
X-271130Y-24892D01*
X-267583Y-23423D01*
X-265933Y-21773D01*
X-265472Y-21457D01*
X-264880Y-21327D01*
X-264283Y-21438D01*
X-263778Y-21773D01*
X-263427Y-22124D01*
X-261104Y-23086D01*
X-258588Y-23086D01*
X-256265Y-22124D01*
X-254486Y-20345D01*
X-253524Y-18022D01*
X-253524Y-15506D01*
X-254486Y-13183D01*
X-256265Y-11404D01*
X-258588Y-10442D01*
X-261104Y-10442D01*
X-262672Y-11092D01*
X-263218Y-11207D01*
X-263815Y-11101D01*
X-264324Y-10770D01*
X-264663Y-10267D01*
X-264867Y-9773D01*
X-267583Y-7057D01*
X-271130Y-5588D01*
X-274970Y-5588D01*
X-278517Y-7057D01*
X-281233Y-9773D01*
X-282702Y-13320D01*
X-282702Y-17160D01*
X-281233Y-20707D01*
X-278517Y-23423D01*
X-274970Y-24892D01*
G37*
G36*
X-147970Y-24892D02*
X-144130Y-24892D01*
X-140583Y-23423D01*
X-137867Y-20707D01*
X-136398Y-17160D01*
X-136398Y-13320D01*
X-137867Y-9773D01*
X-140583Y-7057D01*
X-144130Y-5588D01*
X-147970Y-5588D01*
X-151517Y-7057D01*
X-154233Y-9773D01*
X-155702Y-13320D01*
X-155702Y-17160D01*
X-154233Y-20707D01*
X-151517Y-23423D01*
X-147970Y-24892D01*
G37*
G36*
X477278Y-19784D02*
X479794Y-19784D01*
X482117Y-18822D01*
X483896Y-17043D01*
X484858Y-14720D01*
X484858Y-12204D01*
X483896Y-9881D01*
X482117Y-8102D01*
X479794Y-7140D01*
X477278Y-7140D01*
X474854Y-8144D01*
X474581Y-8332D01*
X473988Y-8462D01*
X473392Y-8351D01*
X472886Y-8016D01*
X472719Y-7848D01*
X470396Y-6886D01*
X467880Y-6886D01*
X465557Y-7848D01*
X463778Y-9627D01*
X462816Y-11950D01*
X462816Y-14466D01*
X463778Y-16789D01*
X465557Y-18568D01*
X467880Y-19530D01*
X470396Y-19530D01*
X472820Y-18526D01*
X473093Y-18338D01*
X473686Y-18208D01*
X474282Y-18319D01*
X474788Y-18654D01*
X474955Y-18822D01*
X477278Y-19784D01*
G37*
G36*
X-117331Y-34036D02*
X-113491Y-34036D01*
X-109944Y-32567D01*
X-107228Y-29851D01*
X-105759Y-26304D01*
X-105759Y-22464D01*
X-107228Y-18917D01*
X-109944Y-16201D01*
X-113491Y-14732D01*
X-117331Y-14732D01*
X-120878Y-16201D01*
X-123594Y-18917D01*
X-125063Y-22464D01*
X-125063Y-26304D01*
X-123594Y-29851D01*
X-120878Y-32567D01*
X-117331Y-34036D01*
G37*
G36*
X108411Y-34036D02*
X112251Y-34036D01*
X115798Y-32567D01*
X118514Y-29851D01*
X119983Y-26304D01*
X119983Y-22464D01*
X118514Y-18917D01*
X115798Y-16201D01*
X112251Y-14732D01*
X108411Y-14732D01*
X104864Y-16201D01*
X102148Y-18917D01*
X100679Y-22464D01*
X100679Y-26304D01*
X102148Y-29851D01*
X104864Y-32567D01*
X108411Y-34036D01*
G37*
G36*
X196736Y-46962D02*
X199251Y-46962D01*
X201574Y-46000D01*
X203353Y-44221D01*
X204315Y-41898D01*
X204315Y-39382D01*
X203353Y-37059D01*
X202475Y-36182D01*
X202150Y-35698D01*
X202029Y-35104D01*
X202029Y-33794D01*
X201067Y-31471D01*
X199288Y-29692D01*
X196965Y-28730D01*
X195552Y-28730D01*
X195003Y-28628D01*
X194492Y-28301D01*
X194149Y-27800D01*
X194028Y-27206D01*
X194028Y-26047D01*
X193066Y-23724D01*
X191934Y-22593D01*
X191609Y-22109D01*
X191488Y-21515D01*
X191488Y-21221D01*
X190526Y-18898D01*
X188747Y-17119D01*
X186424Y-16157D01*
X183908Y-16157D01*
X181585Y-17119D01*
X179806Y-18898D01*
X178840Y-21232D01*
X178518Y-21717D01*
X178496Y-21732D01*
X176504Y-23724D01*
X175542Y-26047D01*
X175542Y-28563D01*
X176504Y-30886D01*
X178283Y-32665D01*
X180606Y-33627D01*
X183122Y-33627D01*
X184202Y-33180D01*
X184773Y-33064D01*
X185368Y-33180D01*
X186292Y-33562D01*
X186752Y-33859D01*
X187103Y-34354D01*
X187233Y-34946D01*
X187121Y-35542D01*
X186786Y-36048D01*
X186283Y-36551D01*
X185321Y-38874D01*
X185321Y-41390D01*
X186283Y-43713D01*
X188062Y-45492D01*
X190385Y-46454D01*
X192900Y-46454D01*
X193622Y-46155D01*
X194193Y-46039D01*
X194788Y-46155D01*
X196736Y-46962D01*
G37*
G36*
X-204331Y-46962D02*
X-201816Y-46962D01*
X-199868Y-46155D01*
X-199297Y-46039D01*
X-198702Y-46155D01*
X-197980Y-46454D01*
X-195465Y-46454D01*
X-193142Y-45492D01*
X-191363Y-43713D01*
X-190401Y-41390D01*
X-190401Y-38874D01*
X-191363Y-36551D01*
X-191866Y-36048D01*
X-192178Y-35598D01*
X-192312Y-35007D01*
X-192206Y-34410D01*
X-191875Y-33901D01*
X-191372Y-33562D01*
X-190575Y-33232D01*
X-190004Y-33116D01*
X-189409Y-33232D01*
X-188456Y-33627D01*
X-185940Y-33627D01*
X-183617Y-32665D01*
X-181838Y-30886D01*
X-180876Y-28563D01*
X-180876Y-26047D01*
X-181838Y-23724D01*
X-183478Y-22085D01*
X-183803Y-21601D01*
X-183839Y-21428D01*
X-184886Y-18898D01*
X-186665Y-17119D01*
X-188988Y-16157D01*
X-191504Y-16157D01*
X-193827Y-17119D01*
X-195606Y-18898D01*
X-196568Y-21221D01*
X-196568Y-21515D01*
X-196679Y-22087D01*
X-197014Y-22593D01*
X-198146Y-23724D01*
X-199108Y-26047D01*
X-199108Y-27206D01*
X-199210Y-27755D01*
X-199537Y-28266D01*
X-200038Y-28609D01*
X-200632Y-28730D01*
X-202045Y-28730D01*
X-204368Y-29692D01*
X-206147Y-31471D01*
X-207109Y-33794D01*
X-207109Y-35104D01*
X-207220Y-35676D01*
X-207555Y-36182D01*
X-208433Y-37059D01*
X-209395Y-39382D01*
X-209395Y-41898D01*
X-208433Y-44221D01*
X-206654Y-46000D01*
X-204331Y-46962D01*
G37*
G36*
X-257798Y-53566D02*
X-255282Y-53566D01*
X-252959Y-52604D01*
X-251180Y-50825D01*
X-250218Y-48502D01*
X-250218Y-45986D01*
X-251180Y-43663D01*
X-252959Y-41884D01*
X-255282Y-40922D01*
X-257798Y-40922D01*
X-260121Y-41884D01*
X-260796Y-42560D01*
X-261235Y-42866D01*
X-261825Y-43005D01*
X-262423Y-42904D01*
X-262934Y-42577D01*
X-263277Y-42076D01*
X-263398Y-41482D01*
X-263398Y-38720D01*
X-264867Y-35173D01*
X-267583Y-32457D01*
X-271130Y-30988D01*
X-274970Y-30988D01*
X-278517Y-32457D01*
X-281233Y-35173D01*
X-282702Y-38720D01*
X-282702Y-42560D01*
X-281233Y-46107D01*
X-278517Y-48823D01*
X-274970Y-50292D01*
X-271130Y-50292D01*
X-267583Y-48823D01*
X-265464Y-46704D01*
X-265025Y-46398D01*
X-264435Y-46258D01*
X-263837Y-46360D01*
X-263326Y-46687D01*
X-262983Y-47187D01*
X-262862Y-47781D01*
X-262862Y-48502D01*
X-261900Y-50825D01*
X-260121Y-52604D01*
X-257798Y-53566D01*
G37*
G36*
X-147970Y-50292D02*
X-144130Y-50292D01*
X-140583Y-48823D01*
X-137867Y-46107D01*
X-136398Y-42560D01*
X-136398Y-38720D01*
X-137867Y-35173D01*
X-140583Y-32457D01*
X-144130Y-30988D01*
X-147970Y-30988D01*
X-151517Y-32457D01*
X-154233Y-35173D01*
X-155702Y-38720D01*
X-155702Y-42560D01*
X-154233Y-46107D01*
X-151517Y-48823D01*
X-147970Y-50292D01*
G37*
G36*
X266050Y-50292D02*
X269890Y-50292D01*
X273437Y-48823D01*
X276153Y-46107D01*
X277622Y-42560D01*
X277622Y-38720D01*
X276153Y-35173D01*
X273437Y-32457D01*
X269890Y-30988D01*
X266050Y-30988D01*
X262503Y-32457D01*
X259787Y-35173D01*
X258318Y-38720D01*
X258318Y-42560D01*
X259787Y-46107D01*
X262503Y-48823D01*
X266050Y-50292D01*
G37*
G36*
X139050Y-50292D02*
X142890Y-50292D01*
X146437Y-48823D01*
X149153Y-46107D01*
X150622Y-42560D01*
X150622Y-38720D01*
X149153Y-35173D01*
X146437Y-32457D01*
X142890Y-30988D01*
X139050Y-30988D01*
X135503Y-32457D01*
X132787Y-35173D01*
X131318Y-38720D01*
X131318Y-42560D01*
X132787Y-46107D01*
X135503Y-48823D01*
X139050Y-50292D01*
G37*
G36*
X-368534Y-82696D02*
X-360000Y-84201D01*
X-351466Y-82696D01*
X-343962Y-78364D01*
X-338392Y-71726D01*
X-335428Y-63583D01*
X-335428Y-54917D01*
X-338392Y-46774D01*
X-343962Y-40136D01*
X-351466Y-35804D01*
X-360000Y-34299D01*
X-368534Y-35804D01*
X-376038Y-40136D01*
X-381608Y-46774D01*
X-384572Y-54917D01*
X-384572Y-63583D01*
X-381608Y-71726D01*
X-376038Y-78364D01*
X-368534Y-82696D01*
G37*
G36*
X-8534Y-82696D02*
X0Y-84201D01*
X8534Y-82696D01*
X16038Y-78364D01*
X21608Y-71726D01*
X24572Y-63583D01*
X24572Y-54917D01*
X21608Y-46774D01*
X16038Y-40136D01*
X8534Y-35804D01*
X0Y-34299D01*
X-8534Y-35804D01*
X-16038Y-40136D01*
X-21608Y-46774D01*
X-24572Y-54917D01*
X-24572Y-63583D01*
X-21608Y-71726D01*
X-16038Y-78364D01*
X-8534Y-82696D01*
G37*
G36*
X351466Y-82696D02*
X360000Y-84201D01*
X368534Y-82696D01*
X376038Y-78364D01*
X381608Y-71726D01*
X384572Y-63583D01*
X384572Y-54917D01*
X381608Y-46774D01*
X376038Y-40136D01*
X368534Y-35804D01*
X360000Y-34299D01*
X351466Y-35804D01*
X343962Y-40136D01*
X338392Y-46774D01*
X335428Y-54917D01*
X335428Y-63583D01*
X338392Y-71726D01*
X343962Y-78364D01*
X351466Y-82696D01*
G37*
G36*
X431812Y-55852D02*
X434328Y-55852D01*
X436651Y-54890D01*
X438430Y-53111D01*
X439392Y-50788D01*
X439392Y-50300D01*
X439494Y-49750D01*
X439821Y-49239D01*
X440322Y-48896D01*
X440916Y-48776D01*
X441475Y-48776D01*
X443799Y-47813D01*
X445577Y-46035D01*
X446540Y-43711D01*
X446540Y-41196D01*
X445577Y-38872D01*
X443799Y-37094D01*
X441475Y-36132D01*
X438960Y-36132D01*
X436636Y-37094D01*
X434858Y-38872D01*
X433896Y-41196D01*
X433896Y-41684D01*
X433793Y-42233D01*
X433466Y-42744D01*
X432966Y-43087D01*
X432372Y-43208D01*
X431812Y-43208D01*
X429489Y-44170D01*
X427710Y-45949D01*
X426748Y-48272D01*
X426748Y-50788D01*
X427710Y-53111D01*
X429489Y-54890D01*
X431812Y-55852D01*
G37*
G36*
X-474015Y-105382D02*
X-471500Y-105382D01*
X-469176Y-104420D01*
X-467398Y-102641D01*
X-466436Y-100318D01*
X-466436Y-97802D01*
X-467398Y-95479D01*
X-467819Y-95058D01*
X-468135Y-94597D01*
X-468265Y-94004D01*
X-468154Y-93408D01*
X-467819Y-92902D01*
X-467398Y-92481D01*
X-466436Y-90158D01*
X-466436Y-87642D01*
X-467398Y-85319D01*
X-467819Y-84898D01*
X-468135Y-84437D01*
X-468265Y-83844D01*
X-468154Y-83248D01*
X-467819Y-82742D01*
X-467398Y-82321D01*
X-466436Y-79998D01*
X-466436Y-77482D01*
X-467398Y-75159D01*
X-467819Y-74738D01*
X-468135Y-74277D01*
X-468265Y-73684D01*
X-468154Y-73088D01*
X-467819Y-72582D01*
X-467398Y-72161D01*
X-466436Y-69838D01*
X-466436Y-67322D01*
X-467398Y-64999D01*
X-467819Y-64578D01*
X-468135Y-64117D01*
X-468265Y-63524D01*
X-468154Y-62928D01*
X-467819Y-62422D01*
X-467398Y-62001D01*
X-466436Y-59678D01*
X-466436Y-57162D01*
X-467398Y-54839D01*
X-469176Y-53060D01*
X-471500Y-52098D01*
X-474015Y-52098D01*
X-476339Y-53060D01*
X-478117Y-54839D01*
X-479080Y-57162D01*
X-479080Y-59678D01*
X-478117Y-62001D01*
X-477696Y-62422D01*
X-477380Y-62883D01*
X-477250Y-63476D01*
X-477361Y-64072D01*
X-477696Y-64578D01*
X-478117Y-64999D01*
X-479080Y-67322D01*
X-479080Y-69838D01*
X-478117Y-72161D01*
X-477696Y-72582D01*
X-477380Y-73043D01*
X-477250Y-73636D01*
X-477361Y-74232D01*
X-477696Y-74738D01*
X-478117Y-75159D01*
X-479080Y-77482D01*
X-479080Y-79998D01*
X-478117Y-82321D01*
X-477696Y-82742D01*
X-477380Y-83203D01*
X-477250Y-83796D01*
X-477361Y-84392D01*
X-477696Y-84898D01*
X-478117Y-85319D01*
X-479080Y-87642D01*
X-479080Y-90158D01*
X-478117Y-92481D01*
X-477696Y-92902D01*
X-477380Y-93363D01*
X-477250Y-93956D01*
X-477361Y-94552D01*
X-477696Y-95058D01*
X-478117Y-95479D01*
X-479080Y-97802D01*
X-479080Y-100318D01*
X-478117Y-102641D01*
X-476339Y-104420D01*
X-474015Y-105382D01*
G37*
G36*
X266050Y-75692D02*
X269890Y-75692D01*
X273437Y-74223D01*
X276153Y-71507D01*
X277622Y-67960D01*
X277622Y-64120D01*
X276153Y-60573D01*
X273437Y-57857D01*
X269890Y-56388D01*
X266050Y-56388D01*
X262503Y-57857D01*
X259787Y-60573D01*
X258318Y-64120D01*
X258318Y-67960D01*
X259787Y-71507D01*
X262503Y-74223D01*
X266050Y-75692D01*
G37*
G36*
X131318Y-64770D02*
X139700Y-64770D01*
X139700Y-56388D01*
X139050Y-56388D01*
X135503Y-57857D01*
X132787Y-60573D01*
X131318Y-64120D01*
X131318Y-64770D01*
G37*
G36*
X-147970Y-75692D02*
X-144130Y-75692D01*
X-140583Y-74223D01*
X-137867Y-71507D01*
X-136398Y-67960D01*
X-136398Y-64120D01*
X-137867Y-60573D01*
X-140583Y-57857D01*
X-144130Y-56388D01*
X-147970Y-56388D01*
X-151517Y-57857D01*
X-154233Y-60573D01*
X-155702Y-64120D01*
X-155702Y-67960D01*
X-154233Y-71507D01*
X-151517Y-74223D01*
X-147970Y-75692D01*
G37*
G36*
X-274970Y-75692D02*
X-271130Y-75692D01*
X-267583Y-74223D01*
X-264867Y-71507D01*
X-263398Y-67960D01*
X-263398Y-64120D01*
X-264867Y-60573D01*
X-267583Y-57857D01*
X-271130Y-56388D01*
X-274970Y-56388D01*
X-278517Y-57857D01*
X-281233Y-60573D01*
X-282702Y-64120D01*
X-282702Y-67960D01*
X-281233Y-71507D01*
X-278517Y-74223D01*
X-274970Y-75692D01*
G37*
G36*
X142240Y-64770D02*
X150622Y-64770D01*
X150622Y-64120D01*
X149153Y-60573D01*
X146437Y-57857D01*
X142890Y-56388D01*
X142240Y-56388D01*
X142240Y-64770D01*
G37*
G36*
X69088Y-64970D02*
X77470Y-64970D01*
X77470Y-56588D01*
X76820Y-56588D01*
X73273Y-58057D01*
X70557Y-60773D01*
X69088Y-64320D01*
X69088Y-64970D01*
G37*
G36*
X80010Y-64970D02*
X88392Y-64970D01*
X88392Y-64320D01*
X86923Y-60773D01*
X84207Y-58057D01*
X80660Y-56588D01*
X80010Y-56588D01*
X80010Y-64970D01*
G37*
G36*
X442988Y-70838D02*
X445504Y-70838D01*
X447827Y-69876D01*
X449606Y-68097D01*
X450568Y-65774D01*
X450568Y-63258D01*
X449606Y-60935D01*
X447827Y-59156D01*
X445504Y-58194D01*
X442988Y-58194D01*
X440665Y-59156D01*
X438886Y-60935D01*
X437924Y-63258D01*
X437924Y-65774D01*
X438886Y-68097D01*
X440665Y-69876D01*
X442988Y-70838D01*
G37*
G36*
X302542Y-88035D02*
X305057Y-88035D01*
X307381Y-87073D01*
X309159Y-85294D01*
X310122Y-82971D01*
X310122Y-80456D01*
X309536Y-79041D01*
X309421Y-78507D01*
X309522Y-77909D01*
X309849Y-77398D01*
X310349Y-77055D01*
X310944Y-76934D01*
X312662Y-76934D01*
X314985Y-75972D01*
X316764Y-74193D01*
X317726Y-71870D01*
X317726Y-69354D01*
X316764Y-67031D01*
X314985Y-65252D01*
X312662Y-64290D01*
X310146Y-64290D01*
X307823Y-65252D01*
X306044Y-67031D01*
X305082Y-69354D01*
X305082Y-71870D01*
X305668Y-73284D01*
X305783Y-73818D01*
X305681Y-74416D01*
X305354Y-74927D01*
X304854Y-75270D01*
X304260Y-75391D01*
X302542Y-75391D01*
X300218Y-76353D01*
X298440Y-78132D01*
X297478Y-80455D01*
X297478Y-82971D01*
X298440Y-85294D01*
X300218Y-87073D01*
X302542Y-88035D01*
G37*
G36*
X142240Y-75692D02*
X142890Y-75692D01*
X146437Y-74223D01*
X149153Y-71507D01*
X150622Y-67960D01*
X150622Y-67310D01*
X142240Y-67310D01*
X142240Y-75692D01*
G37*
G36*
X139050Y-75692D02*
X139700Y-75692D01*
X139700Y-67310D01*
X131318Y-67310D01*
X131318Y-67960D01*
X132787Y-71507D01*
X135503Y-74223D01*
X139050Y-75692D01*
G37*
G36*
X80010Y-75892D02*
X80660Y-75892D01*
X84207Y-74423D01*
X86923Y-71707D01*
X88392Y-68160D01*
X88392Y-67510D01*
X80010Y-67510D01*
X80010Y-75892D01*
G37*
G36*
X76820Y-75892D02*
X77470Y-75892D01*
X77470Y-67510D01*
X69088Y-67510D01*
X69088Y-68160D01*
X70557Y-71707D01*
X73273Y-74423D01*
X76820Y-75892D01*
G37*
G36*
X463334Y-97861D02*
X465850Y-97861D01*
X468173Y-96899D01*
X469952Y-95120D01*
X470914Y-92797D01*
X470914Y-91920D01*
X471016Y-91371D01*
X471343Y-90860D01*
X471844Y-90517D01*
X472417Y-90400D01*
X474751Y-89434D01*
X476530Y-87655D01*
X477492Y-85332D01*
X477492Y-82816D01*
X476530Y-80493D01*
X474751Y-78714D01*
X472428Y-77752D01*
X469912Y-77752D01*
X467589Y-78714D01*
X465810Y-80493D01*
X464848Y-82816D01*
X464848Y-83693D01*
X464746Y-84242D01*
X464419Y-84753D01*
X463918Y-85096D01*
X463345Y-85213D01*
X461011Y-86179D01*
X459232Y-87958D01*
X458270Y-90281D01*
X458270Y-92797D01*
X459232Y-95120D01*
X461011Y-96899D01*
X463334Y-97861D01*
G37*
G36*
X-245860Y-91920D02*
X-243344Y-91920D01*
X-241021Y-90958D01*
X-239242Y-89179D01*
X-238280Y-86856D01*
X-238280Y-84340D01*
X-239242Y-82017D01*
X-241021Y-80238D01*
X-243344Y-79276D01*
X-245860Y-79276D01*
X-248183Y-80238D01*
X-249962Y-82017D01*
X-250924Y-84340D01*
X-250924Y-86856D01*
X-249962Y-89179D01*
X-248183Y-90958D01*
X-245860Y-91920D01*
G37*
G36*
X76820Y-100892D02*
X80660Y-100892D01*
X84207Y-99423D01*
X86923Y-96707D01*
X88392Y-93160D01*
X88392Y-89320D01*
X86923Y-85773D01*
X84207Y-83057D01*
X80660Y-81588D01*
X76820Y-81588D01*
X73273Y-83057D01*
X70557Y-85773D01*
X69088Y-89320D01*
X69088Y-93160D01*
X70557Y-96707D01*
X73273Y-99423D01*
X76820Y-100892D01*
G37*
G36*
X-274970Y-101092D02*
X-271130Y-101092D01*
X-267583Y-99623D01*
X-264867Y-96907D01*
X-263398Y-93360D01*
X-263398Y-89520D01*
X-264867Y-85973D01*
X-267583Y-83257D01*
X-271130Y-81788D01*
X-274970Y-81788D01*
X-278517Y-83257D01*
X-281233Y-85973D01*
X-282702Y-89520D01*
X-282702Y-93360D01*
X-281233Y-96907D01*
X-278517Y-99623D01*
X-274970Y-101092D01*
G37*
G36*
X139050Y-101092D02*
X142890Y-101092D01*
X146437Y-99623D01*
X149153Y-96907D01*
X150622Y-93360D01*
X150622Y-89520D01*
X149153Y-85973D01*
X146437Y-83257D01*
X142890Y-81788D01*
X139050Y-81788D01*
X135503Y-83257D01*
X132787Y-85973D01*
X131318Y-89520D01*
X131318Y-93360D01*
X132787Y-96907D01*
X135503Y-99623D01*
X139050Y-101092D01*
G37*
G36*
X266050Y-101092D02*
X269890Y-101092D01*
X273437Y-99623D01*
X276153Y-96907D01*
X277622Y-93360D01*
X277622Y-89520D01*
X276153Y-85973D01*
X273437Y-83257D01*
X269890Y-81788D01*
X266050Y-81788D01*
X262503Y-83257D01*
X259787Y-85973D01*
X258318Y-89520D01*
X258318Y-93360D01*
X259787Y-96907D01*
X262503Y-99623D01*
X266050Y-101092D01*
G37*
G36*
X-155702Y-90170D02*
X-147320Y-90170D01*
X-147320Y-81788D01*
X-147970Y-81788D01*
X-151517Y-83257D01*
X-154233Y-85973D01*
X-155702Y-89520D01*
X-155702Y-90170D01*
G37*
G36*
X-144780Y-90170D02*
X-136398Y-90170D01*
X-136398Y-89520D01*
X-137867Y-85973D01*
X-140583Y-83257D01*
X-144130Y-81788D01*
X-144780Y-81788D01*
X-144780Y-90170D01*
G37*
G36*
X422414Y-98560D02*
X424930Y-98560D01*
X427253Y-97598D01*
X429032Y-95819D01*
X429994Y-93496D01*
X429994Y-90980D01*
X429032Y-88657D01*
X427253Y-86878D01*
X424930Y-85916D01*
X422414Y-85916D01*
X420091Y-86878D01*
X418312Y-88657D01*
X417350Y-90980D01*
X417350Y-93496D01*
X418312Y-95819D01*
X420091Y-97598D01*
X422414Y-98560D01*
G37*
G36*
X-144780Y-101092D02*
X-144130Y-101092D01*
X-140583Y-99623D01*
X-137867Y-96907D01*
X-136398Y-93360D01*
X-136398Y-92710D01*
X-144780Y-92710D01*
X-144780Y-101092D01*
G37*
G36*
X-147970Y-101092D02*
X-147320Y-101092D01*
X-147320Y-92710D01*
X-155702Y-92710D01*
X-155702Y-93360D01*
X-154233Y-96907D01*
X-151517Y-99623D01*
X-147970Y-101092D01*
G37*
G36*
X-102858Y-123162D02*
X-100342Y-123162D01*
X-98019Y-122200D01*
X-96240Y-120421D01*
X-95278Y-118098D01*
X-95278Y-115582D01*
X-96282Y-113158D01*
X-96470Y-112885D01*
X-96600Y-112292D01*
X-96489Y-111696D01*
X-96154Y-111190D01*
X-95224Y-110261D01*
X-94262Y-107938D01*
X-94262Y-105422D01*
X-95224Y-103099D01*
X-97003Y-101320D01*
X-99326Y-100358D01*
X-101842Y-100358D01*
X-104165Y-101320D01*
X-105944Y-103099D01*
X-106906Y-105422D01*
X-106906Y-107938D01*
X-105902Y-110362D01*
X-105714Y-110635D01*
X-105584Y-111228D01*
X-105695Y-111824D01*
X-106030Y-112330D01*
X-106960Y-113259D01*
X-107922Y-115582D01*
X-107922Y-118098D01*
X-106960Y-120421D01*
X-105181Y-122200D01*
X-102858Y-123162D01*
G37*
G36*
X-117590Y-115796D02*
X-115074Y-115796D01*
X-112751Y-114834D01*
X-110972Y-113055D01*
X-110010Y-110732D01*
X-110010Y-108216D01*
X-110972Y-105893D01*
X-112751Y-104114D01*
X-115074Y-103152D01*
X-117590Y-103152D01*
X-119913Y-104114D01*
X-121692Y-105893D01*
X-122654Y-108216D01*
X-122654Y-110732D01*
X-121692Y-113055D01*
X-119913Y-114834D01*
X-117590Y-115796D01*
G37*
G36*
X497662Y-120610D02*
X500678Y-120610D01*
X503464Y-119456D01*
X505596Y-117324D01*
X506750Y-114538D01*
X506750Y-111522D01*
X505596Y-108736D01*
X503464Y-106604D01*
X500678Y-105450D01*
X497662Y-105450D01*
X494876Y-106604D01*
X492744Y-108736D01*
X491590Y-111522D01*
X491590Y-114538D01*
X492744Y-117324D01*
X494876Y-119456D01*
X497662Y-120610D01*
G37*
G36*
X441662Y-120610D02*
X444678Y-120610D01*
X447464Y-119456D01*
X449596Y-117324D01*
X450750Y-114538D01*
X450750Y-111522D01*
X449596Y-108736D01*
X447464Y-106604D01*
X444678Y-105450D01*
X441662Y-105450D01*
X438876Y-106604D01*
X436744Y-108736D01*
X435590Y-111522D01*
X435590Y-114538D01*
X436744Y-117324D01*
X438876Y-119456D01*
X441662Y-120610D01*
G37*
G36*
X100342Y-123162D02*
X102858Y-123162D01*
X105181Y-122200D01*
X106960Y-120421D01*
X107922Y-118098D01*
X107922Y-115582D01*
X106960Y-113259D01*
X105181Y-111480D01*
X102858Y-110518D01*
X100342Y-110518D01*
X98019Y-111480D01*
X96240Y-113259D01*
X95278Y-115582D01*
X95278Y-118098D01*
X96240Y-120421D01*
X98019Y-122200D01*
X100342Y-123162D01*
G37*
G36*
X49542Y-123162D02*
X52058Y-123162D01*
X54381Y-122200D01*
X56160Y-120421D01*
X57122Y-118098D01*
X57122Y-115582D01*
X56160Y-113259D01*
X54381Y-111480D01*
X52058Y-110518D01*
X49542Y-110518D01*
X47219Y-111480D01*
X45440Y-113259D01*
X44478Y-115582D01*
X44478Y-118098D01*
X45440Y-120421D01*
X47219Y-122200D01*
X49542Y-123162D01*
G37*
G36*
X-1258Y-123162D02*
X1258Y-123162D01*
X3581Y-122200D01*
X5360Y-120421D01*
X6322Y-118098D01*
X6322Y-115582D01*
X5360Y-113259D01*
X3581Y-111480D01*
X1258Y-110518D01*
X-1258Y-110518D01*
X-3581Y-111480D01*
X-5360Y-113259D01*
X-6322Y-115582D01*
X-6322Y-118098D01*
X-5360Y-120421D01*
X-3581Y-122200D01*
X-1258Y-123162D01*
G37*
G36*
X-52058Y-123162D02*
X-49542Y-123162D01*
X-47219Y-122200D01*
X-45440Y-120421D01*
X-44478Y-118098D01*
X-44478Y-115582D01*
X-45440Y-113259D01*
X-47219Y-111480D01*
X-49542Y-110518D01*
X-52058Y-110518D01*
X-54381Y-111480D01*
X-56160Y-113259D01*
X-57122Y-115582D01*
X-57122Y-118098D01*
X-56160Y-120421D01*
X-54381Y-122200D01*
X-52058Y-123162D01*
G37*
G36*
X37096Y-137739D02*
X39612Y-137739D01*
X41935Y-136777D01*
X43714Y-134998D01*
X44676Y-132675D01*
X44676Y-130159D01*
X43714Y-127836D01*
X41935Y-126057D01*
X39612Y-125095D01*
X37988Y-125095D01*
X37439Y-124993D01*
X36928Y-124666D01*
X36585Y-124165D01*
X36464Y-123571D01*
X36464Y-123202D01*
X35502Y-120879D01*
X33723Y-119100D01*
X31400Y-118138D01*
X28884Y-118138D01*
X26561Y-119100D01*
X24782Y-120879D01*
X23820Y-123202D01*
X23820Y-125718D01*
X24782Y-128041D01*
X26561Y-129820D01*
X28884Y-130782D01*
X30508Y-130782D01*
X31057Y-130884D01*
X31568Y-131211D01*
X31911Y-131712D01*
X32032Y-132306D01*
X32032Y-132675D01*
X32994Y-134998D01*
X34773Y-136777D01*
X37096Y-137739D01*
G37*
G36*
X469662Y-142110D02*
X472678Y-142110D01*
X475464Y-140956D01*
X477596Y-138824D01*
X478750Y-136038D01*
X478750Y-133022D01*
X477596Y-130236D01*
X475464Y-128104D01*
X472678Y-126950D01*
X469662Y-126950D01*
X466876Y-128104D01*
X464744Y-130236D01*
X463590Y-133022D01*
X463590Y-136038D01*
X464744Y-138824D01*
X466876Y-140956D01*
X469662Y-142110D01*
G37*
G36*
X275348Y-140434D02*
X277864Y-140434D01*
X280187Y-139472D01*
X281966Y-137693D01*
X282928Y-135370D01*
X282928Y-132854D01*
X281966Y-130531D01*
X280187Y-128752D01*
X277864Y-127790D01*
X275348Y-127790D01*
X273025Y-128752D01*
X271246Y-130531D01*
X270284Y-132854D01*
X270284Y-135370D01*
X271246Y-137693D01*
X273025Y-139472D01*
X275348Y-140434D01*
G37*
%LPD*%
D10*
X78740Y-91240D03*
X78740Y-66240D03*
X-67310Y21390D03*
X-67310Y-3610D03*
X110331Y-24384D03*
X110331Y1016D03*
X110331Y26416D03*
X110331Y51816D03*
X-115411Y51816D03*
X-115411Y26416D03*
X-115411Y1016D03*
X-115411Y-24384D03*
D11*
X-467760Y299744D03*
X-517760Y299744D03*
D10*
X-273050Y86360D03*
X-273050Y60960D03*
X-273050Y35560D03*
X-273050Y10160D03*
X-273050Y-15240D03*
X-273050Y-40640D03*
X-273050Y-66040D03*
X-273050Y-91440D03*
X-146050Y-91440D03*
X-146050Y-66040D03*
X-146050Y-40640D03*
X-146050Y-15240D03*
X-146050Y10160D03*
X-146050Y35560D03*
X-146050Y60960D03*
X-146050Y86360D03*
X267970Y-91440D03*
X267970Y-66040D03*
X267970Y-40640D03*
X267970Y-15240D03*
X267970Y10160D03*
X267970Y35560D03*
X267970Y60960D03*
X267970Y86360D03*
X140970Y86360D03*
X140970Y60960D03*
X140970Y35560D03*
X140970Y10160D03*
X140970Y-15240D03*
X140970Y-40640D03*
X140970Y-66040D03*
X140970Y-91440D03*
X63500Y64480D03*
X38100Y64480D03*
X12700Y64480D03*
X-12700Y64480D03*
X-38100Y64480D03*
X-63500Y64480D03*
X304800Y190500D03*
X304800Y220980D03*
D12*
X471170Y-134530D03*
X443170Y-113030D03*
X499170Y-113030D03*
D13*
X-224790Y-2540D03*
X-224790Y7620D03*
X-224790Y-12700D03*
X-214630Y-2540D03*
X-214630Y7620D03*
X-214630Y-12700D03*
X-234950Y-2540D03*
X-234950Y7620D03*
X-234950Y-12700D03*
X-256286Y-85852D03*
X-217170Y-55372D03*
X-201168Y-58166D03*
X-197612Y-53086D03*
X-251714Y86614D03*
X-194564Y-59182D03*
X219710Y-2540D03*
X219710Y-12700D03*
X219710Y7620D03*
X209550Y-2540D03*
X209550Y-12700D03*
X209550Y7620D03*
X229870Y-2540D03*
X229870Y-12700D03*
X229870Y7620D03*
X251206Y80772D03*
X212090Y50292D03*
X196088Y53086D03*
X192532Y48006D03*
X246634Y-91694D03*
X189484Y54102D03*
X-513080Y172720D03*
X-513080Y162560D03*
X-513080Y152400D03*
X-513080Y142240D03*
X-502920Y137160D03*
X-502920Y147320D03*
X-502920Y157480D03*
X-502920Y167640D03*
X-492760Y162560D03*
X-492760Y152400D03*
X-492760Y142240D03*
X-482600Y137160D03*
X-482600Y147320D03*
X-482600Y157480D03*
X-482600Y167640D03*
X-472440Y162560D03*
X-472440Y152400D03*
X-472440Y142240D03*
X-462280Y137160D03*
X-462280Y147320D03*
X-462280Y157480D03*
X-462280Y167640D03*
X-452120Y142240D03*
X-431800Y142240D03*
X-441960Y147320D03*
X-421640Y147320D03*
X-441960Y137160D03*
X-421640Y137160D03*
X-452120Y152400D03*
X-452120Y162560D03*
X387858Y213360D03*
X398018Y213360D03*
X408178Y213360D03*
X418338Y213360D03*
X413258Y203200D03*
X403098Y203200D03*
X392938Y203200D03*
X387858Y193040D03*
X398018Y193040D03*
X408178Y193040D03*
X418338Y193040D03*
X413258Y182880D03*
X403098Y182880D03*
X392938Y182880D03*
X387858Y172720D03*
X398018Y172720D03*
X408178Y172720D03*
X418338Y172720D03*
X423418Y182880D03*
X423418Y203200D03*
X382778Y203200D03*
X382778Y182880D03*
X-383540Y257810D03*
X-397510Y257810D03*
X-389890Y248920D03*
X-359410Y203200D03*
X-373380Y203200D03*
X-387350Y203200D03*
X276098Y-121920D03*
X-124460Y-102616D03*
X-472758Y30480D03*
X363474Y35560D03*
X-523240Y147320D03*
X-523240Y157480D03*
X-523240Y167640D03*
X-533400Y162560D03*
X-533400Y152400D03*
X-533400Y172720D03*
X186690Y-122682D03*
X361188Y76454D03*
X395224Y14986D03*
X395224Y762D03*
X395224Y-13970D03*
X-192786Y-27305D03*
X-187198Y-27305D03*
X-190246Y-22479D03*
X-190246Y17399D03*
X-186944Y22225D03*
X-192786Y22225D03*
X187706Y22225D03*
X182118Y22225D03*
X185166Y17399D03*
X185166Y-22479D03*
X181864Y-27305D03*
X187706Y-27305D03*
X-453652Y275366D03*
X-445398Y270620D03*
X-453652Y265096D03*
X-445398Y259334D03*
X-453780Y255016D03*
X197993Y-40640D03*
X195707Y-35052D03*
X191643Y-40132D03*
X-244602Y-85598D03*
X239522Y80518D03*
X-360680Y91440D03*
X-370840Y91440D03*
X-381000Y91440D03*
X-391160Y91440D03*
X-401320Y91440D03*
X-411480Y91440D03*
X-416560Y101600D03*
X-406400Y101600D03*
X-396240Y101600D03*
X-386080Y101600D03*
X-411480Y111760D03*
X423672Y-92238D03*
X-116332Y-109474D03*
X276606Y-134112D03*
X-101600Y-116840D03*
X-50800Y-116840D03*
X0Y-116840D03*
X50800Y-116840D03*
X101600Y-116840D03*
X-472758Y-58420D03*
X-472758Y20320D03*
X-472758Y99060D03*
X363474Y25400D03*
X346710Y257556D03*
X288861Y41847D03*
X288643Y25400D03*
X495046Y27432D03*
X444246Y-64516D03*
X524510Y197104D03*
X471170Y-84074D03*
X440218Y-42454D03*
X433070Y-49530D03*
X464592Y-91539D03*
X469138Y-13208D03*
X532130Y219202D03*
X478536Y-13462D03*
X538480Y231902D03*
X346710Y244348D03*
X456438Y31496D03*
X424942Y31750D03*
X329692Y48768D03*
X486410Y244348D03*
X-472758Y10160D03*
X30142Y-124460D03*
X326898Y35560D03*
X486410Y206502D03*
X-472504Y353D03*
X38354Y-131417D03*
X315020Y117856D03*
X315020Y130556D03*
X315020Y143256D03*
X-259846Y-16764D03*
X-256540Y-47244D03*
X-203073Y-40640D03*
X-200787Y-35052D03*
X-196723Y-40132D03*
X-203073Y35560D03*
X-200787Y29972D03*
X-196723Y35052D03*
X197993Y35560D03*
X195707Y29972D03*
X191643Y35052D03*
X254766Y11684D03*
X251460Y42164D03*
X466598Y117602D03*
X-100584Y-106680D03*
X-472758Y-78740D03*
X524002Y168402D03*
X-472758Y-99060D03*
X520954Y257048D03*
X-472758Y-88900D03*
X524256Y181102D03*
X311404Y-70612D03*
X360680Y231140D03*
X303800Y-81713D03*
X353568Y219202D03*
X315020Y155702D03*
X314960Y167640D03*
X-472758Y-68580D03*
X524002Y155702D03*
X346710Y181102D03*
M02*
