G04 EAGLE Gerber RS-274X export*
G75*
%MOMM*%
%FSLAX34Y34*%
%LPD*%
%INBottom Copper*%
%IPPOS*%
%AMOC8*
5,1,8,0,0,1.08239X$1,22.5*%
G01*
G04 Define Apertures*
%ADD10C,2.032000*%
%ADD11C,2.800000*%
%ADD12C,1.524000*%
%ADD13C,1.100000*%
%ADD14C,0.553200*%
%ADD15C,0.228600*%
G36*
X540394Y-155388D02*
X540000Y-155440D01*
X-540000Y-155440D01*
X-540394Y-155388D01*
X-542727Y-154763D01*
X-543411Y-154369D01*
X-545119Y-152661D01*
X-545513Y-151977D01*
X-546138Y-149644D01*
X-546190Y-149250D01*
X-546190Y336366D01*
X-546138Y336760D01*
X-545513Y339093D01*
X-545119Y339777D01*
X-543411Y341485D01*
X-542727Y341879D01*
X-540394Y342504D01*
X-540000Y342556D01*
X-295000Y342556D01*
X-294606Y342504D01*
X-292273Y341879D01*
X-291589Y341485D01*
X-289882Y339777D01*
X-289487Y339093D01*
X-288862Y336760D01*
X-288810Y336366D01*
X-288810Y143619D01*
X-286708Y138543D01*
X-282823Y134658D01*
X-280777Y133811D01*
X-280318Y133515D01*
X-279967Y133020D01*
X-279837Y132428D01*
X-279948Y131831D01*
X-280283Y131326D01*
X-308229Y103380D01*
X-308229Y-61470D01*
X-283072Y-86627D01*
X-282751Y-87099D01*
X-282625Y-87692D01*
X-282741Y-88288D01*
X-283210Y-89419D01*
X-283210Y-93461D01*
X-281663Y-97195D01*
X-278805Y-100053D01*
X-275071Y-101600D01*
X-271029Y-101600D01*
X-267295Y-100053D01*
X-264437Y-97195D01*
X-262890Y-93461D01*
X-262890Y-89419D01*
X-264437Y-85685D01*
X-267295Y-82827D01*
X-271029Y-81280D01*
X-275071Y-81280D01*
X-276202Y-81749D01*
X-276761Y-81864D01*
X-277358Y-81753D01*
X-277863Y-81418D01*
X-300417Y-58865D01*
X-300742Y-58382D01*
X-300863Y-57787D01*
X-300863Y-47115D01*
X-300769Y-46588D01*
X-300450Y-46072D01*
X-299956Y-45721D01*
X-299363Y-45591D01*
X-298767Y-45702D01*
X-298261Y-46037D01*
X-283072Y-61227D01*
X-282751Y-61699D01*
X-282625Y-62292D01*
X-282741Y-62888D01*
X-283210Y-64019D01*
X-283210Y-68061D01*
X-281663Y-71795D01*
X-278805Y-74653D01*
X-275071Y-76200D01*
X-271029Y-76200D01*
X-267295Y-74653D01*
X-264437Y-71795D01*
X-262890Y-68061D01*
X-262890Y-64019D01*
X-264437Y-60285D01*
X-267295Y-57427D01*
X-271029Y-55880D01*
X-275071Y-55880D01*
X-276202Y-56349D01*
X-276761Y-56464D01*
X-277358Y-56353D01*
X-277863Y-56018D01*
X-296099Y-37783D01*
X-296424Y-37300D01*
X-296545Y-36705D01*
X-296545Y24513D01*
X-296451Y25040D01*
X-296132Y25556D01*
X-295638Y25907D01*
X-295045Y26037D01*
X-294449Y25926D01*
X-293943Y25591D01*
X-283146Y14794D01*
X-282825Y14322D01*
X-282700Y13728D01*
X-282816Y13133D01*
X-283210Y12181D01*
X-283210Y8139D01*
X-281663Y4405D01*
X-278805Y1547D01*
X-275071Y0D01*
X-271029Y0D01*
X-267295Y1547D01*
X-264437Y4405D01*
X-262890Y8139D01*
X-262890Y12181D01*
X-264437Y15915D01*
X-267295Y18773D01*
X-271029Y20320D01*
X-275071Y20320D01*
X-276382Y19777D01*
X-276941Y19661D01*
X-277537Y19772D01*
X-278043Y20107D01*
X-290511Y32575D01*
X-290836Y33058D01*
X-290957Y33653D01*
X-290957Y44833D01*
X-290863Y45360D01*
X-290544Y45876D01*
X-290050Y46227D01*
X-289457Y46357D01*
X-288861Y46246D01*
X-288355Y45911D01*
X-282997Y40553D01*
X-282676Y40081D01*
X-282551Y39487D01*
X-282667Y38892D01*
X-283210Y37581D01*
X-283210Y33539D01*
X-281663Y29805D01*
X-278805Y26947D01*
X-275071Y25400D01*
X-271029Y25400D01*
X-267295Y26947D01*
X-264437Y29805D01*
X-262890Y33539D01*
X-262890Y37581D01*
X-264437Y41315D01*
X-267295Y44173D01*
X-271029Y45720D01*
X-275071Y45720D01*
X-276023Y45326D01*
X-276582Y45210D01*
X-277178Y45321D01*
X-277684Y45656D01*
X-285431Y53403D01*
X-285756Y53886D01*
X-285877Y54481D01*
X-285877Y57716D01*
X-285787Y58231D01*
X-285473Y58750D01*
X-284981Y59105D01*
X-284389Y59240D01*
X-283792Y59133D01*
X-283284Y58802D01*
X-282945Y58299D01*
X-281663Y55205D01*
X-278805Y52347D01*
X-275071Y50800D01*
X-271029Y50800D01*
X-267295Y52347D01*
X-264437Y55205D01*
X-262890Y58939D01*
X-262890Y62981D01*
X-264437Y66715D01*
X-267295Y69573D01*
X-271029Y71120D01*
X-275071Y71120D01*
X-275304Y71023D01*
X-275863Y70908D01*
X-276460Y71019D01*
X-276965Y71354D01*
X-280351Y74739D01*
X-280676Y75222D01*
X-280797Y75817D01*
X-280797Y76291D01*
X-280699Y76829D01*
X-280376Y77343D01*
X-279879Y77689D01*
X-279285Y77815D01*
X-278690Y77699D01*
X-275071Y76200D01*
X-271029Y76200D01*
X-267295Y77747D01*
X-264437Y80605D01*
X-262890Y84339D01*
X-262890Y88381D01*
X-263359Y89512D01*
X-263474Y90071D01*
X-263363Y90668D01*
X-263028Y91173D01*
X-255461Y98741D01*
X-254978Y99066D01*
X-254383Y99187D01*
X-176984Y99187D01*
X-176469Y99097D01*
X-175950Y98783D01*
X-175595Y98291D01*
X-175460Y97699D01*
X-175567Y97102D01*
X-175898Y96594D01*
X-176401Y96255D01*
X-176657Y96149D01*
X-177184Y95867D01*
X-177722Y95508D01*
X-178212Y95105D01*
X-178452Y94888D01*
X-221126Y52214D01*
X-221343Y51974D01*
X-221746Y51484D01*
X-222105Y50946D01*
X-222387Y50419D01*
X-222634Y49822D01*
X-222808Y49250D01*
X-222934Y48616D01*
X-222996Y47984D01*
X-223012Y47661D01*
X-223012Y23713D01*
X-222996Y23390D01*
X-222934Y22758D01*
X-222808Y22124D01*
X-222634Y21553D01*
X-222387Y20955D01*
X-222105Y20428D01*
X-221746Y19890D01*
X-221343Y19400D01*
X-221126Y19160D01*
X-216298Y14332D01*
X-216058Y14115D01*
X-215568Y13712D01*
X-215030Y13353D01*
X-214503Y13071D01*
X-213906Y12824D01*
X-213334Y12650D01*
X-212700Y12524D01*
X-212068Y12462D01*
X-211745Y12446D01*
X-210566Y12446D01*
X-210017Y12344D01*
X-209506Y12017D01*
X-209163Y11516D01*
X-209042Y10922D01*
X-209042Y-19721D01*
X-209026Y-20044D01*
X-208964Y-20676D01*
X-208838Y-21310D01*
X-208664Y-21882D01*
X-208417Y-22479D01*
X-208135Y-23006D01*
X-207776Y-23544D01*
X-207373Y-24034D01*
X-207156Y-24274D01*
X-205425Y-26005D01*
X-205157Y-26367D01*
X-204985Y-26948D01*
X-205052Y-27551D01*
X-205350Y-28079D01*
X-205830Y-28450D01*
X-205952Y-28510D01*
X-206523Y-28818D01*
X-206826Y-29003D01*
X-207648Y-29567D01*
X-207988Y-29837D01*
X-208126Y-29974D01*
X-208817Y-30710D01*
X-209091Y-31047D01*
X-209198Y-31210D01*
X-209715Y-32077D01*
X-209911Y-32464D01*
X-209980Y-32646D01*
X-210300Y-33603D01*
X-210409Y-34024D01*
X-210437Y-34216D01*
X-210547Y-35232D01*
X-210566Y-35587D01*
X-210566Y-38869D01*
X-210546Y-39228D01*
X-210480Y-39838D01*
X-210402Y-40264D01*
X-210344Y-40460D01*
X-210143Y-41051D01*
X-209975Y-41451D01*
X-209876Y-41629D01*
X-209552Y-42163D01*
X-209302Y-42517D01*
X-209166Y-42669D01*
X-208726Y-43129D01*
X-208463Y-43375D01*
X-202911Y-48027D01*
X-202580Y-48267D01*
X-202265Y-48433D01*
X-201931Y-48554D01*
X-201564Y-48631D01*
X-201315Y-48653D01*
X-146430Y-51051D01*
X-146288Y-51054D01*
X-144635Y-51054D01*
X-144312Y-51038D01*
X-143433Y-50952D01*
X-142798Y-50825D01*
X-141989Y-50580D01*
X-141391Y-50332D01*
X-140644Y-49933D01*
X-140107Y-49574D01*
X-139424Y-49014D01*
X-139183Y-48795D01*
X-137895Y-47507D01*
X-137676Y-47266D01*
X-137116Y-46583D01*
X-136757Y-46046D01*
X-136358Y-45299D01*
X-136110Y-44701D01*
X-135865Y-43892D01*
X-135738Y-43257D01*
X-135652Y-42378D01*
X-135636Y-42055D01*
X-135636Y-39479D01*
X-135652Y-39156D01*
X-135739Y-38277D01*
X-135865Y-37642D01*
X-136110Y-36833D01*
X-136358Y-36235D01*
X-136757Y-35488D01*
X-137116Y-34951D01*
X-137676Y-34268D01*
X-137895Y-34027D01*
X-139437Y-32485D01*
X-139678Y-32266D01*
X-140361Y-31706D01*
X-140898Y-31347D01*
X-141645Y-30948D01*
X-142243Y-30700D01*
X-143052Y-30455D01*
X-143687Y-30328D01*
X-144566Y-30242D01*
X-144889Y-30226D01*
X-152147Y-30226D01*
X-152685Y-30128D01*
X-153198Y-29805D01*
X-153545Y-29308D01*
X-153671Y-28714D01*
X-153555Y-28119D01*
X-153286Y-27470D01*
X-153112Y-26898D01*
X-152986Y-26264D01*
X-152924Y-25632D01*
X-152922Y-25596D01*
X-152826Y-25133D01*
X-152503Y-24619D01*
X-152006Y-24272D01*
X-151412Y-24147D01*
X-150817Y-24263D01*
X-148071Y-25400D01*
X-144029Y-25400D01*
X-140295Y-23853D01*
X-137437Y-20995D01*
X-135890Y-17261D01*
X-135890Y-13219D01*
X-137437Y-9485D01*
X-140295Y-6627D01*
X-144029Y-5080D01*
X-148071Y-5080D01*
X-150801Y-6211D01*
X-151335Y-6326D01*
X-151933Y-6224D01*
X-152444Y-5897D01*
X-152787Y-5397D01*
X-152908Y-4803D01*
X-152908Y-277D01*
X-152810Y261D01*
X-152487Y774D01*
X-151990Y1121D01*
X-151396Y1247D01*
X-150801Y1131D01*
X-148071Y0D01*
X-144029Y0D01*
X-140295Y1547D01*
X-137437Y4405D01*
X-135890Y8139D01*
X-135890Y12181D01*
X-137437Y15915D01*
X-140295Y18773D01*
X-144029Y20320D01*
X-148071Y20320D01*
X-150885Y19154D01*
X-151271Y19051D01*
X-151876Y19094D01*
X-152416Y19369D01*
X-152807Y19833D01*
X-152966Y20349D01*
X-152972Y20348D01*
X-152983Y20405D01*
X-152985Y20413D01*
X-152986Y20421D01*
X-153112Y21056D01*
X-153286Y21628D01*
X-153533Y22225D01*
X-153815Y22752D01*
X-153830Y22775D01*
X-153835Y22790D01*
X-153850Y22818D01*
X-153845Y22821D01*
X-154086Y23573D01*
X-153985Y24171D01*
X-153658Y24682D01*
X-153158Y25025D01*
X-152563Y25146D01*
X-144889Y25146D01*
X-144566Y25162D01*
X-143687Y25248D01*
X-143052Y25375D01*
X-142243Y25620D01*
X-141645Y25868D01*
X-140898Y26267D01*
X-140361Y26626D01*
X-139678Y27186D01*
X-139437Y27405D01*
X-137895Y28947D01*
X-137676Y29188D01*
X-137116Y29871D01*
X-136757Y30408D01*
X-136358Y31155D01*
X-136110Y31753D01*
X-135865Y32562D01*
X-135739Y33197D01*
X-135652Y34076D01*
X-135636Y34399D01*
X-135636Y36975D01*
X-135652Y37298D01*
X-135738Y38177D01*
X-135865Y38812D01*
X-136110Y39621D01*
X-136358Y40219D01*
X-136757Y40966D01*
X-137116Y41503D01*
X-137676Y42186D01*
X-137895Y42427D01*
X-139183Y43715D01*
X-139424Y43934D01*
X-140107Y44494D01*
X-140644Y44853D01*
X-141391Y45252D01*
X-141989Y45500D01*
X-142798Y45745D01*
X-143433Y45872D01*
X-144312Y45958D01*
X-144635Y45974D01*
X-146288Y45974D01*
X-146430Y45971D01*
X-163902Y45208D01*
X-164269Y45236D01*
X-164828Y45472D01*
X-165251Y45907D01*
X-165471Y46472D01*
X-165452Y47078D01*
X-165199Y47629D01*
X-158072Y57382D01*
X-157470Y57871D01*
X-156878Y58006D01*
X-156281Y57900D01*
X-155773Y57569D01*
X-155434Y57066D01*
X-154663Y55205D01*
X-151805Y52347D01*
X-148071Y50800D01*
X-146812Y50800D01*
X-146812Y61722D01*
X-135890Y61722D01*
X-135890Y62981D01*
X-137437Y66715D01*
X-140295Y69573D01*
X-144029Y71120D01*
X-145032Y71120D01*
X-145891Y71386D01*
X-146314Y71820D01*
X-146534Y72386D01*
X-146515Y72992D01*
X-146262Y73543D01*
X-144699Y75682D01*
X-144052Y76190D01*
X-143917Y76246D01*
X-143483Y76355D01*
X-143087Y76394D01*
X-142453Y76520D01*
X-141643Y76766D01*
X-141045Y77013D01*
X-140299Y77412D01*
X-139761Y77772D01*
X-139078Y78332D01*
X-138838Y78550D01*
X-137895Y79493D01*
X-137676Y79734D01*
X-137116Y80417D01*
X-136757Y80954D01*
X-136358Y81701D01*
X-136110Y82299D01*
X-135865Y83108D01*
X-135739Y83743D01*
X-135652Y84622D01*
X-135636Y84945D01*
X-135636Y86616D01*
X-135542Y87143D01*
X-135223Y87659D01*
X-134729Y88010D01*
X-134136Y88140D01*
X-133540Y88029D01*
X-133034Y87694D01*
X-113794Y68453D01*
X-102233Y68453D01*
X-101661Y68342D01*
X-101155Y68007D01*
X-80266Y47117D01*
X77255Y47117D01*
X99414Y69277D01*
X99897Y69602D01*
X100492Y69723D01*
X131685Y69723D01*
X132212Y69629D01*
X132728Y69310D01*
X133079Y68816D01*
X133209Y68223D01*
X133098Y67627D01*
X132763Y67121D01*
X132357Y66715D01*
X130810Y62981D01*
X130810Y58939D01*
X132357Y55205D01*
X135215Y52347D01*
X138949Y50800D01*
X142991Y50800D01*
X146725Y52347D01*
X149583Y55205D01*
X151130Y58939D01*
X151130Y62981D01*
X149583Y66715D01*
X147391Y68907D01*
X147075Y69368D01*
X146945Y69961D01*
X147056Y70557D01*
X147391Y71063D01*
X178117Y101789D01*
X178600Y102114D01*
X179195Y102235D01*
X339524Y102235D01*
X340051Y102141D01*
X340567Y101822D01*
X340918Y101328D01*
X341048Y100735D01*
X340937Y100139D01*
X340602Y99633D01*
X291973Y51005D01*
X291973Y48582D01*
X291875Y48044D01*
X291552Y47531D01*
X291055Y47184D01*
X290461Y47058D01*
X289973Y47153D01*
X287805Y47153D01*
X285855Y46346D01*
X284362Y44853D01*
X283555Y42903D01*
X283555Y40792D01*
X284362Y38842D01*
X285855Y37349D01*
X287805Y36541D01*
X289962Y36541D01*
X290400Y36636D01*
X290998Y36534D01*
X291509Y36207D01*
X291852Y35707D01*
X291973Y35113D01*
X291973Y32045D01*
X291875Y31507D01*
X291552Y30993D01*
X291055Y30646D01*
X290461Y30521D01*
X289866Y30637D01*
X289698Y30706D01*
X287588Y30706D01*
X285637Y29898D01*
X284145Y28406D01*
X283337Y26455D01*
X283337Y24345D01*
X284145Y22394D01*
X285637Y20902D01*
X287588Y20094D01*
X289698Y20094D01*
X289866Y20163D01*
X290400Y20279D01*
X290998Y20177D01*
X291509Y19850D01*
X291852Y19350D01*
X291973Y18755D01*
X291973Y-61597D01*
X291862Y-62169D01*
X291527Y-62675D01*
X272783Y-81418D01*
X272311Y-81739D01*
X271718Y-81865D01*
X271122Y-81749D01*
X269991Y-81280D01*
X265949Y-81280D01*
X262215Y-82827D01*
X259357Y-85685D01*
X257810Y-89419D01*
X257810Y-93461D01*
X259357Y-97195D01*
X262215Y-100053D01*
X262243Y-100065D01*
X262685Y-100345D01*
X263044Y-100834D01*
X263183Y-101424D01*
X263082Y-102022D01*
X262755Y-102533D01*
X262254Y-102876D01*
X261660Y-102997D01*
X173966Y-102997D01*
X173301Y-102845D01*
X172819Y-102477D01*
X172518Y-101950D01*
X172447Y-101348D01*
X172616Y-100765D01*
X172999Y-100295D01*
X173133Y-100185D01*
X173372Y-99968D01*
X216046Y-57294D01*
X216263Y-57054D01*
X216666Y-56564D01*
X217025Y-56026D01*
X217307Y-55499D01*
X217554Y-54902D01*
X217728Y-54330D01*
X217854Y-53696D01*
X217916Y-53064D01*
X217932Y-52741D01*
X217932Y-28793D01*
X217916Y-28470D01*
X217854Y-27838D01*
X217728Y-27204D01*
X217554Y-26633D01*
X217307Y-26035D01*
X217025Y-25508D01*
X216666Y-24970D01*
X216263Y-24480D01*
X216046Y-24240D01*
X211218Y-19412D01*
X210978Y-19195D01*
X210488Y-18792D01*
X209950Y-18433D01*
X209423Y-18151D01*
X208826Y-17904D01*
X208254Y-17730D01*
X207620Y-17604D01*
X206988Y-17542D01*
X206665Y-17526D01*
X205486Y-17526D01*
X204937Y-17424D01*
X204426Y-17097D01*
X204083Y-16596D01*
X203962Y-16002D01*
X203962Y14641D01*
X203946Y14964D01*
X203884Y15596D01*
X203758Y16230D01*
X203584Y16802D01*
X203337Y17399D01*
X203055Y17926D01*
X202696Y18464D01*
X202293Y18954D01*
X202076Y19194D01*
X200345Y20925D01*
X200077Y21287D01*
X199905Y21868D01*
X199972Y22471D01*
X200270Y22999D01*
X200750Y23370D01*
X200872Y23430D01*
X201443Y23738D01*
X201746Y23923D01*
X202568Y24487D01*
X202908Y24757D01*
X203046Y24894D01*
X203737Y25630D01*
X204011Y25967D01*
X204118Y26130D01*
X204635Y26997D01*
X204831Y27384D01*
X204900Y27566D01*
X205220Y28523D01*
X205329Y28944D01*
X205357Y29136D01*
X205467Y30152D01*
X205486Y30507D01*
X205486Y33789D01*
X205466Y34148D01*
X205400Y34758D01*
X205322Y35184D01*
X205264Y35380D01*
X205063Y35971D01*
X204895Y36371D01*
X204796Y36549D01*
X204472Y37083D01*
X204222Y37437D01*
X204086Y37589D01*
X203646Y38049D01*
X203383Y38295D01*
X197831Y42947D01*
X197500Y43187D01*
X197185Y43353D01*
X196851Y43474D01*
X196484Y43551D01*
X196235Y43573D01*
X141350Y45971D01*
X141208Y45974D01*
X139555Y45974D01*
X139232Y45958D01*
X138353Y45872D01*
X137718Y45745D01*
X136909Y45500D01*
X136311Y45252D01*
X135564Y44853D01*
X135027Y44494D01*
X134344Y43934D01*
X134103Y43715D01*
X132815Y42427D01*
X132596Y42186D01*
X132036Y41503D01*
X131677Y40966D01*
X131278Y40219D01*
X131030Y39621D01*
X130785Y38812D01*
X130658Y38177D01*
X130572Y37298D01*
X130556Y36975D01*
X130556Y34399D01*
X130572Y34076D01*
X130659Y33197D01*
X130785Y32562D01*
X131030Y31753D01*
X131278Y31155D01*
X131677Y30408D01*
X132036Y29871D01*
X132596Y29188D01*
X132815Y28947D01*
X134357Y27405D01*
X134598Y27186D01*
X135281Y26626D01*
X135818Y26267D01*
X136565Y25868D01*
X137163Y25620D01*
X137972Y25375D01*
X138607Y25248D01*
X139486Y25162D01*
X139809Y25146D01*
X147067Y25146D01*
X147605Y25048D01*
X148118Y24725D01*
X148465Y24228D01*
X148591Y23634D01*
X148475Y23039D01*
X148206Y22390D01*
X148032Y21818D01*
X147906Y21184D01*
X147844Y20552D01*
X147842Y20516D01*
X147746Y20053D01*
X147423Y19539D01*
X146926Y19192D01*
X146332Y19067D01*
X145737Y19183D01*
X142991Y20320D01*
X138949Y20320D01*
X135215Y18773D01*
X132357Y15915D01*
X130810Y12181D01*
X130810Y8139D01*
X132357Y4405D01*
X135215Y1547D01*
X138949Y0D01*
X142991Y0D01*
X145721Y1131D01*
X146255Y1246D01*
X146853Y1144D01*
X147364Y817D01*
X147707Y317D01*
X147828Y-277D01*
X147828Y-4803D01*
X147730Y-5341D01*
X147407Y-5854D01*
X146910Y-6201D01*
X146316Y-6327D01*
X145721Y-6211D01*
X142991Y-5080D01*
X138949Y-5080D01*
X135215Y-6627D01*
X132357Y-9485D01*
X130810Y-13219D01*
X130810Y-17261D01*
X132357Y-20995D01*
X135215Y-23853D01*
X138949Y-25400D01*
X142991Y-25400D01*
X145805Y-24234D01*
X146191Y-24131D01*
X146796Y-24174D01*
X147336Y-24449D01*
X147727Y-24913D01*
X147886Y-25429D01*
X147892Y-25428D01*
X147903Y-25485D01*
X147905Y-25493D01*
X147906Y-25501D01*
X148032Y-26136D01*
X148206Y-26708D01*
X148453Y-27305D01*
X148735Y-27832D01*
X148750Y-27855D01*
X148755Y-27870D01*
X148770Y-27898D01*
X148765Y-27901D01*
X149006Y-28653D01*
X148905Y-29251D01*
X148578Y-29762D01*
X148078Y-30105D01*
X147483Y-30226D01*
X139809Y-30226D01*
X139486Y-30242D01*
X138607Y-30328D01*
X137972Y-30455D01*
X137163Y-30700D01*
X136565Y-30948D01*
X135818Y-31347D01*
X135281Y-31706D01*
X134598Y-32266D01*
X134357Y-32485D01*
X132815Y-34027D01*
X132596Y-34268D01*
X132036Y-34951D01*
X131677Y-35488D01*
X131278Y-36235D01*
X131030Y-36833D01*
X130785Y-37642D01*
X130659Y-38277D01*
X130572Y-39156D01*
X130556Y-39479D01*
X130556Y-42055D01*
X130572Y-42378D01*
X130658Y-43257D01*
X130785Y-43892D01*
X131030Y-44701D01*
X131278Y-45299D01*
X131677Y-46046D01*
X132036Y-46583D01*
X132596Y-47266D01*
X132815Y-47507D01*
X134103Y-48795D01*
X134344Y-49014D01*
X135027Y-49574D01*
X135564Y-49933D01*
X136311Y-50332D01*
X136909Y-50580D01*
X137718Y-50825D01*
X138353Y-50952D01*
X139232Y-51038D01*
X139555Y-51054D01*
X141208Y-51054D01*
X141350Y-51051D01*
X158822Y-50288D01*
X159189Y-50316D01*
X159748Y-50552D01*
X160171Y-50987D01*
X160391Y-51552D01*
X160372Y-52158D01*
X160119Y-52709D01*
X152992Y-62462D01*
X152390Y-62951D01*
X151798Y-63086D01*
X151201Y-62980D01*
X150693Y-62649D01*
X150354Y-62146D01*
X149583Y-60285D01*
X146725Y-57427D01*
X142991Y-55880D01*
X141732Y-55880D01*
X141732Y-66802D01*
X130810Y-66802D01*
X130810Y-68061D01*
X132357Y-71795D01*
X135215Y-74653D01*
X138949Y-76200D01*
X139952Y-76200D01*
X140811Y-76466D01*
X141234Y-76900D01*
X141454Y-77466D01*
X141435Y-78072D01*
X141182Y-78623D01*
X139619Y-80762D01*
X138972Y-81270D01*
X138837Y-81326D01*
X138403Y-81435D01*
X138007Y-81474D01*
X137373Y-81600D01*
X136563Y-81846D01*
X135965Y-82093D01*
X135219Y-82492D01*
X134681Y-82852D01*
X133998Y-83412D01*
X133758Y-83630D01*
X132815Y-84573D01*
X132596Y-84814D01*
X132036Y-85497D01*
X131677Y-86034D01*
X131278Y-86781D01*
X131030Y-87379D01*
X130785Y-88188D01*
X130659Y-88823D01*
X130572Y-89702D01*
X130556Y-90025D01*
X130556Y-93871D01*
X130572Y-94194D01*
X130658Y-95073D01*
X130785Y-95708D01*
X131030Y-96517D01*
X131278Y-97115D01*
X131677Y-97862D01*
X132036Y-98399D01*
X132596Y-99082D01*
X132815Y-99323D01*
X132951Y-99459D01*
X133173Y-99662D01*
X133805Y-100187D01*
X133849Y-100218D01*
X134368Y-100834D01*
X134508Y-101424D01*
X134406Y-102022D01*
X134079Y-102533D01*
X133579Y-102876D01*
X132984Y-102997D01*
X88623Y-102997D01*
X88096Y-102903D01*
X87580Y-102584D01*
X87229Y-102090D01*
X87099Y-101497D01*
X87210Y-100901D01*
X87545Y-100395D01*
X89507Y-98434D01*
X91440Y-93766D01*
X91440Y-88714D01*
X89507Y-84046D01*
X85934Y-80473D01*
X85148Y-80148D01*
X84698Y-79860D01*
X84343Y-79368D01*
X84208Y-78776D01*
X84314Y-78179D01*
X84645Y-77671D01*
X85148Y-77332D01*
X85934Y-77007D01*
X89507Y-73434D01*
X91440Y-68766D01*
X91440Y-67002D01*
X66040Y-67002D01*
X66040Y-68766D01*
X67973Y-73434D01*
X71546Y-77007D01*
X72332Y-77332D01*
X72782Y-77620D01*
X73137Y-78112D01*
X73272Y-78704D01*
X73166Y-79301D01*
X72835Y-79809D01*
X72332Y-80148D01*
X71546Y-80473D01*
X67973Y-84046D01*
X66040Y-88714D01*
X66040Y-93766D01*
X67973Y-98434D01*
X69935Y-100395D01*
X70241Y-100834D01*
X70380Y-101424D01*
X70279Y-102022D01*
X69952Y-102533D01*
X69452Y-102876D01*
X68857Y-102997D01*
X-96132Y-102997D01*
X-96704Y-102886D01*
X-97210Y-102551D01*
X-97578Y-102182D01*
X-99529Y-101374D01*
X-101639Y-101374D01*
X-103590Y-102182D01*
X-105082Y-103674D01*
X-105890Y-105625D01*
X-105890Y-107735D01*
X-105082Y-109686D01*
X-104593Y-110174D01*
X-104277Y-110635D01*
X-104147Y-111228D01*
X-104258Y-111824D01*
X-104593Y-112330D01*
X-106098Y-113834D01*
X-106906Y-115785D01*
X-106906Y-117895D01*
X-106098Y-119846D01*
X-104606Y-121338D01*
X-102655Y-122146D01*
X-100545Y-122146D01*
X-98594Y-121338D01*
X-97102Y-119846D01*
X-96294Y-117895D01*
X-96294Y-115785D01*
X-97102Y-113834D01*
X-97591Y-113346D01*
X-97907Y-112885D01*
X-98037Y-112292D01*
X-97926Y-111696D01*
X-97591Y-111190D01*
X-97210Y-110809D01*
X-96726Y-110484D01*
X-96132Y-110363D01*
X-55506Y-110363D01*
X-54979Y-110457D01*
X-54463Y-110776D01*
X-54112Y-111270D01*
X-53982Y-111863D01*
X-54093Y-112459D01*
X-54428Y-112965D01*
X-55298Y-113834D01*
X-56106Y-115785D01*
X-56106Y-117895D01*
X-55298Y-119846D01*
X-53806Y-121338D01*
X-51855Y-122146D01*
X-49745Y-122146D01*
X-47794Y-121338D01*
X-46302Y-119846D01*
X-45494Y-117895D01*
X-45494Y-115785D01*
X-46302Y-113834D01*
X-47172Y-112965D01*
X-47478Y-112526D01*
X-47617Y-111936D01*
X-47515Y-111338D01*
X-47189Y-110827D01*
X-46688Y-110484D01*
X-46094Y-110363D01*
X-4706Y-110363D01*
X-4179Y-110457D01*
X-3663Y-110776D01*
X-3312Y-111270D01*
X-3182Y-111863D01*
X-3293Y-112459D01*
X-3628Y-112965D01*
X-4498Y-113834D01*
X-5306Y-115785D01*
X-5306Y-117895D01*
X-4498Y-119846D01*
X-3006Y-121338D01*
X-1055Y-122146D01*
X1055Y-122146D01*
X3006Y-121338D01*
X4498Y-119846D01*
X5306Y-117895D01*
X5306Y-115785D01*
X4498Y-113834D01*
X3628Y-112965D01*
X3322Y-112526D01*
X3183Y-111936D01*
X3285Y-111338D01*
X3611Y-110827D01*
X4112Y-110484D01*
X4706Y-110363D01*
X46094Y-110363D01*
X46621Y-110457D01*
X47137Y-110776D01*
X47488Y-111270D01*
X47618Y-111863D01*
X47507Y-112459D01*
X47172Y-112965D01*
X46302Y-113834D01*
X45494Y-115785D01*
X45494Y-117895D01*
X46302Y-119846D01*
X47794Y-121338D01*
X49745Y-122146D01*
X51855Y-122146D01*
X53806Y-121338D01*
X55298Y-119846D01*
X56106Y-117895D01*
X56106Y-115785D01*
X55298Y-113834D01*
X54428Y-112965D01*
X54122Y-112526D01*
X53983Y-111936D01*
X54085Y-111338D01*
X54411Y-110827D01*
X54912Y-110484D01*
X55506Y-110363D01*
X96894Y-110363D01*
X97421Y-110457D01*
X97937Y-110776D01*
X98288Y-111270D01*
X98418Y-111863D01*
X98307Y-112459D01*
X97972Y-112965D01*
X97102Y-113834D01*
X96294Y-115785D01*
X96294Y-117895D01*
X97102Y-119846D01*
X98594Y-121338D01*
X100545Y-122146D01*
X102655Y-122146D01*
X104606Y-121338D01*
X106098Y-119846D01*
X106906Y-117895D01*
X106906Y-115785D01*
X106098Y-113834D01*
X105228Y-112965D01*
X104922Y-112526D01*
X104783Y-111936D01*
X104885Y-111338D01*
X105211Y-110827D01*
X105712Y-110484D01*
X106306Y-110363D01*
X313946Y-110363D01*
X326263Y-98046D01*
X326263Y-28319D01*
X326374Y-27747D01*
X326709Y-27241D01*
X465800Y111850D01*
X466283Y112175D01*
X466878Y112296D01*
X467653Y112296D01*
X469698Y113143D01*
X470232Y113258D01*
X470830Y113156D01*
X471341Y112829D01*
X471684Y112329D01*
X471805Y111735D01*
X471805Y52703D01*
X471694Y52131D01*
X471359Y51625D01*
X456982Y37248D01*
X456499Y36923D01*
X455904Y36802D01*
X455383Y36802D01*
X453432Y35994D01*
X453318Y35879D01*
X452834Y35554D01*
X452240Y35433D01*
X429394Y35433D01*
X428822Y35544D01*
X428316Y35879D01*
X427948Y36248D01*
X425997Y37056D01*
X423887Y37056D01*
X421936Y36248D01*
X420444Y34756D01*
X419636Y32805D01*
X419636Y30695D01*
X420444Y28744D01*
X421936Y27252D01*
X423887Y26444D01*
X425997Y26444D01*
X427948Y27252D01*
X428316Y27621D01*
X428800Y27946D01*
X429394Y28067D01*
X451732Y28067D01*
X452304Y27956D01*
X452810Y27621D01*
X453432Y26998D01*
X455383Y26190D01*
X457493Y26190D01*
X459444Y26998D01*
X460936Y28490D01*
X461744Y30441D01*
X461744Y30962D01*
X461855Y31534D01*
X462190Y32040D01*
X479171Y49020D01*
X479171Y185676D01*
X416816Y248031D01*
X351162Y248031D01*
X350590Y248142D01*
X350084Y248477D01*
X349716Y248846D01*
X348031Y249544D01*
X347580Y249832D01*
X347225Y250324D01*
X347091Y250916D01*
X347197Y251513D01*
X347528Y252021D01*
X348031Y252360D01*
X349716Y253058D01*
X351208Y254550D01*
X352016Y256501D01*
X352016Y258611D01*
X351208Y260562D01*
X349716Y262054D01*
X347765Y262862D01*
X345655Y262862D01*
X343704Y262054D01*
X342212Y260562D01*
X341404Y258611D01*
X341404Y256501D01*
X342212Y254550D01*
X343704Y253058D01*
X345389Y252360D01*
X345840Y252072D01*
X346195Y251580D01*
X346329Y250988D01*
X346223Y250391D01*
X345892Y249883D01*
X345389Y249544D01*
X343704Y248846D01*
X342212Y247354D01*
X341404Y245403D01*
X341404Y243293D01*
X342212Y241342D01*
X343704Y239850D01*
X345655Y239042D01*
X347765Y239042D01*
X349716Y239850D01*
X350084Y240219D01*
X350568Y240544D01*
X351162Y240665D01*
X413133Y240665D01*
X413705Y240554D01*
X414211Y240219D01*
X471359Y183071D01*
X471684Y182588D01*
X471805Y181993D01*
X471805Y123469D01*
X471707Y122931D01*
X471384Y122418D01*
X470887Y122071D01*
X470293Y121945D01*
X469698Y122061D01*
X467653Y122908D01*
X465543Y122908D01*
X463592Y122100D01*
X462100Y120608D01*
X461292Y118657D01*
X461292Y118390D01*
X461181Y117818D01*
X460846Y117312D01*
X370747Y27213D01*
X370297Y26902D01*
X369706Y26767D01*
X369109Y26874D01*
X368600Y27205D01*
X368261Y27708D01*
X367972Y28406D01*
X366480Y29898D01*
X364529Y30706D01*
X362419Y30706D01*
X360468Y29898D01*
X358976Y28406D01*
X358168Y26455D01*
X358168Y24345D01*
X358976Y22394D01*
X360468Y20902D01*
X361166Y20613D01*
X361626Y20316D01*
X361977Y19822D01*
X362107Y19229D01*
X361996Y18633D01*
X361661Y18127D01*
X318897Y-24636D01*
X318897Y-67175D01*
X318807Y-67690D01*
X318493Y-68209D01*
X318001Y-68564D01*
X317409Y-68698D01*
X316812Y-68592D01*
X316304Y-68261D01*
X315965Y-67758D01*
X315902Y-67606D01*
X315533Y-67238D01*
X315208Y-66754D01*
X315087Y-66160D01*
X315087Y47627D01*
X315198Y48199D01*
X315533Y48705D01*
X364363Y97534D01*
X364363Y226688D01*
X364474Y227260D01*
X364809Y227766D01*
X365178Y228134D01*
X365986Y230085D01*
X365986Y232195D01*
X365178Y234146D01*
X363686Y235638D01*
X361735Y236446D01*
X359625Y236446D01*
X357674Y235638D01*
X356182Y234146D01*
X355374Y232195D01*
X355374Y230085D01*
X356182Y228134D01*
X356551Y227766D01*
X356876Y227282D01*
X356997Y226688D01*
X356997Y225806D01*
X356899Y225268D01*
X356576Y224754D01*
X356079Y224407D01*
X355485Y224282D01*
X354890Y224398D01*
X354623Y224508D01*
X352513Y224508D01*
X350562Y223700D01*
X349070Y222208D01*
X348262Y220257D01*
X348262Y218147D01*
X349070Y216196D01*
X349439Y215828D01*
X349764Y215344D01*
X349885Y214750D01*
X349885Y187811D01*
X349787Y187273D01*
X349464Y186759D01*
X348967Y186412D01*
X348373Y186287D01*
X347778Y186403D01*
X347765Y186408D01*
X345655Y186408D01*
X343704Y185600D01*
X342212Y184108D01*
X341404Y182157D01*
X341404Y180047D01*
X342212Y178096D01*
X342581Y177728D01*
X342906Y177244D01*
X343027Y176650D01*
X343027Y111125D01*
X342925Y110576D01*
X342598Y110065D01*
X342097Y109722D01*
X341503Y109601D01*
X316617Y109601D01*
X316102Y109691D01*
X315583Y110005D01*
X315228Y110497D01*
X315094Y111089D01*
X315200Y111686D01*
X315531Y112194D01*
X316034Y112533D01*
X318025Y113358D01*
X319518Y114850D01*
X320326Y116801D01*
X320326Y118911D01*
X319518Y120862D01*
X318025Y122354D01*
X316954Y122798D01*
X316503Y123086D01*
X316148Y123578D01*
X316013Y124170D01*
X316120Y124767D01*
X316451Y125275D01*
X316954Y125614D01*
X318025Y126058D01*
X319518Y127550D01*
X320326Y129501D01*
X320326Y131611D01*
X319518Y133562D01*
X318025Y135054D01*
X316954Y135498D01*
X316503Y135786D01*
X316148Y136278D01*
X316013Y136870D01*
X316120Y137467D01*
X316451Y137975D01*
X316954Y138314D01*
X318025Y138758D01*
X319518Y140250D01*
X320326Y142201D01*
X320326Y144311D01*
X319518Y146262D01*
X318025Y147754D01*
X317260Y148071D01*
X316810Y148359D01*
X316455Y148851D01*
X316320Y149443D01*
X316426Y150040D01*
X316757Y150548D01*
X317260Y150887D01*
X318025Y151204D01*
X319518Y152696D01*
X320326Y154647D01*
X320326Y156757D01*
X319518Y158708D01*
X318025Y160200D01*
X317844Y160275D01*
X317393Y160564D01*
X317038Y161055D01*
X316903Y161647D01*
X317010Y162244D01*
X317341Y162752D01*
X317844Y163091D01*
X317966Y163142D01*
X319458Y164634D01*
X320266Y166585D01*
X320266Y168695D01*
X319458Y170646D01*
X317966Y172138D01*
X316015Y172946D01*
X313905Y172946D01*
X311954Y172138D01*
X310462Y170646D01*
X309654Y168695D01*
X309654Y168174D01*
X309543Y167602D01*
X309208Y167096D01*
X291412Y149300D01*
X290973Y148994D01*
X290383Y148855D01*
X289785Y148956D01*
X289274Y149283D01*
X288931Y149783D01*
X288810Y150378D01*
X288810Y278962D01*
X288912Y279511D01*
X289239Y280022D01*
X289740Y280365D01*
X290334Y280486D01*
X544666Y280486D01*
X545215Y280384D01*
X545726Y280057D01*
X546069Y279556D01*
X546190Y278962D01*
X546190Y234815D01*
X546100Y234300D01*
X545786Y233781D01*
X545294Y233427D01*
X544702Y233292D01*
X544105Y233398D01*
X543597Y233729D01*
X543258Y234232D01*
X542978Y234908D01*
X541486Y236400D01*
X539535Y237208D01*
X537425Y237208D01*
X535474Y236400D01*
X533982Y234908D01*
X533174Y232957D01*
X533174Y230847D01*
X533982Y228896D01*
X534351Y228528D01*
X534676Y228044D01*
X534797Y227450D01*
X534797Y226032D01*
X534695Y225483D01*
X534368Y224972D01*
X533867Y224629D01*
X533273Y224508D01*
X531075Y224508D01*
X529124Y223700D01*
X527632Y222208D01*
X526824Y220257D01*
X526824Y218147D01*
X527632Y216196D01*
X528001Y215828D01*
X528326Y215344D01*
X528447Y214750D01*
X528447Y203497D01*
X528349Y202959D01*
X528026Y202446D01*
X527529Y202099D01*
X526935Y201973D01*
X526340Y202089D01*
X525565Y202410D01*
X523455Y202410D01*
X521504Y201602D01*
X520012Y200110D01*
X519204Y198159D01*
X519204Y196049D01*
X520012Y194098D01*
X521504Y192606D01*
X523455Y191798D01*
X525565Y191798D01*
X526340Y192119D01*
X526874Y192234D01*
X527472Y192132D01*
X527983Y191805D01*
X528326Y191305D01*
X528447Y190711D01*
X528447Y187390D01*
X528349Y186852D01*
X528026Y186338D01*
X527529Y185992D01*
X526935Y185866D01*
X526340Y185982D01*
X525311Y186408D01*
X523201Y186408D01*
X521250Y185600D01*
X519758Y184108D01*
X518950Y182157D01*
X518950Y180047D01*
X519758Y178096D01*
X521250Y176604D01*
X522195Y176213D01*
X522645Y175924D01*
X523000Y175432D01*
X523135Y174841D01*
X523029Y174244D01*
X522698Y173736D01*
X522195Y173397D01*
X520996Y172900D01*
X519504Y171408D01*
X518696Y169457D01*
X518696Y167347D01*
X519504Y165396D01*
X520996Y163904D01*
X522068Y163460D01*
X522518Y163172D01*
X522873Y162680D01*
X523008Y162088D01*
X522902Y161491D01*
X522571Y160983D01*
X522068Y160644D01*
X520996Y160200D01*
X519504Y158708D01*
X518696Y156757D01*
X518696Y154647D01*
X519504Y152696D01*
X520996Y151204D01*
X522947Y150396D01*
X525057Y150396D01*
X526340Y150927D01*
X526874Y151042D01*
X527472Y150941D01*
X527983Y150614D01*
X528326Y150114D01*
X528447Y149519D01*
X528447Y51941D01*
X528336Y51369D01*
X528001Y50863D01*
X502954Y25816D01*
X502515Y25510D01*
X501925Y25371D01*
X501327Y25472D01*
X500816Y25799D01*
X500473Y26299D01*
X500352Y26894D01*
X500352Y28487D01*
X499544Y30438D01*
X498052Y31930D01*
X496101Y32738D01*
X493991Y32738D01*
X492040Y31930D01*
X490548Y30438D01*
X489740Y28487D01*
X489740Y26377D01*
X490548Y24426D01*
X492040Y22934D01*
X493991Y22126D01*
X495584Y22126D01*
X496111Y22032D01*
X496627Y21713D01*
X496978Y21219D01*
X497108Y20626D01*
X496997Y20030D01*
X496662Y19524D01*
X469682Y-7456D01*
X469199Y-7781D01*
X468604Y-7902D01*
X468083Y-7902D01*
X466132Y-8710D01*
X464640Y-10202D01*
X463832Y-12153D01*
X463832Y-14263D01*
X464640Y-16214D01*
X466132Y-17706D01*
X468083Y-18514D01*
X470193Y-18514D01*
X472144Y-17706D01*
X472632Y-17217D01*
X473093Y-16901D01*
X473686Y-16771D01*
X474282Y-16882D01*
X474788Y-17217D01*
X475530Y-17960D01*
X477481Y-18768D01*
X479591Y-18768D01*
X481542Y-17960D01*
X483034Y-16468D01*
X483842Y-14517D01*
X483842Y-13996D01*
X483953Y-13424D01*
X484288Y-12918D01*
X542163Y44956D01*
X542163Y227450D01*
X542274Y228022D01*
X542609Y228528D01*
X542978Y228896D01*
X543258Y229572D01*
X543538Y230014D01*
X544027Y230372D01*
X544617Y230512D01*
X545215Y230410D01*
X545726Y230083D01*
X546069Y229583D01*
X546190Y228989D01*
X546190Y-149250D01*
X546138Y-149644D01*
X545513Y-151977D01*
X545119Y-152661D01*
X543411Y-154369D01*
X542727Y-154763D01*
X540394Y-155388D01*
G37*
%LPC*%
G36*
X-521050Y283204D02*
X-514470Y283204D01*
X-508391Y285722D01*
X-503738Y290375D01*
X-501220Y296454D01*
X-501220Y303034D01*
X-503738Y309113D01*
X-508391Y313766D01*
X-514470Y316284D01*
X-521050Y316284D01*
X-527129Y313766D01*
X-531782Y309113D01*
X-534300Y303034D01*
X-534300Y296454D01*
X-531782Y290375D01*
X-527129Y285722D01*
X-521050Y283204D01*
G37*
G36*
X-484300Y300506D02*
X-468522Y300506D01*
X-468522Y316284D01*
X-471050Y316284D01*
X-477129Y313766D01*
X-481782Y309113D01*
X-484300Y303034D01*
X-484300Y300506D01*
G37*
G36*
X-466998Y300506D02*
X-451220Y300506D01*
X-451220Y303034D01*
X-453738Y309113D01*
X-458391Y313766D01*
X-464470Y316284D01*
X-466998Y316284D01*
X-466998Y300506D01*
G37*
G36*
X-466998Y283204D02*
X-464470Y283204D01*
X-458391Y285722D01*
X-453738Y290375D01*
X-451220Y296454D01*
X-451220Y298982D01*
X-466998Y298982D01*
X-466998Y283204D01*
G37*
G36*
X-471050Y283204D02*
X-468522Y283204D01*
X-468522Y298982D01*
X-484300Y298982D01*
X-484300Y296454D01*
X-481782Y290375D01*
X-477129Y285722D01*
X-471050Y283204D01*
G37*
G36*
X-454835Y249710D02*
X-452725Y249710D01*
X-450774Y250518D01*
X-449282Y252010D01*
X-448737Y253325D01*
X-448433Y253793D01*
X-447935Y254140D01*
X-447342Y254265D01*
X-446746Y254149D01*
X-446453Y254028D01*
X-444343Y254028D01*
X-442392Y254836D01*
X-440900Y256328D01*
X-440092Y258279D01*
X-440092Y260389D01*
X-440900Y262340D01*
X-442460Y263899D01*
X-442776Y264360D01*
X-442906Y264953D01*
X-442795Y265549D01*
X-442460Y266055D01*
X-440900Y267614D01*
X-440092Y269565D01*
X-440092Y271675D01*
X-440900Y273626D01*
X-442392Y275118D01*
X-444343Y275926D01*
X-446453Y275926D01*
X-446486Y275913D01*
X-447032Y275797D01*
X-447630Y275904D01*
X-448138Y276234D01*
X-448477Y276737D01*
X-449154Y278372D01*
X-450646Y279864D01*
X-452597Y280672D01*
X-454707Y280672D01*
X-456658Y279864D01*
X-458150Y278372D01*
X-458958Y276421D01*
X-458958Y274311D01*
X-458150Y272360D01*
X-457098Y271309D01*
X-456782Y270848D01*
X-456652Y270255D01*
X-456763Y269659D01*
X-457098Y269153D01*
X-458150Y268102D01*
X-458958Y266151D01*
X-458958Y264041D01*
X-458150Y262090D01*
X-457257Y261198D01*
X-456941Y260737D01*
X-456811Y260144D01*
X-456922Y259548D01*
X-457257Y259042D01*
X-458278Y258022D01*
X-459086Y256071D01*
X-459086Y253961D01*
X-458278Y252010D01*
X-456786Y250518D01*
X-454835Y249710D01*
G37*
G36*
X519899Y251742D02*
X522009Y251742D01*
X523960Y252550D01*
X525452Y254042D01*
X526260Y255993D01*
X526260Y258103D01*
X525452Y260054D01*
X523960Y261546D01*
X522009Y262354D01*
X519899Y262354D01*
X517948Y261546D01*
X516456Y260054D01*
X515648Y258103D01*
X515648Y255993D01*
X516456Y254042D01*
X517948Y252550D01*
X519899Y251742D01*
G37*
G36*
X485355Y239042D02*
X487465Y239042D01*
X489416Y239850D01*
X490908Y241342D01*
X491716Y243293D01*
X491716Y245403D01*
X490908Y247354D01*
X489416Y248846D01*
X487465Y249654D01*
X485355Y249654D01*
X483404Y248846D01*
X481912Y247354D01*
X481104Y245403D01*
X481104Y243293D01*
X481912Y241342D01*
X483404Y239850D01*
X485355Y239042D01*
G37*
G36*
X302274Y208280D02*
X307326Y208280D01*
X311994Y210213D01*
X315567Y213786D01*
X317500Y218454D01*
X317500Y223506D01*
X315567Y228174D01*
X311994Y231747D01*
X307326Y233680D01*
X302274Y233680D01*
X297606Y231747D01*
X294033Y228174D01*
X292100Y223506D01*
X292100Y218454D01*
X294033Y213786D01*
X297606Y210213D01*
X302274Y208280D01*
G37*
G36*
X485355Y201196D02*
X487465Y201196D01*
X489416Y202004D01*
X490908Y203496D01*
X491716Y205447D01*
X491716Y207557D01*
X490908Y209508D01*
X489416Y211000D01*
X487465Y211808D01*
X485355Y211808D01*
X483404Y211000D01*
X481912Y209508D01*
X481104Y207557D01*
X481104Y205447D01*
X481912Y203496D01*
X483404Y202004D01*
X485355Y201196D01*
G37*
G36*
X302274Y177800D02*
X307326Y177800D01*
X311994Y179733D01*
X315567Y183306D01*
X317500Y187974D01*
X317500Y193026D01*
X315567Y197694D01*
X311994Y201267D01*
X307326Y203200D01*
X302274Y203200D01*
X297606Y201267D01*
X294033Y197694D01*
X292100Y193026D01*
X292100Y187974D01*
X294033Y183306D01*
X297606Y179733D01*
X302274Y177800D01*
G37*
G36*
X-412535Y86134D02*
X-410425Y86134D01*
X-408474Y86942D01*
X-407478Y87939D01*
X-407017Y88255D01*
X-406424Y88385D01*
X-405828Y88274D01*
X-405322Y87939D01*
X-404326Y86942D01*
X-402375Y86134D01*
X-400265Y86134D01*
X-398314Y86942D01*
X-397318Y87939D01*
X-396857Y88255D01*
X-396264Y88385D01*
X-395668Y88274D01*
X-395162Y87939D01*
X-394166Y86942D01*
X-392215Y86134D01*
X-390105Y86134D01*
X-388154Y86942D01*
X-387158Y87939D01*
X-386697Y88255D01*
X-386104Y88385D01*
X-385508Y88274D01*
X-385002Y87939D01*
X-384006Y86942D01*
X-382055Y86134D01*
X-379945Y86134D01*
X-377994Y86942D01*
X-376998Y87939D01*
X-376537Y88255D01*
X-375944Y88385D01*
X-375348Y88274D01*
X-374842Y87939D01*
X-373846Y86942D01*
X-371895Y86134D01*
X-369785Y86134D01*
X-367834Y86942D01*
X-366838Y87939D01*
X-366377Y88255D01*
X-365784Y88385D01*
X-365188Y88274D01*
X-364682Y87939D01*
X-363686Y86942D01*
X-361735Y86134D01*
X-359625Y86134D01*
X-357674Y86942D01*
X-356182Y88434D01*
X-355374Y90385D01*
X-355374Y92495D01*
X-356182Y94446D01*
X-357674Y95938D01*
X-359625Y96746D01*
X-361735Y96746D01*
X-363686Y95938D01*
X-364682Y94941D01*
X-365143Y94625D01*
X-365736Y94495D01*
X-366332Y94606D01*
X-366838Y94941D01*
X-367834Y95938D01*
X-369785Y96746D01*
X-371895Y96746D01*
X-373846Y95938D01*
X-374842Y94941D01*
X-375303Y94625D01*
X-375896Y94495D01*
X-376492Y94606D01*
X-376998Y94941D01*
X-377994Y95938D01*
X-379945Y96746D01*
X-380067Y96746D01*
X-380605Y96844D01*
X-381118Y97167D01*
X-381465Y97664D01*
X-381591Y98258D01*
X-381475Y98853D01*
X-380774Y100545D01*
X-380774Y102655D01*
X-381582Y104606D01*
X-383074Y106098D01*
X-385025Y106906D01*
X-387135Y106906D01*
X-389086Y106098D01*
X-390082Y105101D01*
X-390543Y104785D01*
X-391136Y104655D01*
X-391732Y104766D01*
X-392238Y105101D01*
X-393234Y106098D01*
X-395185Y106906D01*
X-397295Y106906D01*
X-399246Y106098D01*
X-400242Y105101D01*
X-400703Y104785D01*
X-401296Y104655D01*
X-401892Y104766D01*
X-402398Y105101D01*
X-403394Y106098D01*
X-405345Y106906D01*
X-405467Y106906D01*
X-406005Y107004D01*
X-406518Y107327D01*
X-406865Y107824D01*
X-406991Y108418D01*
X-406875Y109013D01*
X-406174Y110705D01*
X-406174Y112815D01*
X-406982Y114766D01*
X-408474Y116258D01*
X-410425Y117066D01*
X-412535Y117066D01*
X-414486Y116258D01*
X-415978Y114766D01*
X-416786Y112815D01*
X-416786Y110705D01*
X-416085Y109013D01*
X-415970Y108479D01*
X-416072Y107881D01*
X-416399Y107370D01*
X-416899Y107027D01*
X-417493Y106906D01*
X-417615Y106906D01*
X-419566Y106098D01*
X-421058Y104606D01*
X-421866Y102655D01*
X-421866Y100545D01*
X-421058Y98594D01*
X-419566Y97102D01*
X-417615Y96294D01*
X-417493Y96294D01*
X-416955Y96196D01*
X-416442Y95873D01*
X-416095Y95376D01*
X-415969Y94782D01*
X-416085Y94187D01*
X-416786Y92495D01*
X-416786Y90385D01*
X-415978Y88434D01*
X-414486Y86942D01*
X-412535Y86134D01*
G37*
G36*
X-473813Y93754D02*
X-471702Y93754D01*
X-469752Y94562D01*
X-468259Y96054D01*
X-467452Y98005D01*
X-467452Y100115D01*
X-468259Y102066D01*
X-469752Y103558D01*
X-471702Y104366D01*
X-473813Y104366D01*
X-475763Y103558D01*
X-477256Y102066D01*
X-478064Y100115D01*
X-478064Y98005D01*
X-477256Y96054D01*
X-475763Y94562D01*
X-473813Y93754D01*
G37*
G36*
X265949Y76200D02*
X269991Y76200D01*
X273725Y77747D01*
X276583Y80605D01*
X278130Y84339D01*
X278130Y88381D01*
X276583Y92115D01*
X273725Y94973D01*
X269991Y96520D01*
X265949Y96520D01*
X262215Y94973D01*
X259357Y92115D01*
X257810Y88381D01*
X257810Y84339D01*
X259357Y80605D01*
X262215Y77747D01*
X265949Y76200D01*
G37*
G36*
X238467Y75212D02*
X240577Y75212D01*
X242528Y76020D01*
X244020Y77512D01*
X244828Y79463D01*
X244828Y81573D01*
X244020Y83524D01*
X242528Y85016D01*
X240577Y85824D01*
X238467Y85824D01*
X236516Y85016D01*
X235024Y83524D01*
X234216Y81573D01*
X234216Y79463D01*
X235024Y77512D01*
X236516Y76020D01*
X238467Y75212D01*
G37*
G36*
X265949Y50800D02*
X269991Y50800D01*
X273725Y52347D01*
X276583Y55205D01*
X278130Y58939D01*
X278130Y62981D01*
X276583Y66715D01*
X273725Y69573D01*
X269991Y71120D01*
X265949Y71120D01*
X262215Y69573D01*
X259357Y66715D01*
X257810Y62981D01*
X257810Y58939D01*
X259357Y55205D01*
X262215Y52347D01*
X265949Y50800D01*
G37*
G36*
X-117937Y-37084D02*
X-112885Y-37084D01*
X-108217Y-35151D01*
X-104644Y-31578D01*
X-102711Y-26910D01*
X-102711Y-21858D01*
X-104644Y-17190D01*
X-108217Y-13617D01*
X-109486Y-13092D01*
X-109936Y-12804D01*
X-110291Y-12312D01*
X-110426Y-11720D01*
X-110320Y-11123D01*
X-109989Y-10615D01*
X-109486Y-10276D01*
X-108217Y-9751D01*
X-104644Y-6178D01*
X-102711Y-1510D01*
X-102711Y3542D01*
X-104644Y8210D01*
X-108217Y11783D01*
X-109486Y12308D01*
X-109936Y12596D01*
X-110291Y13088D01*
X-110426Y13680D01*
X-110320Y14277D01*
X-109989Y14785D01*
X-109486Y15124D01*
X-108217Y15649D01*
X-104644Y19222D01*
X-102711Y23890D01*
X-102711Y28942D01*
X-104644Y33610D01*
X-108217Y37183D01*
X-109486Y37708D01*
X-109936Y37996D01*
X-110291Y38488D01*
X-110426Y39080D01*
X-110320Y39677D01*
X-109989Y40185D01*
X-109486Y40524D01*
X-108217Y41049D01*
X-104644Y44622D01*
X-102711Y49290D01*
X-102711Y54342D01*
X-104644Y59010D01*
X-108217Y62583D01*
X-112885Y64516D01*
X-117937Y64516D01*
X-122605Y62583D01*
X-126178Y59010D01*
X-128111Y54342D01*
X-128111Y49290D01*
X-126178Y44622D01*
X-122605Y41049D01*
X-121336Y40524D01*
X-120886Y40236D01*
X-120531Y39744D01*
X-120396Y39152D01*
X-120503Y38555D01*
X-120833Y38047D01*
X-121336Y37708D01*
X-122605Y37183D01*
X-126178Y33610D01*
X-128111Y28942D01*
X-128111Y23890D01*
X-126178Y19222D01*
X-122605Y15649D01*
X-121336Y15124D01*
X-120886Y14836D01*
X-120531Y14344D01*
X-120396Y13752D01*
X-120503Y13155D01*
X-120833Y12647D01*
X-121336Y12308D01*
X-122605Y11783D01*
X-126178Y8210D01*
X-128111Y3542D01*
X-128111Y-1510D01*
X-126178Y-6178D01*
X-122605Y-9751D01*
X-121336Y-10276D01*
X-120886Y-10564D01*
X-120531Y-11056D01*
X-120396Y-11648D01*
X-120503Y-12245D01*
X-120833Y-12753D01*
X-121336Y-13092D01*
X-122605Y-13617D01*
X-126178Y-17190D01*
X-128111Y-21858D01*
X-128111Y-26910D01*
X-126178Y-31578D01*
X-122605Y-35151D01*
X-117937Y-37084D01*
G37*
G36*
X107805Y-37084D02*
X112857Y-37084D01*
X117525Y-35151D01*
X121098Y-31578D01*
X123031Y-26910D01*
X123031Y-21858D01*
X121098Y-17190D01*
X117525Y-13617D01*
X116256Y-13092D01*
X115806Y-12804D01*
X115451Y-12312D01*
X115316Y-11720D01*
X115423Y-11123D01*
X115753Y-10615D01*
X116256Y-10276D01*
X117525Y-9751D01*
X121098Y-6178D01*
X123031Y-1510D01*
X123031Y3542D01*
X121098Y8210D01*
X117525Y11783D01*
X116256Y12308D01*
X115806Y12596D01*
X115451Y13088D01*
X115316Y13680D01*
X115423Y14277D01*
X115753Y14785D01*
X116256Y15124D01*
X117525Y15649D01*
X121098Y19222D01*
X123031Y23890D01*
X123031Y28942D01*
X121098Y33610D01*
X117525Y37183D01*
X116256Y37708D01*
X115806Y37996D01*
X115451Y38488D01*
X115316Y39080D01*
X115423Y39677D01*
X115753Y40185D01*
X116256Y40524D01*
X117525Y41049D01*
X121098Y44622D01*
X123031Y49290D01*
X123031Y54342D01*
X121098Y59010D01*
X117525Y62583D01*
X112857Y64516D01*
X107805Y64516D01*
X103137Y62583D01*
X99564Y59010D01*
X97631Y54342D01*
X97631Y49290D01*
X99564Y44622D01*
X103137Y41049D01*
X104406Y40524D01*
X104856Y40236D01*
X105211Y39744D01*
X105346Y39152D01*
X105240Y38555D01*
X104909Y38047D01*
X104406Y37708D01*
X103137Y37183D01*
X99564Y33610D01*
X97631Y28942D01*
X97631Y23890D01*
X99564Y19222D01*
X103137Y15649D01*
X104406Y15124D01*
X104856Y14836D01*
X105211Y14344D01*
X105346Y13752D01*
X105240Y13155D01*
X104909Y12647D01*
X104406Y12308D01*
X103137Y11783D01*
X99564Y8210D01*
X97631Y3542D01*
X97631Y-1510D01*
X99564Y-6178D01*
X103137Y-9751D01*
X104406Y-10276D01*
X104856Y-10564D01*
X105211Y-11056D01*
X105346Y-11648D01*
X105240Y-12245D01*
X104909Y-12753D01*
X104406Y-13092D01*
X103137Y-13617D01*
X99564Y-17190D01*
X97631Y-21858D01*
X97631Y-26910D01*
X99564Y-31578D01*
X103137Y-35151D01*
X107805Y-37084D01*
G37*
G36*
X-145288Y50800D02*
X-144029Y50800D01*
X-140295Y52347D01*
X-137437Y55205D01*
X-135890Y58939D01*
X-135890Y60198D01*
X-145288Y60198D01*
X-145288Y50800D01*
G37*
G36*
X328267Y43518D02*
X328516Y43179D01*
X328753Y43341D01*
X329348Y43462D01*
X330747Y43462D01*
X332698Y44270D01*
X334190Y45762D01*
X334998Y47713D01*
X334998Y49823D01*
X334190Y51774D01*
X332698Y53266D01*
X330747Y54074D01*
X328637Y54074D01*
X326686Y53266D01*
X325194Y51774D01*
X324386Y49823D01*
X324386Y47713D01*
X325194Y45762D01*
X326686Y44270D01*
X327825Y43798D01*
X328267Y43518D01*
G37*
G36*
X265949Y0D02*
X269991Y0D01*
X273725Y1547D01*
X276583Y4405D01*
X278130Y8139D01*
X278130Y12181D01*
X276583Y15915D01*
X273725Y18773D01*
X269991Y20320D01*
X265949Y20320D01*
X262215Y18773D01*
X261051Y17609D01*
X260612Y17303D01*
X260022Y17163D01*
X259424Y17265D01*
X258913Y17592D01*
X258570Y18092D01*
X258449Y18687D01*
X258449Y27033D01*
X258543Y27560D01*
X258862Y28076D01*
X259356Y28427D01*
X259949Y28557D01*
X260545Y28446D01*
X261051Y28111D01*
X262215Y26947D01*
X265949Y25400D01*
X269991Y25400D01*
X273725Y26947D01*
X276583Y29805D01*
X278130Y33539D01*
X278130Y37581D01*
X276583Y41315D01*
X273725Y44173D01*
X269991Y45720D01*
X265949Y45720D01*
X262215Y44173D01*
X259515Y41473D01*
X259054Y41157D01*
X258461Y41027D01*
X257865Y41138D01*
X257359Y41473D01*
X257212Y41620D01*
X256887Y42103D01*
X256766Y42698D01*
X256766Y43219D01*
X255958Y45170D01*
X254466Y46662D01*
X252515Y47470D01*
X250405Y47470D01*
X248454Y46662D01*
X246962Y45170D01*
X246154Y43219D01*
X246154Y41109D01*
X246962Y39158D01*
X248454Y37666D01*
X250142Y36967D01*
X250619Y36653D01*
X250962Y36153D01*
X251083Y35559D01*
X251083Y16136D01*
X250972Y15564D01*
X250637Y15058D01*
X250268Y14690D01*
X249460Y12739D01*
X249460Y10629D01*
X250268Y8678D01*
X251760Y7186D01*
X253711Y6378D01*
X255821Y6378D01*
X256733Y6756D01*
X257280Y6871D01*
X257877Y6765D01*
X258386Y6434D01*
X258725Y5931D01*
X259357Y4405D01*
X262215Y1547D01*
X265949Y0D01*
G37*
G36*
X325843Y30254D02*
X327953Y30254D01*
X329904Y31062D01*
X331396Y32554D01*
X332204Y34505D01*
X332204Y36615D01*
X331396Y38566D01*
X329904Y40058D01*
X328765Y40530D01*
X328323Y40810D01*
X328074Y41149D01*
X327837Y40987D01*
X327242Y40866D01*
X325843Y40866D01*
X323892Y40058D01*
X322400Y38566D01*
X321592Y36615D01*
X321592Y34505D01*
X322400Y32554D01*
X323892Y31062D01*
X325843Y30254D01*
G37*
G36*
X-80010Y-2848D02*
X-54610Y-2848D01*
X-54610Y-1084D01*
X-56543Y3584D01*
X-60116Y7157D01*
X-60902Y7482D01*
X-61352Y7770D01*
X-61707Y8262D01*
X-61842Y8854D01*
X-61736Y9451D01*
X-61405Y9959D01*
X-60902Y10298D01*
X-60116Y10623D01*
X-56543Y14196D01*
X-54610Y18864D01*
X-54610Y23916D01*
X-56543Y28584D01*
X-60116Y32157D01*
X-64784Y34090D01*
X-69836Y34090D01*
X-74504Y32157D01*
X-78077Y28584D01*
X-80010Y23916D01*
X-80010Y18864D01*
X-78077Y14196D01*
X-74504Y10623D01*
X-73718Y10298D01*
X-73268Y10010D01*
X-72913Y9518D01*
X-72778Y8926D01*
X-72884Y8329D01*
X-73215Y7821D01*
X-73718Y7482D01*
X-74504Y7157D01*
X-78077Y3584D01*
X-80010Y-1084D01*
X-80010Y-2848D01*
G37*
G36*
X-473559Y-4953D02*
X-471448Y-4953D01*
X-469498Y-4145D01*
X-468005Y-2653D01*
X-467198Y-702D01*
X-467198Y1408D01*
X-468005Y3359D01*
X-468953Y4306D01*
X-469269Y4767D01*
X-469399Y5359D01*
X-469288Y5955D01*
X-468953Y6461D01*
X-468259Y7154D01*
X-467452Y9105D01*
X-467452Y11215D01*
X-468259Y13166D01*
X-469256Y14162D01*
X-469572Y14623D01*
X-469702Y15216D01*
X-469591Y15812D01*
X-469256Y16318D01*
X-468259Y17314D01*
X-467452Y19265D01*
X-467452Y21375D01*
X-468259Y23326D01*
X-469752Y24818D01*
X-471702Y25626D01*
X-473813Y25626D01*
X-475763Y24818D01*
X-477256Y23326D01*
X-478064Y21375D01*
X-478064Y19265D01*
X-477256Y17314D01*
X-476259Y16318D01*
X-475943Y15857D01*
X-475813Y15264D01*
X-475924Y14668D01*
X-476259Y14162D01*
X-477256Y13166D01*
X-478064Y11215D01*
X-478064Y9105D01*
X-477256Y7154D01*
X-476308Y6207D01*
X-475992Y5746D01*
X-475862Y5154D01*
X-475973Y4558D01*
X-476308Y4052D01*
X-477002Y3359D01*
X-477810Y1408D01*
X-477810Y-702D01*
X-477002Y-2653D01*
X-475509Y-4145D01*
X-473559Y-4953D01*
G37*
G36*
X-66548Y-16310D02*
X-64784Y-16310D01*
X-60116Y-14377D01*
X-56543Y-10804D01*
X-54610Y-6136D01*
X-54610Y-4372D01*
X-66548Y-4372D01*
X-66548Y-16310D01*
G37*
G36*
X-69836Y-16310D02*
X-68072Y-16310D01*
X-68072Y-4372D01*
X-80010Y-4372D01*
X-80010Y-6136D01*
X-78077Y-10804D01*
X-74504Y-14377D01*
X-69836Y-16310D01*
G37*
G36*
X265949Y-25400D02*
X269991Y-25400D01*
X273725Y-23853D01*
X276583Y-20995D01*
X278130Y-17261D01*
X278130Y-13219D01*
X276583Y-9485D01*
X273725Y-6627D01*
X269991Y-5080D01*
X265949Y-5080D01*
X262215Y-6627D01*
X259357Y-9485D01*
X257810Y-13219D01*
X257810Y-17261D01*
X259357Y-20995D01*
X262215Y-23853D01*
X265949Y-25400D01*
G37*
G36*
X-257595Y-52550D02*
X-255485Y-52550D01*
X-253534Y-51742D01*
X-252042Y-50250D01*
X-251234Y-48299D01*
X-251234Y-46189D01*
X-252042Y-44238D01*
X-253534Y-42746D01*
X-255222Y-42047D01*
X-255699Y-41733D01*
X-256042Y-41233D01*
X-256163Y-40639D01*
X-256163Y-21216D01*
X-256052Y-20644D01*
X-255717Y-20138D01*
X-255348Y-19770D01*
X-254540Y-17819D01*
X-254540Y-15709D01*
X-255348Y-13758D01*
X-256840Y-12266D01*
X-258791Y-11458D01*
X-260901Y-11458D01*
X-261813Y-11836D01*
X-262360Y-11951D01*
X-262957Y-11845D01*
X-263466Y-11514D01*
X-263805Y-11011D01*
X-264437Y-9485D01*
X-267295Y-6627D01*
X-271029Y-5080D01*
X-275071Y-5080D01*
X-278805Y-6627D01*
X-281663Y-9485D01*
X-283210Y-13219D01*
X-283210Y-17261D01*
X-281663Y-20995D01*
X-278805Y-23853D01*
X-275071Y-25400D01*
X-271029Y-25400D01*
X-267295Y-23853D01*
X-266131Y-22689D01*
X-265692Y-22383D01*
X-265102Y-22243D01*
X-264504Y-22345D01*
X-263993Y-22672D01*
X-263650Y-23172D01*
X-263529Y-23767D01*
X-263529Y-32113D01*
X-263623Y-32640D01*
X-263942Y-33156D01*
X-264436Y-33507D01*
X-265029Y-33637D01*
X-265625Y-33526D01*
X-266131Y-33191D01*
X-267295Y-32027D01*
X-271029Y-30480D01*
X-275071Y-30480D01*
X-278805Y-32027D01*
X-281663Y-34885D01*
X-283210Y-38619D01*
X-283210Y-42661D01*
X-281663Y-46395D01*
X-278805Y-49253D01*
X-275071Y-50800D01*
X-271029Y-50800D01*
X-267295Y-49253D01*
X-264595Y-46553D01*
X-264134Y-46237D01*
X-263541Y-46107D01*
X-262945Y-46218D01*
X-262439Y-46553D01*
X-262292Y-46700D01*
X-261967Y-47183D01*
X-261846Y-47778D01*
X-261846Y-48299D01*
X-261038Y-50250D01*
X-259546Y-51742D01*
X-257595Y-52550D01*
G37*
G36*
X265949Y-50800D02*
X269991Y-50800D01*
X273725Y-49253D01*
X276583Y-46395D01*
X278130Y-42661D01*
X278130Y-38619D01*
X276583Y-34885D01*
X273725Y-32027D01*
X269991Y-30480D01*
X265949Y-30480D01*
X262215Y-32027D01*
X259357Y-34885D01*
X257810Y-38619D01*
X257810Y-42661D01*
X259357Y-46395D01*
X262215Y-49253D01*
X265949Y-50800D01*
G37*
G36*
X351466Y-82696D02*
X360000Y-84201D01*
X368534Y-82696D01*
X376038Y-78364D01*
X381608Y-71726D01*
X384572Y-63583D01*
X384572Y-54917D01*
X381608Y-46774D01*
X376038Y-40136D01*
X368534Y-35804D01*
X360000Y-34299D01*
X351466Y-35804D01*
X343962Y-40136D01*
X338392Y-46774D01*
X335428Y-54917D01*
X335428Y-63583D01*
X338392Y-71726D01*
X343962Y-78364D01*
X351466Y-82696D01*
G37*
G36*
X-8534Y-82696D02*
X0Y-84201D01*
X8534Y-82696D01*
X16038Y-78364D01*
X21608Y-71726D01*
X24572Y-63583D01*
X24572Y-54917D01*
X21608Y-46774D01*
X16038Y-40136D01*
X8534Y-35804D01*
X0Y-34299D01*
X-8534Y-35804D01*
X-16038Y-40136D01*
X-21608Y-46774D01*
X-24572Y-54917D01*
X-24572Y-63583D01*
X-21608Y-71726D01*
X-16038Y-78364D01*
X-8534Y-82696D01*
G37*
G36*
X-368534Y-82696D02*
X-360000Y-84201D01*
X-351466Y-82696D01*
X-343962Y-78364D01*
X-338392Y-71726D01*
X-335428Y-63583D01*
X-335428Y-54917D01*
X-338392Y-46774D01*
X-343962Y-40136D01*
X-351466Y-35804D01*
X-360000Y-34299D01*
X-368534Y-35804D01*
X-376038Y-40136D01*
X-381608Y-46774D01*
X-384572Y-54917D01*
X-384572Y-63583D01*
X-381608Y-71726D01*
X-376038Y-78364D01*
X-368534Y-82696D01*
G37*
G36*
X463537Y-96845D02*
X465647Y-96845D01*
X467598Y-96037D01*
X469090Y-94545D01*
X469898Y-92594D01*
X469898Y-90904D01*
X470000Y-90355D01*
X470327Y-89844D01*
X470828Y-89501D01*
X471422Y-89380D01*
X472225Y-89380D01*
X474176Y-88572D01*
X475668Y-87080D01*
X476476Y-85129D01*
X476476Y-83019D01*
X475668Y-81068D01*
X475299Y-80700D01*
X474974Y-80216D01*
X474853Y-79622D01*
X474853Y-71880D01*
X445970Y-42997D01*
X445644Y-42514D01*
X445524Y-41920D01*
X445524Y-41398D01*
X444716Y-39448D01*
X443223Y-37955D01*
X441273Y-37148D01*
X439162Y-37148D01*
X437212Y-37955D01*
X435719Y-39448D01*
X434912Y-41398D01*
X434912Y-42700D01*
X434809Y-43249D01*
X434482Y-43760D01*
X433982Y-44103D01*
X433388Y-44224D01*
X432015Y-44224D01*
X430064Y-45032D01*
X428572Y-46524D01*
X427764Y-48475D01*
X427764Y-50585D01*
X428572Y-52536D01*
X430064Y-54028D01*
X432015Y-54836D01*
X434125Y-54836D01*
X436076Y-54028D01*
X436444Y-53659D01*
X436928Y-53334D01*
X437522Y-53213D01*
X437952Y-53213D01*
X438524Y-53324D01*
X439030Y-53659D01*
X442561Y-57190D01*
X442872Y-57640D01*
X443007Y-58231D01*
X442900Y-58828D01*
X442569Y-59337D01*
X442066Y-59676D01*
X441240Y-60018D01*
X439748Y-61510D01*
X438940Y-63461D01*
X438940Y-65571D01*
X439748Y-67522D01*
X441240Y-69014D01*
X443191Y-69822D01*
X445301Y-69822D01*
X447252Y-69014D01*
X448744Y-67522D01*
X449086Y-66696D01*
X449383Y-66236D01*
X449878Y-65885D01*
X450470Y-65755D01*
X451066Y-65866D01*
X451572Y-66201D01*
X460463Y-75092D01*
X460788Y-75575D01*
X460909Y-76170D01*
X460909Y-87087D01*
X460798Y-87659D01*
X460463Y-88165D01*
X460094Y-88533D01*
X459286Y-90484D01*
X459286Y-92594D01*
X460094Y-94545D01*
X461586Y-96037D01*
X463537Y-96845D01*
G37*
G36*
X-473813Y-104366D02*
X-471702Y-104366D01*
X-469752Y-103558D01*
X-468259Y-102066D01*
X-467452Y-100115D01*
X-467452Y-98005D01*
X-468259Y-96054D01*
X-469256Y-95058D01*
X-469572Y-94597D01*
X-469702Y-94004D01*
X-469591Y-93408D01*
X-469256Y-92902D01*
X-468259Y-91906D01*
X-467452Y-89955D01*
X-467452Y-87845D01*
X-468259Y-85894D01*
X-469256Y-84898D01*
X-469572Y-84437D01*
X-469702Y-83844D01*
X-469591Y-83248D01*
X-469256Y-82742D01*
X-468259Y-81746D01*
X-467452Y-79795D01*
X-467452Y-77685D01*
X-468259Y-75734D01*
X-469256Y-74738D01*
X-469572Y-74277D01*
X-469702Y-73684D01*
X-469591Y-73088D01*
X-469256Y-72582D01*
X-468259Y-71586D01*
X-467452Y-69635D01*
X-467452Y-67525D01*
X-468259Y-65574D01*
X-469256Y-64578D01*
X-469572Y-64117D01*
X-469702Y-63524D01*
X-469591Y-62928D01*
X-469256Y-62422D01*
X-468259Y-61426D01*
X-467452Y-59475D01*
X-467452Y-57365D01*
X-468259Y-55414D01*
X-469752Y-53922D01*
X-471702Y-53114D01*
X-473813Y-53114D01*
X-475763Y-53922D01*
X-477256Y-55414D01*
X-478064Y-57365D01*
X-478064Y-59475D01*
X-477256Y-61426D01*
X-476259Y-62422D01*
X-475943Y-62883D01*
X-475813Y-63476D01*
X-475924Y-64072D01*
X-476259Y-64578D01*
X-477256Y-65574D01*
X-478064Y-67525D01*
X-478064Y-69635D01*
X-477256Y-71586D01*
X-476259Y-72582D01*
X-475943Y-73043D01*
X-475813Y-73636D01*
X-475924Y-74232D01*
X-476259Y-74738D01*
X-477256Y-75734D01*
X-478064Y-77685D01*
X-478064Y-79795D01*
X-477256Y-81746D01*
X-476259Y-82742D01*
X-475943Y-83203D01*
X-475813Y-83796D01*
X-475924Y-84392D01*
X-476259Y-84898D01*
X-477256Y-85894D01*
X-478064Y-87845D01*
X-478064Y-89955D01*
X-477256Y-91906D01*
X-476259Y-92902D01*
X-475943Y-93363D01*
X-475813Y-93956D01*
X-475924Y-94552D01*
X-476259Y-95058D01*
X-477256Y-96054D01*
X-478064Y-98005D01*
X-478064Y-100115D01*
X-477256Y-102066D01*
X-475763Y-103558D01*
X-473813Y-104366D01*
G37*
G36*
X66040Y-65478D02*
X77978Y-65478D01*
X77978Y-53540D01*
X76214Y-53540D01*
X71546Y-55473D01*
X67973Y-59046D01*
X66040Y-63714D01*
X66040Y-65478D01*
G37*
G36*
X79502Y-65478D02*
X91440Y-65478D01*
X91440Y-63714D01*
X89507Y-59046D01*
X85934Y-55473D01*
X81266Y-53540D01*
X79502Y-53540D01*
X79502Y-65478D01*
G37*
G36*
X130810Y-65278D02*
X140208Y-65278D01*
X140208Y-55880D01*
X138949Y-55880D01*
X135215Y-57427D01*
X132357Y-60285D01*
X130810Y-64019D01*
X130810Y-65278D01*
G37*
G36*
X265949Y-76200D02*
X269991Y-76200D01*
X273725Y-74653D01*
X276583Y-71795D01*
X278130Y-68061D01*
X278130Y-64019D01*
X276583Y-60285D01*
X273725Y-57427D01*
X269991Y-55880D01*
X265949Y-55880D01*
X262215Y-57427D01*
X259357Y-60285D01*
X257810Y-64019D01*
X257810Y-68061D01*
X259357Y-71795D01*
X262215Y-74653D01*
X265949Y-76200D01*
G37*
G36*
X-148071Y-76200D02*
X-144029Y-76200D01*
X-140295Y-74653D01*
X-137437Y-71795D01*
X-135890Y-68061D01*
X-135890Y-64019D01*
X-137437Y-60285D01*
X-140295Y-57427D01*
X-144029Y-55880D01*
X-148071Y-55880D01*
X-151805Y-57427D01*
X-154663Y-60285D01*
X-156210Y-64019D01*
X-156210Y-68061D01*
X-154663Y-71795D01*
X-151805Y-74653D01*
X-148071Y-76200D01*
G37*
G36*
X-245657Y-90904D02*
X-243547Y-90904D01*
X-241596Y-90096D01*
X-240104Y-88604D01*
X-239296Y-86653D01*
X-239296Y-84543D01*
X-240104Y-82592D01*
X-241596Y-81100D01*
X-243547Y-80292D01*
X-245657Y-80292D01*
X-247608Y-81100D01*
X-249100Y-82592D01*
X-249908Y-84543D01*
X-249908Y-86653D01*
X-249100Y-88604D01*
X-247608Y-90096D01*
X-245657Y-90904D01*
G37*
G36*
X-156210Y-90678D02*
X-146812Y-90678D01*
X-146812Y-81280D01*
X-148071Y-81280D01*
X-151805Y-82827D01*
X-154663Y-85685D01*
X-156210Y-89419D01*
X-156210Y-90678D01*
G37*
G36*
X-145288Y-90678D02*
X-135890Y-90678D01*
X-135890Y-89419D01*
X-137437Y-85685D01*
X-140295Y-82827D01*
X-144029Y-81280D01*
X-145288Y-81280D01*
X-145288Y-90678D01*
G37*
G36*
X422617Y-97544D02*
X424727Y-97544D01*
X426678Y-96736D01*
X428170Y-95244D01*
X428978Y-93293D01*
X428978Y-91183D01*
X428170Y-89232D01*
X426678Y-87740D01*
X424727Y-86932D01*
X422617Y-86932D01*
X420666Y-87740D01*
X419174Y-89232D01*
X418366Y-91183D01*
X418366Y-93293D01*
X419174Y-95244D01*
X420666Y-96736D01*
X422617Y-97544D01*
G37*
G36*
X-145288Y-101600D02*
X-144029Y-101600D01*
X-140295Y-100053D01*
X-137437Y-97195D01*
X-135890Y-93461D01*
X-135890Y-92202D01*
X-145288Y-92202D01*
X-145288Y-101600D01*
G37*
G36*
X-148071Y-101600D02*
X-146812Y-101600D01*
X-146812Y-92202D01*
X-156210Y-92202D01*
X-156210Y-93461D01*
X-154663Y-97195D01*
X-151805Y-100053D01*
X-148071Y-101600D01*
G37*
G36*
X-117387Y-114780D02*
X-115277Y-114780D01*
X-113326Y-113972D01*
X-111834Y-112480D01*
X-111026Y-110529D01*
X-111026Y-108419D01*
X-111834Y-106468D01*
X-113326Y-104976D01*
X-115277Y-104168D01*
X-117387Y-104168D01*
X-119338Y-104976D01*
X-120830Y-106468D01*
X-121638Y-108419D01*
X-121638Y-110529D01*
X-120830Y-112480D01*
X-119338Y-113972D01*
X-117387Y-114780D01*
G37*
G36*
X492071Y-121070D02*
X506269Y-121070D01*
X509224Y-119846D01*
X511486Y-117584D01*
X512710Y-114629D01*
X512710Y-111431D01*
X511486Y-108476D01*
X509224Y-106214D01*
X506269Y-104990D01*
X492071Y-104990D01*
X489116Y-106214D01*
X486854Y-108476D01*
X485630Y-111431D01*
X485630Y-114629D01*
X486854Y-117584D01*
X489116Y-119846D01*
X492071Y-121070D01*
G37*
G36*
X436071Y-121070D02*
X450269Y-121070D01*
X453224Y-119846D01*
X455486Y-117584D01*
X456710Y-114629D01*
X456710Y-111431D01*
X455486Y-108476D01*
X453224Y-106214D01*
X450269Y-104990D01*
X436071Y-104990D01*
X433116Y-106214D01*
X430854Y-108476D01*
X429630Y-111431D01*
X429630Y-114629D01*
X430854Y-117584D01*
X433116Y-119846D01*
X436071Y-121070D01*
G37*
G36*
X37299Y-136723D02*
X39409Y-136723D01*
X41360Y-135915D01*
X42852Y-134423D01*
X43660Y-132472D01*
X43660Y-130362D01*
X42852Y-128411D01*
X41360Y-126919D01*
X39409Y-126111D01*
X37062Y-126111D01*
X37021Y-126120D01*
X36423Y-126018D01*
X35912Y-125691D01*
X35569Y-125191D01*
X35448Y-124597D01*
X35448Y-123405D01*
X34640Y-121454D01*
X33148Y-119962D01*
X31197Y-119154D01*
X29087Y-119154D01*
X27136Y-119962D01*
X25644Y-121454D01*
X24836Y-123405D01*
X24836Y-125515D01*
X25644Y-127466D01*
X27136Y-128958D01*
X29087Y-129766D01*
X31434Y-129766D01*
X31475Y-129757D01*
X32073Y-129859D01*
X32584Y-130186D01*
X32927Y-130686D01*
X33048Y-131280D01*
X33048Y-132472D01*
X33856Y-134423D01*
X35348Y-135915D01*
X37299Y-136723D01*
G37*
G36*
X464071Y-142570D02*
X478269Y-142570D01*
X481224Y-141346D01*
X483486Y-139084D01*
X484710Y-136129D01*
X484710Y-132931D01*
X483486Y-129976D01*
X481224Y-127714D01*
X478269Y-126490D01*
X464071Y-126490D01*
X461116Y-127714D01*
X458854Y-129976D01*
X457630Y-132931D01*
X457630Y-136129D01*
X458854Y-139084D01*
X461116Y-141346D01*
X464071Y-142570D01*
G37*
G36*
X275551Y-139418D02*
X277661Y-139418D01*
X279612Y-138610D01*
X281104Y-137118D01*
X281912Y-135167D01*
X281912Y-133057D01*
X281104Y-131106D01*
X279612Y-129614D01*
X277661Y-128806D01*
X275551Y-128806D01*
X273600Y-129614D01*
X272108Y-131106D01*
X271300Y-133057D01*
X271300Y-135167D01*
X272108Y-137118D01*
X273600Y-138610D01*
X275551Y-139418D01*
G37*
%LPD*%
G36*
X-74548Y54604D02*
X-75143Y54483D01*
X-76583Y54483D01*
X-77155Y54594D01*
X-77661Y54929D01*
X-93500Y70768D01*
X-93806Y71207D01*
X-93945Y71797D01*
X-93844Y72395D01*
X-93517Y72906D01*
X-93017Y73249D01*
X-92422Y73370D01*
X-75845Y73370D01*
X-75307Y73272D01*
X-74793Y72949D01*
X-74446Y72452D01*
X-74321Y71858D01*
X-74437Y71263D01*
X-76200Y67006D01*
X-76200Y65242D01*
X-62738Y65242D01*
X-62738Y63718D01*
X-76200Y63718D01*
X-76200Y61954D01*
X-74267Y57286D01*
X-74065Y57085D01*
X-73759Y56646D01*
X-73620Y56056D01*
X-73721Y55458D01*
X-74048Y54947D01*
X-74548Y54604D01*
G37*
G36*
X-160526Y-30475D02*
X-160638Y-30480D01*
X-195724Y-30480D01*
X-195836Y-30475D01*
X-196411Y-30418D01*
X-196631Y-30374D01*
X-197130Y-30223D01*
X-197337Y-30137D01*
X-197797Y-29891D01*
X-197984Y-29766D01*
X-198431Y-29400D01*
X-198514Y-29324D01*
X-205346Y-22492D01*
X-205422Y-22409D01*
X-205788Y-21962D01*
X-205913Y-21775D01*
X-206159Y-21315D01*
X-206245Y-21108D01*
X-206396Y-20609D01*
X-206440Y-20389D01*
X-206497Y-19814D01*
X-206502Y-19702D01*
X-206502Y13389D01*
X-206511Y13457D01*
X-206556Y13516D01*
X-207974Y14934D01*
X-208029Y14976D01*
X-208102Y14986D01*
X-211726Y14986D01*
X-211838Y14992D01*
X-212413Y15048D01*
X-212633Y15092D01*
X-213132Y15243D01*
X-213339Y15329D01*
X-213799Y15575D01*
X-213986Y15700D01*
X-214433Y16066D01*
X-214516Y16142D01*
X-219316Y20942D01*
X-219392Y21025D01*
X-219758Y21472D01*
X-219883Y21659D01*
X-220129Y22119D01*
X-220215Y22326D01*
X-220366Y22825D01*
X-220410Y23045D01*
X-220467Y23620D01*
X-220472Y23732D01*
X-220472Y47642D01*
X-220467Y47754D01*
X-220410Y48329D01*
X-220366Y48549D01*
X-220215Y49048D01*
X-220129Y49255D01*
X-219883Y49715D01*
X-219758Y49902D01*
X-219392Y50349D01*
X-219316Y50432D01*
X-176670Y93078D01*
X-176587Y93154D01*
X-176140Y93520D01*
X-175953Y93645D01*
X-175493Y93891D01*
X-175286Y93977D01*
X-174787Y94128D01*
X-174567Y94172D01*
X-173992Y94229D01*
X-173880Y94234D01*
X-145824Y94234D01*
X-145760Y94232D01*
X-143214Y94091D01*
X-143110Y94080D01*
X-142349Y93968D01*
X-142147Y93919D01*
X-141469Y93687D01*
X-141279Y93602D01*
X-140654Y93251D01*
X-140483Y93133D01*
X-139892Y92641D01*
X-139815Y92571D01*
X-139704Y92460D01*
X-139628Y92377D01*
X-139104Y91737D01*
X-138979Y91551D01*
X-138616Y90871D01*
X-138530Y90664D01*
X-138306Y89927D01*
X-138263Y89707D01*
X-138182Y88884D01*
X-138176Y88772D01*
X-138176Y84964D01*
X-138182Y84852D01*
X-138263Y84029D01*
X-138306Y83809D01*
X-138530Y83072D01*
X-138616Y82865D01*
X-138979Y82185D01*
X-139104Y81999D01*
X-139628Y81360D01*
X-139704Y81276D01*
X-140621Y80359D01*
X-140704Y80284D01*
X-141343Y79759D01*
X-141530Y79635D01*
X-142209Y79271D01*
X-142416Y79186D01*
X-143154Y78962D01*
X-143374Y78918D01*
X-144197Y78837D01*
X-144309Y78832D01*
X-145502Y78832D01*
X-145509Y78831D01*
X-145538Y78823D01*
X-145588Y78770D01*
X-168836Y46958D01*
X-168915Y46861D01*
X-169350Y46385D01*
X-169538Y46220D01*
X-170014Y45887D01*
X-170233Y45767D01*
X-170771Y45544D01*
X-171011Y45475D01*
X-171646Y45364D01*
X-171770Y45349D01*
X-201875Y43438D01*
X-201908Y43432D01*
X-201925Y43425D01*
X-201984Y43380D01*
X-210260Y35104D01*
X-210302Y35049D01*
X-210312Y34976D01*
X-210312Y27251D01*
X-210303Y27183D01*
X-210258Y27124D01*
X-207157Y24023D01*
X-207110Y23981D01*
X-206532Y23518D01*
X-206426Y23451D01*
X-205789Y23138D01*
X-205672Y23096D01*
X-204982Y22930D01*
X-204858Y22914D01*
X-204148Y22902D01*
X-204024Y22914D01*
X-203298Y23063D01*
X-203238Y23079D01*
X-197022Y25091D01*
X-196670Y25146D01*
X-161146Y25146D01*
X-161034Y25141D01*
X-160459Y25084D01*
X-160239Y25040D01*
X-159740Y24889D01*
X-159533Y24803D01*
X-159073Y24557D01*
X-158886Y24432D01*
X-158439Y24066D01*
X-158356Y23990D01*
X-156604Y22238D01*
X-156528Y22155D01*
X-156162Y21708D01*
X-156037Y21521D01*
X-155791Y21061D01*
X-155705Y20854D01*
X-155554Y20355D01*
X-155510Y20135D01*
X-155454Y19560D01*
X-155448Y19448D01*
X-155448Y-25290D01*
X-155454Y-25402D01*
X-155510Y-25977D01*
X-155554Y-26197D01*
X-155705Y-26696D01*
X-155791Y-26903D01*
X-156037Y-27363D01*
X-156162Y-27550D01*
X-156528Y-27997D01*
X-156604Y-28080D01*
X-157848Y-29324D01*
X-157931Y-29400D01*
X-158378Y-29766D01*
X-158565Y-29891D01*
X-159025Y-30137D01*
X-159232Y-30223D01*
X-159731Y-30374D01*
X-159951Y-30418D01*
X-160526Y-30475D01*
G37*
G36*
X168912Y-99309D02*
X168800Y-99314D01*
X140744Y-99314D01*
X140680Y-99312D01*
X138134Y-99171D01*
X138030Y-99160D01*
X137269Y-99048D01*
X137067Y-98999D01*
X136389Y-98767D01*
X136199Y-98682D01*
X135574Y-98331D01*
X135403Y-98213D01*
X134812Y-97721D01*
X134735Y-97651D01*
X134624Y-97540D01*
X134548Y-97457D01*
X134024Y-96817D01*
X133899Y-96631D01*
X133536Y-95951D01*
X133450Y-95744D01*
X133226Y-95007D01*
X133183Y-94787D01*
X133102Y-93964D01*
X133096Y-93852D01*
X133096Y-90044D01*
X133102Y-89932D01*
X133183Y-89109D01*
X133226Y-88889D01*
X133450Y-88152D01*
X133536Y-87945D01*
X133899Y-87265D01*
X134024Y-87079D01*
X134548Y-86440D01*
X134624Y-86356D01*
X135541Y-85439D01*
X135624Y-85364D01*
X136263Y-84839D01*
X136450Y-84715D01*
X137129Y-84351D01*
X137336Y-84266D01*
X138074Y-84042D01*
X138294Y-83998D01*
X139117Y-83917D01*
X139229Y-83912D01*
X140422Y-83912D01*
X140429Y-83911D01*
X140458Y-83903D01*
X140508Y-83850D01*
X163756Y-52038D01*
X163835Y-51941D01*
X164270Y-51465D01*
X164458Y-51300D01*
X164934Y-50967D01*
X165153Y-50847D01*
X165691Y-50624D01*
X165931Y-50555D01*
X166566Y-50444D01*
X166690Y-50429D01*
X196795Y-48518D01*
X196828Y-48512D01*
X196845Y-48505D01*
X196904Y-48460D01*
X205180Y-40184D01*
X205222Y-40129D01*
X205232Y-40056D01*
X205232Y-32331D01*
X205223Y-32263D01*
X205178Y-32204D01*
X202077Y-29103D01*
X202030Y-29061D01*
X201452Y-28598D01*
X201346Y-28531D01*
X200709Y-28218D01*
X200592Y-28176D01*
X199902Y-28010D01*
X199778Y-27994D01*
X199068Y-27982D01*
X198944Y-27994D01*
X198218Y-28143D01*
X198158Y-28159D01*
X191942Y-30171D01*
X191590Y-30226D01*
X156066Y-30226D01*
X155954Y-30221D01*
X155379Y-30164D01*
X155159Y-30120D01*
X154660Y-29969D01*
X154453Y-29883D01*
X153993Y-29637D01*
X153806Y-29512D01*
X153359Y-29146D01*
X153276Y-29070D01*
X151524Y-27318D01*
X151448Y-27235D01*
X151082Y-26788D01*
X150957Y-26601D01*
X150711Y-26141D01*
X150625Y-25934D01*
X150474Y-25435D01*
X150430Y-25215D01*
X150374Y-24640D01*
X150368Y-24528D01*
X150368Y20210D01*
X150374Y20322D01*
X150430Y20897D01*
X150474Y21117D01*
X150625Y21616D01*
X150711Y21823D01*
X150957Y22283D01*
X151082Y22470D01*
X151448Y22917D01*
X151524Y23000D01*
X152768Y24244D01*
X152851Y24320D01*
X153298Y24686D01*
X153485Y24811D01*
X153945Y25057D01*
X154152Y25143D01*
X154651Y25294D01*
X154871Y25338D01*
X155446Y25395D01*
X155558Y25400D01*
X190644Y25400D01*
X190756Y25395D01*
X191331Y25338D01*
X191551Y25294D01*
X192050Y25143D01*
X192257Y25057D01*
X192717Y24811D01*
X192904Y24686D01*
X193351Y24320D01*
X193434Y24244D01*
X200266Y17412D01*
X200342Y17329D01*
X200708Y16882D01*
X200833Y16695D01*
X201079Y16235D01*
X201165Y16028D01*
X201316Y15529D01*
X201360Y15309D01*
X201417Y14734D01*
X201422Y14622D01*
X201422Y-18469D01*
X201431Y-18537D01*
X201476Y-18596D01*
X202894Y-20014D01*
X202949Y-20056D01*
X203022Y-20066D01*
X206646Y-20066D01*
X206758Y-20072D01*
X207333Y-20128D01*
X207553Y-20172D01*
X208052Y-20323D01*
X208259Y-20409D01*
X208719Y-20655D01*
X208906Y-20780D01*
X209353Y-21146D01*
X209436Y-21222D01*
X214236Y-26022D01*
X214312Y-26105D01*
X214678Y-26552D01*
X214803Y-26739D01*
X215049Y-27199D01*
X215135Y-27406D01*
X215286Y-27905D01*
X215330Y-28125D01*
X215387Y-28700D01*
X215392Y-28812D01*
X215392Y-52722D01*
X215387Y-52834D01*
X215330Y-53409D01*
X215286Y-53629D01*
X215135Y-54128D01*
X215049Y-54335D01*
X214803Y-54795D01*
X214678Y-54982D01*
X214312Y-55429D01*
X214236Y-55512D01*
X171590Y-98158D01*
X171507Y-98234D01*
X171060Y-98600D01*
X170873Y-98725D01*
X170413Y-98971D01*
X170206Y-99057D01*
X169707Y-99208D01*
X169487Y-99252D01*
X168912Y-99309D01*
G37*
G36*
X-144542Y-48509D02*
X-144654Y-48514D01*
X-146279Y-48514D01*
X-146329Y-48513D01*
X-200851Y-46131D01*
X-201136Y-46082D01*
X-201536Y-45865D01*
X-206815Y-41441D01*
X-206907Y-41356D01*
X-207267Y-40981D01*
X-207418Y-40783D01*
X-207656Y-40392D01*
X-207761Y-40166D01*
X-207909Y-39733D01*
X-207963Y-39490D01*
X-208019Y-38972D01*
X-208026Y-38848D01*
X-208026Y-35608D01*
X-208019Y-35485D01*
X-207922Y-34583D01*
X-207869Y-34343D01*
X-207601Y-33542D01*
X-207499Y-33319D01*
X-207065Y-32594D01*
X-206917Y-32397D01*
X-206339Y-31782D01*
X-206153Y-31622D01*
X-205405Y-31108D01*
X-205300Y-31044D01*
X-204978Y-30871D01*
X-204436Y-30734D01*
X-202821Y-30734D01*
X-202722Y-30738D01*
X-201995Y-30801D01*
X-201801Y-30835D01*
X-201144Y-31010D01*
X-200958Y-31077D01*
X-200296Y-31382D01*
X-200208Y-31428D01*
X-198484Y-32413D01*
X-198417Y-32446D01*
X-197912Y-32653D01*
X-197770Y-32691D01*
X-197228Y-32761D01*
X-197154Y-32766D01*
X-144908Y-32766D01*
X-144796Y-32772D01*
X-143973Y-32853D01*
X-143753Y-32896D01*
X-143016Y-33120D01*
X-142809Y-33206D01*
X-142129Y-33569D01*
X-141943Y-33694D01*
X-141304Y-34218D01*
X-141220Y-34294D01*
X-139704Y-35810D01*
X-139628Y-35894D01*
X-139104Y-36533D01*
X-138979Y-36719D01*
X-138616Y-37399D01*
X-138530Y-37606D01*
X-138306Y-38343D01*
X-138263Y-38563D01*
X-138182Y-39386D01*
X-138176Y-39498D01*
X-138176Y-42036D01*
X-138182Y-42148D01*
X-138263Y-42971D01*
X-138306Y-43191D01*
X-138530Y-43928D01*
X-138616Y-44135D01*
X-138979Y-44815D01*
X-139104Y-45001D01*
X-139628Y-45641D01*
X-139704Y-45724D01*
X-140966Y-46986D01*
X-141050Y-47062D01*
X-141689Y-47587D01*
X-141875Y-47711D01*
X-142555Y-48074D01*
X-142762Y-48160D01*
X-143499Y-48384D01*
X-143719Y-48427D01*
X-144542Y-48509D01*
G37*
G36*
X-202722Y25658D02*
X-202821Y25654D01*
X-204436Y25654D01*
X-204978Y25791D01*
X-205300Y25964D01*
X-205405Y26028D01*
X-206153Y26542D01*
X-206339Y26702D01*
X-206917Y27317D01*
X-207065Y27514D01*
X-207499Y28239D01*
X-207601Y28462D01*
X-207869Y29263D01*
X-207922Y29503D01*
X-208019Y30405D01*
X-208026Y30528D01*
X-208026Y33768D01*
X-208019Y33892D01*
X-207963Y34410D01*
X-207909Y34653D01*
X-207761Y35086D01*
X-207656Y35312D01*
X-207418Y35703D01*
X-207267Y35901D01*
X-206907Y36276D01*
X-206815Y36361D01*
X-201536Y40785D01*
X-201293Y40941D01*
X-200851Y41051D01*
X-146329Y43433D01*
X-146279Y43434D01*
X-144654Y43434D01*
X-144542Y43429D01*
X-143719Y43347D01*
X-143499Y43304D01*
X-142762Y43080D01*
X-142555Y42994D01*
X-141875Y42631D01*
X-141689Y42507D01*
X-141050Y41982D01*
X-140966Y41906D01*
X-139704Y40644D01*
X-139628Y40561D01*
X-139104Y39921D01*
X-138979Y39735D01*
X-138616Y39055D01*
X-138530Y38848D01*
X-138306Y38111D01*
X-138263Y37891D01*
X-138182Y37068D01*
X-138176Y36956D01*
X-138176Y34418D01*
X-138182Y34306D01*
X-138263Y33483D01*
X-138306Y33263D01*
X-138530Y32526D01*
X-138616Y32319D01*
X-138979Y31639D01*
X-139104Y31453D01*
X-139628Y30814D01*
X-139704Y30730D01*
X-141220Y29214D01*
X-141304Y29138D01*
X-141943Y28614D01*
X-142129Y28489D01*
X-142809Y28126D01*
X-143016Y28040D01*
X-143753Y27816D01*
X-143973Y27773D01*
X-144796Y27692D01*
X-144908Y27686D01*
X-197154Y27686D01*
X-197228Y27681D01*
X-197770Y27611D01*
X-197912Y27573D01*
X-198417Y27366D01*
X-198484Y27333D01*
X-200208Y26348D01*
X-200296Y26302D01*
X-200958Y25997D01*
X-201144Y25930D01*
X-201801Y25755D01*
X-201995Y25721D01*
X-202722Y25658D01*
G37*
G36*
X141249Y-48513D02*
X141199Y-48514D01*
X139574Y-48514D01*
X139462Y-48509D01*
X138639Y-48427D01*
X138419Y-48384D01*
X137682Y-48160D01*
X137475Y-48074D01*
X136795Y-47711D01*
X136609Y-47587D01*
X135970Y-47062D01*
X135886Y-46986D01*
X134624Y-45724D01*
X134548Y-45641D01*
X134024Y-45001D01*
X133899Y-44815D01*
X133536Y-44135D01*
X133450Y-43928D01*
X133226Y-43191D01*
X133183Y-42971D01*
X133102Y-42148D01*
X133096Y-42036D01*
X133096Y-39498D01*
X133102Y-39386D01*
X133183Y-38563D01*
X133226Y-38343D01*
X133450Y-37606D01*
X133536Y-37399D01*
X133899Y-36719D01*
X134024Y-36533D01*
X134548Y-35894D01*
X134624Y-35810D01*
X136140Y-34294D01*
X136224Y-34218D01*
X136863Y-33694D01*
X137049Y-33569D01*
X137729Y-33206D01*
X137936Y-33120D01*
X138673Y-32896D01*
X138893Y-32853D01*
X139716Y-32772D01*
X139828Y-32766D01*
X192074Y-32766D01*
X192148Y-32761D01*
X192690Y-32691D01*
X192832Y-32653D01*
X193337Y-32446D01*
X193404Y-32413D01*
X195128Y-31428D01*
X195216Y-31382D01*
X195878Y-31077D01*
X196064Y-31010D01*
X196721Y-30835D01*
X196915Y-30801D01*
X197642Y-30738D01*
X197741Y-30734D01*
X199356Y-30734D01*
X199898Y-30871D01*
X200220Y-31044D01*
X200325Y-31108D01*
X201073Y-31622D01*
X201259Y-31782D01*
X201837Y-32397D01*
X201985Y-32594D01*
X202419Y-33319D01*
X202521Y-33542D01*
X202789Y-34343D01*
X202842Y-34583D01*
X202939Y-35485D01*
X202946Y-35608D01*
X202946Y-38848D01*
X202939Y-38972D01*
X202883Y-39490D01*
X202829Y-39733D01*
X202681Y-40166D01*
X202576Y-40392D01*
X202338Y-40783D01*
X202187Y-40981D01*
X201827Y-41356D01*
X201735Y-41441D01*
X196456Y-45865D01*
X196213Y-46021D01*
X195771Y-46131D01*
X141249Y-48513D01*
G37*
G36*
X199898Y25791D02*
X199356Y25654D01*
X197741Y25654D01*
X197642Y25658D01*
X196915Y25721D01*
X196721Y25755D01*
X196064Y25930D01*
X195878Y25997D01*
X195216Y26302D01*
X195128Y26348D01*
X193404Y27333D01*
X193337Y27366D01*
X192832Y27573D01*
X192690Y27611D01*
X192148Y27681D01*
X192074Y27686D01*
X139828Y27686D01*
X139716Y27692D01*
X138893Y27773D01*
X138673Y27816D01*
X137936Y28040D01*
X137729Y28126D01*
X137049Y28489D01*
X136863Y28614D01*
X136224Y29138D01*
X136140Y29214D01*
X134624Y30730D01*
X134548Y30814D01*
X134024Y31453D01*
X133899Y31639D01*
X133536Y32319D01*
X133450Y32526D01*
X133226Y33263D01*
X133183Y33483D01*
X133102Y34306D01*
X133096Y34418D01*
X133096Y36956D01*
X133102Y37068D01*
X133183Y37891D01*
X133226Y38111D01*
X133450Y38848D01*
X133536Y39055D01*
X133899Y39735D01*
X134024Y39921D01*
X134548Y40561D01*
X134624Y40644D01*
X135886Y41906D01*
X135970Y41982D01*
X136609Y42507D01*
X136795Y42631D01*
X137475Y42994D01*
X137682Y43080D01*
X138419Y43304D01*
X138639Y43347D01*
X139462Y43429D01*
X139574Y43434D01*
X141199Y43434D01*
X141249Y43433D01*
X195771Y41051D01*
X196056Y41002D01*
X196456Y40785D01*
X201735Y36361D01*
X201827Y36276D01*
X202187Y35901D01*
X202338Y35703D01*
X202576Y35312D01*
X202681Y35086D01*
X202829Y34653D01*
X202883Y34410D01*
X202939Y33892D01*
X202946Y33768D01*
X202946Y30528D01*
X202939Y30405D01*
X202842Y29503D01*
X202789Y29263D01*
X202521Y28462D01*
X202419Y28239D01*
X201985Y27514D01*
X201837Y27317D01*
X201259Y26702D01*
X201073Y26542D01*
X200325Y26028D01*
X200220Y25964D01*
X199898Y25791D01*
G37*
D10*
X78740Y-91240D03*
X78740Y-66240D03*
X-67310Y21390D03*
X-67310Y-3610D03*
X110331Y-24384D03*
X110331Y1016D03*
X110331Y26416D03*
X110331Y51816D03*
X-115411Y51816D03*
X-115411Y26416D03*
X-115411Y1016D03*
X-115411Y-24384D03*
D11*
X-467760Y299744D03*
X-517760Y299744D03*
D12*
X-273050Y86360D03*
X-273050Y60960D03*
X-273050Y35560D03*
X-273050Y10160D03*
X-273050Y-15240D03*
X-273050Y-40640D03*
X-273050Y-66040D03*
X-273050Y-91440D03*
X-146050Y-91440D03*
X-146050Y-66040D03*
X-146050Y-40640D03*
X-146050Y-15240D03*
X-146050Y10160D03*
X-146050Y35560D03*
X-146050Y60960D03*
X-146050Y86360D03*
X267970Y-91440D03*
X267970Y-66040D03*
X267970Y-40640D03*
X267970Y-15240D03*
X267970Y10160D03*
X267970Y35560D03*
X267970Y60960D03*
X267970Y86360D03*
X140970Y86360D03*
X140970Y60960D03*
X140970Y35560D03*
X140970Y10160D03*
X140970Y-15240D03*
X140970Y-40640D03*
X140970Y-66040D03*
X140970Y-91440D03*
D10*
X63500Y64480D03*
X38100Y64480D03*
X12700Y64480D03*
X-12700Y64480D03*
X-38100Y64480D03*
X-63500Y64480D03*
X304800Y190500D03*
X304800Y220980D03*
D13*
X465670Y-134530D02*
X476670Y-134530D01*
X448670Y-113030D02*
X437670Y-113030D01*
X493670Y-113030D02*
X504670Y-113030D01*
D14*
X-224790Y-2540D03*
X-224790Y7620D03*
X-224790Y-12700D03*
X-214630Y-2540D03*
X-214630Y7620D03*
X-214630Y-12700D03*
X-234950Y-2540D03*
X-234950Y7620D03*
X-234950Y-12700D03*
X-256286Y-85852D03*
X-217170Y-55372D03*
X-201168Y-58166D03*
X-197612Y-53086D03*
X-251714Y86614D03*
X-194564Y-59182D03*
X219710Y-2540D03*
X219710Y-12700D03*
X219710Y7620D03*
X209550Y-2540D03*
X209550Y-12700D03*
X209550Y7620D03*
X229870Y-2540D03*
X229870Y-12700D03*
X229870Y7620D03*
X251206Y80772D03*
X212090Y50292D03*
X196088Y53086D03*
X192532Y48006D03*
X246634Y-91694D03*
X189484Y54102D03*
X-513080Y172720D03*
X-513080Y162560D03*
X-513080Y152400D03*
X-513080Y142240D03*
X-502920Y137160D03*
X-502920Y147320D03*
X-502920Y157480D03*
X-502920Y167640D03*
X-492760Y162560D03*
X-492760Y152400D03*
X-492760Y142240D03*
X-482600Y137160D03*
X-482600Y147320D03*
X-482600Y157480D03*
X-482600Y167640D03*
X-472440Y162560D03*
X-472440Y152400D03*
X-472440Y142240D03*
X-462280Y137160D03*
X-462280Y147320D03*
X-462280Y157480D03*
X-462280Y167640D03*
X-452120Y142240D03*
X-431800Y142240D03*
X-441960Y147320D03*
X-421640Y147320D03*
X-441960Y137160D03*
X-421640Y137160D03*
X-452120Y152400D03*
X-452120Y162560D03*
X387858Y213360D03*
X398018Y213360D03*
X408178Y213360D03*
X418338Y213360D03*
X413258Y203200D03*
X403098Y203200D03*
X392938Y203200D03*
X387858Y193040D03*
X398018Y193040D03*
X408178Y193040D03*
X418338Y193040D03*
X413258Y182880D03*
X403098Y182880D03*
X392938Y182880D03*
X387858Y172720D03*
X398018Y172720D03*
X408178Y172720D03*
X418338Y172720D03*
X423418Y182880D03*
X423418Y203200D03*
X382778Y203200D03*
X382778Y182880D03*
X-383540Y257810D03*
X-397510Y257810D03*
X-389890Y248920D03*
X-359410Y203200D03*
X-373380Y203200D03*
X-387350Y203200D03*
X276098Y-121920D03*
X-124460Y-102616D03*
X-472758Y30480D03*
X363474Y35560D03*
X-523240Y147320D03*
X-523240Y157480D03*
X-523240Y167640D03*
X-533400Y162560D03*
X-533400Y152400D03*
X-533400Y172720D03*
X186690Y-122682D03*
X361188Y76454D03*
X395224Y14986D03*
X395224Y762D03*
X395224Y-13970D03*
X-192786Y-27305D03*
X-187198Y-27305D03*
X-190246Y-22479D03*
X-190246Y17399D03*
X-186944Y22225D03*
X-192786Y22225D03*
X187706Y22225D03*
X182118Y22225D03*
X185166Y17399D03*
X185166Y-22479D03*
X181864Y-27305D03*
X187706Y-27305D03*
X-453652Y275366D03*
X-445398Y270620D03*
X-453652Y265096D03*
X-445398Y259334D03*
X-453780Y255016D03*
X197993Y-40640D03*
X195707Y-35052D03*
X191643Y-40132D03*
X-244602Y-85598D03*
X239522Y80518D03*
X-360680Y91440D03*
X-370840Y91440D03*
X-381000Y91440D03*
X-391160Y91440D03*
X-401320Y91440D03*
X-411480Y91440D03*
X-416560Y101600D03*
X-406400Y101600D03*
X-396240Y101600D03*
X-386080Y101600D03*
X-411480Y111760D03*
X423672Y-92238D03*
X-116332Y-109474D03*
X276606Y-134112D03*
X-101600Y-116840D03*
X-50800Y-116840D03*
X0Y-116840D03*
X50800Y-116840D03*
X101600Y-116840D03*
X-472758Y-58420D03*
X-472758Y20320D03*
X-472758Y99060D03*
X363474Y25400D03*
X346710Y257556D03*
X288861Y41847D03*
X288643Y25400D03*
X495046Y27432D03*
X444246Y-64516D03*
X524510Y197104D03*
X471170Y-84074D03*
X440218Y-42454D03*
D15*
X471170Y-73406D02*
X471170Y-84074D01*
X471170Y-73406D02*
X440218Y-42454D01*
D14*
X433070Y-49530D03*
X464592Y-91539D03*
D15*
X464592Y-74013D01*
X440109Y-49530D01*
X433070Y-49530D01*
D14*
X469138Y-13208D03*
D15*
X532130Y49784D01*
X532130Y219202D01*
D14*
X532130Y219202D03*
X478536Y-13462D03*
D15*
X538480Y46482D01*
X538480Y231902D01*
D14*
X538480Y231902D03*
X346710Y244348D03*
D15*
X415290Y244348D01*
X475488Y50546D02*
X456438Y31496D01*
X475488Y50546D02*
X475488Y184150D01*
X415290Y244348D01*
D14*
X456438Y31496D03*
X424942Y31750D03*
D15*
X456184Y31750D02*
X456438Y31496D01*
X456184Y31750D02*
X424942Y31750D01*
D14*
X329692Y48768D03*
X486410Y244348D03*
X-472758Y10160D03*
X30142Y-124460D03*
X326898Y35560D03*
X486410Y206502D03*
X-472504Y353D03*
X38354Y-131417D03*
X315020Y117856D03*
D15*
X-266700Y109220D02*
X-284480Y91440D01*
X-284480Y73660D01*
X-273050Y62230D02*
X-273050Y60960D01*
X-273050Y62230D02*
X-284480Y73660D01*
X308416Y111252D02*
X315020Y117856D01*
X308416Y111252D02*
X149884Y111252D01*
X115685Y77053D01*
X-111140Y77053D01*
X-143307Y109220D01*
X-266700Y109220D01*
D14*
X315020Y130556D03*
D15*
X301304Y116840D01*
X148079Y116840D01*
X-269748Y114300D02*
X-289560Y94488D01*
X-289560Y52324D01*
X-273050Y35814D02*
X-273050Y35560D01*
X-273050Y35814D02*
X-289560Y52324D01*
X111848Y80609D02*
X148079Y116840D01*
X111848Y80609D02*
X-109159Y80609D01*
X-142850Y114300D01*
X-269748Y114300D01*
D14*
X315020Y143256D03*
D15*
X-272542Y118872D02*
X-294640Y96774D01*
X-294640Y31496D01*
X-273304Y10160D01*
X-273050Y10160D01*
X145939Y121253D02*
X294483Y121253D01*
X315020Y141790D02*
X315020Y143256D01*
X315020Y141790D02*
X294483Y121253D01*
X145939Y121253D02*
X108851Y84165D01*
X-106924Y84165D01*
X-141631Y118872D01*
X-272542Y118872D01*
D14*
X-259846Y-16764D03*
D15*
X-259846Y-43938D01*
X-256540Y-47244D01*
D14*
X-256540Y-47244D03*
X-203073Y-40640D03*
X-200787Y-35052D03*
X-196723Y-40132D03*
X-203073Y35560D03*
X-200787Y29972D03*
X-196723Y35052D03*
X197993Y35560D03*
X195707Y29972D03*
X191643Y35052D03*
X254766Y11684D03*
D15*
X254766Y38858D01*
X251460Y42164D01*
D14*
X251460Y42164D03*
X466598Y117602D03*
X-100584Y-106680D03*
D15*
X312420Y-106680D01*
X466344Y117602D02*
X466598Y117602D01*
X466344Y117602D02*
X322580Y-26162D01*
X322580Y-96520D01*
X312420Y-106680D01*
D14*
X-472758Y-78740D03*
X524002Y168402D03*
X-472758Y-99060D03*
X520954Y257048D03*
X-472758Y-88900D03*
X524256Y181102D03*
X311404Y-70612D03*
D15*
X311404Y49784D02*
X360680Y99060D01*
X311404Y49784D02*
X311404Y-70612D01*
D14*
X360680Y231140D03*
D15*
X360680Y99060D01*
D14*
X303800Y-81713D03*
D15*
X353568Y99822D02*
X353568Y219202D01*
D14*
X353568Y219202D03*
D15*
X303685Y49939D02*
X303685Y-81598D01*
X303800Y-81713D01*
X303685Y49939D02*
X353568Y99822D01*
D14*
X315020Y155702D03*
D15*
X315020Y154998D01*
X-276098Y123444D02*
X-300228Y99314D01*
X-300228Y-38862D01*
X-273050Y-66040D01*
X105803Y87721D02*
X144415Y126333D01*
X105803Y87721D02*
X-104689Y87721D01*
X-140412Y123444D01*
X-276098Y123444D01*
X286355Y126333D02*
X315020Y154998D01*
X286355Y126333D02*
X144415Y126333D01*
D14*
X314960Y167640D03*
D15*
X290322Y143002D01*
X290322Y139954D01*
X280924Y130556D01*
X142748Y130556D01*
X-138176Y127508D02*
X-278892Y127508D01*
X-304546Y101854D01*
X-304546Y-59944D01*
X-273050Y-91440D01*
X103469Y91277D02*
X142748Y130556D01*
X-101945Y91277D02*
X-138176Y127508D01*
X-101945Y91277D02*
X103469Y91277D01*
D14*
X-472758Y-68580D03*
X524002Y155702D03*
X346710Y181102D03*
D15*
X346710Y105918D01*
X295656Y-63754D02*
X267970Y-91440D01*
X346710Y105918D02*
X177038Y105918D01*
X144526Y73406D01*
X98335Y73406D01*
X75729Y50800D01*
X-78740Y50800D01*
X-100076Y72136D01*
X-112268Y72136D01*
X-143002Y102870D01*
X-256540Y102870D01*
X-273050Y86360D01*
X346710Y100533D02*
X346710Y105918D01*
X346710Y100533D02*
X295656Y49479D01*
X295656Y-63754D01*
M02*
