G04 EAGLE Gerber RS-274X export*
G75*
%MOMM*%
%FSLAX34Y34*%
%LPD*%
%IN*%
%IPPOS*%
%AMOC8*
5,1,8,0,0,1.08239X$1,22.5*%
G01*
G04 Define Apertures*
%ADD10C,0.254000*%
D10*
X-550000Y-149250D02*
X-549962Y-150122D01*
X-549848Y-150986D01*
X-549659Y-151838D01*
X-549397Y-152670D01*
X-549063Y-153476D01*
X-548660Y-154250D01*
X-548192Y-154986D01*
X-547660Y-155678D01*
X-547071Y-156321D01*
X-546428Y-156910D01*
X-545736Y-157442D01*
X-545000Y-157910D01*
X-544226Y-158313D01*
X-543420Y-158647D01*
X-542588Y-158909D01*
X-541736Y-159098D01*
X-540872Y-159212D01*
X-540000Y-159250D01*
X540000Y-159250D01*
X540872Y-159212D01*
X541736Y-159098D01*
X542588Y-158909D01*
X543420Y-158647D01*
X544226Y-158313D01*
X545000Y-157910D01*
X545736Y-157442D01*
X546428Y-156910D01*
X547071Y-156321D01*
X547660Y-155678D01*
X548192Y-154986D01*
X548660Y-154250D01*
X549063Y-153476D01*
X549397Y-152670D01*
X549659Y-151838D01*
X549848Y-150986D01*
X549962Y-150122D01*
X550000Y-149250D01*
X550000Y336366D01*
X549962Y337238D01*
X549848Y338102D01*
X549659Y338954D01*
X549397Y339786D01*
X549063Y340592D01*
X548660Y341366D01*
X548192Y342102D01*
X547660Y342794D01*
X547071Y343437D01*
X546428Y344026D01*
X545736Y344558D01*
X545000Y345026D01*
X544226Y345429D01*
X543420Y345763D01*
X542588Y346025D01*
X541736Y346214D01*
X540872Y346328D01*
X540000Y346366D01*
X295000Y346366D01*
X294128Y346328D01*
X293264Y346214D01*
X292412Y346025D01*
X291580Y345763D01*
X290774Y345429D01*
X290000Y345026D01*
X289264Y344558D01*
X288572Y344026D01*
X287929Y343437D01*
X287340Y342794D01*
X286808Y342102D01*
X286340Y341366D01*
X285937Y340592D01*
X285603Y339786D01*
X285341Y338954D01*
X285152Y338102D01*
X285038Y337238D01*
X285000Y336366D01*
X285000Y146366D01*
X284962Y145494D01*
X284848Y144630D01*
X284659Y143778D01*
X284397Y142946D01*
X284063Y142140D01*
X283660Y141366D01*
X283192Y140630D01*
X282660Y139938D01*
X282071Y139295D01*
X281428Y138706D01*
X280736Y138174D01*
X280000Y137706D01*
X279226Y137303D01*
X278420Y136969D01*
X277588Y136707D01*
X276736Y136518D01*
X275872Y136404D01*
X275000Y136366D01*
X115600Y136366D01*
X114728Y136328D01*
X113864Y136214D01*
X113012Y136025D01*
X112180Y135763D01*
X111374Y135429D01*
X110600Y135026D01*
X109864Y134558D01*
X109172Y134026D01*
X108529Y133437D01*
X107940Y132794D01*
X107408Y132102D01*
X106940Y131366D01*
X106537Y130592D01*
X106203Y129786D01*
X105941Y128954D01*
X105752Y128102D01*
X105638Y127238D01*
X105600Y126366D01*
X105600Y106366D01*
X105562Y105494D01*
X105448Y104630D01*
X105259Y103778D01*
X104997Y102946D01*
X104663Y102140D01*
X104260Y101366D01*
X103792Y100630D01*
X103260Y99938D01*
X102671Y99295D01*
X102028Y98706D01*
X101336Y98174D01*
X100600Y97706D01*
X99826Y97303D01*
X99020Y96969D01*
X98188Y96707D01*
X97336Y96518D01*
X96472Y96404D01*
X95600Y96366D01*
X-95600Y96366D01*
X-96471Y96404D01*
X-97336Y96518D01*
X-98188Y96707D01*
X-99020Y96969D01*
X-99826Y97303D01*
X-100600Y97706D01*
X-101335Y98174D01*
X-102028Y98706D01*
X-102671Y99295D01*
X-103260Y99938D01*
X-103791Y100630D01*
X-104260Y101366D01*
X-104663Y102140D01*
X-104997Y102946D01*
X-105259Y103778D01*
X-105448Y104630D01*
X-105562Y105494D01*
X-105600Y106366D01*
X-105600Y126366D01*
X-105638Y127238D01*
X-105752Y128102D01*
X-105940Y128954D01*
X-106203Y129786D01*
X-106537Y130592D01*
X-106939Y131366D01*
X-107408Y132102D01*
X-107939Y132794D01*
X-108529Y133437D01*
X-109172Y134026D01*
X-109864Y134558D01*
X-110600Y135026D01*
X-111374Y135429D01*
X-112180Y135763D01*
X-113012Y136025D01*
X-113863Y136214D01*
X-114728Y136328D01*
X-115600Y136366D01*
X-275000Y136366D01*
X-275872Y136404D01*
X-276736Y136518D01*
X-277588Y136707D01*
X-278420Y136969D01*
X-279226Y137303D01*
X-280000Y137706D01*
X-280736Y138174D01*
X-281428Y138706D01*
X-282071Y139295D01*
X-282660Y139938D01*
X-283192Y140630D01*
X-283660Y141366D01*
X-284063Y142140D01*
X-284397Y142946D01*
X-284659Y143778D01*
X-284848Y144630D01*
X-284962Y145494D01*
X-285000Y146366D01*
X-285000Y336366D01*
X-285038Y337238D01*
X-285152Y338102D01*
X-285341Y338954D01*
X-285603Y339786D01*
X-285937Y340592D01*
X-286340Y341366D01*
X-286808Y342102D01*
X-287340Y342794D01*
X-287929Y343437D01*
X-288572Y344026D01*
X-289264Y344558D01*
X-290000Y345026D01*
X-290774Y345429D01*
X-291580Y345763D01*
X-292412Y346025D01*
X-293264Y346214D01*
X-294128Y346328D01*
X-295000Y346366D01*
X-540000Y346366D01*
X-540872Y346328D01*
X-541736Y346214D01*
X-542588Y346025D01*
X-543420Y345763D01*
X-544226Y345429D01*
X-545000Y345026D01*
X-545736Y344558D01*
X-546428Y344026D01*
X-547071Y343437D01*
X-547660Y342794D01*
X-548192Y342102D01*
X-548660Y341366D01*
X-549063Y340592D01*
X-549397Y339786D01*
X-549659Y338954D01*
X-549848Y338102D01*
X-549962Y337238D01*
X-550000Y336366D01*
X-550000Y-149250D01*
X493170Y-113030D02*
X493180Y-113248D01*
X493208Y-113464D01*
X493255Y-113677D01*
X493321Y-113885D01*
X493404Y-114087D01*
X493505Y-114280D01*
X493622Y-114464D01*
X493755Y-114637D01*
X493902Y-114798D01*
X494063Y-114945D01*
X494236Y-115078D01*
X494420Y-115195D01*
X494613Y-115296D01*
X494815Y-115379D01*
X495023Y-115445D01*
X495236Y-115492D01*
X495452Y-115521D01*
X495670Y-115530D01*
X502670Y-115530D01*
X502888Y-115521D01*
X503104Y-115492D01*
X503317Y-115445D01*
X503525Y-115379D01*
X503727Y-115296D01*
X503920Y-115195D01*
X504104Y-115078D01*
X504277Y-114945D01*
X504438Y-114798D01*
X504585Y-114637D01*
X504718Y-114464D01*
X504835Y-114280D01*
X504936Y-114087D01*
X505019Y-113885D01*
X505085Y-113677D01*
X505132Y-113464D01*
X505161Y-113248D01*
X505170Y-113030D01*
X505161Y-112812D01*
X505132Y-112596D01*
X505085Y-112383D01*
X505019Y-112175D01*
X504936Y-111973D01*
X504835Y-111780D01*
X504718Y-111596D01*
X504585Y-111423D01*
X504438Y-111262D01*
X504277Y-111115D01*
X504104Y-110982D01*
X503920Y-110865D01*
X503727Y-110764D01*
X503525Y-110681D01*
X503317Y-110615D01*
X503104Y-110568D01*
X502888Y-110540D01*
X502670Y-110530D01*
X495670Y-110530D01*
X495452Y-110540D01*
X495236Y-110568D01*
X495023Y-110615D01*
X494815Y-110681D01*
X494613Y-110764D01*
X494420Y-110865D01*
X494236Y-110982D01*
X494063Y-111115D01*
X493902Y-111262D01*
X493755Y-111423D01*
X493622Y-111596D01*
X493505Y-111780D01*
X493404Y-111973D01*
X493321Y-112175D01*
X493255Y-112383D01*
X493208Y-112596D01*
X493180Y-112812D01*
X493170Y-113030D01*
X463170Y-134530D02*
X463180Y-134748D01*
X463208Y-134964D01*
X463255Y-135177D01*
X463321Y-135385D01*
X463404Y-135587D01*
X463505Y-135780D01*
X463622Y-135964D01*
X463755Y-136137D01*
X463902Y-136298D01*
X464063Y-136445D01*
X464236Y-136578D01*
X464420Y-136695D01*
X464613Y-136796D01*
X464815Y-136879D01*
X465023Y-136945D01*
X465236Y-136992D01*
X465452Y-137021D01*
X465670Y-137030D01*
X476670Y-137030D01*
X476888Y-137021D01*
X477104Y-136992D01*
X477317Y-136945D01*
X477525Y-136879D01*
X477727Y-136796D01*
X477920Y-136695D01*
X478104Y-136578D01*
X478277Y-136445D01*
X478438Y-136298D01*
X478585Y-136137D01*
X478718Y-135964D01*
X478835Y-135780D01*
X478936Y-135587D01*
X479019Y-135385D01*
X479085Y-135177D01*
X479132Y-134964D01*
X479161Y-134748D01*
X479170Y-134530D01*
X479161Y-134312D01*
X479132Y-134096D01*
X479085Y-133883D01*
X479019Y-133675D01*
X478936Y-133473D01*
X478835Y-133280D01*
X478718Y-133096D01*
X478585Y-132923D01*
X478438Y-132762D01*
X478277Y-132615D01*
X478104Y-132482D01*
X477920Y-132365D01*
X477727Y-132264D01*
X477525Y-132181D01*
X477317Y-132115D01*
X477104Y-132068D01*
X476888Y-132040D01*
X476670Y-132030D01*
X465670Y-132030D01*
X465452Y-132040D01*
X465236Y-132068D01*
X465023Y-132115D01*
X464815Y-132181D01*
X464613Y-132264D01*
X464420Y-132365D01*
X464236Y-132482D01*
X464063Y-132615D01*
X463902Y-132762D01*
X463755Y-132923D01*
X463622Y-133096D01*
X463505Y-133280D01*
X463404Y-133473D01*
X463321Y-133675D01*
X463255Y-133883D01*
X463208Y-134096D01*
X463180Y-134312D01*
X463170Y-134530D01*
X437170Y-113030D02*
X437180Y-113248D01*
X437208Y-113464D01*
X437255Y-113677D01*
X437321Y-113885D01*
X437404Y-114087D01*
X437505Y-114280D01*
X437622Y-114464D01*
X437755Y-114637D01*
X437902Y-114798D01*
X438063Y-114945D01*
X438236Y-115078D01*
X438420Y-115195D01*
X438613Y-115296D01*
X438815Y-115379D01*
X439023Y-115445D01*
X439236Y-115492D01*
X439452Y-115521D01*
X439670Y-115530D01*
X446670Y-115530D01*
X446888Y-115521D01*
X447104Y-115492D01*
X447317Y-115445D01*
X447525Y-115379D01*
X447727Y-115296D01*
X447920Y-115195D01*
X448104Y-115078D01*
X448277Y-114945D01*
X448438Y-114798D01*
X448585Y-114637D01*
X448718Y-114464D01*
X448835Y-114280D01*
X448936Y-114087D01*
X449019Y-113885D01*
X449085Y-113677D01*
X449132Y-113464D01*
X449161Y-113248D01*
X449170Y-113030D01*
X449161Y-112812D01*
X449132Y-112596D01*
X449085Y-112383D01*
X449019Y-112175D01*
X448936Y-111973D01*
X448835Y-111780D01*
X448718Y-111596D01*
X448585Y-111423D01*
X448438Y-111262D01*
X448277Y-111115D01*
X448104Y-110982D01*
X447920Y-110865D01*
X447727Y-110764D01*
X447525Y-110681D01*
X447317Y-110615D01*
X447104Y-110568D01*
X446888Y-110540D01*
X446670Y-110530D01*
X439670Y-110530D01*
X439452Y-110540D01*
X439236Y-110568D01*
X439023Y-110615D01*
X438815Y-110681D01*
X438613Y-110764D01*
X438420Y-110865D01*
X438236Y-110982D01*
X438063Y-111115D01*
X437902Y-111262D01*
X437755Y-111423D01*
X437622Y-111596D01*
X437505Y-111780D01*
X437404Y-111973D01*
X437321Y-112175D01*
X437255Y-112383D01*
X437208Y-112596D01*
X437180Y-112812D01*
X437170Y-113030D01*
X-340000Y-59854D02*
X-340000Y-58646D01*
X-340073Y-57439D01*
X-340219Y-56239D01*
X-340437Y-55050D01*
X-340726Y-53877D01*
X-341085Y-52723D01*
X-341514Y-51593D01*
X-342010Y-50491D01*
X-342572Y-49420D01*
X-343197Y-48386D01*
X-343884Y-47391D01*
X-344629Y-46440D01*
X-345431Y-45535D01*
X-346285Y-44681D01*
X-347190Y-43879D01*
X-348141Y-43134D01*
X-349136Y-42447D01*
X-350170Y-41822D01*
X-351241Y-41260D01*
X-352343Y-40764D01*
X-353473Y-40335D01*
X-354627Y-39976D01*
X-355800Y-39687D01*
X-356989Y-39469D01*
X-358189Y-39323D01*
X-359396Y-39250D01*
X-360604Y-39250D01*
X-361811Y-39323D01*
X-363011Y-39469D01*
X-364200Y-39687D01*
X-365373Y-39976D01*
X-366527Y-40335D01*
X-367657Y-40764D01*
X-368759Y-41260D01*
X-369830Y-41822D01*
X-370864Y-42447D01*
X-371859Y-43134D01*
X-372810Y-43879D01*
X-373715Y-44681D01*
X-374569Y-45535D01*
X-375371Y-46440D01*
X-376116Y-47391D01*
X-376803Y-48386D01*
X-377428Y-49420D01*
X-377990Y-50491D01*
X-378486Y-51593D01*
X-378915Y-52723D01*
X-379274Y-53877D01*
X-379563Y-55050D01*
X-379781Y-56239D01*
X-379927Y-57439D01*
X-380000Y-58646D01*
X-380000Y-59854D01*
X-379927Y-61061D01*
X-379781Y-62261D01*
X-379563Y-63450D01*
X-379274Y-64623D01*
X-378915Y-65777D01*
X-378486Y-66907D01*
X-377990Y-68009D01*
X-377428Y-69080D01*
X-376803Y-70114D01*
X-376116Y-71109D01*
X-375371Y-72060D01*
X-374569Y-72965D01*
X-373715Y-73819D01*
X-372810Y-74621D01*
X-371859Y-75366D01*
X-370864Y-76053D01*
X-369830Y-76678D01*
X-368759Y-77240D01*
X-367657Y-77736D01*
X-366527Y-78165D01*
X-365373Y-78524D01*
X-364200Y-78813D01*
X-363011Y-79031D01*
X-361811Y-79177D01*
X-360604Y-79250D01*
X-359396Y-79250D01*
X-358189Y-79177D01*
X-356989Y-79031D01*
X-355800Y-78813D01*
X-354627Y-78524D01*
X-353473Y-78165D01*
X-352343Y-77736D01*
X-351241Y-77240D01*
X-350170Y-76678D01*
X-349136Y-76053D01*
X-348141Y-75366D01*
X-347190Y-74621D01*
X-346285Y-73819D01*
X-345431Y-72965D01*
X-344629Y-72060D01*
X-343884Y-71109D01*
X-343197Y-70114D01*
X-342572Y-69080D01*
X-342010Y-68009D01*
X-341514Y-66907D01*
X-341085Y-65777D01*
X-340726Y-64623D01*
X-340437Y-63450D01*
X-340219Y-62261D01*
X-340073Y-61061D01*
X-340000Y-59854D01*
X380000Y-59854D02*
X380000Y-58646D01*
X379927Y-57439D01*
X379781Y-56239D01*
X379563Y-55050D01*
X379274Y-53877D01*
X378915Y-52723D01*
X378486Y-51593D01*
X377990Y-50491D01*
X377428Y-49420D01*
X376803Y-48386D01*
X376116Y-47391D01*
X375371Y-46440D01*
X374569Y-45535D01*
X373715Y-44681D01*
X372810Y-43879D01*
X371859Y-43134D01*
X370864Y-42447D01*
X369830Y-41822D01*
X368759Y-41260D01*
X367657Y-40764D01*
X366527Y-40335D01*
X365373Y-39976D01*
X364200Y-39687D01*
X363011Y-39469D01*
X361811Y-39323D01*
X360604Y-39250D01*
X359396Y-39250D01*
X358189Y-39323D01*
X356989Y-39469D01*
X355800Y-39687D01*
X354627Y-39976D01*
X353473Y-40335D01*
X352343Y-40764D01*
X351241Y-41260D01*
X350170Y-41822D01*
X349136Y-42447D01*
X348141Y-43134D01*
X347190Y-43879D01*
X346285Y-44681D01*
X345431Y-45535D01*
X344629Y-46440D01*
X343884Y-47391D01*
X343197Y-48386D01*
X342572Y-49420D01*
X342010Y-50491D01*
X341514Y-51593D01*
X341085Y-52723D01*
X340726Y-53877D01*
X340437Y-55050D01*
X340219Y-56239D01*
X340073Y-57439D01*
X340000Y-58646D01*
X340000Y-59854D01*
X340073Y-61061D01*
X340219Y-62261D01*
X340437Y-63450D01*
X340726Y-64623D01*
X341085Y-65777D01*
X341514Y-66907D01*
X342010Y-68009D01*
X342572Y-69080D01*
X343197Y-70114D01*
X343884Y-71109D01*
X344629Y-72060D01*
X345431Y-72965D01*
X346285Y-73819D01*
X347190Y-74621D01*
X348141Y-75366D01*
X349136Y-76053D01*
X350170Y-76678D01*
X351241Y-77240D01*
X352343Y-77736D01*
X353473Y-78165D01*
X354627Y-78524D01*
X355800Y-78813D01*
X356989Y-79031D01*
X358189Y-79177D01*
X359396Y-79250D01*
X360604Y-79250D01*
X361811Y-79177D01*
X363011Y-79031D01*
X364200Y-78813D01*
X365373Y-78524D01*
X366527Y-78165D01*
X367657Y-77736D01*
X368759Y-77240D01*
X369830Y-76678D01*
X370864Y-76053D01*
X371859Y-75366D01*
X372810Y-74621D01*
X373715Y-73819D01*
X374569Y-72965D01*
X375371Y-72060D01*
X376116Y-71109D01*
X376803Y-70114D01*
X377428Y-69080D01*
X377990Y-68009D01*
X378486Y-66907D01*
X378915Y-65777D01*
X379274Y-64623D01*
X379563Y-63450D01*
X379781Y-62261D01*
X379927Y-61061D01*
X380000Y-59854D01*
X20000Y-59854D02*
X20000Y-58646D01*
X19927Y-57439D01*
X19781Y-56239D01*
X19563Y-55050D01*
X19274Y-53877D01*
X18915Y-52723D01*
X18486Y-51593D01*
X17990Y-50491D01*
X17428Y-49420D01*
X16803Y-48386D01*
X16116Y-47391D01*
X15371Y-46440D01*
X14569Y-45535D01*
X13715Y-44681D01*
X12810Y-43879D01*
X11859Y-43134D01*
X10864Y-42447D01*
X9830Y-41822D01*
X8759Y-41260D01*
X7657Y-40764D01*
X6527Y-40335D01*
X5373Y-39976D01*
X4200Y-39687D01*
X3011Y-39469D01*
X1811Y-39323D01*
X604Y-39250D01*
X-604Y-39250D01*
X-1811Y-39323D01*
X-3011Y-39469D01*
X-4200Y-39687D01*
X-5373Y-39976D01*
X-6527Y-40335D01*
X-7657Y-40764D01*
X-8759Y-41260D01*
X-9830Y-41822D01*
X-10864Y-42447D01*
X-11859Y-43134D01*
X-12810Y-43879D01*
X-13715Y-44681D01*
X-14569Y-45535D01*
X-15371Y-46440D01*
X-16116Y-47391D01*
X-16803Y-48386D01*
X-17428Y-49420D01*
X-17990Y-50491D01*
X-18486Y-51593D01*
X-18915Y-52723D01*
X-19274Y-53877D01*
X-19563Y-55050D01*
X-19781Y-56239D01*
X-19927Y-57439D01*
X-20000Y-58646D01*
X-20000Y-59854D01*
X-19927Y-61061D01*
X-19781Y-62261D01*
X-19563Y-63450D01*
X-19274Y-64623D01*
X-18915Y-65777D01*
X-18486Y-66907D01*
X-17990Y-68009D01*
X-17428Y-69080D01*
X-16803Y-70114D01*
X-16116Y-71109D01*
X-15371Y-72060D01*
X-14569Y-72965D01*
X-13715Y-73819D01*
X-12810Y-74621D01*
X-11859Y-75366D01*
X-10864Y-76053D01*
X-9830Y-76678D01*
X-8759Y-77240D01*
X-7657Y-77736D01*
X-6527Y-78165D01*
X-5373Y-78524D01*
X-4200Y-78813D01*
X-3011Y-79031D01*
X-1811Y-79177D01*
X-604Y-79250D01*
X604Y-79250D01*
X1811Y-79177D01*
X3011Y-79031D01*
X4200Y-78813D01*
X5373Y-78524D01*
X6527Y-78165D01*
X7657Y-77736D01*
X8759Y-77240D01*
X9830Y-76678D01*
X10864Y-76053D01*
X11859Y-75366D01*
X12810Y-74621D01*
X13715Y-73819D01*
X14569Y-72965D01*
X15371Y-72060D01*
X16116Y-71109D01*
X16803Y-70114D01*
X17428Y-69080D01*
X17990Y-68009D01*
X18486Y-66907D01*
X18915Y-65777D01*
X19274Y-64623D01*
X19563Y-63450D01*
X19781Y-62261D01*
X19927Y-61061D01*
X20000Y-59854D01*
M02*
