G04 EAGLE Gerber RS-274X export*
G75*
%MOMM*%
%FSLAX34Y34*%
%LPD*%
%INSilkscreen Bottom*%
%IPPOS*%
%AMOC8*
5,1,8,0,0,1.08239X$1,22.5*%
G01*
G04 Define Apertures*
%ADD10R,26.500000X6.500000*%
G36*
X-390339Y329227D02*
X-390719Y329237D01*
X-391083Y329265D01*
X-391431Y329313D01*
X-391763Y329379D01*
X-392079Y329464D01*
X-392379Y329569D01*
X-392664Y329692D01*
X-392932Y329834D01*
X-393184Y329995D01*
X-393418Y330174D01*
X-393635Y330372D01*
X-393835Y330588D01*
X-394018Y330822D01*
X-394184Y331074D01*
X-394332Y331345D01*
X-394463Y331634D01*
X-393215Y332048D01*
X-393124Y331842D01*
X-393020Y331649D01*
X-392903Y331468D01*
X-392774Y331300D01*
X-392632Y331144D01*
X-392477Y331001D01*
X-392309Y330870D01*
X-392128Y330752D01*
X-391937Y330647D01*
X-391737Y330555D01*
X-391528Y330478D01*
X-391310Y330415D01*
X-391084Y330366D01*
X-390849Y330331D01*
X-390605Y330310D01*
X-390352Y330303D01*
X-389960Y330320D01*
X-389590Y330368D01*
X-389243Y330449D01*
X-388918Y330563D01*
X-388615Y330709D01*
X-388335Y330887D01*
X-388077Y331098D01*
X-387842Y331341D01*
X-387632Y331613D01*
X-387450Y331908D01*
X-387296Y332228D01*
X-387169Y332572D01*
X-387071Y332939D01*
X-387001Y333331D01*
X-386959Y333747D01*
X-386945Y334186D01*
X-386960Y334622D01*
X-387004Y335036D01*
X-387077Y335428D01*
X-387179Y335798D01*
X-387310Y336146D01*
X-387471Y336472D01*
X-387661Y336776D01*
X-387880Y337059D01*
X-388124Y337313D01*
X-388388Y337534D01*
X-388673Y337721D01*
X-388979Y337874D01*
X-389305Y337992D01*
X-389652Y338077D01*
X-390020Y338128D01*
X-390408Y338145D01*
X-390659Y338137D01*
X-390902Y338114D01*
X-391137Y338074D01*
X-391365Y338019D01*
X-391585Y337948D01*
X-391796Y337861D01*
X-392000Y337758D01*
X-392196Y337640D01*
X-392383Y337506D01*
X-392563Y337356D01*
X-392735Y337190D01*
X-392900Y337008D01*
X-393204Y336598D01*
X-393477Y336124D01*
X-394553Y336662D01*
X-394395Y336967D01*
X-394222Y337252D01*
X-394034Y337519D01*
X-393831Y337768D01*
X-393613Y337997D01*
X-393379Y338208D01*
X-393130Y338400D01*
X-392866Y338573D01*
X-392589Y338726D01*
X-392301Y338859D01*
X-392003Y338972D01*
X-391693Y339064D01*
X-391372Y339136D01*
X-391041Y339187D01*
X-390699Y339218D01*
X-390346Y339228D01*
X-389984Y339218D01*
X-389636Y339190D01*
X-389299Y339142D01*
X-388976Y339075D01*
X-388664Y338990D01*
X-388365Y338885D01*
X-388078Y338761D01*
X-387804Y338618D01*
X-387544Y338457D01*
X-387300Y338280D01*
X-387071Y338086D01*
X-386859Y337876D01*
X-386663Y337650D01*
X-386482Y337407D01*
X-386318Y337148D01*
X-386169Y336873D01*
X-386038Y336582D01*
X-385923Y336279D01*
X-385827Y335963D01*
X-385748Y335634D01*
X-385686Y335291D01*
X-385642Y334936D01*
X-385616Y334568D01*
X-385607Y334186D01*
X-385627Y333621D01*
X-385686Y333087D01*
X-385784Y332585D01*
X-385921Y332114D01*
X-386098Y331674D01*
X-386313Y331266D01*
X-386568Y330890D01*
X-386863Y330545D01*
X-387191Y330236D01*
X-387551Y329968D01*
X-387940Y329742D01*
X-388359Y329557D01*
X-388809Y329413D01*
X-389289Y329310D01*
X-389798Y329248D01*
X-390339Y329227D01*
G37*
G36*
X-365214Y329227D02*
X-365594Y329237D01*
X-365958Y329265D01*
X-366306Y329313D01*
X-366638Y329379D01*
X-366954Y329464D01*
X-367254Y329569D01*
X-367539Y329692D01*
X-367807Y329834D01*
X-368059Y329995D01*
X-368293Y330174D01*
X-368510Y330372D01*
X-368710Y330588D01*
X-368893Y330822D01*
X-369059Y331074D01*
X-369207Y331345D01*
X-369338Y331634D01*
X-368090Y332048D01*
X-367999Y331842D01*
X-367895Y331649D01*
X-367778Y331468D01*
X-367649Y331300D01*
X-367507Y331144D01*
X-367352Y331001D01*
X-367184Y330870D01*
X-367003Y330752D01*
X-366812Y330647D01*
X-366612Y330555D01*
X-366403Y330478D01*
X-366185Y330415D01*
X-365959Y330366D01*
X-365724Y330331D01*
X-365480Y330310D01*
X-365227Y330303D01*
X-364835Y330320D01*
X-364465Y330368D01*
X-364118Y330449D01*
X-363793Y330563D01*
X-363490Y330709D01*
X-363210Y330887D01*
X-362952Y331098D01*
X-362717Y331341D01*
X-362507Y331613D01*
X-362325Y331908D01*
X-362171Y332228D01*
X-362044Y332572D01*
X-361946Y332939D01*
X-361876Y333331D01*
X-361834Y333747D01*
X-361820Y334186D01*
X-361835Y334622D01*
X-361879Y335036D01*
X-361952Y335428D01*
X-362054Y335798D01*
X-362185Y336146D01*
X-362346Y336472D01*
X-362536Y336776D01*
X-362755Y337059D01*
X-362999Y337313D01*
X-363263Y337534D01*
X-363548Y337721D01*
X-363854Y337874D01*
X-364180Y337992D01*
X-364527Y338077D01*
X-364895Y338128D01*
X-365283Y338145D01*
X-365534Y338137D01*
X-365777Y338114D01*
X-366012Y338074D01*
X-366240Y338019D01*
X-366460Y337948D01*
X-366671Y337861D01*
X-366875Y337758D01*
X-367071Y337640D01*
X-367258Y337506D01*
X-367438Y337356D01*
X-367610Y337190D01*
X-367775Y337008D01*
X-368079Y336598D01*
X-368352Y336124D01*
X-369428Y336662D01*
X-369270Y336967D01*
X-369097Y337252D01*
X-368909Y337519D01*
X-368706Y337768D01*
X-368488Y337997D01*
X-368254Y338208D01*
X-368005Y338400D01*
X-367741Y338573D01*
X-367464Y338726D01*
X-367176Y338859D01*
X-366878Y338972D01*
X-366568Y339064D01*
X-366247Y339136D01*
X-365916Y339187D01*
X-365574Y339218D01*
X-365221Y339228D01*
X-364859Y339218D01*
X-364511Y339190D01*
X-364174Y339142D01*
X-363851Y339075D01*
X-363539Y338990D01*
X-363240Y338885D01*
X-362953Y338761D01*
X-362679Y338618D01*
X-362419Y338457D01*
X-362175Y338280D01*
X-361946Y338086D01*
X-361734Y337876D01*
X-361538Y337650D01*
X-361357Y337407D01*
X-361193Y337148D01*
X-361044Y336873D01*
X-360913Y336582D01*
X-360798Y336279D01*
X-360702Y335963D01*
X-360623Y335634D01*
X-360561Y335291D01*
X-360517Y334936D01*
X-360491Y334568D01*
X-360482Y334186D01*
X-360502Y333621D01*
X-360561Y333087D01*
X-360659Y332585D01*
X-360796Y332114D01*
X-360973Y331674D01*
X-361188Y331266D01*
X-361443Y330890D01*
X-361738Y330545D01*
X-362066Y330236D01*
X-362426Y329968D01*
X-362815Y329742D01*
X-363234Y329557D01*
X-363684Y329413D01*
X-364164Y329310D01*
X-364673Y329248D01*
X-365214Y329227D01*
G37*
G36*
X-340120Y329227D02*
X-340500Y329237D01*
X-340864Y329265D01*
X-341212Y329313D01*
X-341544Y329379D01*
X-341860Y329464D01*
X-342161Y329569D01*
X-342445Y329692D01*
X-342713Y329834D01*
X-342965Y329995D01*
X-343199Y330174D01*
X-343417Y330372D01*
X-343617Y330588D01*
X-343799Y330822D01*
X-343965Y331074D01*
X-344113Y331345D01*
X-344244Y331634D01*
X-342996Y332048D01*
X-342905Y331842D01*
X-342801Y331649D01*
X-342685Y331468D01*
X-342555Y331300D01*
X-342413Y331144D01*
X-342258Y331001D01*
X-342090Y330870D01*
X-341910Y330752D01*
X-341718Y330647D01*
X-341518Y330555D01*
X-341309Y330478D01*
X-341091Y330415D01*
X-340865Y330366D01*
X-340630Y330331D01*
X-340386Y330310D01*
X-340134Y330303D01*
X-339741Y330320D01*
X-339372Y330368D01*
X-339024Y330449D01*
X-338699Y330563D01*
X-338396Y330709D01*
X-338116Y330887D01*
X-337859Y331098D01*
X-337623Y331341D01*
X-337413Y331613D01*
X-337231Y331908D01*
X-337077Y332228D01*
X-336951Y332572D01*
X-336853Y332939D01*
X-336783Y333331D01*
X-336741Y333747D01*
X-336727Y334186D01*
X-336741Y334622D01*
X-336785Y335036D01*
X-336858Y335428D01*
X-336960Y335798D01*
X-337092Y336146D01*
X-337252Y336472D01*
X-337442Y336776D01*
X-337661Y337059D01*
X-337905Y337313D01*
X-338170Y337534D01*
X-338455Y337721D01*
X-338760Y337874D01*
X-339087Y337992D01*
X-339433Y338077D01*
X-339801Y338128D01*
X-340189Y338145D01*
X-340440Y338137D01*
X-340683Y338114D01*
X-340919Y338074D01*
X-341146Y338019D01*
X-341366Y337948D01*
X-341577Y337861D01*
X-341781Y337758D01*
X-341977Y337640D01*
X-342165Y337506D01*
X-342345Y337356D01*
X-342517Y337190D01*
X-342681Y337008D01*
X-342985Y336598D01*
X-343258Y336124D01*
X-344334Y336662D01*
X-344176Y336967D01*
X-344004Y337252D01*
X-343816Y337519D01*
X-343612Y337768D01*
X-343394Y337997D01*
X-343160Y338208D01*
X-342912Y338400D01*
X-342648Y338573D01*
X-342371Y338726D01*
X-342083Y338859D01*
X-341784Y338972D01*
X-341474Y339064D01*
X-341154Y339136D01*
X-340822Y339187D01*
X-340480Y339218D01*
X-340127Y339228D01*
X-339766Y339218D01*
X-339417Y339190D01*
X-339081Y339142D01*
X-338757Y339075D01*
X-338445Y338990D01*
X-338146Y338885D01*
X-337860Y338761D01*
X-337585Y338618D01*
X-337325Y338457D01*
X-337081Y338280D01*
X-336853Y338086D01*
X-336640Y337876D01*
X-336444Y337650D01*
X-336264Y337407D01*
X-336099Y337148D01*
X-335951Y336873D01*
X-335819Y336582D01*
X-335705Y336279D01*
X-335608Y335963D01*
X-335529Y335634D01*
X-335468Y335291D01*
X-335424Y334936D01*
X-335397Y334568D01*
X-335389Y334186D01*
X-335408Y333621D01*
X-335467Y333087D01*
X-335565Y332585D01*
X-335702Y332114D01*
X-335879Y331674D01*
X-336095Y331266D01*
X-336350Y330890D01*
X-336644Y330545D01*
X-336973Y330236D01*
X-337332Y329968D01*
X-337721Y329742D01*
X-338140Y329557D01*
X-338590Y329413D01*
X-339070Y329310D01*
X-339580Y329248D01*
X-340120Y329227D01*
G37*
G36*
X-314995Y329227D02*
X-315375Y329237D01*
X-315739Y329265D01*
X-316087Y329313D01*
X-316419Y329379D01*
X-316735Y329464D01*
X-317036Y329569D01*
X-317320Y329692D01*
X-317588Y329834D01*
X-317840Y329995D01*
X-318074Y330174D01*
X-318292Y330372D01*
X-318492Y330588D01*
X-318674Y330822D01*
X-318840Y331074D01*
X-318988Y331345D01*
X-319119Y331634D01*
X-317871Y332048D01*
X-317780Y331842D01*
X-317676Y331649D01*
X-317560Y331468D01*
X-317430Y331300D01*
X-317288Y331144D01*
X-317133Y331001D01*
X-316965Y330870D01*
X-316785Y330752D01*
X-316593Y330647D01*
X-316393Y330555D01*
X-316184Y330478D01*
X-315966Y330415D01*
X-315740Y330366D01*
X-315505Y330331D01*
X-315261Y330310D01*
X-315009Y330303D01*
X-314616Y330320D01*
X-314247Y330368D01*
X-313899Y330449D01*
X-313574Y330563D01*
X-313271Y330709D01*
X-312991Y330887D01*
X-312734Y331098D01*
X-312498Y331341D01*
X-312288Y331613D01*
X-312106Y331908D01*
X-311952Y332228D01*
X-311826Y332572D01*
X-311728Y332939D01*
X-311658Y333331D01*
X-311616Y333747D01*
X-311602Y334186D01*
X-311616Y334622D01*
X-311660Y335036D01*
X-311733Y335428D01*
X-311835Y335798D01*
X-311967Y336146D01*
X-312127Y336472D01*
X-312317Y336776D01*
X-312536Y337059D01*
X-312780Y337313D01*
X-313045Y337534D01*
X-313330Y337721D01*
X-313635Y337874D01*
X-313962Y337992D01*
X-314308Y338077D01*
X-314676Y338128D01*
X-315064Y338145D01*
X-315315Y338137D01*
X-315558Y338114D01*
X-315794Y338074D01*
X-316021Y338019D01*
X-316241Y337948D01*
X-316452Y337861D01*
X-316656Y337758D01*
X-316852Y337640D01*
X-317040Y337506D01*
X-317220Y337356D01*
X-317392Y337190D01*
X-317556Y337008D01*
X-317860Y336598D01*
X-318133Y336124D01*
X-319209Y336662D01*
X-319051Y336967D01*
X-318879Y337252D01*
X-318691Y337519D01*
X-318487Y337768D01*
X-318269Y337997D01*
X-318035Y338208D01*
X-317787Y338400D01*
X-317523Y338573D01*
X-317246Y338726D01*
X-316958Y338859D01*
X-316659Y338972D01*
X-316349Y339064D01*
X-316029Y339136D01*
X-315697Y339187D01*
X-315355Y339218D01*
X-315002Y339228D01*
X-314641Y339218D01*
X-314292Y339190D01*
X-313956Y339142D01*
X-313632Y339075D01*
X-313320Y338990D01*
X-313021Y338885D01*
X-312735Y338761D01*
X-312460Y338618D01*
X-312200Y338457D01*
X-311956Y338280D01*
X-311728Y338086D01*
X-311515Y337876D01*
X-311319Y337650D01*
X-311139Y337407D01*
X-310974Y337148D01*
X-310826Y336873D01*
X-310694Y336582D01*
X-310580Y336279D01*
X-310483Y335963D01*
X-310404Y335634D01*
X-310343Y335291D01*
X-310299Y334936D01*
X-310272Y334568D01*
X-310264Y334186D01*
X-310283Y333621D01*
X-310342Y333087D01*
X-310440Y332585D01*
X-310577Y332114D01*
X-310754Y331674D01*
X-310970Y331266D01*
X-311225Y330890D01*
X-311519Y330545D01*
X-311848Y330236D01*
X-312207Y329968D01*
X-312596Y329742D01*
X-313015Y329557D01*
X-313465Y329413D01*
X-313945Y329310D01*
X-314455Y329248D01*
X-314995Y329227D01*
G37*
G36*
X-372818Y329372D02*
X-375998Y329372D01*
X-375998Y336193D01*
X-375986Y336537D01*
X-375950Y336863D01*
X-375890Y337169D01*
X-375807Y337456D01*
X-375699Y337725D01*
X-375567Y337975D01*
X-375412Y338206D01*
X-375232Y338418D01*
X-375032Y338608D01*
X-374814Y338772D01*
X-374579Y338911D01*
X-374325Y339025D01*
X-374054Y339114D01*
X-373766Y339177D01*
X-373460Y339215D01*
X-373136Y339228D01*
X-372835Y339218D01*
X-372550Y339188D01*
X-372280Y339138D01*
X-372027Y339068D01*
X-371788Y338979D01*
X-371566Y338869D01*
X-371359Y338740D01*
X-371168Y338590D01*
X-370993Y338421D01*
X-370833Y338231D01*
X-370689Y338022D01*
X-370561Y337793D01*
X-370448Y337543D01*
X-370351Y337274D01*
X-370270Y336985D01*
X-370204Y336676D01*
X-371494Y336462D01*
X-371576Y336840D01*
X-371696Y337174D01*
X-371855Y337465D01*
X-372053Y337711D01*
X-372284Y337907D01*
X-372543Y338047D01*
X-372682Y338096D01*
X-372829Y338131D01*
X-372982Y338152D01*
X-373143Y338159D01*
X-373317Y338151D01*
X-373482Y338128D01*
X-373638Y338090D01*
X-373784Y338036D01*
X-373921Y337966D01*
X-374048Y337882D01*
X-374165Y337781D01*
X-374274Y337666D01*
X-374371Y337535D01*
X-374455Y337391D01*
X-374526Y337231D01*
X-374584Y337058D01*
X-374629Y336870D01*
X-374662Y336668D01*
X-374681Y336452D01*
X-374687Y336221D01*
X-374687Y330448D01*
X-372818Y330448D01*
X-372818Y329372D01*
G37*
G36*
X-347693Y329372D02*
X-350873Y329372D01*
X-350873Y336193D01*
X-350861Y336537D01*
X-350825Y336863D01*
X-350765Y337169D01*
X-350682Y337456D01*
X-350574Y337725D01*
X-350442Y337975D01*
X-350287Y338206D01*
X-350107Y338418D01*
X-349907Y338608D01*
X-349689Y338772D01*
X-349454Y338911D01*
X-349200Y339025D01*
X-348929Y339114D01*
X-348641Y339177D01*
X-348335Y339215D01*
X-348011Y339228D01*
X-347710Y339218D01*
X-347425Y339188D01*
X-347155Y339138D01*
X-346902Y339068D01*
X-346663Y338979D01*
X-346441Y338869D01*
X-346234Y338740D01*
X-346043Y338590D01*
X-345868Y338421D01*
X-345708Y338231D01*
X-345564Y338022D01*
X-345436Y337793D01*
X-345323Y337543D01*
X-345226Y337274D01*
X-345145Y336985D01*
X-345079Y336676D01*
X-346369Y336462D01*
X-346451Y336840D01*
X-346571Y337174D01*
X-346730Y337465D01*
X-346928Y337711D01*
X-347159Y337907D01*
X-347418Y338047D01*
X-347557Y338096D01*
X-347704Y338131D01*
X-347857Y338152D01*
X-348018Y338159D01*
X-348192Y338151D01*
X-348357Y338128D01*
X-348513Y338090D01*
X-348659Y338036D01*
X-348796Y337966D01*
X-348923Y337882D01*
X-349040Y337781D01*
X-349149Y337666D01*
X-349246Y337535D01*
X-349330Y337391D01*
X-349401Y337231D01*
X-349459Y337058D01*
X-349504Y336870D01*
X-349537Y336668D01*
X-349556Y336452D01*
X-349562Y336221D01*
X-349562Y330448D01*
X-347693Y330448D01*
X-347693Y329372D01*
G37*
G36*
X-322568Y329372D02*
X-325748Y329372D01*
X-325748Y336193D01*
X-325736Y336537D01*
X-325700Y336863D01*
X-325640Y337169D01*
X-325557Y337456D01*
X-325449Y337725D01*
X-325317Y337975D01*
X-325162Y338206D01*
X-324982Y338418D01*
X-324782Y338608D01*
X-324564Y338772D01*
X-324329Y338911D01*
X-324075Y339025D01*
X-323804Y339114D01*
X-323516Y339177D01*
X-323210Y339215D01*
X-322886Y339228D01*
X-322585Y339218D01*
X-322300Y339188D01*
X-322030Y339138D01*
X-321777Y339068D01*
X-321538Y338979D01*
X-321316Y338869D01*
X-321109Y338740D01*
X-320918Y338590D01*
X-320743Y338421D01*
X-320583Y338231D01*
X-320439Y338022D01*
X-320311Y337793D01*
X-320198Y337543D01*
X-320101Y337274D01*
X-320020Y336985D01*
X-319954Y336676D01*
X-321244Y336462D01*
X-321326Y336840D01*
X-321446Y337174D01*
X-321605Y337465D01*
X-321803Y337711D01*
X-322034Y337907D01*
X-322293Y338047D01*
X-322432Y338096D01*
X-322579Y338131D01*
X-322732Y338152D01*
X-322893Y338159D01*
X-323067Y338151D01*
X-323232Y338128D01*
X-323388Y338090D01*
X-323534Y338036D01*
X-323671Y337966D01*
X-323798Y337882D01*
X-323915Y337781D01*
X-324024Y337666D01*
X-324121Y337535D01*
X-324205Y337391D01*
X-324276Y337231D01*
X-324334Y337058D01*
X-324379Y336870D01*
X-324412Y336668D01*
X-324431Y336452D01*
X-324437Y336221D01*
X-324437Y330448D01*
X-322568Y330448D01*
X-322568Y329372D01*
G37*
G36*
X-297475Y329372D02*
X-300654Y329372D01*
X-300654Y336193D01*
X-300642Y336537D01*
X-300606Y336863D01*
X-300547Y337169D01*
X-300463Y337456D01*
X-300355Y337725D01*
X-300224Y337975D01*
X-300068Y338206D01*
X-299889Y338418D01*
X-299688Y338608D01*
X-299470Y338772D01*
X-299235Y338911D01*
X-298982Y339025D01*
X-298711Y339114D01*
X-298422Y339177D01*
X-298116Y339215D01*
X-297792Y339228D01*
X-297491Y339218D01*
X-297206Y339188D01*
X-296937Y339138D01*
X-296683Y339068D01*
X-296445Y338979D01*
X-296222Y338869D01*
X-296016Y338740D01*
X-295825Y338590D01*
X-295649Y338421D01*
X-295490Y338231D01*
X-295346Y338022D01*
X-295217Y337793D01*
X-295105Y337543D01*
X-295008Y337274D01*
X-294926Y336985D01*
X-294861Y336676D01*
X-296150Y336462D01*
X-296232Y336840D01*
X-296352Y337174D01*
X-296511Y337465D01*
X-296709Y337711D01*
X-296940Y337907D01*
X-297199Y338047D01*
X-297338Y338096D01*
X-297485Y338131D01*
X-297638Y338152D01*
X-297799Y338159D01*
X-297973Y338151D01*
X-298138Y338128D01*
X-298294Y338090D01*
X-298440Y338036D01*
X-298577Y337966D01*
X-298704Y337882D01*
X-298822Y337781D01*
X-298930Y337666D01*
X-299027Y337535D01*
X-299111Y337391D01*
X-299182Y337231D01*
X-299240Y337058D01*
X-299286Y336870D01*
X-299318Y336668D01*
X-299337Y336452D01*
X-299344Y336221D01*
X-299344Y330448D01*
X-297475Y330448D01*
X-297475Y329372D01*
G37*
G36*
X-378205Y329372D02*
X-379522Y329372D01*
X-379522Y338014D01*
X-384433Y338014D01*
X-384433Y339090D01*
X-378205Y339090D01*
X-378205Y329372D01*
G37*
G36*
X-353080Y329372D02*
X-354397Y329372D01*
X-354397Y338014D01*
X-359308Y338014D01*
X-359308Y339090D01*
X-353080Y339090D01*
X-353080Y329372D01*
G37*
G36*
X-327955Y329372D02*
X-329272Y329372D01*
X-329272Y338014D01*
X-334183Y338014D01*
X-334183Y339090D01*
X-327955Y339090D01*
X-327955Y329372D01*
G37*
G36*
X-302861Y329372D02*
X-304179Y329372D01*
X-304179Y338014D01*
X-309089Y338014D01*
X-309089Y339090D01*
X-302861Y339090D01*
X-302861Y329372D01*
G37*
G36*
X-407936Y291445D02*
X-408399Y291457D01*
X-408846Y291494D01*
X-409278Y291554D01*
X-409694Y291640D01*
X-410094Y291749D01*
X-410479Y291883D01*
X-410849Y292042D01*
X-411202Y292224D01*
X-411538Y292430D01*
X-411854Y292656D01*
X-412150Y292904D01*
X-412425Y293172D01*
X-412681Y293462D01*
X-412916Y293773D01*
X-413131Y294105D01*
X-413326Y294458D01*
X-413500Y294829D01*
X-413650Y295215D01*
X-413777Y295616D01*
X-413882Y296032D01*
X-413962Y296463D01*
X-414020Y296910D01*
X-414055Y297371D01*
X-414067Y297847D01*
X-414055Y298325D01*
X-414021Y298787D01*
X-413964Y299233D01*
X-413884Y299663D01*
X-413781Y300076D01*
X-413655Y300473D01*
X-413507Y300854D01*
X-413335Y301219D01*
X-413142Y301566D01*
X-412929Y301891D01*
X-412695Y302195D01*
X-412441Y302477D01*
X-412166Y302739D01*
X-411871Y302979D01*
X-411556Y303198D01*
X-411220Y303396D01*
X-410866Y303571D01*
X-410497Y303723D01*
X-410112Y303852D01*
X-409711Y303958D01*
X-409295Y304039D01*
X-408863Y304098D01*
X-408416Y304133D01*
X-407953Y304145D01*
X-407597Y304138D01*
X-407250Y304119D01*
X-406914Y304086D01*
X-406587Y304040D01*
X-406271Y303982D01*
X-405964Y303910D01*
X-405667Y303825D01*
X-405380Y303728D01*
X-405103Y303617D01*
X-404836Y303493D01*
X-404579Y303356D01*
X-404332Y303206D01*
X-404095Y303043D01*
X-403867Y302867D01*
X-403442Y302476D01*
X-403063Y302039D01*
X-402734Y301561D01*
X-402588Y301307D01*
X-402455Y301043D01*
X-402335Y300769D01*
X-402227Y300485D01*
X-402132Y300190D01*
X-402050Y299886D01*
X-401980Y299571D01*
X-401923Y299247D01*
X-401879Y298912D01*
X-401847Y298567D01*
X-401828Y298212D01*
X-401822Y297847D01*
X-401833Y297369D01*
X-401868Y296906D01*
X-401924Y296457D01*
X-402004Y296024D01*
X-402106Y295607D01*
X-402231Y295204D01*
X-402379Y294817D01*
X-402549Y294445D01*
X-402741Y294091D01*
X-402953Y293758D01*
X-403186Y293448D01*
X-403439Y293158D01*
X-403713Y292890D01*
X-404007Y292644D01*
X-404321Y292419D01*
X-404655Y292216D01*
X-405008Y292035D01*
X-405378Y291878D01*
X-405763Y291746D01*
X-406165Y291638D01*
X-406583Y291553D01*
X-407018Y291493D01*
X-407469Y291457D01*
X-407936Y291445D01*
G37*
%LPC*%
G36*
X-407936Y292802D02*
X-407431Y292824D01*
X-406954Y292888D01*
X-406506Y292994D01*
X-406086Y293143D01*
X-405695Y293334D01*
X-405332Y293569D01*
X-404997Y293845D01*
X-404691Y294164D01*
X-404416Y294520D01*
X-404179Y294905D01*
X-403978Y295321D01*
X-403814Y295766D01*
X-403686Y296241D01*
X-403594Y296747D01*
X-403540Y297282D01*
X-403521Y297847D01*
X-403539Y298416D01*
X-403593Y298951D01*
X-403684Y299455D01*
X-403810Y299925D01*
X-403973Y300363D01*
X-404172Y300769D01*
X-404406Y301142D01*
X-404677Y301482D01*
X-404981Y301786D01*
X-405316Y302049D01*
X-405680Y302272D01*
X-406074Y302454D01*
X-406499Y302596D01*
X-406953Y302697D01*
X-407438Y302758D01*
X-407953Y302778D01*
X-408464Y302758D01*
X-408945Y302696D01*
X-409396Y302594D01*
X-409818Y302450D01*
X-410209Y302265D01*
X-410572Y302039D01*
X-410904Y301773D01*
X-411207Y301465D01*
X-411477Y301121D01*
X-411711Y300746D01*
X-411909Y300340D01*
X-412071Y299903D01*
X-412197Y299436D01*
X-412287Y298937D01*
X-412341Y298408D01*
X-412359Y297847D01*
X-412341Y297262D01*
X-412287Y296711D01*
X-412198Y296194D01*
X-412073Y295711D01*
X-411912Y295263D01*
X-411716Y294848D01*
X-411484Y294467D01*
X-411216Y294121D01*
X-410914Y293812D01*
X-410582Y293544D01*
X-410219Y293317D01*
X-409824Y293132D01*
X-409399Y292988D01*
X-408942Y292885D01*
X-408454Y292823D01*
X-407936Y292802D01*
G37*
%LPD*%
G36*
X-378342Y310495D02*
X-378805Y310507D01*
X-379252Y310544D01*
X-379684Y310604D01*
X-380100Y310690D01*
X-380501Y310799D01*
X-380886Y310933D01*
X-381255Y311092D01*
X-381609Y311274D01*
X-381945Y311480D01*
X-382260Y311706D01*
X-382556Y311954D01*
X-382832Y312222D01*
X-383087Y312512D01*
X-383322Y312823D01*
X-383538Y313155D01*
X-383733Y313508D01*
X-383906Y313879D01*
X-384056Y314265D01*
X-384184Y314666D01*
X-384288Y315082D01*
X-384369Y315513D01*
X-384427Y315960D01*
X-384461Y316421D01*
X-384473Y316897D01*
X-384461Y317375D01*
X-384427Y317837D01*
X-384370Y318283D01*
X-384290Y318713D01*
X-384187Y319126D01*
X-384061Y319523D01*
X-383913Y319904D01*
X-383741Y320269D01*
X-383548Y320616D01*
X-383335Y320941D01*
X-383101Y321245D01*
X-382847Y321527D01*
X-382572Y321789D01*
X-382277Y322029D01*
X-381962Y322248D01*
X-381626Y322446D01*
X-381272Y322621D01*
X-380903Y322773D01*
X-380518Y322902D01*
X-380118Y323008D01*
X-379701Y323089D01*
X-379270Y323148D01*
X-378822Y323183D01*
X-378359Y323195D01*
X-378003Y323188D01*
X-377657Y323169D01*
X-377320Y323136D01*
X-376994Y323090D01*
X-376677Y323032D01*
X-376370Y322960D01*
X-376073Y322875D01*
X-375786Y322778D01*
X-375510Y322667D01*
X-375242Y322543D01*
X-374985Y322406D01*
X-374738Y322256D01*
X-374501Y322093D01*
X-374274Y321917D01*
X-373849Y321526D01*
X-373469Y321089D01*
X-373140Y320611D01*
X-372994Y320357D01*
X-372861Y320093D01*
X-372741Y319819D01*
X-372633Y319535D01*
X-372538Y319240D01*
X-372456Y318936D01*
X-372387Y318621D01*
X-372330Y318297D01*
X-372285Y317962D01*
X-372254Y317617D01*
X-372235Y317262D01*
X-372228Y316897D01*
X-372240Y316419D01*
X-372274Y315956D01*
X-372331Y315507D01*
X-372410Y315074D01*
X-372512Y314657D01*
X-372637Y314254D01*
X-372785Y313867D01*
X-372955Y313495D01*
X-373147Y313141D01*
X-373360Y312808D01*
X-373592Y312498D01*
X-373845Y312208D01*
X-374119Y311940D01*
X-374413Y311694D01*
X-374727Y311469D01*
X-375062Y311266D01*
X-375415Y311085D01*
X-375784Y310928D01*
X-376170Y310796D01*
X-376571Y310688D01*
X-376990Y310603D01*
X-377424Y310543D01*
X-377875Y310507D01*
X-378342Y310495D01*
G37*
%LPC*%
G36*
X-378342Y311852D02*
X-377837Y311874D01*
X-377361Y311938D01*
X-376912Y312044D01*
X-376493Y312193D01*
X-376101Y312384D01*
X-375738Y312619D01*
X-375403Y312895D01*
X-375097Y313214D01*
X-374823Y313570D01*
X-374585Y313955D01*
X-374384Y314371D01*
X-374220Y314816D01*
X-374092Y315291D01*
X-374001Y315797D01*
X-373946Y316332D01*
X-373927Y316897D01*
X-373946Y317466D01*
X-374000Y318001D01*
X-374090Y318505D01*
X-374217Y318975D01*
X-374379Y319413D01*
X-374578Y319819D01*
X-374813Y320192D01*
X-375084Y320532D01*
X-375388Y320836D01*
X-375722Y321099D01*
X-376086Y321322D01*
X-376481Y321504D01*
X-376905Y321646D01*
X-377360Y321747D01*
X-377844Y321808D01*
X-378359Y321828D01*
X-378870Y321808D01*
X-379351Y321746D01*
X-379802Y321644D01*
X-380224Y321500D01*
X-380616Y321315D01*
X-380978Y321089D01*
X-381310Y320823D01*
X-381613Y320515D01*
X-381883Y320171D01*
X-382117Y319796D01*
X-382315Y319390D01*
X-382477Y318953D01*
X-382603Y318486D01*
X-382693Y317987D01*
X-382747Y317458D01*
X-382765Y316897D01*
X-382747Y316312D01*
X-382693Y315761D01*
X-382604Y315244D01*
X-382479Y314761D01*
X-382318Y314313D01*
X-382122Y313898D01*
X-381890Y313517D01*
X-381622Y313171D01*
X-381321Y312862D01*
X-380988Y312594D01*
X-380625Y312367D01*
X-380230Y312182D01*
X-379805Y312038D01*
X-379348Y311935D01*
X-378861Y311873D01*
X-378342Y311852D01*
G37*
%LPD*%
G36*
X-429350Y291620D02*
X-433966Y291620D01*
X-434406Y291632D01*
X-434833Y291668D01*
X-435247Y291727D01*
X-435648Y291810D01*
X-436035Y291918D01*
X-436410Y292049D01*
X-436771Y292203D01*
X-437119Y292382D01*
X-437451Y292583D01*
X-437763Y292805D01*
X-438056Y293048D01*
X-438330Y293311D01*
X-438584Y293596D01*
X-438819Y293902D01*
X-439034Y294228D01*
X-439230Y294576D01*
X-439404Y294941D01*
X-439556Y295322D01*
X-439683Y295717D01*
X-439788Y296127D01*
X-439870Y296552D01*
X-439928Y296993D01*
X-439963Y297448D01*
X-439974Y297917D01*
X-439968Y298275D01*
X-439948Y298621D01*
X-439914Y298958D01*
X-439868Y299284D01*
X-439808Y299600D01*
X-439735Y299905D01*
X-439648Y300200D01*
X-439548Y300485D01*
X-439435Y300759D01*
X-439309Y301023D01*
X-439169Y301276D01*
X-439016Y301520D01*
X-438850Y301752D01*
X-438670Y301975D01*
X-438477Y302187D01*
X-438271Y302389D01*
X-438052Y302579D01*
X-437823Y302757D01*
X-437582Y302923D01*
X-437329Y303076D01*
X-437066Y303218D01*
X-436792Y303347D01*
X-436506Y303463D01*
X-436209Y303568D01*
X-435901Y303660D01*
X-435582Y303740D01*
X-435252Y303807D01*
X-434910Y303863D01*
X-434557Y303906D01*
X-434193Y303936D01*
X-433818Y303955D01*
X-433432Y303961D01*
X-429350Y303961D01*
X-429350Y291620D01*
G37*
%LPC*%
G36*
X-431023Y292960D02*
X-431023Y302621D01*
X-433397Y302621D01*
X-433975Y302602D01*
X-434517Y302545D01*
X-435025Y302451D01*
X-435498Y302320D01*
X-435935Y302150D01*
X-436337Y301943D01*
X-436704Y301699D01*
X-437036Y301416D01*
X-437330Y301098D01*
X-437586Y300746D01*
X-437802Y300360D01*
X-437978Y299940D01*
X-438116Y299485D01*
X-438214Y298997D01*
X-438273Y298474D01*
X-438293Y297917D01*
X-438284Y297543D01*
X-438258Y297181D01*
X-438215Y296831D01*
X-438155Y296494D01*
X-438077Y296170D01*
X-437982Y295858D01*
X-437870Y295559D01*
X-437741Y295272D01*
X-437595Y295000D01*
X-437435Y294745D01*
X-437260Y294505D01*
X-437070Y294283D01*
X-436865Y294076D01*
X-436645Y293886D01*
X-436410Y293713D01*
X-436160Y293556D01*
X-435898Y293416D01*
X-435625Y293295D01*
X-435342Y293193D01*
X-435049Y293109D01*
X-434745Y293044D01*
X-434432Y292997D01*
X-434108Y292969D01*
X-433773Y292960D01*
X-431023Y292960D01*
G37*
%LPD*%
G36*
X-360913Y310670D02*
X-365923Y310670D01*
X-366442Y310684D01*
X-366933Y310727D01*
X-367394Y310799D01*
X-367825Y310899D01*
X-368228Y311028D01*
X-368601Y311185D01*
X-368945Y311371D01*
X-369260Y311585D01*
X-369541Y311826D01*
X-369785Y312089D01*
X-369991Y312375D01*
X-370160Y312683D01*
X-370291Y313015D01*
X-370385Y313370D01*
X-370441Y313747D01*
X-370459Y314147D01*
X-370447Y314449D01*
X-370410Y314738D01*
X-370347Y315014D01*
X-370260Y315276D01*
X-370148Y315525D01*
X-370011Y315761D01*
X-369849Y315983D01*
X-369662Y316192D01*
X-369549Y316296D01*
X-369453Y316385D01*
X-369222Y316558D01*
X-368970Y316711D01*
X-368697Y316844D01*
X-368403Y316957D01*
X-368088Y317050D01*
X-367751Y317124D01*
X-367394Y317178D01*
X-367666Y317249D01*
X-367923Y317335D01*
X-368163Y317437D01*
X-368388Y317554D01*
X-368597Y317687D01*
X-368790Y317834D01*
X-368868Y317906D01*
X-368967Y317998D01*
X-369128Y318176D01*
X-369272Y318368D01*
X-369396Y318570D01*
X-369502Y318784D01*
X-369588Y319008D01*
X-369655Y319244D01*
X-369703Y319490D01*
X-369732Y319747D01*
X-369741Y320015D01*
X-369724Y320378D01*
X-369673Y320717D01*
X-369589Y321033D01*
X-369470Y321326D01*
X-369317Y321595D01*
X-369130Y321841D01*
X-368910Y322063D01*
X-368655Y322262D01*
X-368367Y322437D01*
X-368044Y322590D01*
X-367688Y322718D01*
X-367298Y322824D01*
X-366873Y322905D01*
X-366415Y322964D01*
X-365923Y322999D01*
X-365397Y323011D01*
X-360913Y323011D01*
X-360913Y310670D01*
G37*
%LPC*%
G36*
X-362586Y312010D02*
X-362586Y316459D01*
X-365704Y316459D01*
X-366075Y316451D01*
X-366422Y316425D01*
X-366745Y316383D01*
X-367045Y316323D01*
X-367320Y316246D01*
X-367572Y316153D01*
X-367799Y316042D01*
X-368003Y315914D01*
X-368182Y315769D01*
X-368338Y315607D01*
X-368470Y315429D01*
X-368578Y315233D01*
X-368661Y315020D01*
X-368721Y314790D01*
X-368757Y314543D01*
X-368769Y314279D01*
X-368758Y314005D01*
X-368725Y313749D01*
X-368671Y313510D01*
X-368594Y313289D01*
X-368495Y313085D01*
X-368375Y312899D01*
X-368233Y312730D01*
X-368068Y312579D01*
X-367880Y312446D01*
X-367666Y312330D01*
X-367426Y312232D01*
X-367160Y312152D01*
X-366868Y312090D01*
X-366549Y312046D01*
X-366205Y312019D01*
X-365835Y312010D01*
X-362586Y312010D01*
G37*
G36*
X-362586Y317764D02*
X-362586Y321671D01*
X-365397Y321671D01*
X-365712Y321664D01*
X-366007Y321644D01*
X-366283Y321610D01*
X-366540Y321563D01*
X-366778Y321503D01*
X-366997Y321429D01*
X-367196Y321342D01*
X-367376Y321242D01*
X-367537Y321125D01*
X-367675Y320991D01*
X-367793Y320840D01*
X-367889Y320670D01*
X-367964Y320483D01*
X-368017Y320278D01*
X-368049Y320055D01*
X-368060Y319814D01*
X-368049Y319562D01*
X-368018Y319326D01*
X-367967Y319108D01*
X-367894Y318906D01*
X-367801Y318721D01*
X-367688Y318554D01*
X-367553Y318402D01*
X-367398Y318268D01*
X-367222Y318150D01*
X-367025Y318048D01*
X-366807Y317961D01*
X-366567Y317890D01*
X-366307Y317835D01*
X-366025Y317796D01*
X-365721Y317772D01*
X-365397Y317764D01*
X-362586Y317764D01*
G37*
%LPD*%
G36*
X-395542Y310670D02*
X-397469Y310670D01*
X-395457Y313723D01*
X-393966Y315986D01*
X-394309Y316059D01*
X-394633Y316152D01*
X-394938Y316268D01*
X-395224Y316405D01*
X-395380Y316497D01*
X-395491Y316563D01*
X-395739Y316744D01*
X-395968Y316945D01*
X-396177Y317169D01*
X-396365Y317410D01*
X-396528Y317665D01*
X-396666Y317933D01*
X-396778Y318215D01*
X-396866Y318511D01*
X-396929Y318821D01*
X-396966Y319144D01*
X-396979Y319481D01*
X-396961Y319886D01*
X-396908Y320267D01*
X-396819Y320626D01*
X-396695Y320962D01*
X-396536Y321276D01*
X-396341Y321566D01*
X-396110Y321833D01*
X-395845Y322078D01*
X-395546Y322297D01*
X-395218Y322486D01*
X-394860Y322646D01*
X-394473Y322778D01*
X-394056Y322880D01*
X-393609Y322952D01*
X-393132Y322996D01*
X-392626Y323011D01*
X-386819Y323011D01*
X-386819Y310670D01*
X-388492Y310670D01*
X-388492Y315794D01*
X-392337Y315794D01*
X-395542Y310670D01*
G37*
%LPC*%
G36*
X-388492Y317116D02*
X-388492Y321671D01*
X-392459Y321671D01*
X-392793Y321662D01*
X-393107Y321635D01*
X-393400Y321591D01*
X-393674Y321530D01*
X-393927Y321450D01*
X-394160Y321353D01*
X-394373Y321238D01*
X-394566Y321106D01*
X-394737Y320957D01*
X-394886Y320791D01*
X-395012Y320610D01*
X-395114Y320413D01*
X-395194Y320200D01*
X-395251Y319970D01*
X-395286Y319725D01*
X-395297Y319464D01*
X-395286Y319193D01*
X-395252Y318938D01*
X-395196Y318699D01*
X-395117Y318475D01*
X-395015Y318266D01*
X-394891Y318073D01*
X-394744Y317896D01*
X-394575Y317734D01*
X-394385Y317589D01*
X-394176Y317464D01*
X-393948Y317357D01*
X-393702Y317271D01*
X-393437Y317203D01*
X-393153Y317155D01*
X-392851Y317126D01*
X-392530Y317116D01*
X-388492Y317116D01*
G37*
%LPD*%
G36*
X-338975Y291620D02*
X-340648Y291620D01*
X-340648Y296428D01*
X-344274Y296428D01*
X-344752Y296445D01*
X-345204Y296493D01*
X-345630Y296574D01*
X-346031Y296687D01*
X-346407Y296832D01*
X-346756Y297010D01*
X-347080Y297220D01*
X-347379Y297462D01*
X-347647Y297732D01*
X-347879Y298024D01*
X-348076Y298338D01*
X-348236Y298675D01*
X-348361Y299034D01*
X-348451Y299416D01*
X-348504Y299820D01*
X-348522Y300247D01*
X-348504Y300677D01*
X-348451Y301082D01*
X-348362Y301462D01*
X-348237Y301817D01*
X-348077Y302147D01*
X-347882Y302453D01*
X-347650Y302733D01*
X-347383Y302989D01*
X-347084Y303216D01*
X-346756Y303414D01*
X-346398Y303581D01*
X-346010Y303718D01*
X-345594Y303824D01*
X-345148Y303900D01*
X-344673Y303946D01*
X-344169Y303961D01*
X-338975Y303961D01*
X-338975Y291620D01*
G37*
%LPC*%
G36*
X-340648Y297751D02*
X-340648Y302621D01*
X-343968Y302621D01*
X-344315Y302611D01*
X-344641Y302583D01*
X-344944Y302537D01*
X-345224Y302471D01*
X-345483Y302387D01*
X-345718Y302284D01*
X-345931Y302163D01*
X-346122Y302023D01*
X-346290Y301864D01*
X-346436Y301687D01*
X-346560Y301491D01*
X-346661Y301276D01*
X-346739Y301042D01*
X-346795Y300790D01*
X-346829Y300519D01*
X-346840Y300230D01*
X-346829Y299929D01*
X-346797Y299649D01*
X-346742Y299387D01*
X-346665Y299145D01*
X-346567Y298923D01*
X-346446Y298719D01*
X-346304Y298535D01*
X-346140Y298371D01*
X-345954Y298225D01*
X-345746Y298100D01*
X-345516Y297993D01*
X-345264Y297906D01*
X-344990Y297838D01*
X-344695Y297790D01*
X-344377Y297761D01*
X-344038Y297751D01*
X-340648Y297751D01*
G37*
%LPD*%
G36*
X-294131Y291620D02*
X-295804Y291620D01*
X-295804Y296428D01*
X-299430Y296428D01*
X-299908Y296445D01*
X-300360Y296493D01*
X-300787Y296574D01*
X-301188Y296687D01*
X-301563Y296832D01*
X-301913Y297010D01*
X-302237Y297220D01*
X-302535Y297462D01*
X-302803Y297732D01*
X-303035Y298024D01*
X-303232Y298338D01*
X-303393Y298675D01*
X-303518Y299034D01*
X-303607Y299416D01*
X-303660Y299820D01*
X-303678Y300247D01*
X-303660Y300677D01*
X-303607Y301082D01*
X-303518Y301462D01*
X-303394Y301817D01*
X-303233Y302147D01*
X-303038Y302453D01*
X-302807Y302733D01*
X-302540Y302989D01*
X-302240Y303216D01*
X-301912Y303414D01*
X-301554Y303581D01*
X-301167Y303718D01*
X-300750Y303824D01*
X-300305Y303900D01*
X-299830Y303946D01*
X-299325Y303961D01*
X-294131Y303961D01*
X-294131Y291620D01*
G37*
%LPC*%
G36*
X-295804Y297751D02*
X-295804Y302621D01*
X-299124Y302621D01*
X-299472Y302611D01*
X-299797Y302583D01*
X-300100Y302537D01*
X-300381Y302471D01*
X-300639Y302387D01*
X-300874Y302284D01*
X-301088Y302163D01*
X-301278Y302023D01*
X-301447Y301864D01*
X-301593Y301687D01*
X-301716Y301491D01*
X-301817Y301276D01*
X-301896Y301042D01*
X-301952Y300790D01*
X-301985Y300519D01*
X-301997Y300230D01*
X-301986Y299929D01*
X-301953Y299649D01*
X-301898Y299387D01*
X-301821Y299145D01*
X-301723Y298923D01*
X-301602Y298719D01*
X-301460Y298535D01*
X-301296Y298371D01*
X-301110Y298225D01*
X-300902Y298100D01*
X-300672Y297993D01*
X-300420Y297906D01*
X-300146Y297838D01*
X-299851Y297790D01*
X-299533Y297761D01*
X-299194Y297751D01*
X-295804Y297751D01*
G37*
%LPD*%
G36*
X-397968Y291620D02*
X-399474Y291620D01*
X-399474Y303961D01*
X-397329Y303961D01*
X-394105Y295404D01*
X-393990Y295087D01*
X-393803Y294506D01*
X-393618Y293883D01*
X-393510Y293442D01*
X-393295Y294296D01*
X-393130Y294868D01*
X-392958Y295404D01*
X-389674Y303961D01*
X-387475Y303961D01*
X-387475Y291620D01*
X-388964Y291620D01*
X-388964Y299853D01*
X-388929Y301508D01*
X-388903Y302481D01*
X-389192Y301517D01*
X-389682Y300028D01*
X-392914Y291620D01*
X-394088Y291620D01*
X-397276Y300028D01*
X-397452Y300513D01*
X-397639Y301084D01*
X-398047Y302481D01*
X-397988Y301193D01*
X-397968Y299853D01*
X-397968Y291620D01*
G37*
G36*
X-413506Y310670D02*
X-415214Y310670D01*
X-410257Y323011D01*
X-408356Y323011D01*
X-403320Y310670D01*
X-405054Y310670D01*
X-406473Y314279D01*
X-412096Y314279D01*
X-413506Y310670D01*
G37*
%LPC*%
G36*
X-406981Y315584D02*
X-408558Y319639D01*
X-408934Y320674D01*
X-409206Y321504D01*
X-409285Y321750D01*
X-409521Y321023D01*
X-409766Y320300D01*
X-410012Y319656D01*
X-411597Y315584D01*
X-406981Y315584D01*
G37*
%LPD*%
G36*
X-424387Y291620D02*
X-426401Y291620D01*
X-426401Y303961D01*
X-424895Y303961D01*
X-424895Y295868D01*
X-424921Y294861D01*
X-425000Y293380D01*
X-418326Y303961D01*
X-416381Y303961D01*
X-416381Y291620D01*
X-417870Y291620D01*
X-417870Y299818D01*
X-417827Y301281D01*
X-417783Y302130D01*
X-424387Y291620D01*
G37*
G36*
X-350980Y310670D02*
X-352995Y310670D01*
X-352995Y323011D01*
X-351488Y323011D01*
X-351488Y314918D01*
X-351515Y313911D01*
X-351594Y312430D01*
X-344920Y323011D01*
X-342975Y323011D01*
X-342975Y310670D01*
X-344464Y310670D01*
X-344464Y318868D01*
X-344420Y320331D01*
X-344377Y321180D01*
X-350980Y310670D01*
G37*
G36*
X-361249Y291445D02*
X-361662Y291453D01*
X-362066Y291479D01*
X-362464Y291522D01*
X-362853Y291582D01*
X-363236Y291659D01*
X-363610Y291753D01*
X-363977Y291864D01*
X-364337Y291992D01*
X-364686Y292136D01*
X-365021Y292294D01*
X-365342Y292466D01*
X-365650Y292652D01*
X-365943Y292853D01*
X-366223Y293067D01*
X-366489Y293296D01*
X-366741Y293538D01*
X-366741Y297795D01*
X-361512Y297795D01*
X-361512Y296393D01*
X-365200Y296393D01*
X-365200Y294169D01*
X-364851Y293870D01*
X-364452Y293604D01*
X-364003Y293371D01*
X-363505Y293170D01*
X-362971Y293009D01*
X-362418Y292894D01*
X-361844Y292825D01*
X-361249Y292802D01*
X-360734Y292824D01*
X-360247Y292887D01*
X-359789Y292993D01*
X-359360Y293141D01*
X-358959Y293331D01*
X-358587Y293564D01*
X-358244Y293838D01*
X-357930Y294156D01*
X-357649Y294509D01*
X-357405Y294894D01*
X-357199Y295309D01*
X-357030Y295755D01*
X-356899Y296232D01*
X-356805Y296740D01*
X-356749Y297278D01*
X-356730Y297847D01*
X-356748Y298418D01*
X-356801Y298955D01*
X-356889Y299459D01*
X-357013Y299931D01*
X-357171Y300369D01*
X-357366Y300775D01*
X-357595Y301147D01*
X-357860Y301487D01*
X-358158Y301789D01*
X-358488Y302052D01*
X-358849Y302274D01*
X-359242Y302455D01*
X-359666Y302597D01*
X-360121Y302698D01*
X-360608Y302758D01*
X-361127Y302778D01*
X-361464Y302771D01*
X-361786Y302748D01*
X-362095Y302711D01*
X-362389Y302658D01*
X-362669Y302590D01*
X-362936Y302507D01*
X-363188Y302410D01*
X-363426Y302297D01*
X-363651Y302167D01*
X-363863Y302020D01*
X-364063Y301855D01*
X-364250Y301673D01*
X-364425Y301472D01*
X-364588Y301254D01*
X-364738Y301018D01*
X-364875Y300764D01*
X-366470Y301237D01*
X-366287Y301605D01*
X-366087Y301947D01*
X-365868Y302263D01*
X-365631Y302553D01*
X-365375Y302817D01*
X-365102Y303055D01*
X-364809Y303267D01*
X-364499Y303453D01*
X-364167Y303615D01*
X-363811Y303756D01*
X-363431Y303874D01*
X-363027Y303972D01*
X-362599Y304047D01*
X-362147Y304101D01*
X-361671Y304134D01*
X-361171Y304145D01*
X-360811Y304138D01*
X-360462Y304119D01*
X-360123Y304087D01*
X-359794Y304042D01*
X-359475Y303984D01*
X-359167Y303913D01*
X-358868Y303830D01*
X-358580Y303733D01*
X-358302Y303624D01*
X-358035Y303502D01*
X-357777Y303366D01*
X-357530Y303219D01*
X-357293Y303058D01*
X-357066Y302884D01*
X-356642Y302498D01*
X-356265Y302065D01*
X-356095Y301833D01*
X-355937Y301590D01*
X-355793Y301336D01*
X-355660Y301072D01*
X-355541Y300797D01*
X-355434Y300512D01*
X-355339Y300216D01*
X-355258Y299910D01*
X-355188Y299592D01*
X-355132Y299265D01*
X-355088Y298926D01*
X-355056Y298577D01*
X-355037Y298218D01*
X-355031Y297847D01*
X-355042Y297365D01*
X-355077Y296898D01*
X-355135Y296448D01*
X-355216Y296014D01*
X-355320Y295595D01*
X-355447Y295193D01*
X-355598Y294806D01*
X-355771Y294436D01*
X-355966Y294084D01*
X-356182Y293754D01*
X-356419Y293444D01*
X-356676Y293156D01*
X-356954Y292889D01*
X-357253Y292643D01*
X-357572Y292419D01*
X-357912Y292216D01*
X-358271Y292035D01*
X-358647Y291878D01*
X-359039Y291746D01*
X-359447Y291638D01*
X-359873Y291553D01*
X-360315Y291493D01*
X-360774Y291457D01*
X-361249Y291445D01*
G37*
G36*
X-440631Y310670D02*
X-450353Y310670D01*
X-450353Y312036D01*
X-442304Y312036D01*
X-442304Y316337D01*
X-449469Y316337D01*
X-449469Y317686D01*
X-442304Y317686D01*
X-442304Y321644D01*
X-449994Y321644D01*
X-449994Y323011D01*
X-440631Y323011D01*
X-440631Y310670D01*
G37*
G36*
X-331006Y310670D02*
X-340728Y310670D01*
X-340728Y312036D01*
X-332679Y312036D01*
X-332679Y316337D01*
X-339844Y316337D01*
X-339844Y317686D01*
X-332679Y317686D01*
X-332679Y321644D01*
X-340369Y321644D01*
X-340369Y323011D01*
X-331006Y323011D01*
X-331006Y310670D01*
G37*
G36*
X-314416Y291620D02*
X-316089Y291620D01*
X-316089Y303961D01*
X-314416Y303961D01*
X-314416Y298741D01*
X-307742Y298741D01*
X-307742Y303961D01*
X-306069Y303961D01*
X-306069Y291620D01*
X-307742Y291620D01*
X-307742Y297339D01*
X-314416Y297339D01*
X-314416Y291620D01*
G37*
G36*
X-433266Y310495D02*
X-433855Y310510D01*
X-434411Y310553D01*
X-434932Y310627D01*
X-435419Y310729D01*
X-435873Y310861D01*
X-436292Y311022D01*
X-436677Y311212D01*
X-437028Y311432D01*
X-437341Y311678D01*
X-437612Y311949D01*
X-437842Y312243D01*
X-438029Y312562D01*
X-438176Y312905D01*
X-438280Y313271D01*
X-438342Y313662D01*
X-438363Y314077D01*
X-438352Y314403D01*
X-438316Y314708D01*
X-438257Y314990D01*
X-438175Y315251D01*
X-438072Y315492D01*
X-437951Y315717D01*
X-437811Y315926D01*
X-437654Y316118D01*
X-437480Y316295D01*
X-437292Y316457D01*
X-437088Y316606D01*
X-436870Y316740D01*
X-436403Y316977D01*
X-435902Y317182D01*
X-435373Y317357D01*
X-434821Y317506D01*
X-433686Y317773D01*
X-432907Y317954D01*
X-432270Y318120D01*
X-431773Y318272D01*
X-431418Y318408D01*
X-431150Y318544D01*
X-430915Y318695D01*
X-430714Y318860D01*
X-430546Y319039D01*
X-430414Y319237D01*
X-430320Y319460D01*
X-430263Y319708D01*
X-430244Y319980D01*
X-430256Y320216D01*
X-430293Y320436D01*
X-430354Y320642D01*
X-430439Y320832D01*
X-430549Y321007D01*
X-430683Y321168D01*
X-430841Y321313D01*
X-431024Y321443D01*
X-431230Y321558D01*
X-431457Y321658D01*
X-431707Y321742D01*
X-431978Y321811D01*
X-432272Y321865D01*
X-432587Y321903D01*
X-432924Y321926D01*
X-433283Y321933D01*
X-433611Y321927D01*
X-433921Y321906D01*
X-434213Y321871D01*
X-434486Y321823D01*
X-434740Y321761D01*
X-434977Y321685D01*
X-435195Y321595D01*
X-435394Y321491D01*
X-435577Y321372D01*
X-435745Y321236D01*
X-435897Y321084D01*
X-436034Y320914D01*
X-436155Y320728D01*
X-436261Y320525D01*
X-436352Y320305D01*
X-436428Y320068D01*
X-438074Y320357D01*
X-437952Y320730D01*
X-437809Y321075D01*
X-437646Y321392D01*
X-437461Y321681D01*
X-437256Y321941D01*
X-437030Y322172D01*
X-436783Y322376D01*
X-436515Y322551D01*
X-436222Y322702D01*
X-435897Y322833D01*
X-435542Y322943D01*
X-435156Y323034D01*
X-434738Y323104D01*
X-434290Y323154D01*
X-433811Y323185D01*
X-433301Y323195D01*
X-432752Y323181D01*
X-432236Y323141D01*
X-431753Y323074D01*
X-431303Y322980D01*
X-430885Y322859D01*
X-430500Y322712D01*
X-430148Y322538D01*
X-429828Y322336D01*
X-429544Y322110D01*
X-429297Y321862D01*
X-429089Y321590D01*
X-428918Y321296D01*
X-428786Y320979D01*
X-428691Y320640D01*
X-428634Y320278D01*
X-428615Y319893D01*
X-428630Y319557D01*
X-428673Y319240D01*
X-428746Y318944D01*
X-428847Y318667D01*
X-428976Y318408D01*
X-429131Y318166D01*
X-429311Y317942D01*
X-429517Y317734D01*
X-429756Y317539D01*
X-430035Y317354D01*
X-430354Y317178D01*
X-430713Y317011D01*
X-431136Y316849D01*
X-431647Y316687D01*
X-432246Y316525D01*
X-432933Y316363D01*
X-434466Y316004D01*
X-434800Y315916D01*
X-435110Y315818D01*
X-435395Y315710D01*
X-435657Y315592D01*
X-435893Y315461D01*
X-436100Y315314D01*
X-436280Y315151D01*
X-436432Y314970D01*
X-436553Y314768D01*
X-436639Y314537D01*
X-436691Y314277D01*
X-436708Y313989D01*
X-436694Y313728D01*
X-436653Y313483D01*
X-436584Y313255D01*
X-436488Y313042D01*
X-436364Y312846D01*
X-436213Y312667D01*
X-436034Y312503D01*
X-435828Y312356D01*
X-435596Y312226D01*
X-435341Y312113D01*
X-435064Y312017D01*
X-434763Y311939D01*
X-434438Y311878D01*
X-434091Y311835D01*
X-433721Y311809D01*
X-433327Y311800D01*
X-432946Y311808D01*
X-432584Y311832D01*
X-432244Y311873D01*
X-431924Y311930D01*
X-431624Y312003D01*
X-431345Y312093D01*
X-431087Y312199D01*
X-430849Y312321D01*
X-430631Y312461D01*
X-430433Y312619D01*
X-430254Y312795D01*
X-430095Y312990D01*
X-429956Y313203D01*
X-429837Y313435D01*
X-429737Y313686D01*
X-429657Y313954D01*
X-428037Y313630D01*
X-428142Y313251D01*
X-428276Y312895D01*
X-428440Y312565D01*
X-428633Y312259D01*
X-428856Y311977D01*
X-429109Y311720D01*
X-429391Y311487D01*
X-429703Y311279D01*
X-430045Y311095D01*
X-430416Y310936D01*
X-430817Y310801D01*
X-431248Y310691D01*
X-431708Y310605D01*
X-432197Y310544D01*
X-432717Y310507D01*
X-433266Y310495D01*
G37*
G36*
X-421297Y310495D02*
X-421887Y310510D01*
X-422442Y310553D01*
X-422963Y310627D01*
X-423451Y310729D01*
X-423904Y310861D01*
X-424323Y311022D01*
X-424708Y311212D01*
X-425059Y311432D01*
X-425372Y311678D01*
X-425643Y311949D01*
X-425873Y312243D01*
X-426061Y312562D01*
X-426207Y312905D01*
X-426311Y313271D01*
X-426374Y313662D01*
X-426395Y314077D01*
X-426383Y314403D01*
X-426348Y314708D01*
X-426289Y314990D01*
X-426206Y315251D01*
X-426103Y315492D01*
X-425982Y315717D01*
X-425843Y315926D01*
X-425685Y316118D01*
X-425511Y316295D01*
X-425323Y316457D01*
X-425119Y316606D01*
X-424901Y316740D01*
X-424434Y316977D01*
X-423933Y317182D01*
X-423405Y317357D01*
X-422852Y317506D01*
X-421718Y317773D01*
X-420939Y317954D01*
X-420301Y318120D01*
X-419804Y318272D01*
X-419449Y318408D01*
X-419181Y318544D01*
X-418947Y318695D01*
X-418745Y318860D01*
X-418578Y319039D01*
X-418445Y319237D01*
X-418351Y319460D01*
X-418294Y319708D01*
X-418275Y319980D01*
X-418288Y320216D01*
X-418324Y320436D01*
X-418385Y320642D01*
X-418470Y320832D01*
X-418580Y321007D01*
X-418714Y321168D01*
X-418872Y321313D01*
X-419055Y321443D01*
X-419261Y321558D01*
X-419489Y321658D01*
X-419738Y321742D01*
X-420010Y321811D01*
X-420303Y321865D01*
X-420618Y321903D01*
X-420956Y321926D01*
X-421315Y321933D01*
X-421643Y321927D01*
X-421952Y321906D01*
X-422244Y321871D01*
X-422517Y321823D01*
X-422771Y321761D01*
X-423008Y321685D01*
X-423226Y321595D01*
X-423425Y321491D01*
X-423608Y321372D01*
X-423776Y321236D01*
X-423928Y321084D01*
X-424065Y320914D01*
X-424186Y320728D01*
X-424293Y320525D01*
X-424383Y320305D01*
X-424459Y320068D01*
X-426106Y320357D01*
X-425984Y320730D01*
X-425841Y321075D01*
X-425677Y321392D01*
X-425492Y321681D01*
X-425287Y321941D01*
X-425061Y322172D01*
X-424814Y322376D01*
X-424547Y322551D01*
X-424253Y322702D01*
X-423929Y322833D01*
X-423573Y322943D01*
X-423187Y323034D01*
X-422770Y323104D01*
X-422321Y323154D01*
X-421842Y323185D01*
X-421332Y323195D01*
X-420784Y323181D01*
X-420268Y323141D01*
X-419785Y323074D01*
X-419334Y322980D01*
X-418916Y322859D01*
X-418531Y322712D01*
X-418179Y322538D01*
X-417859Y322336D01*
X-417575Y322110D01*
X-417329Y321862D01*
X-417120Y321590D01*
X-416950Y321296D01*
X-416817Y320979D01*
X-416722Y320640D01*
X-416665Y320278D01*
X-416646Y319893D01*
X-416661Y319557D01*
X-416704Y319240D01*
X-416777Y318944D01*
X-416878Y318667D01*
X-417007Y318408D01*
X-417162Y318166D01*
X-417342Y317942D01*
X-417548Y317734D01*
X-417787Y317539D01*
X-418066Y317354D01*
X-418385Y317178D01*
X-418744Y317011D01*
X-419167Y316849D01*
X-419678Y316687D01*
X-420277Y316525D01*
X-420964Y316363D01*
X-422497Y316004D01*
X-422831Y315916D01*
X-423141Y315818D01*
X-423427Y315710D01*
X-423688Y315592D01*
X-423924Y315461D01*
X-424132Y315314D01*
X-424311Y315151D01*
X-424463Y314970D01*
X-424584Y314768D01*
X-424670Y314537D01*
X-424722Y314277D01*
X-424739Y313989D01*
X-424726Y313728D01*
X-424684Y313483D01*
X-424615Y313255D01*
X-424519Y313042D01*
X-424395Y312846D01*
X-424244Y312667D01*
X-424065Y312503D01*
X-423859Y312356D01*
X-423627Y312226D01*
X-423373Y312113D01*
X-423095Y312017D01*
X-422794Y311939D01*
X-422470Y311878D01*
X-422122Y311835D01*
X-421752Y311809D01*
X-421358Y311800D01*
X-420977Y311808D01*
X-420616Y311832D01*
X-420275Y311873D01*
X-419955Y311930D01*
X-419655Y312003D01*
X-419376Y312093D01*
X-419118Y312199D01*
X-418880Y312321D01*
X-418662Y312461D01*
X-418464Y312619D01*
X-418285Y312795D01*
X-418127Y312990D01*
X-417988Y313203D01*
X-417868Y313435D01*
X-417769Y313686D01*
X-417689Y313954D01*
X-416068Y313630D01*
X-416173Y313251D01*
X-416307Y312895D01*
X-416471Y312565D01*
X-416664Y312259D01*
X-416888Y311977D01*
X-417140Y311720D01*
X-417423Y311487D01*
X-417735Y311279D01*
X-418076Y311095D01*
X-418447Y310936D01*
X-418848Y310801D01*
X-419279Y310691D01*
X-419739Y310605D01*
X-420229Y310544D01*
X-420748Y310507D01*
X-421297Y310495D01*
G37*
G36*
X-374469Y291445D02*
X-374856Y291454D01*
X-375231Y291481D01*
X-375593Y291526D01*
X-375941Y291588D01*
X-376277Y291669D01*
X-376600Y291768D01*
X-376909Y291884D01*
X-377206Y292019D01*
X-377488Y292170D01*
X-377753Y292337D01*
X-378002Y292521D01*
X-378235Y292720D01*
X-378451Y292936D01*
X-378651Y293167D01*
X-378834Y293415D01*
X-379001Y293678D01*
X-379150Y293956D01*
X-379279Y294247D01*
X-379388Y294551D01*
X-379478Y294867D01*
X-379547Y295197D01*
X-379597Y295539D01*
X-379626Y295894D01*
X-379636Y296262D01*
X-379636Y303961D01*
X-377972Y303961D01*
X-377972Y296358D01*
X-377958Y295936D01*
X-377914Y295539D01*
X-377842Y295169D01*
X-377741Y294825D01*
X-377611Y294506D01*
X-377452Y294214D01*
X-377265Y293949D01*
X-377048Y293709D01*
X-376806Y293496D01*
X-376540Y293312D01*
X-376251Y293157D01*
X-375939Y293029D01*
X-375604Y292930D01*
X-375246Y292859D01*
X-374864Y292817D01*
X-374460Y292802D01*
X-374067Y292816D01*
X-373697Y292857D01*
X-373352Y292926D01*
X-373030Y293021D01*
X-372732Y293145D01*
X-372458Y293295D01*
X-372208Y293473D01*
X-371981Y293678D01*
X-371780Y293910D01*
X-371606Y294167D01*
X-371458Y294450D01*
X-371338Y294758D01*
X-371244Y295091D01*
X-371177Y295450D01*
X-371136Y295835D01*
X-371123Y296245D01*
X-371123Y303961D01*
X-369450Y303961D01*
X-369450Y296104D01*
X-369460Y295747D01*
X-369489Y295403D01*
X-369538Y295071D01*
X-369606Y294751D01*
X-369693Y294444D01*
X-369800Y294150D01*
X-369926Y293868D01*
X-370072Y293599D01*
X-370235Y293344D01*
X-370415Y293105D01*
X-370610Y292881D01*
X-370821Y292673D01*
X-371048Y292481D01*
X-371290Y292304D01*
X-371549Y292142D01*
X-371824Y291997D01*
X-372112Y291867D01*
X-372413Y291755D01*
X-372725Y291660D01*
X-373050Y291583D01*
X-373387Y291522D01*
X-373735Y291479D01*
X-374096Y291453D01*
X-374469Y291445D01*
G37*
G36*
X-308031Y310495D02*
X-308419Y310504D01*
X-308794Y310531D01*
X-309155Y310576D01*
X-309504Y310638D01*
X-309839Y310719D01*
X-310162Y310818D01*
X-310472Y310934D01*
X-310768Y311069D01*
X-311050Y311220D01*
X-311316Y311387D01*
X-311565Y311571D01*
X-311797Y311770D01*
X-312014Y311986D01*
X-312213Y312217D01*
X-312397Y312465D01*
X-312564Y312728D01*
X-312713Y313006D01*
X-312842Y313297D01*
X-312951Y313601D01*
X-313040Y313917D01*
X-313109Y314247D01*
X-313159Y314589D01*
X-313189Y314944D01*
X-313199Y315312D01*
X-313199Y323011D01*
X-311535Y323011D01*
X-311535Y315408D01*
X-311520Y314986D01*
X-311477Y314589D01*
X-311405Y314219D01*
X-311304Y313875D01*
X-311174Y313556D01*
X-311015Y313264D01*
X-310827Y312999D01*
X-310611Y312759D01*
X-310368Y312546D01*
X-310102Y312362D01*
X-309814Y312207D01*
X-309502Y312079D01*
X-309167Y311980D01*
X-308808Y311909D01*
X-308427Y311867D01*
X-308022Y311852D01*
X-307629Y311866D01*
X-307260Y311907D01*
X-306914Y311976D01*
X-306593Y312071D01*
X-306295Y312195D01*
X-306021Y312345D01*
X-305770Y312523D01*
X-305544Y312728D01*
X-305343Y312960D01*
X-305168Y313217D01*
X-305021Y313500D01*
X-304900Y313808D01*
X-304806Y314141D01*
X-304739Y314500D01*
X-304699Y314885D01*
X-304685Y315295D01*
X-304685Y323011D01*
X-303013Y323011D01*
X-303013Y315154D01*
X-303022Y314797D01*
X-303051Y314453D01*
X-303100Y314121D01*
X-303168Y313801D01*
X-303256Y313494D01*
X-303362Y313200D01*
X-303489Y312918D01*
X-303634Y312649D01*
X-303798Y312394D01*
X-303977Y312155D01*
X-304172Y311931D01*
X-304383Y311723D01*
X-304610Y311531D01*
X-304853Y311354D01*
X-305112Y311192D01*
X-305386Y311047D01*
X-305675Y310917D01*
X-305975Y310805D01*
X-306288Y310710D01*
X-306612Y310633D01*
X-306949Y310572D01*
X-307298Y310529D01*
X-307658Y310503D01*
X-308031Y310495D01*
G37*
G36*
X-296663Y310495D02*
X-297074Y310511D01*
X-297463Y310559D01*
X-297829Y310640D01*
X-298174Y310752D01*
X-298495Y310897D01*
X-298794Y311074D01*
X-299071Y311283D01*
X-299325Y311524D01*
X-299553Y311793D01*
X-299751Y312086D01*
X-299918Y312404D01*
X-300054Y312745D01*
X-300161Y313110D01*
X-300237Y313499D01*
X-300282Y313912D01*
X-300297Y314349D01*
X-300297Y323011D01*
X-296260Y323011D01*
X-296260Y321644D01*
X-298633Y321644D01*
X-298633Y314314D01*
X-298625Y314020D01*
X-298600Y313746D01*
X-298559Y313489D01*
X-298502Y313250D01*
X-298428Y313030D01*
X-298338Y312828D01*
X-298231Y312644D01*
X-298108Y312479D01*
X-297970Y312332D01*
X-297821Y312205D01*
X-297659Y312097D01*
X-297486Y312009D01*
X-297300Y311940D01*
X-297103Y311892D01*
X-296893Y311862D01*
X-296671Y311852D01*
X-296468Y311861D01*
X-296273Y311888D01*
X-296087Y311932D01*
X-295909Y311995D01*
X-295741Y312075D01*
X-295581Y312173D01*
X-295430Y312288D01*
X-295288Y312422D01*
X-295156Y312571D01*
X-295036Y312734D01*
X-294929Y312912D01*
X-294834Y313103D01*
X-294752Y313308D01*
X-294682Y313527D01*
X-294624Y313760D01*
X-294578Y314007D01*
X-292940Y313735D01*
X-293024Y313343D01*
X-293127Y312976D01*
X-293250Y312634D01*
X-293393Y312318D01*
X-293556Y312027D01*
X-293739Y311761D01*
X-293942Y311520D01*
X-294164Y311305D01*
X-294407Y311115D01*
X-294669Y310951D01*
X-294952Y310811D01*
X-295254Y310697D01*
X-295576Y310609D01*
X-295919Y310545D01*
X-296281Y310508D01*
X-296663Y310495D01*
G37*
G36*
X-324006Y291620D02*
X-331915Y291620D01*
X-331915Y292986D01*
X-325679Y292986D01*
X-325679Y303961D01*
X-324006Y303961D01*
X-324006Y291620D01*
G37*
G36*
X-316038Y310670D02*
X-323947Y310670D01*
X-323947Y312036D01*
X-317711Y312036D01*
X-317711Y323011D01*
X-316038Y323011D01*
X-316038Y310670D01*
G37*
G36*
X-399940Y310670D02*
X-401613Y310670D01*
X-401613Y323011D01*
X-399940Y323011D01*
X-399940Y310670D01*
G37*
G36*
X-382690Y291620D02*
X-384363Y291620D01*
X-384363Y303961D01*
X-382690Y303961D01*
X-382690Y291620D01*
G37*
G36*
X-334190Y291620D02*
X-335863Y291620D01*
X-335863Y303961D01*
X-334190Y303961D01*
X-334190Y291620D01*
G37*
G36*
X-326190Y310670D02*
X-327863Y310670D01*
X-327863Y323011D01*
X-326190Y323011D01*
X-326190Y310670D01*
G37*
G36*
X-319222Y291620D02*
X-320894Y291620D01*
X-320894Y303961D01*
X-319222Y303961D01*
X-319222Y291620D01*
G37*
G36*
X-515824Y251415D02*
X-519691Y251415D01*
X-519691Y262674D01*
X-530845Y262674D01*
X-530845Y266515D01*
X-519691Y266515D01*
X-519691Y277774D01*
X-515824Y277774D01*
X-515824Y266515D01*
X-504671Y266515D01*
X-504671Y262674D01*
X-515824Y262674D01*
X-515824Y251415D01*
G37*
G36*
X-460754Y263366D02*
X-473907Y263366D01*
X-473907Y267575D01*
X-460754Y267575D01*
X-460754Y263366D01*
G37*
D10*
X417500Y314500D03*
M02*
