G04 EAGLE Gerber RS-274X export*
G75*
%MOMM*%
%FSLAX34Y34*%
%LPD*%
%INSolderpaste Top*%
%IPPOS*%
%AMOC8*
5,1,8,0,0,1.08239X$1,22.5*%
G01*
G04 Define Apertures*
%ADD10R,2.550000X3.000000*%
%ADD11R,3.000000X2.550000*%
%ADD12R,1.200000X0.700000*%
%ADD13R,1.800000X2.200000*%
%ADD14C,0.140000*%
%ADD15R,0.600000X0.600000*%
%ADD16R,1.500000X0.900000*%
%ADD17R,0.900000X1.500000*%
%ADD18R,6.000000X6.000000*%
%ADD19R,1.200000X0.550000*%
%ADD20R,1.730000X3.050000*%
%ADD21R,2.700000X2.000000*%
%ADD22R,0.300000X1.150000*%
%ADD23R,1.150000X0.300000*%
%ADD24R,3.150000X3.150000*%
%ADD25R,1.500000X1.600000*%
%ADD26R,1.200000X1.200000*%
%ADD27C,0.200000*%
%ADD28C,0.340000*%
%ADD29R,0.410000X0.280000*%
%ADD30R,0.280000X0.410000*%
%ADD31R,0.800000X0.900000*%
%ADD32R,0.400000X0.900000*%
%ADD33R,0.600000X0.900000*%
%ADD34R,0.750000X0.900000*%
%ADD35R,1.205000X3.760000*%
%ADD36R,1.710000X4.190000*%
%ADD37R,1.550000X0.600000*%
%ADD38R,2.100000X0.800000*%
%ADD39C,0.148500*%
%ADD40C,0.088500*%
%ADD41R,3.760000X1.205000*%
%ADD42R,4.190000X1.710000*%
%ADD43R,0.450000X1.500000*%
D10*
X-425450Y236550D03*
X-425450Y169850D03*
D11*
X-310820Y229870D03*
X-377520Y229870D03*
X-310820Y177800D03*
X-377520Y177800D03*
D12*
X-425020Y288900D03*
X-425020Y279400D03*
X-425020Y269900D03*
X-403020Y269900D03*
X-403020Y279400D03*
X-403020Y288900D03*
D13*
X-377730Y293930D03*
X-311730Y293930D03*
D14*
X447870Y-31250D02*
X454470Y-31250D01*
X454470Y-32650D01*
X447870Y-32650D01*
X447870Y-31250D01*
X447870Y-31320D02*
X454470Y-31320D01*
X454470Y-36250D02*
X447870Y-36250D01*
X454470Y-36250D02*
X454470Y-37650D01*
X447870Y-37650D01*
X447870Y-36250D01*
X447870Y-36320D02*
X454470Y-36320D01*
X454470Y-41250D02*
X447870Y-41250D01*
X454470Y-41250D02*
X454470Y-42650D01*
X447870Y-42650D01*
X447870Y-41250D01*
X447870Y-41320D02*
X454470Y-41320D01*
X454470Y-46250D02*
X447870Y-46250D01*
X454470Y-46250D02*
X454470Y-47650D01*
X447870Y-47650D01*
X447870Y-46250D01*
X447870Y-46320D02*
X454470Y-46320D01*
X454470Y-51250D02*
X447870Y-51250D01*
X454470Y-51250D02*
X454470Y-52650D01*
X447870Y-52650D01*
X447870Y-51250D01*
X447870Y-51320D02*
X454470Y-51320D01*
X454470Y-56250D02*
X447870Y-56250D01*
X454470Y-56250D02*
X454470Y-57650D01*
X447870Y-57650D01*
X447870Y-56250D01*
X447870Y-56320D02*
X454470Y-56320D01*
X459370Y-61150D02*
X459370Y-67750D01*
X457970Y-67750D01*
X457970Y-61150D01*
X459370Y-61150D01*
X459370Y-66420D02*
X457970Y-66420D01*
X457970Y-65090D02*
X459370Y-65090D01*
X459370Y-63760D02*
X457970Y-63760D01*
X457970Y-62430D02*
X459370Y-62430D01*
X464370Y-61150D02*
X464370Y-67750D01*
X462970Y-67750D01*
X462970Y-61150D01*
X464370Y-61150D01*
X464370Y-66420D02*
X462970Y-66420D01*
X462970Y-65090D02*
X464370Y-65090D01*
X464370Y-63760D02*
X462970Y-63760D01*
X462970Y-62430D02*
X464370Y-62430D01*
X469370Y-61150D02*
X469370Y-67750D01*
X467970Y-67750D01*
X467970Y-61150D01*
X469370Y-61150D01*
X469370Y-66420D02*
X467970Y-66420D01*
X467970Y-65090D02*
X469370Y-65090D01*
X469370Y-63760D02*
X467970Y-63760D01*
X467970Y-62430D02*
X469370Y-62430D01*
X474370Y-61150D02*
X474370Y-67750D01*
X472970Y-67750D01*
X472970Y-61150D01*
X474370Y-61150D01*
X474370Y-66420D02*
X472970Y-66420D01*
X472970Y-65090D02*
X474370Y-65090D01*
X474370Y-63760D02*
X472970Y-63760D01*
X472970Y-62430D02*
X474370Y-62430D01*
X479370Y-61150D02*
X479370Y-67750D01*
X477970Y-67750D01*
X477970Y-61150D01*
X479370Y-61150D01*
X479370Y-66420D02*
X477970Y-66420D01*
X477970Y-65090D02*
X479370Y-65090D01*
X479370Y-63760D02*
X477970Y-63760D01*
X477970Y-62430D02*
X479370Y-62430D01*
X484370Y-61150D02*
X484370Y-67750D01*
X482970Y-67750D01*
X482970Y-61150D01*
X484370Y-61150D01*
X484370Y-66420D02*
X482970Y-66420D01*
X482970Y-65090D02*
X484370Y-65090D01*
X484370Y-63760D02*
X482970Y-63760D01*
X482970Y-62430D02*
X484370Y-62430D01*
X487870Y-57650D02*
X494470Y-57650D01*
X487870Y-57650D02*
X487870Y-56250D01*
X494470Y-56250D01*
X494470Y-57650D01*
X494470Y-56320D02*
X487870Y-56320D01*
X487870Y-52650D02*
X494470Y-52650D01*
X487870Y-52650D02*
X487870Y-51250D01*
X494470Y-51250D01*
X494470Y-52650D01*
X494470Y-51320D02*
X487870Y-51320D01*
X487870Y-47650D02*
X494470Y-47650D01*
X487870Y-47650D02*
X487870Y-46250D01*
X494470Y-46250D01*
X494470Y-47650D01*
X494470Y-46320D02*
X487870Y-46320D01*
X487870Y-42650D02*
X494470Y-42650D01*
X487870Y-42650D02*
X487870Y-41250D01*
X494470Y-41250D01*
X494470Y-42650D01*
X494470Y-41320D02*
X487870Y-41320D01*
X487870Y-37650D02*
X494470Y-37650D01*
X487870Y-37650D02*
X487870Y-36250D01*
X494470Y-36250D01*
X494470Y-37650D01*
X494470Y-36320D02*
X487870Y-36320D01*
X487870Y-32650D02*
X494470Y-32650D01*
X487870Y-32650D02*
X487870Y-31250D01*
X494470Y-31250D01*
X494470Y-32650D01*
X494470Y-31320D02*
X487870Y-31320D01*
X482970Y-27750D02*
X482970Y-21150D01*
X484370Y-21150D01*
X484370Y-27750D01*
X482970Y-27750D01*
X482970Y-26420D02*
X484370Y-26420D01*
X484370Y-25090D02*
X482970Y-25090D01*
X482970Y-23760D02*
X484370Y-23760D01*
X484370Y-22430D02*
X482970Y-22430D01*
X477970Y-21150D02*
X477970Y-27750D01*
X477970Y-21150D02*
X479370Y-21150D01*
X479370Y-27750D01*
X477970Y-27750D01*
X477970Y-26420D02*
X479370Y-26420D01*
X479370Y-25090D02*
X477970Y-25090D01*
X477970Y-23760D02*
X479370Y-23760D01*
X479370Y-22430D02*
X477970Y-22430D01*
X472970Y-21150D02*
X472970Y-27750D01*
X472970Y-21150D02*
X474370Y-21150D01*
X474370Y-27750D01*
X472970Y-27750D01*
X472970Y-26420D02*
X474370Y-26420D01*
X474370Y-25090D02*
X472970Y-25090D01*
X472970Y-23760D02*
X474370Y-23760D01*
X474370Y-22430D02*
X472970Y-22430D01*
X467970Y-21150D02*
X467970Y-27750D01*
X467970Y-21150D02*
X469370Y-21150D01*
X469370Y-27750D01*
X467970Y-27750D01*
X467970Y-26420D02*
X469370Y-26420D01*
X469370Y-25090D02*
X467970Y-25090D01*
X467970Y-23760D02*
X469370Y-23760D01*
X469370Y-22430D02*
X467970Y-22430D01*
X462970Y-21150D02*
X462970Y-27750D01*
X462970Y-21150D02*
X464370Y-21150D01*
X464370Y-27750D01*
X462970Y-27750D01*
X462970Y-26420D02*
X464370Y-26420D01*
X464370Y-25090D02*
X462970Y-25090D01*
X462970Y-23760D02*
X464370Y-23760D01*
X464370Y-22430D02*
X462970Y-22430D01*
X457970Y-21150D02*
X457970Y-27750D01*
X457970Y-21150D02*
X459370Y-21150D01*
X459370Y-27750D01*
X457970Y-27750D01*
X457970Y-26420D02*
X459370Y-26420D01*
X459370Y-25090D02*
X457970Y-25090D01*
X457970Y-23760D02*
X459370Y-23760D01*
X459370Y-22430D02*
X457970Y-22430D01*
D15*
X462170Y-53450D03*
X471170Y-44450D03*
X462170Y-44450D03*
X462170Y-35450D03*
X480170Y-35450D03*
X480170Y-53450D03*
X480170Y-44450D03*
X471170Y-35450D03*
X471170Y-53450D03*
D16*
X332010Y270118D03*
X332010Y257418D03*
X332010Y244718D03*
X332010Y232018D03*
X332010Y219318D03*
X332010Y206618D03*
X332010Y193918D03*
X332010Y181218D03*
X332010Y168518D03*
X332010Y155818D03*
X332010Y143118D03*
X332010Y130418D03*
X332010Y117718D03*
X332010Y105018D03*
D17*
X361010Y91118D03*
X373710Y91118D03*
X386410Y91118D03*
X399110Y91118D03*
X411810Y91118D03*
X424510Y91118D03*
X437210Y91118D03*
X449910Y91118D03*
X462610Y91118D03*
X475310Y91118D03*
D16*
X504010Y105018D03*
X504010Y117718D03*
X504010Y130418D03*
X504010Y143118D03*
X504010Y155818D03*
X504010Y168518D03*
X504010Y181218D03*
X504010Y193918D03*
X504010Y206618D03*
X504010Y219318D03*
X504010Y232018D03*
X504010Y244718D03*
X504010Y257418D03*
X504010Y270118D03*
D18*
X403010Y193018D03*
D19*
X-342599Y106070D03*
X-342599Y115570D03*
X-342599Y125070D03*
X-368601Y125070D03*
X-368601Y106070D03*
D20*
X-470076Y234596D03*
X-518376Y234596D03*
D21*
X-468346Y193178D03*
X-521146Y193178D03*
D14*
X-413010Y314325D02*
X-413010Y320675D01*
X-407410Y320675D01*
X-407410Y314325D01*
X-413010Y314325D01*
X-413010Y315655D02*
X-407410Y315655D01*
X-407410Y316985D02*
X-413010Y316985D01*
X-413010Y318315D02*
X-407410Y318315D01*
X-407410Y319645D02*
X-413010Y319645D01*
X-395230Y320675D02*
X-395230Y314325D01*
X-395230Y320675D02*
X-389630Y320675D01*
X-389630Y314325D01*
X-395230Y314325D01*
X-395230Y315655D02*
X-389630Y315655D01*
X-389630Y316985D02*
X-395230Y316985D01*
X-395230Y318315D02*
X-389630Y318315D01*
X-389630Y319645D02*
X-395230Y319645D01*
X437540Y-61341D02*
X437540Y-67691D01*
X431940Y-67691D01*
X431940Y-61341D01*
X437540Y-61341D01*
X437540Y-66361D02*
X431940Y-66361D01*
X431940Y-65031D02*
X437540Y-65031D01*
X437540Y-63701D02*
X431940Y-63701D01*
X431940Y-62371D02*
X437540Y-62371D01*
X419760Y-61341D02*
X419760Y-67691D01*
X414160Y-67691D01*
X414160Y-61341D01*
X419760Y-61341D01*
X419760Y-66361D02*
X414160Y-66361D01*
X414160Y-65031D02*
X419760Y-65031D01*
X419760Y-63701D02*
X414160Y-63701D01*
X414160Y-62371D02*
X419760Y-62371D01*
X-315595Y92450D02*
X-321945Y92450D01*
X-321945Y98050D01*
X-315595Y98050D01*
X-315595Y92450D01*
X-315595Y93780D02*
X-321945Y93780D01*
X-321945Y95110D02*
X-315595Y95110D01*
X-315595Y96440D02*
X-321945Y96440D01*
X-321945Y97770D02*
X-315595Y97770D01*
X-315595Y110230D02*
X-321945Y110230D01*
X-321945Y115830D01*
X-315595Y115830D01*
X-315595Y110230D01*
X-315595Y111560D02*
X-321945Y111560D01*
X-321945Y112890D02*
X-315595Y112890D01*
X-315595Y114220D02*
X-321945Y114220D01*
X-321945Y115550D02*
X-315595Y115550D01*
X-381635Y112770D02*
X-387985Y112770D01*
X-387985Y118370D01*
X-381635Y118370D01*
X-381635Y112770D01*
X-381635Y114100D02*
X-387985Y114100D01*
X-387985Y115430D02*
X-381635Y115430D01*
X-381635Y116760D02*
X-387985Y116760D01*
X-387985Y118090D02*
X-381635Y118090D01*
X-381635Y130550D02*
X-387985Y130550D01*
X-387985Y136150D01*
X-381635Y136150D01*
X-381635Y130550D01*
X-381635Y131880D02*
X-387985Y131880D01*
X-387985Y133210D02*
X-381635Y133210D01*
X-381635Y134540D02*
X-387985Y134540D01*
X-387985Y135870D02*
X-381635Y135870D01*
X-394335Y112770D02*
X-400685Y112770D01*
X-400685Y118370D01*
X-394335Y118370D01*
X-394335Y112770D01*
X-394335Y114100D02*
X-400685Y114100D01*
X-400685Y115430D02*
X-394335Y115430D01*
X-394335Y116760D02*
X-400685Y116760D01*
X-400685Y118090D02*
X-394335Y118090D01*
X-394335Y130550D02*
X-400685Y130550D01*
X-400685Y136150D01*
X-394335Y136150D01*
X-394335Y130550D01*
X-394335Y131880D02*
X-400685Y131880D01*
X-400685Y133210D02*
X-394335Y133210D01*
X-394335Y134540D02*
X-400685Y134540D01*
X-400685Y135870D02*
X-394335Y135870D01*
X-329190Y127635D02*
X-329190Y121285D01*
X-329190Y127635D02*
X-323590Y127635D01*
X-323590Y121285D01*
X-329190Y121285D01*
X-329190Y122615D02*
X-323590Y122615D01*
X-323590Y123945D02*
X-329190Y123945D01*
X-329190Y125275D02*
X-323590Y125275D01*
X-323590Y126605D02*
X-329190Y126605D01*
X-311410Y127635D02*
X-311410Y121285D01*
X-311410Y127635D02*
X-305810Y127635D01*
X-305810Y121285D01*
X-311410Y121285D01*
X-311410Y122615D02*
X-305810Y122615D01*
X-305810Y123945D02*
X-311410Y123945D01*
X-311410Y125275D02*
X-305810Y125275D01*
X-305810Y126605D02*
X-311410Y126605D01*
X-227965Y57286D02*
X-221615Y57286D01*
X-227965Y57286D02*
X-227965Y62886D01*
X-221615Y62886D01*
X-221615Y57286D01*
X-221615Y58616D02*
X-227965Y58616D01*
X-227965Y59946D02*
X-221615Y59946D01*
X-221615Y61276D02*
X-227965Y61276D01*
X-227965Y62606D02*
X-221615Y62606D01*
X-221615Y75066D02*
X-227965Y75066D01*
X-227965Y80666D01*
X-221615Y80666D01*
X-221615Y75066D01*
X-221615Y76396D02*
X-227965Y76396D01*
X-227965Y77726D02*
X-221615Y77726D01*
X-221615Y79056D02*
X-227965Y79056D01*
X-227965Y80386D02*
X-221615Y80386D01*
X-239528Y46863D02*
X-239528Y40513D01*
X-239528Y46863D02*
X-233928Y46863D01*
X-233928Y40513D01*
X-239528Y40513D01*
X-239528Y41843D02*
X-233928Y41843D01*
X-233928Y43173D02*
X-239528Y43173D01*
X-239528Y44503D02*
X-233928Y44503D01*
X-233928Y45833D02*
X-239528Y45833D01*
X-221748Y46863D02*
X-221748Y40513D01*
X-221748Y46863D02*
X-216148Y46863D01*
X-216148Y40513D01*
X-221748Y40513D01*
X-221748Y41843D02*
X-216148Y41843D01*
X-216148Y43173D02*
X-221748Y43173D01*
X-221748Y44503D02*
X-216148Y44503D01*
X-216148Y45833D02*
X-221748Y45833D01*
X-248604Y56382D02*
X-254954Y56382D01*
X-254954Y61982D01*
X-248604Y61982D01*
X-248604Y56382D01*
X-248604Y57712D02*
X-254954Y57712D01*
X-254954Y59042D02*
X-248604Y59042D01*
X-248604Y60372D02*
X-254954Y60372D01*
X-254954Y61702D02*
X-248604Y61702D01*
X-248604Y74162D02*
X-254954Y74162D01*
X-254954Y79762D01*
X-248604Y79762D01*
X-248604Y74162D01*
X-248604Y75492D02*
X-254954Y75492D01*
X-254954Y76822D02*
X-248604Y76822D01*
X-248604Y78152D02*
X-254954Y78152D01*
X-254954Y79482D02*
X-248604Y79482D01*
X-242322Y-41529D02*
X-242322Y-47879D01*
X-242322Y-41529D02*
X-236722Y-41529D01*
X-236722Y-47879D01*
X-242322Y-47879D01*
X-242322Y-46549D02*
X-236722Y-46549D01*
X-236722Y-45219D02*
X-242322Y-45219D01*
X-242322Y-43889D02*
X-236722Y-43889D01*
X-236722Y-42559D02*
X-242322Y-42559D01*
X-224542Y-41529D02*
X-224542Y-47879D01*
X-224542Y-41529D02*
X-218942Y-41529D01*
X-218942Y-47879D01*
X-224542Y-47879D01*
X-224542Y-46549D02*
X-218942Y-46549D01*
X-218942Y-45219D02*
X-224542Y-45219D01*
X-224542Y-43889D02*
X-218942Y-43889D01*
X-218942Y-42559D02*
X-224542Y-42559D01*
D22*
X-209790Y21460D03*
X-214790Y21460D03*
X-219790Y21460D03*
X-224790Y21460D03*
X-229790Y21460D03*
X-234790Y21460D03*
X-239790Y21460D03*
D23*
X-248790Y12460D03*
X-248790Y7460D03*
X-248790Y2460D03*
X-248790Y-2540D03*
X-248790Y-7540D03*
X-248790Y-12540D03*
X-248790Y-17540D03*
D22*
X-239790Y-26540D03*
X-234790Y-26540D03*
X-229790Y-26540D03*
X-224790Y-26540D03*
X-219790Y-26540D03*
X-214790Y-26540D03*
X-209790Y-26540D03*
D23*
X-200790Y-17540D03*
X-200790Y-12540D03*
X-200790Y-7540D03*
X-200790Y-2540D03*
X-200790Y2460D03*
X-200790Y7460D03*
X-200790Y12460D03*
D24*
X-224790Y-2540D03*
D25*
X-220708Y-79756D03*
D26*
X-185708Y-69756D03*
X-185708Y-89756D03*
D14*
X-172085Y-64002D02*
X-165735Y-64002D01*
X-165735Y-69602D01*
X-172085Y-69602D01*
X-172085Y-64002D01*
X-172085Y-68272D02*
X-165735Y-68272D01*
X-165735Y-66942D02*
X-172085Y-66942D01*
X-172085Y-65612D02*
X-165735Y-65612D01*
X-165735Y-64282D02*
X-172085Y-64282D01*
X-172085Y-81782D02*
X-165735Y-81782D01*
X-165735Y-87382D01*
X-172085Y-87382D01*
X-172085Y-81782D01*
X-172085Y-86052D02*
X-165735Y-86052D01*
X-165735Y-84722D02*
X-172085Y-84722D01*
X-172085Y-83392D02*
X-165735Y-83392D01*
X-165735Y-82062D02*
X-172085Y-82062D01*
X-253111Y-53842D02*
X-259461Y-53842D01*
X-253111Y-53842D02*
X-253111Y-59442D01*
X-259461Y-59442D01*
X-259461Y-53842D01*
X-259461Y-58112D02*
X-253111Y-58112D01*
X-253111Y-56782D02*
X-259461Y-56782D01*
X-259461Y-55452D02*
X-253111Y-55452D01*
X-253111Y-54122D02*
X-259461Y-54122D01*
X-259461Y-71622D02*
X-253111Y-71622D01*
X-253111Y-77222D01*
X-259461Y-77222D01*
X-259461Y-71622D01*
X-259461Y-75892D02*
X-253111Y-75892D01*
X-253111Y-74562D02*
X-259461Y-74562D01*
X-259461Y-73232D02*
X-253111Y-73232D01*
X-253111Y-71902D02*
X-259461Y-71902D01*
X-247777Y-53842D02*
X-241427Y-53842D01*
X-241427Y-59442D01*
X-247777Y-59442D01*
X-247777Y-53842D01*
X-247777Y-58112D02*
X-241427Y-58112D01*
X-241427Y-56782D02*
X-247777Y-56782D01*
X-247777Y-55452D02*
X-241427Y-55452D01*
X-241427Y-54122D02*
X-247777Y-54122D01*
X-247777Y-71622D02*
X-241427Y-71622D01*
X-241427Y-77222D01*
X-247777Y-77222D01*
X-247777Y-71622D01*
X-247777Y-75892D02*
X-241427Y-75892D01*
X-241427Y-74562D02*
X-247777Y-74562D01*
X-247777Y-73232D02*
X-241427Y-73232D01*
X-241427Y-71902D02*
X-247777Y-71902D01*
D27*
X-174910Y-35180D02*
X-162910Y-35180D01*
X-174910Y-35180D02*
X-174910Y-27180D01*
X-162910Y-27180D01*
X-162910Y-35180D01*
X-162910Y-33280D02*
X-174910Y-33280D01*
X-174910Y-31380D02*
X-162910Y-31380D01*
X-162910Y-29480D02*
X-174910Y-29480D01*
X-174910Y-27580D02*
X-162910Y-27580D01*
X-162910Y-59180D02*
X-174910Y-59180D01*
X-174910Y-51180D01*
X-162910Y-51180D01*
X-162910Y-59180D01*
X-162910Y-57280D02*
X-174910Y-57280D01*
X-174910Y-55380D02*
X-162910Y-55380D01*
X-162910Y-53480D02*
X-174910Y-53480D01*
X-174910Y-51580D02*
X-162910Y-51580D01*
X-162910Y30100D02*
X-174910Y30100D01*
X-162910Y30100D02*
X-162910Y22100D01*
X-174910Y22100D01*
X-174910Y30100D01*
X-174910Y24000D02*
X-162910Y24000D01*
X-162910Y25900D02*
X-174910Y25900D01*
X-174910Y27800D02*
X-162910Y27800D01*
X-162910Y29700D02*
X-174910Y29700D01*
X-174910Y54100D02*
X-162910Y54100D01*
X-162910Y46100D01*
X-174910Y46100D01*
X-174910Y54100D01*
X-174910Y48000D02*
X-162910Y48000D01*
X-162910Y49900D02*
X-174910Y49900D01*
X-174910Y51800D02*
X-162910Y51800D01*
X-162910Y53700D02*
X-174910Y53700D01*
D28*
X-161136Y74734D02*
X-161136Y88334D01*
X-161136Y74734D02*
X-175736Y74734D01*
X-175736Y88334D01*
X-161136Y88334D01*
X-161136Y77964D02*
X-175736Y77964D01*
X-175736Y81194D02*
X-161136Y81194D01*
X-161136Y84424D02*
X-175736Y84424D01*
X-175736Y87654D02*
X-161136Y87654D01*
X-197136Y88334D02*
X-197136Y74734D01*
X-211736Y74734D01*
X-211736Y88334D01*
X-197136Y88334D01*
X-197136Y77964D02*
X-211736Y77964D01*
X-211736Y81194D02*
X-197136Y81194D01*
X-197136Y84424D02*
X-211736Y84424D01*
X-211736Y87654D02*
X-197136Y87654D01*
D14*
X-188595Y-32760D02*
X-182245Y-32760D01*
X-182245Y-38360D01*
X-188595Y-38360D01*
X-188595Y-32760D01*
X-188595Y-37030D02*
X-182245Y-37030D01*
X-182245Y-35700D02*
X-188595Y-35700D01*
X-188595Y-34370D02*
X-182245Y-34370D01*
X-182245Y-33040D02*
X-188595Y-33040D01*
X-188595Y-50540D02*
X-182245Y-50540D01*
X-182245Y-56140D01*
X-188595Y-56140D01*
X-188595Y-50540D01*
X-188595Y-54810D02*
X-182245Y-54810D01*
X-182245Y-53480D02*
X-188595Y-53480D01*
X-188595Y-52150D02*
X-182245Y-52150D01*
X-182245Y-50820D02*
X-188595Y-50820D01*
X-188595Y27680D02*
X-182245Y27680D01*
X-188595Y27680D02*
X-188595Y33280D01*
X-182245Y33280D01*
X-182245Y27680D01*
X-182245Y29010D02*
X-188595Y29010D01*
X-188595Y30340D02*
X-182245Y30340D01*
X-182245Y31670D02*
X-188595Y31670D01*
X-188595Y33000D02*
X-182245Y33000D01*
X-182245Y45460D02*
X-188595Y45460D01*
X-188595Y51060D01*
X-182245Y51060D01*
X-182245Y45460D01*
X-182245Y46790D02*
X-188595Y46790D01*
X-188595Y48120D02*
X-182245Y48120D01*
X-182245Y49450D02*
X-188595Y49450D01*
X-188595Y50780D02*
X-182245Y50780D01*
X216535Y-62366D02*
X222885Y-62366D01*
X222885Y-67966D01*
X216535Y-67966D01*
X216535Y-62366D01*
X216535Y-66636D02*
X222885Y-66636D01*
X222885Y-65306D02*
X216535Y-65306D01*
X216535Y-63976D02*
X222885Y-63976D01*
X222885Y-62646D02*
X216535Y-62646D01*
X216535Y-80146D02*
X222885Y-80146D01*
X222885Y-85746D01*
X216535Y-85746D01*
X216535Y-80146D01*
X216535Y-84416D02*
X222885Y-84416D01*
X222885Y-83086D02*
X216535Y-83086D01*
X216535Y-81756D02*
X222885Y-81756D01*
X222885Y-80426D02*
X216535Y-80426D01*
X234448Y-51943D02*
X234448Y-45593D01*
X234448Y-51943D02*
X228848Y-51943D01*
X228848Y-45593D01*
X234448Y-45593D01*
X234448Y-50613D02*
X228848Y-50613D01*
X228848Y-49283D02*
X234448Y-49283D01*
X234448Y-47953D02*
X228848Y-47953D01*
X228848Y-46623D02*
X234448Y-46623D01*
X216668Y-45593D02*
X216668Y-51943D01*
X211068Y-51943D01*
X211068Y-45593D01*
X216668Y-45593D01*
X216668Y-50613D02*
X211068Y-50613D01*
X211068Y-49283D02*
X216668Y-49283D01*
X216668Y-47953D02*
X211068Y-47953D01*
X211068Y-46623D02*
X216668Y-46623D01*
X243524Y-61462D02*
X249874Y-61462D01*
X249874Y-67062D01*
X243524Y-67062D01*
X243524Y-61462D01*
X243524Y-65732D02*
X249874Y-65732D01*
X249874Y-64402D02*
X243524Y-64402D01*
X243524Y-63072D02*
X249874Y-63072D01*
X249874Y-61742D02*
X243524Y-61742D01*
X243524Y-79242D02*
X249874Y-79242D01*
X249874Y-84842D01*
X243524Y-84842D01*
X243524Y-79242D01*
X243524Y-83512D02*
X249874Y-83512D01*
X249874Y-82182D02*
X243524Y-82182D01*
X243524Y-80852D02*
X249874Y-80852D01*
X249874Y-79522D02*
X243524Y-79522D01*
X237242Y36449D02*
X237242Y42799D01*
X237242Y36449D02*
X231642Y36449D01*
X231642Y42799D01*
X237242Y42799D01*
X237242Y37779D02*
X231642Y37779D01*
X231642Y39109D02*
X237242Y39109D01*
X237242Y40439D02*
X231642Y40439D01*
X231642Y41769D02*
X237242Y41769D01*
X219462Y42799D02*
X219462Y36449D01*
X213862Y36449D01*
X213862Y42799D01*
X219462Y42799D01*
X219462Y37779D02*
X213862Y37779D01*
X213862Y39109D02*
X219462Y39109D01*
X219462Y40439D02*
X213862Y40439D01*
X213862Y41769D02*
X219462Y41769D01*
D22*
X204710Y-26540D03*
X209710Y-26540D03*
X214710Y-26540D03*
X219710Y-26540D03*
X224710Y-26540D03*
X229710Y-26540D03*
X234710Y-26540D03*
D23*
X243710Y-17540D03*
X243710Y-12540D03*
X243710Y-7540D03*
X243710Y-2540D03*
X243710Y2460D03*
X243710Y7460D03*
X243710Y12460D03*
D22*
X234710Y21460D03*
X229710Y21460D03*
X224710Y21460D03*
X219710Y21460D03*
X214710Y21460D03*
X209710Y21460D03*
X204710Y21460D03*
D23*
X195710Y12460D03*
X195710Y7460D03*
X195710Y2460D03*
X195710Y-2540D03*
X195710Y-7540D03*
X195710Y-12540D03*
X195710Y-17540D03*
D24*
X219710Y-2540D03*
D25*
X215628Y74676D03*
D26*
X180628Y64676D03*
X180628Y84676D03*
D14*
X167005Y58922D02*
X160655Y58922D01*
X160655Y64522D01*
X167005Y64522D01*
X167005Y58922D01*
X167005Y60252D02*
X160655Y60252D01*
X160655Y61582D02*
X167005Y61582D01*
X167005Y62912D02*
X160655Y62912D01*
X160655Y64242D02*
X167005Y64242D01*
X167005Y76702D02*
X160655Y76702D01*
X160655Y82302D01*
X167005Y82302D01*
X167005Y76702D01*
X167005Y78032D02*
X160655Y78032D01*
X160655Y79362D02*
X167005Y79362D01*
X167005Y80692D02*
X160655Y80692D01*
X160655Y82022D02*
X167005Y82022D01*
X248031Y48762D02*
X254381Y48762D01*
X248031Y48762D02*
X248031Y54362D01*
X254381Y54362D01*
X254381Y48762D01*
X254381Y50092D02*
X248031Y50092D01*
X248031Y51422D02*
X254381Y51422D01*
X254381Y52752D02*
X248031Y52752D01*
X248031Y54082D02*
X254381Y54082D01*
X254381Y66542D02*
X248031Y66542D01*
X248031Y72142D01*
X254381Y72142D01*
X254381Y66542D01*
X254381Y67872D02*
X248031Y67872D01*
X248031Y69202D02*
X254381Y69202D01*
X254381Y70532D02*
X248031Y70532D01*
X248031Y71862D02*
X254381Y71862D01*
X242697Y48762D02*
X236347Y48762D01*
X236347Y54362D01*
X242697Y54362D01*
X242697Y48762D01*
X242697Y50092D02*
X236347Y50092D01*
X236347Y51422D02*
X242697Y51422D01*
X242697Y52752D02*
X236347Y52752D01*
X236347Y54082D02*
X242697Y54082D01*
X242697Y66542D02*
X236347Y66542D01*
X236347Y72142D01*
X242697Y72142D01*
X242697Y66542D01*
X242697Y67872D02*
X236347Y67872D01*
X236347Y69202D02*
X242697Y69202D01*
X242697Y70532D02*
X236347Y70532D01*
X236347Y71862D02*
X242697Y71862D01*
D27*
X169830Y30100D02*
X157830Y30100D01*
X169830Y30100D02*
X169830Y22100D01*
X157830Y22100D01*
X157830Y30100D01*
X157830Y24000D02*
X169830Y24000D01*
X169830Y25900D02*
X157830Y25900D01*
X157830Y27800D02*
X169830Y27800D01*
X169830Y29700D02*
X157830Y29700D01*
X157830Y54100D02*
X169830Y54100D01*
X169830Y46100D01*
X157830Y46100D01*
X157830Y54100D01*
X157830Y48000D02*
X169830Y48000D01*
X169830Y49900D02*
X157830Y49900D01*
X157830Y51800D02*
X169830Y51800D01*
X169830Y53700D02*
X157830Y53700D01*
X157830Y-35180D02*
X169830Y-35180D01*
X157830Y-35180D02*
X157830Y-27180D01*
X169830Y-27180D01*
X169830Y-35180D01*
X169830Y-33280D02*
X157830Y-33280D01*
X157830Y-31380D02*
X169830Y-31380D01*
X169830Y-29480D02*
X157830Y-29480D01*
X157830Y-27580D02*
X169830Y-27580D01*
X169830Y-59180D02*
X157830Y-59180D01*
X157830Y-51180D01*
X169830Y-51180D01*
X169830Y-59180D01*
X169830Y-57280D02*
X157830Y-57280D01*
X157830Y-55380D02*
X169830Y-55380D01*
X169830Y-53480D02*
X157830Y-53480D01*
X157830Y-51580D02*
X169830Y-51580D01*
D28*
X156056Y-79814D02*
X156056Y-93414D01*
X156056Y-79814D02*
X170656Y-79814D01*
X170656Y-93414D01*
X156056Y-93414D01*
X156056Y-90184D02*
X170656Y-90184D01*
X170656Y-86954D02*
X156056Y-86954D01*
X156056Y-83724D02*
X170656Y-83724D01*
X170656Y-80494D02*
X156056Y-80494D01*
X192056Y-79814D02*
X192056Y-93414D01*
X192056Y-79814D02*
X206656Y-79814D01*
X206656Y-93414D01*
X192056Y-93414D01*
X192056Y-90184D02*
X206656Y-90184D01*
X206656Y-86954D02*
X192056Y-86954D01*
X192056Y-83724D02*
X206656Y-83724D01*
X206656Y-80494D02*
X192056Y-80494D01*
D14*
X183515Y27680D02*
X177165Y27680D01*
X177165Y33280D01*
X183515Y33280D01*
X183515Y27680D01*
X183515Y29010D02*
X177165Y29010D01*
X177165Y30340D02*
X183515Y30340D01*
X183515Y31670D02*
X177165Y31670D01*
X177165Y33000D02*
X183515Y33000D01*
X183515Y45460D02*
X177165Y45460D01*
X177165Y51060D01*
X183515Y51060D01*
X183515Y45460D01*
X183515Y46790D02*
X177165Y46790D01*
X177165Y48120D02*
X183515Y48120D01*
X183515Y49450D02*
X177165Y49450D01*
X177165Y50780D02*
X183515Y50780D01*
X183515Y-32760D02*
X177165Y-32760D01*
X183515Y-32760D02*
X183515Y-38360D01*
X177165Y-38360D01*
X177165Y-32760D01*
X177165Y-37030D02*
X183515Y-37030D01*
X183515Y-35700D02*
X177165Y-35700D01*
X177165Y-34370D02*
X183515Y-34370D01*
X183515Y-33040D02*
X177165Y-33040D01*
X177165Y-50540D02*
X183515Y-50540D01*
X183515Y-56140D01*
X177165Y-56140D01*
X177165Y-50540D01*
X177165Y-54810D02*
X183515Y-54810D01*
X183515Y-53480D02*
X177165Y-53480D01*
X177165Y-52150D02*
X183515Y-52150D01*
X183515Y-50820D02*
X177165Y-50820D01*
D29*
X337544Y40520D03*
X337544Y35520D03*
X337544Y30520D03*
X337544Y25520D03*
D30*
X343194Y24870D03*
X348194Y24870D03*
D29*
X353844Y25520D03*
X353844Y30520D03*
X353844Y35520D03*
X353844Y40520D03*
D30*
X348194Y41170D03*
X343194Y41170D03*
D14*
X319284Y28575D02*
X319284Y22225D01*
X313684Y22225D01*
X313684Y28575D01*
X319284Y28575D01*
X319284Y23555D02*
X313684Y23555D01*
X313684Y24885D02*
X319284Y24885D01*
X319284Y26215D02*
X313684Y26215D01*
X313684Y27545D02*
X319284Y27545D01*
X301504Y28575D02*
X301504Y22225D01*
X295904Y22225D01*
X295904Y28575D01*
X301504Y28575D01*
X301504Y23555D02*
X295904Y23555D01*
X295904Y24885D02*
X301504Y24885D01*
X301504Y26215D02*
X295904Y26215D01*
X295904Y27545D02*
X301504Y27545D01*
X295904Y38735D02*
X295904Y45085D01*
X301504Y45085D01*
X301504Y38735D01*
X295904Y38735D01*
X295904Y40065D02*
X301504Y40065D01*
X301504Y41395D02*
X295904Y41395D01*
X295904Y42725D02*
X301504Y42725D01*
X301504Y44055D02*
X295904Y44055D01*
X313684Y45085D02*
X313684Y38735D01*
X313684Y45085D02*
X319284Y45085D01*
X319284Y38735D01*
X313684Y38735D01*
X313684Y40065D02*
X319284Y40065D01*
X319284Y41395D02*
X313684Y41395D01*
X313684Y42725D02*
X319284Y42725D01*
X319284Y44055D02*
X313684Y44055D01*
D31*
X-84735Y-142740D03*
D32*
X-93051Y-142740D03*
D33*
X-101890Y-142740D03*
D34*
X-111727Y-142740D03*
D31*
X-33935Y-142740D03*
D32*
X-42251Y-142740D03*
D33*
X-51090Y-142740D03*
D34*
X-60927Y-142740D03*
D31*
X16865Y-142740D03*
D32*
X8549Y-142740D03*
D33*
X-290Y-142740D03*
D34*
X-10127Y-142740D03*
D31*
X67665Y-142740D03*
D32*
X59349Y-142740D03*
D33*
X50510Y-142740D03*
D34*
X40673Y-142740D03*
D31*
X118465Y-142740D03*
D32*
X110149Y-142740D03*
D33*
X101310Y-142740D03*
D34*
X91473Y-142740D03*
D14*
X-104400Y-130810D02*
X-104400Y-124460D01*
X-98800Y-124460D01*
X-98800Y-130810D01*
X-104400Y-130810D01*
X-104400Y-129480D02*
X-98800Y-129480D01*
X-98800Y-128150D02*
X-104400Y-128150D01*
X-104400Y-126820D02*
X-98800Y-126820D01*
X-98800Y-125490D02*
X-104400Y-125490D01*
X-86620Y-124460D02*
X-86620Y-130810D01*
X-86620Y-124460D02*
X-81020Y-124460D01*
X-81020Y-130810D01*
X-86620Y-130810D01*
X-86620Y-129480D02*
X-81020Y-129480D01*
X-81020Y-128150D02*
X-86620Y-128150D01*
X-86620Y-126820D02*
X-81020Y-126820D01*
X-81020Y-125490D02*
X-86620Y-125490D01*
X-53600Y-124460D02*
X-53600Y-130810D01*
X-53600Y-124460D02*
X-48000Y-124460D01*
X-48000Y-130810D01*
X-53600Y-130810D01*
X-53600Y-129480D02*
X-48000Y-129480D01*
X-48000Y-128150D02*
X-53600Y-128150D01*
X-53600Y-126820D02*
X-48000Y-126820D01*
X-48000Y-125490D02*
X-53600Y-125490D01*
X-35820Y-124460D02*
X-35820Y-130810D01*
X-35820Y-124460D02*
X-30220Y-124460D01*
X-30220Y-130810D01*
X-35820Y-130810D01*
X-35820Y-129480D02*
X-30220Y-129480D01*
X-30220Y-128150D02*
X-35820Y-128150D01*
X-35820Y-126820D02*
X-30220Y-126820D01*
X-30220Y-125490D02*
X-35820Y-125490D01*
X-2800Y-124460D02*
X-2800Y-130810D01*
X-2800Y-124460D02*
X2800Y-124460D01*
X2800Y-130810D01*
X-2800Y-130810D01*
X-2800Y-129480D02*
X2800Y-129480D01*
X2800Y-128150D02*
X-2800Y-128150D01*
X-2800Y-126820D02*
X2800Y-126820D01*
X2800Y-125490D02*
X-2800Y-125490D01*
X14980Y-124460D02*
X14980Y-130810D01*
X14980Y-124460D02*
X20580Y-124460D01*
X20580Y-130810D01*
X14980Y-130810D01*
X14980Y-129480D02*
X20580Y-129480D01*
X20580Y-128150D02*
X14980Y-128150D01*
X14980Y-126820D02*
X20580Y-126820D01*
X20580Y-125490D02*
X14980Y-125490D01*
X48000Y-124460D02*
X48000Y-130810D01*
X48000Y-124460D02*
X53600Y-124460D01*
X53600Y-130810D01*
X48000Y-130810D01*
X48000Y-129480D02*
X53600Y-129480D01*
X53600Y-128150D02*
X48000Y-128150D01*
X48000Y-126820D02*
X53600Y-126820D01*
X53600Y-125490D02*
X48000Y-125490D01*
X65780Y-124460D02*
X65780Y-130810D01*
X65780Y-124460D02*
X71380Y-124460D01*
X71380Y-130810D01*
X65780Y-130810D01*
X65780Y-129480D02*
X71380Y-129480D01*
X71380Y-128150D02*
X65780Y-128150D01*
X65780Y-126820D02*
X71380Y-126820D01*
X71380Y-125490D02*
X65780Y-125490D01*
X98800Y-124460D02*
X98800Y-130810D01*
X98800Y-124460D02*
X104400Y-124460D01*
X104400Y-130810D01*
X98800Y-130810D01*
X98800Y-129480D02*
X104400Y-129480D01*
X104400Y-128150D02*
X98800Y-128150D01*
X98800Y-126820D02*
X104400Y-126820D01*
X104400Y-125490D02*
X98800Y-125490D01*
X116580Y-124460D02*
X116580Y-130810D01*
X116580Y-124460D02*
X122180Y-124460D01*
X122180Y-130810D01*
X116580Y-130810D01*
X116580Y-129480D02*
X122180Y-129480D01*
X122180Y-128150D02*
X116580Y-128150D01*
X116580Y-126820D02*
X122180Y-126820D01*
X122180Y-125490D02*
X116580Y-125490D01*
D35*
X380167Y-122696D03*
X342717Y-122696D03*
D36*
X326192Y-128146D03*
X396692Y-128146D03*
D35*
X209225Y-122696D03*
X171775Y-122696D03*
D36*
X155250Y-128146D03*
X225750Y-128146D03*
D35*
X-179197Y-122696D03*
X-216647Y-122696D03*
D36*
X-233172Y-128146D03*
X-162672Y-128146D03*
D14*
X392170Y-95377D02*
X392170Y-89027D01*
X397770Y-89027D01*
X397770Y-95377D01*
X392170Y-95377D01*
X392170Y-94047D02*
X397770Y-94047D01*
X397770Y-92717D02*
X392170Y-92717D01*
X392170Y-91387D02*
X397770Y-91387D01*
X397770Y-90057D02*
X392170Y-90057D01*
X409950Y-89027D02*
X409950Y-95377D01*
X409950Y-89027D02*
X415550Y-89027D01*
X415550Y-95377D01*
X409950Y-95377D01*
X409950Y-94047D02*
X415550Y-94047D01*
X415550Y-92717D02*
X409950Y-92717D01*
X409950Y-91387D02*
X415550Y-91387D01*
X415550Y-90057D02*
X409950Y-90057D01*
X244850Y-141859D02*
X244850Y-148209D01*
X244850Y-141859D02*
X250450Y-141859D01*
X250450Y-148209D01*
X244850Y-148209D01*
X244850Y-146879D02*
X250450Y-146879D01*
X250450Y-145549D02*
X244850Y-145549D01*
X244850Y-144219D02*
X250450Y-144219D01*
X250450Y-142889D02*
X244850Y-142889D01*
X262630Y-141859D02*
X262630Y-148209D01*
X262630Y-141859D02*
X268230Y-141859D01*
X268230Y-148209D01*
X262630Y-148209D01*
X262630Y-146879D02*
X268230Y-146879D01*
X268230Y-145549D02*
X262630Y-145549D01*
X262630Y-144219D02*
X268230Y-144219D01*
X268230Y-142889D02*
X262630Y-142889D01*
X-145548Y-133223D02*
X-145548Y-126873D01*
X-139948Y-126873D01*
X-139948Y-133223D01*
X-145548Y-133223D01*
X-145548Y-131893D02*
X-139948Y-131893D01*
X-139948Y-130563D02*
X-145548Y-130563D01*
X-145548Y-129233D02*
X-139948Y-129233D01*
X-139948Y-127903D02*
X-145548Y-127903D01*
X-127768Y-126873D02*
X-127768Y-133223D01*
X-127768Y-126873D02*
X-122168Y-126873D01*
X-122168Y-133223D01*
X-127768Y-133223D01*
X-127768Y-131893D02*
X-122168Y-131893D01*
X-122168Y-130563D02*
X-127768Y-130563D01*
X-127768Y-129233D02*
X-122168Y-129233D01*
X-122168Y-127903D02*
X-127768Y-127903D01*
X244850Y-129413D02*
X244850Y-135763D01*
X244850Y-129413D02*
X250450Y-129413D01*
X250450Y-135763D01*
X244850Y-135763D01*
X244850Y-134433D02*
X250450Y-134433D01*
X250450Y-133103D02*
X244850Y-133103D01*
X244850Y-131773D02*
X250450Y-131773D01*
X250450Y-130443D02*
X244850Y-130443D01*
X262630Y-129413D02*
X262630Y-135763D01*
X262630Y-129413D02*
X268230Y-129413D01*
X268230Y-135763D01*
X262630Y-135763D01*
X262630Y-134433D02*
X268230Y-134433D01*
X268230Y-133103D02*
X262630Y-133103D01*
X262630Y-131773D02*
X268230Y-131773D01*
X268230Y-130443D02*
X262630Y-130443D01*
X-145548Y-118491D02*
X-145548Y-112141D01*
X-139948Y-112141D01*
X-139948Y-118491D01*
X-145548Y-118491D01*
X-145548Y-117161D02*
X-139948Y-117161D01*
X-139948Y-115831D02*
X-145548Y-115831D01*
X-145548Y-114501D02*
X-139948Y-114501D01*
X-139948Y-113171D02*
X-145548Y-113171D01*
X-127768Y-112141D02*
X-127768Y-118491D01*
X-127768Y-112141D02*
X-122168Y-112141D01*
X-122168Y-118491D01*
X-127768Y-118491D01*
X-127768Y-117161D02*
X-122168Y-117161D01*
X-122168Y-115831D02*
X-127768Y-115831D01*
X-127768Y-114501D02*
X-122168Y-114501D01*
X-122168Y-113171D02*
X-127768Y-113171D01*
D37*
X-487680Y494D03*
X-487680Y10494D03*
X-487680Y20494D03*
D38*
X-517680Y-12506D03*
X-517680Y43494D03*
D37*
X-487680Y30494D03*
X-487680Y79234D03*
X-487680Y89234D03*
X-487680Y99234D03*
D38*
X-517680Y66234D03*
X-517680Y122234D03*
D37*
X-487680Y109234D03*
X-487680Y-98406D03*
X-487680Y-88406D03*
X-487680Y-78406D03*
X-487680Y-68406D03*
X-487680Y-58406D03*
X-487680Y-48406D03*
D38*
X-517680Y-111406D03*
X-517680Y-35406D03*
D14*
X300863Y137154D02*
X307213Y137154D01*
X300863Y137154D02*
X300863Y142754D01*
X307213Y142754D01*
X307213Y137154D01*
X307213Y138484D02*
X300863Y138484D01*
X300863Y139814D02*
X307213Y139814D01*
X307213Y141144D02*
X300863Y141144D01*
X300863Y142474D02*
X307213Y142474D01*
X307213Y154934D02*
X300863Y154934D01*
X300863Y160534D01*
X307213Y160534D01*
X307213Y154934D01*
X307213Y156264D02*
X300863Y156264D01*
X300863Y157594D02*
X307213Y157594D01*
X307213Y158924D02*
X300863Y158924D01*
X300863Y160254D02*
X307213Y160254D01*
X432666Y-87159D02*
X432666Y-93509D01*
X432666Y-87159D02*
X438266Y-87159D01*
X438266Y-93509D01*
X432666Y-93509D01*
X432666Y-92179D02*
X438266Y-92179D01*
X438266Y-90849D02*
X432666Y-90849D01*
X432666Y-89519D02*
X438266Y-89519D01*
X438266Y-88189D02*
X432666Y-88189D01*
X450446Y-87159D02*
X450446Y-93509D01*
X450446Y-87159D02*
X456046Y-87159D01*
X456046Y-93509D01*
X450446Y-93509D01*
X450446Y-92179D02*
X456046Y-92179D01*
X456046Y-90849D02*
X450446Y-90849D01*
X450446Y-89519D02*
X456046Y-89519D01*
X456046Y-88189D02*
X450446Y-88189D01*
X414046Y-81781D02*
X414046Y-75431D01*
X419646Y-75431D01*
X419646Y-81781D01*
X414046Y-81781D01*
X414046Y-80451D02*
X419646Y-80451D01*
X419646Y-79121D02*
X414046Y-79121D01*
X414046Y-77791D02*
X419646Y-77791D01*
X419646Y-76461D02*
X414046Y-76461D01*
X431826Y-75431D02*
X431826Y-81781D01*
X431826Y-75431D02*
X437426Y-75431D01*
X437426Y-81781D01*
X431826Y-81781D01*
X431826Y-80451D02*
X437426Y-80451D01*
X437426Y-79121D02*
X431826Y-79121D01*
X431826Y-77791D02*
X437426Y-77791D01*
X437426Y-76461D02*
X431826Y-76461D01*
D39*
X520784Y-54054D02*
X529200Y-54054D01*
X529200Y-65570D01*
X520784Y-65570D01*
X520784Y-54054D01*
X520784Y-64159D02*
X529200Y-64159D01*
X529200Y-62748D02*
X520784Y-62748D01*
X520784Y-61337D02*
X529200Y-61337D01*
X529200Y-59926D02*
X520784Y-59926D01*
X520784Y-58515D02*
X529200Y-58515D01*
X529200Y-57104D02*
X520784Y-57104D01*
X520784Y-55693D02*
X529200Y-55693D01*
X529200Y-54282D02*
X520784Y-54282D01*
D40*
X510300Y-53754D02*
X505284Y-53754D01*
X510300Y-53754D02*
X510300Y-65870D01*
X505284Y-65870D01*
X505284Y-53754D01*
X505284Y-65029D02*
X510300Y-65029D01*
X510300Y-64188D02*
X505284Y-64188D01*
X505284Y-63347D02*
X510300Y-63347D01*
X510300Y-62506D02*
X505284Y-62506D01*
X505284Y-61665D02*
X510300Y-61665D01*
X510300Y-60824D02*
X505284Y-60824D01*
X505284Y-59983D02*
X510300Y-59983D01*
X510300Y-59142D02*
X505284Y-59142D01*
X505284Y-58301D02*
X510300Y-58301D01*
X510300Y-57460D02*
X505284Y-57460D01*
X505284Y-56619D02*
X510300Y-56619D01*
X510300Y-55778D02*
X505284Y-55778D01*
X505284Y-54937D02*
X510300Y-54937D01*
X510300Y-54096D02*
X505284Y-54096D01*
X505284Y-74254D02*
X510300Y-74254D01*
X510300Y-86370D01*
X505284Y-86370D01*
X505284Y-74254D01*
X505284Y-85529D02*
X510300Y-85529D01*
X510300Y-84688D02*
X505284Y-84688D01*
X505284Y-83847D02*
X510300Y-83847D01*
X510300Y-83006D02*
X505284Y-83006D01*
X505284Y-82165D02*
X510300Y-82165D01*
X510300Y-81324D02*
X505284Y-81324D01*
X505284Y-80483D02*
X510300Y-80483D01*
X510300Y-79642D02*
X505284Y-79642D01*
X505284Y-78801D02*
X510300Y-78801D01*
X510300Y-77960D02*
X505284Y-77960D01*
X505284Y-77119D02*
X510300Y-77119D01*
X510300Y-76278D02*
X505284Y-76278D01*
X505284Y-75437D02*
X510300Y-75437D01*
X510300Y-74596D02*
X505284Y-74596D01*
X524484Y-74254D02*
X529500Y-74254D01*
X529500Y-86370D01*
X524484Y-86370D01*
X524484Y-74254D01*
X524484Y-85529D02*
X529500Y-85529D01*
X529500Y-84688D02*
X524484Y-84688D01*
X524484Y-83847D02*
X529500Y-83847D01*
X529500Y-83006D02*
X524484Y-83006D01*
X524484Y-82165D02*
X529500Y-82165D01*
X529500Y-81324D02*
X524484Y-81324D01*
X524484Y-80483D02*
X529500Y-80483D01*
X529500Y-79642D02*
X524484Y-79642D01*
X524484Y-78801D02*
X529500Y-78801D01*
X529500Y-77960D02*
X524484Y-77960D01*
X524484Y-77119D02*
X529500Y-77119D01*
X529500Y-76278D02*
X524484Y-76278D01*
X524484Y-75437D02*
X529500Y-75437D01*
X529500Y-74596D02*
X524484Y-74596D01*
D41*
X511570Y45141D03*
X511570Y7691D03*
D42*
X517020Y-8834D03*
X517020Y61666D03*
D14*
X487045Y48012D02*
X480695Y48012D01*
X487045Y48012D02*
X487045Y42412D01*
X480695Y42412D01*
X480695Y48012D01*
X480695Y43742D02*
X487045Y43742D01*
X487045Y45072D02*
X480695Y45072D01*
X480695Y46402D02*
X487045Y46402D01*
X487045Y47732D02*
X480695Y47732D01*
X480695Y30232D02*
X487045Y30232D01*
X487045Y24632D01*
X480695Y24632D01*
X480695Y30232D01*
X480695Y25962D02*
X487045Y25962D01*
X487045Y27292D02*
X480695Y27292D01*
X480695Y28622D02*
X487045Y28622D01*
X487045Y29952D02*
X480695Y29952D01*
X537845Y144520D02*
X544195Y144520D01*
X537845Y144520D02*
X537845Y150120D01*
X544195Y150120D01*
X544195Y144520D01*
X544195Y145850D02*
X537845Y145850D01*
X537845Y147180D02*
X544195Y147180D01*
X544195Y148510D02*
X537845Y148510D01*
X537845Y149840D02*
X544195Y149840D01*
X544195Y162300D02*
X537845Y162300D01*
X537845Y167900D01*
X544195Y167900D01*
X544195Y162300D01*
X544195Y163630D02*
X537845Y163630D01*
X537845Y164960D02*
X544195Y164960D01*
X544195Y166290D02*
X537845Y166290D01*
X537845Y167620D02*
X544195Y167620D01*
D26*
X538568Y105324D03*
X538568Y126324D03*
D31*
X457835Y21160D03*
X467335Y160D03*
X448335Y160D03*
X457835Y45388D03*
X448335Y66388D03*
X467335Y66388D03*
D14*
X449707Y45345D02*
X443357Y45345D01*
X449707Y45345D02*
X449707Y39745D01*
X443357Y39745D01*
X443357Y45345D01*
X443357Y41075D02*
X449707Y41075D01*
X449707Y42405D02*
X443357Y42405D01*
X443357Y43735D02*
X449707Y43735D01*
X449707Y45065D02*
X443357Y45065D01*
X443357Y27565D02*
X449707Y27565D01*
X449707Y21965D01*
X443357Y21965D01*
X443357Y27565D01*
X443357Y23295D02*
X449707Y23295D01*
X449707Y24625D02*
X443357Y24625D01*
X443357Y25955D02*
X449707Y25955D01*
X449707Y27285D02*
X443357Y27285D01*
X465963Y21965D02*
X472313Y21965D01*
X465963Y21965D02*
X465963Y27565D01*
X472313Y27565D01*
X472313Y21965D01*
X472313Y23295D02*
X465963Y23295D01*
X465963Y24625D02*
X472313Y24625D01*
X472313Y25955D02*
X465963Y25955D01*
X465963Y27285D02*
X472313Y27285D01*
X472313Y39745D02*
X465963Y39745D01*
X465963Y45345D01*
X472313Y45345D01*
X472313Y39745D01*
X472313Y41075D02*
X465963Y41075D01*
X465963Y42405D02*
X472313Y42405D01*
X472313Y43735D02*
X465963Y43735D01*
X465963Y45065D02*
X472313Y45065D01*
X501136Y77597D02*
X501136Y83947D01*
X506736Y83947D01*
X506736Y77597D01*
X501136Y77597D01*
X501136Y78927D02*
X506736Y78927D01*
X506736Y80257D02*
X501136Y80257D01*
X501136Y81587D02*
X506736Y81587D01*
X506736Y82917D02*
X501136Y82917D01*
X518916Y83947D02*
X518916Y77597D01*
X518916Y83947D02*
X524516Y83947D01*
X524516Y77597D01*
X518916Y77597D01*
X518916Y78927D02*
X524516Y78927D01*
X524516Y80257D02*
X518916Y80257D01*
X518916Y81587D02*
X524516Y81587D01*
X524516Y82917D02*
X518916Y82917D01*
X427234Y-11049D02*
X427234Y-17399D01*
X421634Y-17399D01*
X421634Y-11049D01*
X427234Y-11049D01*
X427234Y-16069D02*
X421634Y-16069D01*
X421634Y-14739D02*
X427234Y-14739D01*
X427234Y-13409D02*
X421634Y-13409D01*
X421634Y-12079D02*
X427234Y-12079D01*
X409454Y-11049D02*
X409454Y-17399D01*
X403854Y-17399D01*
X403854Y-11049D01*
X409454Y-11049D01*
X409454Y-16069D02*
X403854Y-16069D01*
X403854Y-14739D02*
X409454Y-14739D01*
X409454Y-13409D02*
X403854Y-13409D01*
X403854Y-12079D02*
X409454Y-12079D01*
X427234Y-2413D02*
X427234Y3937D01*
X427234Y-2413D02*
X421634Y-2413D01*
X421634Y3937D01*
X427234Y3937D01*
X427234Y-1083D02*
X421634Y-1083D01*
X421634Y247D02*
X427234Y247D01*
X427234Y1577D02*
X421634Y1577D01*
X421634Y2907D02*
X427234Y2907D01*
X409454Y3937D02*
X409454Y-2413D01*
X403854Y-2413D01*
X403854Y3937D01*
X409454Y3937D01*
X409454Y-1083D02*
X403854Y-1083D01*
X403854Y247D02*
X409454Y247D01*
X409454Y1577D02*
X403854Y1577D01*
X403854Y2907D02*
X409454Y2907D01*
X427234Y11557D02*
X427234Y17907D01*
X427234Y11557D02*
X421634Y11557D01*
X421634Y17907D01*
X427234Y17907D01*
X427234Y12887D02*
X421634Y12887D01*
X421634Y14217D02*
X427234Y14217D01*
X427234Y15547D02*
X421634Y15547D01*
X421634Y16877D02*
X427234Y16877D01*
X409454Y17907D02*
X409454Y11557D01*
X403854Y11557D01*
X403854Y17907D01*
X409454Y17907D01*
X409454Y12887D02*
X403854Y12887D01*
X403854Y14217D02*
X409454Y14217D01*
X409454Y15547D02*
X403854Y15547D01*
X403854Y16877D02*
X409454Y16877D01*
X319030Y241427D02*
X319030Y247777D01*
X319030Y241427D02*
X313430Y241427D01*
X313430Y247777D01*
X319030Y247777D01*
X319030Y242757D02*
X313430Y242757D01*
X313430Y244087D02*
X319030Y244087D01*
X319030Y245417D02*
X313430Y245417D01*
X313430Y246747D02*
X319030Y246747D01*
X301250Y247777D02*
X301250Y241427D01*
X295650Y241427D01*
X295650Y247777D01*
X301250Y247777D01*
X301250Y242757D02*
X295650Y242757D01*
X295650Y244087D02*
X301250Y244087D01*
X301250Y245417D02*
X295650Y245417D01*
X295650Y246747D02*
X301250Y246747D01*
X319030Y253619D02*
X319030Y259969D01*
X319030Y253619D02*
X313430Y253619D01*
X313430Y259969D01*
X319030Y259969D01*
X319030Y254949D02*
X313430Y254949D01*
X313430Y256279D02*
X319030Y256279D01*
X319030Y257609D02*
X313430Y257609D01*
X313430Y258939D02*
X319030Y258939D01*
X301250Y259969D02*
X301250Y253619D01*
X295650Y253619D01*
X295650Y259969D01*
X301250Y259969D01*
X301250Y254949D02*
X295650Y254949D01*
X295650Y256279D02*
X301250Y256279D01*
X301250Y257609D02*
X295650Y257609D01*
X295650Y258939D02*
X301250Y258939D01*
X319284Y265811D02*
X319284Y272161D01*
X319284Y265811D02*
X313684Y265811D01*
X313684Y272161D01*
X319284Y272161D01*
X319284Y267141D02*
X313684Y267141D01*
X313684Y268471D02*
X319284Y268471D01*
X319284Y269801D02*
X313684Y269801D01*
X313684Y271131D02*
X319284Y271131D01*
X301504Y272161D02*
X301504Y265811D01*
X295904Y265811D01*
X295904Y272161D01*
X301504Y272161D01*
X301504Y267141D02*
X295904Y267141D01*
X295904Y268471D02*
X301504Y268471D01*
X301504Y269801D02*
X295904Y269801D01*
X295904Y271131D02*
X301504Y271131D01*
D43*
X458170Y-115530D03*
X464670Y-115530D03*
X471170Y-115530D03*
X477670Y-115530D03*
X484170Y-115530D03*
M02*
