G04 EAGLE Gerber RS-274X export*
G75*
%MOMM*%
%FSLAX34Y34*%
%LPD*%
%INSoldermask Bottom*%
%IPPOS*%
%AMOC8*
5,1,8,0,0,1.08239X$1,22.5*%
G01*
G04 Define Apertures*
%ADD10C,2.235200*%
%ADD11C,3.003200*%
%ADD12C,1.727200*%
%ADD13C,1.303200*%
%ADD14C,0.756400*%
D10*
X78740Y-91240D03*
X78740Y-66240D03*
X-67310Y21390D03*
X-67310Y-3610D03*
X110331Y-24384D03*
X110331Y1016D03*
X110331Y26416D03*
X110331Y51816D03*
X-115411Y51816D03*
X-115411Y26416D03*
X-115411Y1016D03*
X-115411Y-24384D03*
D11*
X-467760Y299744D03*
X-517760Y299744D03*
D12*
X-273050Y86360D03*
X-273050Y60960D03*
X-273050Y35560D03*
X-273050Y10160D03*
X-273050Y-15240D03*
X-273050Y-40640D03*
X-273050Y-66040D03*
X-273050Y-91440D03*
X-146050Y-91440D03*
X-146050Y-66040D03*
X-146050Y-40640D03*
X-146050Y-15240D03*
X-146050Y10160D03*
X-146050Y35560D03*
X-146050Y60960D03*
X-146050Y86360D03*
X267970Y-91440D03*
X267970Y-66040D03*
X267970Y-40640D03*
X267970Y-15240D03*
X267970Y10160D03*
X267970Y35560D03*
X267970Y60960D03*
X267970Y86360D03*
X140970Y86360D03*
X140970Y60960D03*
X140970Y35560D03*
X140970Y10160D03*
X140970Y-15240D03*
X140970Y-40640D03*
X140970Y-66040D03*
X140970Y-91440D03*
D10*
X63500Y64480D03*
X38100Y64480D03*
X12700Y64480D03*
X-12700Y64480D03*
X-38100Y64480D03*
X-63500Y64480D03*
X304800Y190500D03*
X304800Y220980D03*
D13*
X465670Y-134530D02*
X476670Y-134530D01*
X448670Y-113030D02*
X437670Y-113030D01*
X493670Y-113030D02*
X504670Y-113030D01*
D14*
X-224790Y-2540D03*
X-224790Y7620D03*
X-224790Y-12700D03*
X-214630Y-2540D03*
X-214630Y7620D03*
X-214630Y-12700D03*
X-234950Y-2540D03*
X-234950Y7620D03*
X-234950Y-12700D03*
X-256286Y-85852D03*
X-217170Y-55372D03*
X-201168Y-58166D03*
X-197612Y-53086D03*
X-251714Y86614D03*
X-194564Y-59182D03*
X219710Y-2540D03*
X219710Y-12700D03*
X219710Y7620D03*
X209550Y-2540D03*
X209550Y-12700D03*
X209550Y7620D03*
X229870Y-2540D03*
X229870Y-12700D03*
X229870Y7620D03*
X251206Y80772D03*
X212090Y50292D03*
X196088Y53086D03*
X192532Y48006D03*
X246634Y-91694D03*
X189484Y54102D03*
X-513080Y172720D03*
X-513080Y162560D03*
X-513080Y152400D03*
X-513080Y142240D03*
X-502920Y137160D03*
X-502920Y147320D03*
X-502920Y157480D03*
X-502920Y167640D03*
X-492760Y162560D03*
X-492760Y152400D03*
X-492760Y142240D03*
X-482600Y137160D03*
X-482600Y147320D03*
X-482600Y157480D03*
X-482600Y167640D03*
X-472440Y162560D03*
X-472440Y152400D03*
X-472440Y142240D03*
X-462280Y137160D03*
X-462280Y147320D03*
X-462280Y157480D03*
X-462280Y167640D03*
X-452120Y142240D03*
X-431800Y142240D03*
X-441960Y147320D03*
X-421640Y147320D03*
X-441960Y137160D03*
X-421640Y137160D03*
X-452120Y152400D03*
X-452120Y162560D03*
X387858Y213360D03*
X398018Y213360D03*
X408178Y213360D03*
X418338Y213360D03*
X413258Y203200D03*
X403098Y203200D03*
X392938Y203200D03*
X387858Y193040D03*
X398018Y193040D03*
X408178Y193040D03*
X418338Y193040D03*
X413258Y182880D03*
X403098Y182880D03*
X392938Y182880D03*
X387858Y172720D03*
X398018Y172720D03*
X408178Y172720D03*
X418338Y172720D03*
X423418Y182880D03*
X423418Y203200D03*
X382778Y203200D03*
X382778Y182880D03*
X-383540Y257810D03*
X-397510Y257810D03*
X-389890Y248920D03*
X-359410Y203200D03*
X-373380Y203200D03*
X-387350Y203200D03*
X276098Y-121920D03*
X-124460Y-102616D03*
X-472758Y30480D03*
X363474Y35560D03*
X-523240Y147320D03*
X-523240Y157480D03*
X-523240Y167640D03*
X-533400Y162560D03*
X-533400Y152400D03*
X-533400Y172720D03*
X186690Y-122682D03*
X361188Y76454D03*
X395224Y14986D03*
X395224Y762D03*
X395224Y-13970D03*
X-192786Y-27305D03*
X-187198Y-27305D03*
X-190246Y-22479D03*
X-190246Y17399D03*
X-186944Y22225D03*
X-192786Y22225D03*
X187706Y22225D03*
X182118Y22225D03*
X185166Y17399D03*
X185166Y-22479D03*
X181864Y-27305D03*
X187706Y-27305D03*
X-453652Y275366D03*
X-445398Y270620D03*
X-453652Y265096D03*
X-445398Y259334D03*
X-453780Y255016D03*
X197993Y-40640D03*
X195707Y-35052D03*
X191643Y-40132D03*
X-244602Y-85598D03*
X239522Y80518D03*
X-360680Y91440D03*
X-370840Y91440D03*
X-381000Y91440D03*
X-391160Y91440D03*
X-401320Y91440D03*
X-411480Y91440D03*
X-416560Y101600D03*
X-406400Y101600D03*
X-396240Y101600D03*
X-386080Y101600D03*
X-411480Y111760D03*
X423672Y-92238D03*
X-116332Y-109474D03*
X276606Y-134112D03*
X-101600Y-116840D03*
X-50800Y-116840D03*
X0Y-116840D03*
X50800Y-116840D03*
X101600Y-116840D03*
X-472758Y-58420D03*
X-472758Y20320D03*
X-472758Y99060D03*
X363474Y25400D03*
X346710Y257556D03*
X288861Y41847D03*
X288643Y25400D03*
X495046Y27432D03*
X444246Y-64516D03*
X524510Y197104D03*
X471170Y-84074D03*
X440218Y-42454D03*
X433070Y-49530D03*
X464592Y-91539D03*
X469138Y-13208D03*
X532130Y219202D03*
X478536Y-13462D03*
X538480Y231902D03*
X346710Y244348D03*
X456438Y31496D03*
X424942Y31750D03*
X329692Y48768D03*
X486410Y244348D03*
X-472758Y10160D03*
X30142Y-124460D03*
X326898Y35560D03*
X486410Y206502D03*
X-472504Y353D03*
X38354Y-131417D03*
X315020Y117856D03*
X315020Y130556D03*
X315020Y143256D03*
X-259846Y-16764D03*
X-256540Y-47244D03*
X-203073Y-40640D03*
X-200787Y-35052D03*
X-196723Y-40132D03*
X-203073Y35560D03*
X-200787Y29972D03*
X-196723Y35052D03*
X197993Y35560D03*
X195707Y29972D03*
X191643Y35052D03*
X254766Y11684D03*
X251460Y42164D03*
X466598Y117602D03*
X-100584Y-106680D03*
X-472758Y-78740D03*
X524002Y168402D03*
X-472758Y-99060D03*
X520954Y257048D03*
X-472758Y-88900D03*
X524256Y181102D03*
X311404Y-70612D03*
X360680Y231140D03*
X303800Y-81713D03*
X353568Y219202D03*
X315020Y155702D03*
X314960Y167640D03*
X-472758Y-68580D03*
X524002Y155702D03*
X346710Y181102D03*
M02*
