G04 EAGLE Gerber RS-274X export*
G75*
%MOMM*%
%FSLAX34Y34*%
%LPD*%
%INSoldermask Top*%
%IPPOS*%
%AMOC8*
5,1,8,0,0,1.08239X$1,22.5*%
G01*
G04 Define Apertures*
%ADD10C,2.235200*%
%ADD11R,2.753200X3.203200*%
%ADD12R,3.203200X2.753200*%
%ADD13R,1.403200X0.903200*%
%ADD14R,2.003200X2.403200*%
%ADD15C,0.343072*%
%ADD16R,2.703200X2.703200*%
%ADD17R,1.703200X1.103200*%
%ADD18R,1.103200X1.703200*%
%ADD19R,6.203200X6.203200*%
%ADD20R,1.403200X0.753200*%
%ADD21R,1.933200X3.253200*%
%ADD22R,2.903200X2.203200*%
%ADD23C,3.003200*%
%ADD24C,0.343216*%
%ADD25R,0.503200X1.353200*%
%ADD26R,1.353200X0.503200*%
%ADD27R,3.353200X3.353200*%
%ADD28R,1.703200X1.803200*%
%ADD29R,1.403200X1.403200*%
%ADD30C,0.409087*%
%ADD31C,0.551925*%
%ADD32C,1.727200*%
%ADD33R,0.613200X0.483200*%
%ADD34R,0.483200X0.613200*%
%ADD35R,1.003200X1.103200*%
%ADD36R,0.603200X1.103200*%
%ADD37R,0.803200X1.103200*%
%ADD38R,0.953200X1.103200*%
%ADD39R,1.408200X3.963200*%
%ADD40R,1.913200X4.393200*%
%ADD41R,1.753200X0.803200*%
%ADD42R,2.303200X1.003200*%
%ADD43C,0.346025*%
%ADD44C,0.293481*%
%ADD45R,3.963200X1.408200*%
%ADD46R,4.393200X1.913200*%
%ADD47R,0.653200X1.703200*%
%ADD48C,1.303200*%
%ADD49C,0.756400*%
D10*
X78740Y-91240D03*
X78740Y-66240D03*
X-67310Y21390D03*
X-67310Y-3610D03*
D11*
X-425450Y236550D03*
X-425450Y169850D03*
D12*
X-310820Y229870D03*
X-377520Y229870D03*
X-310820Y177800D03*
X-377520Y177800D03*
D10*
X110331Y-24384D03*
X110331Y1016D03*
X110331Y26416D03*
X110331Y51816D03*
X-115411Y51816D03*
X-115411Y26416D03*
X-115411Y1016D03*
X-115411Y-24384D03*
D13*
X-425020Y288900D03*
X-425020Y279400D03*
X-425020Y269900D03*
X-403020Y269900D03*
X-403020Y279400D03*
X-403020Y288900D03*
D14*
X-377730Y293930D03*
X-311730Y293930D03*
D15*
X447869Y-31249D02*
X454471Y-31249D01*
X454471Y-32651D01*
X447869Y-32651D01*
X447869Y-31249D01*
X447869Y-36249D02*
X454471Y-36249D01*
X454471Y-37651D01*
X447869Y-37651D01*
X447869Y-36249D01*
X447869Y-41249D02*
X454471Y-41249D01*
X454471Y-42651D01*
X447869Y-42651D01*
X447869Y-41249D01*
X447869Y-46249D02*
X454471Y-46249D01*
X454471Y-47651D01*
X447869Y-47651D01*
X447869Y-46249D01*
X447869Y-51249D02*
X454471Y-51249D01*
X454471Y-52651D01*
X447869Y-52651D01*
X447869Y-51249D01*
X447869Y-56249D02*
X454471Y-56249D01*
X454471Y-57651D01*
X447869Y-57651D01*
X447869Y-56249D01*
X459371Y-61149D02*
X459371Y-67751D01*
X457969Y-67751D01*
X457969Y-61149D01*
X459371Y-61149D01*
X459371Y-64492D02*
X457969Y-64492D01*
X457969Y-61233D02*
X459371Y-61233D01*
X464371Y-61149D02*
X464371Y-67751D01*
X462969Y-67751D01*
X462969Y-61149D01*
X464371Y-61149D01*
X464371Y-64492D02*
X462969Y-64492D01*
X462969Y-61233D02*
X464371Y-61233D01*
X469371Y-61149D02*
X469371Y-67751D01*
X467969Y-67751D01*
X467969Y-61149D01*
X469371Y-61149D01*
X469371Y-64492D02*
X467969Y-64492D01*
X467969Y-61233D02*
X469371Y-61233D01*
X474371Y-61149D02*
X474371Y-67751D01*
X472969Y-67751D01*
X472969Y-61149D01*
X474371Y-61149D01*
X474371Y-64492D02*
X472969Y-64492D01*
X472969Y-61233D02*
X474371Y-61233D01*
X479371Y-61149D02*
X479371Y-67751D01*
X477969Y-67751D01*
X477969Y-61149D01*
X479371Y-61149D01*
X479371Y-64492D02*
X477969Y-64492D01*
X477969Y-61233D02*
X479371Y-61233D01*
X484371Y-61149D02*
X484371Y-67751D01*
X482969Y-67751D01*
X482969Y-61149D01*
X484371Y-61149D01*
X484371Y-64492D02*
X482969Y-64492D01*
X482969Y-61233D02*
X484371Y-61233D01*
X487869Y-57651D02*
X494471Y-57651D01*
X487869Y-57651D02*
X487869Y-56249D01*
X494471Y-56249D01*
X494471Y-57651D01*
X494471Y-52651D02*
X487869Y-52651D01*
X487869Y-51249D01*
X494471Y-51249D01*
X494471Y-52651D01*
X494471Y-47651D02*
X487869Y-47651D01*
X487869Y-46249D01*
X494471Y-46249D01*
X494471Y-47651D01*
X494471Y-42651D02*
X487869Y-42651D01*
X487869Y-41249D01*
X494471Y-41249D01*
X494471Y-42651D01*
X494471Y-37651D02*
X487869Y-37651D01*
X487869Y-36249D01*
X494471Y-36249D01*
X494471Y-37651D01*
X494471Y-32651D02*
X487869Y-32651D01*
X487869Y-31249D01*
X494471Y-31249D01*
X494471Y-32651D01*
X482969Y-27751D02*
X482969Y-21149D01*
X484371Y-21149D01*
X484371Y-27751D01*
X482969Y-27751D01*
X482969Y-24492D02*
X484371Y-24492D01*
X484371Y-21233D02*
X482969Y-21233D01*
X477969Y-21149D02*
X477969Y-27751D01*
X477969Y-21149D02*
X479371Y-21149D01*
X479371Y-27751D01*
X477969Y-27751D01*
X477969Y-24492D02*
X479371Y-24492D01*
X479371Y-21233D02*
X477969Y-21233D01*
X472969Y-21149D02*
X472969Y-27751D01*
X472969Y-21149D02*
X474371Y-21149D01*
X474371Y-27751D01*
X472969Y-27751D01*
X472969Y-24492D02*
X474371Y-24492D01*
X474371Y-21233D02*
X472969Y-21233D01*
X467969Y-21149D02*
X467969Y-27751D01*
X467969Y-21149D02*
X469371Y-21149D01*
X469371Y-27751D01*
X467969Y-27751D01*
X467969Y-24492D02*
X469371Y-24492D01*
X469371Y-21233D02*
X467969Y-21233D01*
X462969Y-21149D02*
X462969Y-27751D01*
X462969Y-21149D02*
X464371Y-21149D01*
X464371Y-27751D01*
X462969Y-27751D01*
X462969Y-24492D02*
X464371Y-24492D01*
X464371Y-21233D02*
X462969Y-21233D01*
X457969Y-21149D02*
X457969Y-27751D01*
X457969Y-21149D02*
X459371Y-21149D01*
X459371Y-27751D01*
X457969Y-27751D01*
X457969Y-24492D02*
X459371Y-24492D01*
X459371Y-21233D02*
X457969Y-21233D01*
D16*
X471170Y-44450D03*
D17*
X332010Y270118D03*
X332010Y257418D03*
X332010Y244718D03*
X332010Y232018D03*
X332010Y219318D03*
X332010Y206618D03*
X332010Y193918D03*
X332010Y181218D03*
X332010Y168518D03*
X332010Y155818D03*
X332010Y143118D03*
X332010Y130418D03*
X332010Y117718D03*
X332010Y105018D03*
D18*
X361010Y91118D03*
X373710Y91118D03*
X386410Y91118D03*
X399110Y91118D03*
X411810Y91118D03*
X424510Y91118D03*
X437210Y91118D03*
X449910Y91118D03*
X462610Y91118D03*
X475310Y91118D03*
D17*
X504010Y105018D03*
X504010Y117718D03*
X504010Y130418D03*
X504010Y143118D03*
X504010Y155818D03*
X504010Y168518D03*
X504010Y181218D03*
X504010Y193918D03*
X504010Y206618D03*
X504010Y219318D03*
X504010Y232018D03*
X504010Y244718D03*
X504010Y257418D03*
X504010Y270118D03*
D19*
X403010Y193018D03*
D20*
X-342599Y106070D03*
X-342599Y115570D03*
X-342599Y125070D03*
X-368601Y125070D03*
X-368601Y106070D03*
D21*
X-470076Y234596D03*
X-518376Y234596D03*
D22*
X-468346Y193178D03*
X-521146Y193178D03*
D23*
X-467760Y299744D03*
X-517760Y299744D03*
D24*
X-413010Y314325D02*
X-413010Y320675D01*
X-407410Y320675D01*
X-407410Y314325D01*
X-413010Y314325D01*
X-413010Y317585D02*
X-407410Y317585D01*
X-395230Y320675D02*
X-395230Y314325D01*
X-395230Y320675D02*
X-389630Y320675D01*
X-389630Y314325D01*
X-395230Y314325D01*
X-395230Y317585D02*
X-389630Y317585D01*
X437540Y-61341D02*
X437540Y-67691D01*
X431940Y-67691D01*
X431940Y-61341D01*
X437540Y-61341D01*
X437540Y-64431D02*
X431940Y-64431D01*
X419760Y-61341D02*
X419760Y-67691D01*
X414160Y-67691D01*
X414160Y-61341D01*
X419760Y-61341D01*
X419760Y-64431D02*
X414160Y-64431D01*
X-315595Y92450D02*
X-321945Y92450D01*
X-321945Y98050D01*
X-315595Y98050D01*
X-315595Y92450D01*
X-315595Y95710D02*
X-321945Y95710D01*
X-321945Y110230D02*
X-315595Y110230D01*
X-321945Y110230D02*
X-321945Y115830D01*
X-315595Y115830D01*
X-315595Y110230D01*
X-315595Y113490D02*
X-321945Y113490D01*
X-381635Y112770D02*
X-387985Y112770D01*
X-387985Y118370D01*
X-381635Y118370D01*
X-381635Y112770D01*
X-381635Y116030D02*
X-387985Y116030D01*
X-387985Y130550D02*
X-381635Y130550D01*
X-387985Y130550D02*
X-387985Y136150D01*
X-381635Y136150D01*
X-381635Y130550D01*
X-381635Y133810D02*
X-387985Y133810D01*
X-394335Y112770D02*
X-400685Y112770D01*
X-400685Y118370D01*
X-394335Y118370D01*
X-394335Y112770D01*
X-394335Y116030D02*
X-400685Y116030D01*
X-400685Y130550D02*
X-394335Y130550D01*
X-400685Y130550D02*
X-400685Y136150D01*
X-394335Y136150D01*
X-394335Y130550D01*
X-394335Y133810D02*
X-400685Y133810D01*
X-329190Y127635D02*
X-329190Y121285D01*
X-329190Y127635D02*
X-323590Y127635D01*
X-323590Y121285D01*
X-329190Y121285D01*
X-329190Y124545D02*
X-323590Y124545D01*
X-311410Y127635D02*
X-311410Y121285D01*
X-311410Y127635D02*
X-305810Y127635D01*
X-305810Y121285D01*
X-311410Y121285D01*
X-311410Y124545D02*
X-305810Y124545D01*
X-227965Y57286D02*
X-221615Y57286D01*
X-227965Y57286D02*
X-227965Y62886D01*
X-221615Y62886D01*
X-221615Y57286D01*
X-221615Y60546D02*
X-227965Y60546D01*
X-227965Y75066D02*
X-221615Y75066D01*
X-227965Y75066D02*
X-227965Y80666D01*
X-221615Y80666D01*
X-221615Y75066D01*
X-221615Y78326D02*
X-227965Y78326D01*
X-239528Y46863D02*
X-239528Y40513D01*
X-239528Y46863D02*
X-233928Y46863D01*
X-233928Y40513D01*
X-239528Y40513D01*
X-239528Y43773D02*
X-233928Y43773D01*
X-221748Y46863D02*
X-221748Y40513D01*
X-221748Y46863D02*
X-216148Y46863D01*
X-216148Y40513D01*
X-221748Y40513D01*
X-221748Y43773D02*
X-216148Y43773D01*
X-248604Y56382D02*
X-254954Y56382D01*
X-254954Y61982D01*
X-248604Y61982D01*
X-248604Y56382D01*
X-248604Y59642D02*
X-254954Y59642D01*
X-254954Y74162D02*
X-248604Y74162D01*
X-254954Y74162D02*
X-254954Y79762D01*
X-248604Y79762D01*
X-248604Y74162D01*
X-248604Y77422D02*
X-254954Y77422D01*
X-242322Y-41529D02*
X-242322Y-47879D01*
X-242322Y-41529D02*
X-236722Y-41529D01*
X-236722Y-47879D01*
X-242322Y-47879D01*
X-242322Y-44619D02*
X-236722Y-44619D01*
X-224542Y-41529D02*
X-224542Y-47879D01*
X-224542Y-41529D02*
X-218942Y-41529D01*
X-218942Y-47879D01*
X-224542Y-47879D01*
X-224542Y-44619D02*
X-218942Y-44619D01*
D25*
X-209790Y21460D03*
X-214790Y21460D03*
X-219790Y21460D03*
X-224790Y21460D03*
X-229790Y21460D03*
X-234790Y21460D03*
X-239790Y21460D03*
D26*
X-248790Y12460D03*
X-248790Y7460D03*
X-248790Y2460D03*
X-248790Y-2540D03*
X-248790Y-7540D03*
X-248790Y-12540D03*
X-248790Y-17540D03*
D25*
X-239790Y-26540D03*
X-234790Y-26540D03*
X-229790Y-26540D03*
X-224790Y-26540D03*
X-219790Y-26540D03*
X-214790Y-26540D03*
X-209790Y-26540D03*
D26*
X-200790Y-17540D03*
X-200790Y-12540D03*
X-200790Y-7540D03*
X-200790Y-2540D03*
X-200790Y2460D03*
X-200790Y7460D03*
X-200790Y12460D03*
D27*
X-224790Y-2540D03*
D28*
X-220708Y-79756D03*
D29*
X-185708Y-69756D03*
X-185708Y-89756D03*
D24*
X-172085Y-64002D02*
X-165735Y-64002D01*
X-165735Y-69602D01*
X-172085Y-69602D01*
X-172085Y-64002D01*
X-172085Y-66342D02*
X-165735Y-66342D01*
X-165735Y-81782D02*
X-172085Y-81782D01*
X-165735Y-81782D02*
X-165735Y-87382D01*
X-172085Y-87382D01*
X-172085Y-81782D01*
X-172085Y-84122D02*
X-165735Y-84122D01*
X-253111Y-53842D02*
X-259461Y-53842D01*
X-253111Y-53842D02*
X-253111Y-59442D01*
X-259461Y-59442D01*
X-259461Y-53842D01*
X-259461Y-56182D02*
X-253111Y-56182D01*
X-253111Y-71622D02*
X-259461Y-71622D01*
X-253111Y-71622D02*
X-253111Y-77222D01*
X-259461Y-77222D01*
X-259461Y-71622D01*
X-259461Y-73962D02*
X-253111Y-73962D01*
X-247777Y-53842D02*
X-241427Y-53842D01*
X-241427Y-59442D01*
X-247777Y-59442D01*
X-247777Y-53842D01*
X-247777Y-56182D02*
X-241427Y-56182D01*
X-241427Y-71622D02*
X-247777Y-71622D01*
X-241427Y-71622D02*
X-241427Y-77222D01*
X-247777Y-77222D01*
X-247777Y-71622D01*
X-247777Y-73962D02*
X-241427Y-73962D01*
D30*
X-174881Y-35151D02*
X-162939Y-35151D01*
X-174881Y-35151D02*
X-174881Y-27209D01*
X-162939Y-27209D01*
X-162939Y-35151D01*
X-162939Y-31265D02*
X-174881Y-31265D01*
X-174881Y-27379D02*
X-162939Y-27379D01*
X-162939Y-59151D02*
X-174881Y-59151D01*
X-174881Y-51209D01*
X-162939Y-51209D01*
X-162939Y-59151D01*
X-162939Y-55265D02*
X-174881Y-55265D01*
X-174881Y-51379D02*
X-162939Y-51379D01*
X-162939Y30071D02*
X-174881Y30071D01*
X-162939Y30071D02*
X-162939Y22129D01*
X-174881Y22129D01*
X-174881Y30071D01*
X-174881Y26015D02*
X-162939Y26015D01*
X-162939Y29901D02*
X-174881Y29901D01*
X-174881Y54071D02*
X-162939Y54071D01*
X-162939Y46129D01*
X-174881Y46129D01*
X-174881Y54071D01*
X-174881Y50015D02*
X-162939Y50015D01*
X-162939Y53901D02*
X-174881Y53901D01*
D31*
X-161179Y74777D02*
X-161179Y88291D01*
X-161179Y74777D02*
X-175693Y74777D01*
X-175693Y88291D01*
X-161179Y88291D01*
X-161179Y80020D02*
X-175693Y80020D01*
X-175693Y85263D02*
X-161179Y85263D01*
X-197179Y88291D02*
X-197179Y74777D01*
X-211693Y74777D01*
X-211693Y88291D01*
X-197179Y88291D01*
X-197179Y80020D02*
X-211693Y80020D01*
X-211693Y85263D02*
X-197179Y85263D01*
D24*
X-188595Y-32760D02*
X-182245Y-32760D01*
X-182245Y-38360D01*
X-188595Y-38360D01*
X-188595Y-32760D01*
X-188595Y-35100D02*
X-182245Y-35100D01*
X-182245Y-50540D02*
X-188595Y-50540D01*
X-182245Y-50540D02*
X-182245Y-56140D01*
X-188595Y-56140D01*
X-188595Y-50540D01*
X-188595Y-52880D02*
X-182245Y-52880D01*
X-182245Y27680D02*
X-188595Y27680D01*
X-188595Y33280D01*
X-182245Y33280D01*
X-182245Y27680D01*
X-182245Y30940D02*
X-188595Y30940D01*
X-188595Y45460D02*
X-182245Y45460D01*
X-188595Y45460D02*
X-188595Y51060D01*
X-182245Y51060D01*
X-182245Y45460D01*
X-182245Y48720D02*
X-188595Y48720D01*
D32*
X-273050Y86360D03*
X-273050Y60960D03*
X-273050Y35560D03*
X-273050Y10160D03*
X-273050Y-15240D03*
X-273050Y-40640D03*
X-273050Y-66040D03*
X-273050Y-91440D03*
X-146050Y-91440D03*
X-146050Y-66040D03*
X-146050Y-40640D03*
X-146050Y-15240D03*
X-146050Y10160D03*
X-146050Y35560D03*
X-146050Y60960D03*
X-146050Y86360D03*
D24*
X216535Y-62366D02*
X222885Y-62366D01*
X222885Y-67966D01*
X216535Y-67966D01*
X216535Y-62366D01*
X216535Y-64706D02*
X222885Y-64706D01*
X222885Y-80146D02*
X216535Y-80146D01*
X222885Y-80146D02*
X222885Y-85746D01*
X216535Y-85746D01*
X216535Y-80146D01*
X216535Y-82486D02*
X222885Y-82486D01*
X234448Y-51943D02*
X234448Y-45593D01*
X234448Y-51943D02*
X228848Y-51943D01*
X228848Y-45593D01*
X234448Y-45593D01*
X234448Y-48683D02*
X228848Y-48683D01*
X216668Y-45593D02*
X216668Y-51943D01*
X211068Y-51943D01*
X211068Y-45593D01*
X216668Y-45593D01*
X216668Y-48683D02*
X211068Y-48683D01*
X243524Y-61462D02*
X249874Y-61462D01*
X249874Y-67062D01*
X243524Y-67062D01*
X243524Y-61462D01*
X243524Y-63802D02*
X249874Y-63802D01*
X249874Y-79242D02*
X243524Y-79242D01*
X249874Y-79242D02*
X249874Y-84842D01*
X243524Y-84842D01*
X243524Y-79242D01*
X243524Y-81582D02*
X249874Y-81582D01*
X237242Y36449D02*
X237242Y42799D01*
X237242Y36449D02*
X231642Y36449D01*
X231642Y42799D01*
X237242Y42799D01*
X237242Y39709D02*
X231642Y39709D01*
X219462Y42799D02*
X219462Y36449D01*
X213862Y36449D01*
X213862Y42799D01*
X219462Y42799D01*
X219462Y39709D02*
X213862Y39709D01*
D25*
X204710Y-26540D03*
X209710Y-26540D03*
X214710Y-26540D03*
X219710Y-26540D03*
X224710Y-26540D03*
X229710Y-26540D03*
X234710Y-26540D03*
D26*
X243710Y-17540D03*
X243710Y-12540D03*
X243710Y-7540D03*
X243710Y-2540D03*
X243710Y2460D03*
X243710Y7460D03*
X243710Y12460D03*
D25*
X234710Y21460D03*
X229710Y21460D03*
X224710Y21460D03*
X219710Y21460D03*
X214710Y21460D03*
X209710Y21460D03*
X204710Y21460D03*
D26*
X195710Y12460D03*
X195710Y7460D03*
X195710Y2460D03*
X195710Y-2540D03*
X195710Y-7540D03*
X195710Y-12540D03*
X195710Y-17540D03*
D27*
X219710Y-2540D03*
D28*
X215628Y74676D03*
D29*
X180628Y64676D03*
X180628Y84676D03*
D24*
X167005Y58922D02*
X160655Y58922D01*
X160655Y64522D01*
X167005Y64522D01*
X167005Y58922D01*
X167005Y62182D02*
X160655Y62182D01*
X160655Y76702D02*
X167005Y76702D01*
X160655Y76702D02*
X160655Y82302D01*
X167005Y82302D01*
X167005Y76702D01*
X167005Y79962D02*
X160655Y79962D01*
X248031Y48762D02*
X254381Y48762D01*
X248031Y48762D02*
X248031Y54362D01*
X254381Y54362D01*
X254381Y48762D01*
X254381Y52022D02*
X248031Y52022D01*
X248031Y66542D02*
X254381Y66542D01*
X248031Y66542D02*
X248031Y72142D01*
X254381Y72142D01*
X254381Y66542D01*
X254381Y69802D02*
X248031Y69802D01*
X242697Y48762D02*
X236347Y48762D01*
X236347Y54362D01*
X242697Y54362D01*
X242697Y48762D01*
X242697Y52022D02*
X236347Y52022D01*
X236347Y66542D02*
X242697Y66542D01*
X236347Y66542D02*
X236347Y72142D01*
X242697Y72142D01*
X242697Y66542D01*
X242697Y69802D02*
X236347Y69802D01*
D30*
X169801Y30071D02*
X157859Y30071D01*
X169801Y30071D02*
X169801Y22129D01*
X157859Y22129D01*
X157859Y30071D01*
X157859Y26015D02*
X169801Y26015D01*
X169801Y29901D02*
X157859Y29901D01*
X157859Y54071D02*
X169801Y54071D01*
X169801Y46129D01*
X157859Y46129D01*
X157859Y54071D01*
X157859Y50015D02*
X169801Y50015D01*
X169801Y53901D02*
X157859Y53901D01*
X157859Y-35151D02*
X169801Y-35151D01*
X157859Y-35151D02*
X157859Y-27209D01*
X169801Y-27209D01*
X169801Y-35151D01*
X169801Y-31265D02*
X157859Y-31265D01*
X157859Y-27379D02*
X169801Y-27379D01*
X169801Y-59151D02*
X157859Y-59151D01*
X157859Y-51209D01*
X169801Y-51209D01*
X169801Y-59151D01*
X169801Y-55265D02*
X157859Y-55265D01*
X157859Y-51379D02*
X169801Y-51379D01*
D31*
X156099Y-79857D02*
X156099Y-93371D01*
X156099Y-79857D02*
X170613Y-79857D01*
X170613Y-93371D01*
X156099Y-93371D01*
X156099Y-88128D02*
X170613Y-88128D01*
X170613Y-82885D02*
X156099Y-82885D01*
X192099Y-79857D02*
X192099Y-93371D01*
X192099Y-79857D02*
X206613Y-79857D01*
X206613Y-93371D01*
X192099Y-93371D01*
X192099Y-88128D02*
X206613Y-88128D01*
X206613Y-82885D02*
X192099Y-82885D01*
D24*
X183515Y27680D02*
X177165Y27680D01*
X177165Y33280D01*
X183515Y33280D01*
X183515Y27680D01*
X183515Y30940D02*
X177165Y30940D01*
X177165Y45460D02*
X183515Y45460D01*
X177165Y45460D02*
X177165Y51060D01*
X183515Y51060D01*
X183515Y45460D01*
X183515Y48720D02*
X177165Y48720D01*
X177165Y-32760D02*
X183515Y-32760D01*
X183515Y-38360D01*
X177165Y-38360D01*
X177165Y-32760D01*
X177165Y-35100D02*
X183515Y-35100D01*
X183515Y-50540D02*
X177165Y-50540D01*
X183515Y-50540D02*
X183515Y-56140D01*
X177165Y-56140D01*
X177165Y-50540D01*
X177165Y-52880D02*
X183515Y-52880D01*
D32*
X267970Y-91440D03*
X267970Y-66040D03*
X267970Y-40640D03*
X267970Y-15240D03*
X267970Y10160D03*
X267970Y35560D03*
X267970Y60960D03*
X267970Y86360D03*
X140970Y86360D03*
X140970Y60960D03*
X140970Y35560D03*
X140970Y10160D03*
X140970Y-15240D03*
X140970Y-40640D03*
X140970Y-66040D03*
X140970Y-91440D03*
D33*
X337544Y40520D03*
X337544Y35520D03*
X337544Y30520D03*
X337544Y25520D03*
D34*
X343194Y24870D03*
X348194Y24870D03*
D33*
X353844Y25520D03*
X353844Y30520D03*
X353844Y35520D03*
X353844Y40520D03*
D34*
X348194Y41170D03*
X343194Y41170D03*
D24*
X319284Y28575D02*
X319284Y22225D01*
X313684Y22225D01*
X313684Y28575D01*
X319284Y28575D01*
X319284Y25485D02*
X313684Y25485D01*
X301504Y28575D02*
X301504Y22225D01*
X295904Y22225D01*
X295904Y28575D01*
X301504Y28575D01*
X301504Y25485D02*
X295904Y25485D01*
X295904Y38735D02*
X295904Y45085D01*
X301504Y45085D01*
X301504Y38735D01*
X295904Y38735D01*
X295904Y41995D02*
X301504Y41995D01*
X313684Y45085D02*
X313684Y38735D01*
X313684Y45085D02*
X319284Y45085D01*
X319284Y38735D01*
X313684Y38735D01*
X313684Y41995D02*
X319284Y41995D01*
D35*
X-84735Y-142740D03*
D36*
X-93051Y-142740D03*
D37*
X-101890Y-142740D03*
D38*
X-111727Y-142740D03*
D35*
X-33935Y-142740D03*
D36*
X-42251Y-142740D03*
D37*
X-51090Y-142740D03*
D38*
X-60927Y-142740D03*
D35*
X16865Y-142740D03*
D36*
X8549Y-142740D03*
D37*
X-290Y-142740D03*
D38*
X-10127Y-142740D03*
D35*
X67665Y-142740D03*
D36*
X59349Y-142740D03*
D37*
X50510Y-142740D03*
D38*
X40673Y-142740D03*
D35*
X118465Y-142740D03*
D36*
X110149Y-142740D03*
D37*
X101310Y-142740D03*
D38*
X91473Y-142740D03*
D24*
X-104400Y-130810D02*
X-104400Y-124460D01*
X-98800Y-124460D01*
X-98800Y-130810D01*
X-104400Y-130810D01*
X-104400Y-127550D02*
X-98800Y-127550D01*
X-86620Y-124460D02*
X-86620Y-130810D01*
X-86620Y-124460D02*
X-81020Y-124460D01*
X-81020Y-130810D01*
X-86620Y-130810D01*
X-86620Y-127550D02*
X-81020Y-127550D01*
X-53600Y-124460D02*
X-53600Y-130810D01*
X-53600Y-124460D02*
X-48000Y-124460D01*
X-48000Y-130810D01*
X-53600Y-130810D01*
X-53600Y-127550D02*
X-48000Y-127550D01*
X-35820Y-124460D02*
X-35820Y-130810D01*
X-35820Y-124460D02*
X-30220Y-124460D01*
X-30220Y-130810D01*
X-35820Y-130810D01*
X-35820Y-127550D02*
X-30220Y-127550D01*
X-2800Y-124460D02*
X-2800Y-130810D01*
X-2800Y-124460D02*
X2800Y-124460D01*
X2800Y-130810D01*
X-2800Y-130810D01*
X-2800Y-127550D02*
X2800Y-127550D01*
X14980Y-124460D02*
X14980Y-130810D01*
X14980Y-124460D02*
X20580Y-124460D01*
X20580Y-130810D01*
X14980Y-130810D01*
X14980Y-127550D02*
X20580Y-127550D01*
X48000Y-124460D02*
X48000Y-130810D01*
X48000Y-124460D02*
X53600Y-124460D01*
X53600Y-130810D01*
X48000Y-130810D01*
X48000Y-127550D02*
X53600Y-127550D01*
X65780Y-124460D02*
X65780Y-130810D01*
X65780Y-124460D02*
X71380Y-124460D01*
X71380Y-130810D01*
X65780Y-130810D01*
X65780Y-127550D02*
X71380Y-127550D01*
X98800Y-124460D02*
X98800Y-130810D01*
X98800Y-124460D02*
X104400Y-124460D01*
X104400Y-130810D01*
X98800Y-130810D01*
X98800Y-127550D02*
X104400Y-127550D01*
X116580Y-124460D02*
X116580Y-130810D01*
X116580Y-124460D02*
X122180Y-124460D01*
X122180Y-130810D01*
X116580Y-130810D01*
X116580Y-127550D02*
X122180Y-127550D01*
D10*
X63500Y64480D03*
X38100Y64480D03*
X12700Y64480D03*
X-12700Y64480D03*
X-38100Y64480D03*
X-63500Y64480D03*
D39*
X380167Y-122696D03*
X342717Y-122696D03*
D40*
X326192Y-128146D03*
X396692Y-128146D03*
D39*
X209225Y-122696D03*
X171775Y-122696D03*
D40*
X155250Y-128146D03*
X225750Y-128146D03*
D39*
X-179197Y-122696D03*
X-216647Y-122696D03*
D40*
X-233172Y-128146D03*
X-162672Y-128146D03*
D24*
X392170Y-95377D02*
X392170Y-89027D01*
X397770Y-89027D01*
X397770Y-95377D01*
X392170Y-95377D01*
X392170Y-92117D02*
X397770Y-92117D01*
X409950Y-89027D02*
X409950Y-95377D01*
X409950Y-89027D02*
X415550Y-89027D01*
X415550Y-95377D01*
X409950Y-95377D01*
X409950Y-92117D02*
X415550Y-92117D01*
X244850Y-141859D02*
X244850Y-148209D01*
X244850Y-141859D02*
X250450Y-141859D01*
X250450Y-148209D01*
X244850Y-148209D01*
X244850Y-144949D02*
X250450Y-144949D01*
X262630Y-141859D02*
X262630Y-148209D01*
X262630Y-141859D02*
X268230Y-141859D01*
X268230Y-148209D01*
X262630Y-148209D01*
X262630Y-144949D02*
X268230Y-144949D01*
X-145548Y-133223D02*
X-145548Y-126873D01*
X-139948Y-126873D01*
X-139948Y-133223D01*
X-145548Y-133223D01*
X-145548Y-129963D02*
X-139948Y-129963D01*
X-127768Y-126873D02*
X-127768Y-133223D01*
X-127768Y-126873D02*
X-122168Y-126873D01*
X-122168Y-133223D01*
X-127768Y-133223D01*
X-127768Y-129963D02*
X-122168Y-129963D01*
X244850Y-129413D02*
X244850Y-135763D01*
X244850Y-129413D02*
X250450Y-129413D01*
X250450Y-135763D01*
X244850Y-135763D01*
X244850Y-132503D02*
X250450Y-132503D01*
X262630Y-129413D02*
X262630Y-135763D01*
X262630Y-129413D02*
X268230Y-129413D01*
X268230Y-135763D01*
X262630Y-135763D01*
X262630Y-132503D02*
X268230Y-132503D01*
X-145548Y-118491D02*
X-145548Y-112141D01*
X-139948Y-112141D01*
X-139948Y-118491D01*
X-145548Y-118491D01*
X-145548Y-115231D02*
X-139948Y-115231D01*
X-127768Y-112141D02*
X-127768Y-118491D01*
X-127768Y-112141D02*
X-122168Y-112141D01*
X-122168Y-118491D01*
X-127768Y-118491D01*
X-127768Y-115231D02*
X-122168Y-115231D01*
D41*
X-487680Y494D03*
X-487680Y10494D03*
X-487680Y20494D03*
D42*
X-517680Y-12506D03*
X-517680Y43494D03*
D41*
X-487680Y30494D03*
X-487680Y79234D03*
X-487680Y89234D03*
X-487680Y99234D03*
D42*
X-517680Y66234D03*
X-517680Y122234D03*
D41*
X-487680Y109234D03*
X-487680Y-98406D03*
X-487680Y-88406D03*
X-487680Y-78406D03*
X-487680Y-68406D03*
X-487680Y-58406D03*
X-487680Y-48406D03*
D42*
X-517680Y-111406D03*
X-517680Y-35406D03*
D24*
X300863Y137154D02*
X307213Y137154D01*
X300863Y137154D02*
X300863Y142754D01*
X307213Y142754D01*
X307213Y137154D01*
X307213Y140414D02*
X300863Y140414D01*
X300863Y154934D02*
X307213Y154934D01*
X300863Y154934D02*
X300863Y160534D01*
X307213Y160534D01*
X307213Y154934D01*
X307213Y158194D02*
X300863Y158194D01*
D10*
X304800Y190500D03*
X304800Y220980D03*
D24*
X432666Y-87159D02*
X432666Y-93509D01*
X432666Y-87159D02*
X438266Y-87159D01*
X438266Y-93509D01*
X432666Y-93509D01*
X432666Y-90249D02*
X438266Y-90249D01*
X450446Y-87159D02*
X450446Y-93509D01*
X450446Y-87159D02*
X456046Y-87159D01*
X456046Y-93509D01*
X450446Y-93509D01*
X450446Y-90249D02*
X456046Y-90249D01*
X414046Y-81781D02*
X414046Y-75431D01*
X419646Y-75431D01*
X419646Y-81781D01*
X414046Y-81781D01*
X414046Y-78521D02*
X419646Y-78521D01*
X431826Y-75431D02*
X431826Y-81781D01*
X431826Y-75431D02*
X437426Y-75431D01*
X437426Y-81781D01*
X431826Y-81781D01*
X431826Y-78521D02*
X437426Y-78521D01*
D43*
X520756Y-54026D02*
X529228Y-54026D01*
X529228Y-65598D01*
X520756Y-65598D01*
X520756Y-54026D01*
X520756Y-62311D02*
X529228Y-62311D01*
X529228Y-59024D02*
X520756Y-59024D01*
X520756Y-55737D02*
X529228Y-55737D01*
D44*
X510291Y-53763D02*
X505293Y-53763D01*
X510291Y-53763D02*
X510291Y-65861D01*
X505293Y-65861D01*
X505293Y-53763D01*
X505293Y-63073D02*
X510291Y-63073D01*
X510291Y-60285D02*
X505293Y-60285D01*
X505293Y-57497D02*
X510291Y-57497D01*
X510291Y-54709D02*
X505293Y-54709D01*
X505293Y-74263D02*
X510291Y-74263D01*
X510291Y-86361D01*
X505293Y-86361D01*
X505293Y-74263D01*
X505293Y-83573D02*
X510291Y-83573D01*
X510291Y-80785D02*
X505293Y-80785D01*
X505293Y-77997D02*
X510291Y-77997D01*
X510291Y-75209D02*
X505293Y-75209D01*
X524493Y-74263D02*
X529491Y-74263D01*
X529491Y-86361D01*
X524493Y-86361D01*
X524493Y-74263D01*
X524493Y-83573D02*
X529491Y-83573D01*
X529491Y-80785D02*
X524493Y-80785D01*
X524493Y-77997D02*
X529491Y-77997D01*
X529491Y-75209D02*
X524493Y-75209D01*
D45*
X511570Y45141D03*
X511570Y7691D03*
D46*
X517020Y-8834D03*
X517020Y61666D03*
D24*
X487045Y48012D02*
X480695Y48012D01*
X487045Y48012D02*
X487045Y42412D01*
X480695Y42412D01*
X480695Y48012D01*
X480695Y45672D02*
X487045Y45672D01*
X487045Y30232D02*
X480695Y30232D01*
X487045Y30232D02*
X487045Y24632D01*
X480695Y24632D01*
X480695Y30232D01*
X480695Y27892D02*
X487045Y27892D01*
X537845Y144520D02*
X544195Y144520D01*
X537845Y144520D02*
X537845Y150120D01*
X544195Y150120D01*
X544195Y144520D01*
X544195Y147780D02*
X537845Y147780D01*
X537845Y162300D02*
X544195Y162300D01*
X537845Y162300D02*
X537845Y167900D01*
X544195Y167900D01*
X544195Y162300D01*
X544195Y165560D02*
X537845Y165560D01*
D29*
X538568Y105324D03*
X538568Y126324D03*
D35*
X457835Y21160D03*
X467335Y160D03*
X448335Y160D03*
X457835Y45388D03*
X448335Y66388D03*
X467335Y66388D03*
D24*
X449707Y45345D02*
X443357Y45345D01*
X449707Y45345D02*
X449707Y39745D01*
X443357Y39745D01*
X443357Y45345D01*
X443357Y43005D02*
X449707Y43005D01*
X449707Y27565D02*
X443357Y27565D01*
X449707Y27565D02*
X449707Y21965D01*
X443357Y21965D01*
X443357Y27565D01*
X443357Y25225D02*
X449707Y25225D01*
X465963Y21965D02*
X472313Y21965D01*
X465963Y21965D02*
X465963Y27565D01*
X472313Y27565D01*
X472313Y21965D01*
X472313Y25225D02*
X465963Y25225D01*
X465963Y39745D02*
X472313Y39745D01*
X465963Y39745D02*
X465963Y45345D01*
X472313Y45345D01*
X472313Y39745D01*
X472313Y43005D02*
X465963Y43005D01*
X501136Y77597D02*
X501136Y83947D01*
X506736Y83947D01*
X506736Y77597D01*
X501136Y77597D01*
X501136Y80857D02*
X506736Y80857D01*
X518916Y83947D02*
X518916Y77597D01*
X518916Y83947D02*
X524516Y83947D01*
X524516Y77597D01*
X518916Y77597D01*
X518916Y80857D02*
X524516Y80857D01*
X427234Y-11049D02*
X427234Y-17399D01*
X421634Y-17399D01*
X421634Y-11049D01*
X427234Y-11049D01*
X427234Y-14139D02*
X421634Y-14139D01*
X409454Y-11049D02*
X409454Y-17399D01*
X403854Y-17399D01*
X403854Y-11049D01*
X409454Y-11049D01*
X409454Y-14139D02*
X403854Y-14139D01*
X427234Y-2413D02*
X427234Y3937D01*
X427234Y-2413D02*
X421634Y-2413D01*
X421634Y3937D01*
X427234Y3937D01*
X427234Y847D02*
X421634Y847D01*
X409454Y3937D02*
X409454Y-2413D01*
X403854Y-2413D01*
X403854Y3937D01*
X409454Y3937D01*
X409454Y847D02*
X403854Y847D01*
X427234Y11557D02*
X427234Y17907D01*
X427234Y11557D02*
X421634Y11557D01*
X421634Y17907D01*
X427234Y17907D01*
X427234Y14817D02*
X421634Y14817D01*
X409454Y17907D02*
X409454Y11557D01*
X403854Y11557D01*
X403854Y17907D01*
X409454Y17907D01*
X409454Y14817D02*
X403854Y14817D01*
X319030Y241427D02*
X319030Y247777D01*
X319030Y241427D02*
X313430Y241427D01*
X313430Y247777D01*
X319030Y247777D01*
X319030Y244687D02*
X313430Y244687D01*
X301250Y247777D02*
X301250Y241427D01*
X295650Y241427D01*
X295650Y247777D01*
X301250Y247777D01*
X301250Y244687D02*
X295650Y244687D01*
X319030Y253619D02*
X319030Y259969D01*
X319030Y253619D02*
X313430Y253619D01*
X313430Y259969D01*
X319030Y259969D01*
X319030Y256879D02*
X313430Y256879D01*
X301250Y259969D02*
X301250Y253619D01*
X295650Y253619D01*
X295650Y259969D01*
X301250Y259969D01*
X301250Y256879D02*
X295650Y256879D01*
X319284Y265811D02*
X319284Y272161D01*
X319284Y265811D02*
X313684Y265811D01*
X313684Y272161D01*
X319284Y272161D01*
X319284Y269071D02*
X313684Y269071D01*
X301504Y272161D02*
X301504Y265811D01*
X295904Y265811D01*
X295904Y272161D01*
X301504Y272161D01*
X301504Y269071D02*
X295904Y269071D01*
D47*
X458170Y-115530D03*
X464670Y-115530D03*
X471170Y-115530D03*
X477670Y-115530D03*
X484170Y-115530D03*
D48*
X476670Y-134530D02*
X465670Y-134530D01*
X448670Y-113030D02*
X437670Y-113030D01*
X493670Y-113030D02*
X504670Y-113030D01*
D49*
X-224790Y-2540D03*
X-224790Y7620D03*
X-224790Y-12700D03*
X-214630Y-2540D03*
X-214630Y7620D03*
X-214630Y-12700D03*
X-234950Y-2540D03*
X-234950Y7620D03*
X-234950Y-12700D03*
X-256286Y-85852D03*
X-217170Y-55372D03*
X-201168Y-58166D03*
X-197612Y-53086D03*
X-251714Y86614D03*
X-194564Y-59182D03*
X219710Y-2540D03*
X219710Y-12700D03*
X219710Y7620D03*
X209550Y-2540D03*
X209550Y-12700D03*
X209550Y7620D03*
X229870Y-2540D03*
X229870Y-12700D03*
X229870Y7620D03*
X251206Y80772D03*
X212090Y50292D03*
X196088Y53086D03*
X192532Y48006D03*
X246634Y-91694D03*
X189484Y54102D03*
X-513080Y172720D03*
X-513080Y162560D03*
X-513080Y152400D03*
X-513080Y142240D03*
X-502920Y137160D03*
X-502920Y147320D03*
X-502920Y157480D03*
X-502920Y167640D03*
X-492760Y162560D03*
X-492760Y152400D03*
X-492760Y142240D03*
X-482600Y137160D03*
X-482600Y147320D03*
X-482600Y157480D03*
X-482600Y167640D03*
X-472440Y162560D03*
X-472440Y152400D03*
X-472440Y142240D03*
X-462280Y137160D03*
X-462280Y147320D03*
X-462280Y157480D03*
X-462280Y167640D03*
X-452120Y142240D03*
X-431800Y142240D03*
X-441960Y147320D03*
X-421640Y147320D03*
X-441960Y137160D03*
X-421640Y137160D03*
X-452120Y152400D03*
X-452120Y162560D03*
X387858Y213360D03*
X398018Y213360D03*
X408178Y213360D03*
X418338Y213360D03*
X413258Y203200D03*
X403098Y203200D03*
X392938Y203200D03*
X387858Y193040D03*
X398018Y193040D03*
X408178Y193040D03*
X418338Y193040D03*
X413258Y182880D03*
X403098Y182880D03*
X392938Y182880D03*
X387858Y172720D03*
X398018Y172720D03*
X408178Y172720D03*
X418338Y172720D03*
X423418Y182880D03*
X423418Y203200D03*
X382778Y203200D03*
X382778Y182880D03*
X-383540Y257810D03*
X-397510Y257810D03*
X-389890Y248920D03*
X-359410Y203200D03*
X-373380Y203200D03*
X-387350Y203200D03*
X276098Y-121920D03*
X-124460Y-102616D03*
X-472758Y30480D03*
X363474Y35560D03*
X-523240Y147320D03*
X-523240Y157480D03*
X-523240Y167640D03*
X-533400Y162560D03*
X-533400Y152400D03*
X-533400Y172720D03*
X186690Y-122682D03*
X361188Y76454D03*
X395224Y14986D03*
X395224Y762D03*
X395224Y-13970D03*
X-192786Y-27305D03*
X-187198Y-27305D03*
X-190246Y-22479D03*
X-190246Y17399D03*
X-186944Y22225D03*
X-192786Y22225D03*
X187706Y22225D03*
X182118Y22225D03*
X185166Y17399D03*
X185166Y-22479D03*
X181864Y-27305D03*
X187706Y-27305D03*
X-453652Y275366D03*
X-445398Y270620D03*
X-453652Y265096D03*
X-445398Y259334D03*
X-453780Y255016D03*
X197993Y-40640D03*
X195707Y-35052D03*
X191643Y-40132D03*
X-244602Y-85598D03*
X239522Y80518D03*
X-360680Y91440D03*
X-370840Y91440D03*
X-381000Y91440D03*
X-391160Y91440D03*
X-401320Y91440D03*
X-411480Y91440D03*
X-416560Y101600D03*
X-406400Y101600D03*
X-396240Y101600D03*
X-386080Y101600D03*
X-411480Y111760D03*
X423672Y-92238D03*
X-116332Y-109474D03*
X276606Y-134112D03*
X-101600Y-116840D03*
X-50800Y-116840D03*
X0Y-116840D03*
X50800Y-116840D03*
X101600Y-116840D03*
X-472758Y-58420D03*
X-472758Y20320D03*
X-472758Y99060D03*
X363474Y25400D03*
X346710Y257556D03*
X288861Y41847D03*
X288643Y25400D03*
X495046Y27432D03*
X444246Y-64516D03*
X524510Y197104D03*
X471170Y-84074D03*
X440218Y-42454D03*
X433070Y-49530D03*
X464592Y-91539D03*
X469138Y-13208D03*
X532130Y219202D03*
X478536Y-13462D03*
X538480Y231902D03*
X346710Y244348D03*
X456438Y31496D03*
X424942Y31750D03*
X329692Y48768D03*
X486410Y244348D03*
X-472758Y10160D03*
X30142Y-124460D03*
X326898Y35560D03*
X486410Y206502D03*
X-472504Y353D03*
X38354Y-131417D03*
X315020Y117856D03*
X315020Y130556D03*
X315020Y143256D03*
X-259846Y-16764D03*
X-256540Y-47244D03*
X-203073Y-40640D03*
X-200787Y-35052D03*
X-196723Y-40132D03*
X-203073Y35560D03*
X-200787Y29972D03*
X-196723Y35052D03*
X197993Y35560D03*
X195707Y29972D03*
X191643Y35052D03*
X254766Y11684D03*
X251460Y42164D03*
X466598Y117602D03*
X-100584Y-106680D03*
X-472758Y-78740D03*
X524002Y168402D03*
X-472758Y-99060D03*
X520954Y257048D03*
X-472758Y-88900D03*
X524256Y181102D03*
X311404Y-70612D03*
X360680Y231140D03*
X303800Y-81713D03*
X353568Y219202D03*
X315020Y155702D03*
X314960Y167640D03*
X-472758Y-68580D03*
X524002Y155702D03*
X346710Y181102D03*
M02*
